<svg width="17" height="24" viewBox="0 0 17 24" fill="none" xmlns="http://www.w3.org/2000/svg">
    <path d="M4.09831 2.2039e-10C4.05167 -2.11608e-06 4.0063 0.0152372 3.96911 0.0433981C3.93192 0.0715591 3.90496 0.111099 3.89231 0.156C3.57631 1.26 4.07131 2.306 4.73031 3.091C4.88331 3.272 5.04331 3.438 5.20631 3.592C4.98505 3.56221 4.76039 3.56897 4.54131 3.612C3.35731 3.845 2.34831 4.597 1.80131 6.144C1.64154 6.61539 1.57365 7.11304 1.60131 7.61C1.27054 7.69955 0.978305 7.8952 0.769474 8.1669C0.560643 8.43859 0.446761 8.77132 0.445312 9.114C0.446889 9.47138 0.56882 9.81781 0.791435 10.0974C1.01405 10.377 1.32436 10.5734 1.67231 10.655L1.69831 22.701C1.69831 22.896 1.79831 23.078 1.96231 23.183C1.96494 23.1847 1.96761 23.1864 1.97031 23.188C2.50731 23.498 4.01731 24 7.18031 24C10.4183 24 11.8803 23.322 12.3613 22.96C12.364 22.9577 12.3667 22.9554 12.3693 22.953C12.4338 22.8994 12.4856 22.8323 12.5212 22.7565C12.5568 22.6806 12.5753 22.5978 12.5753 22.514C12.5773 22.17 12.5773 21.378 12.5773 20.91C12.5772 20.8908 12.5809 20.8718 12.5883 20.854C12.5956 20.8363 12.6065 20.8202 12.6202 20.8068C12.634 20.7934 12.6502 20.7828 12.6681 20.7758C12.686 20.7688 12.7051 20.7655 12.7243 20.766C13.1213 20.772 13.5933 20.772 14.0423 20.771C14.2825 20.7718 14.5205 20.7252 14.7427 20.6338C14.9649 20.5425 15.1668 20.4082 15.337 20.2387C15.5072 20.0691 15.6423 19.8677 15.7345 19.6459C15.8267 19.424 15.8742 19.1862 15.8743 18.946V13.142C15.8743 12.6579 15.6821 12.1936 15.3398 11.8512C14.9976 11.5088 14.5334 11.3163 14.0493 11.316H12.7203C12.7013 11.3164 12.6825 11.313 12.6649 11.3059C12.6473 11.2988 12.6313 11.2882 12.6179 11.2747C12.6045 11.2612 12.594 11.2452 12.5871 11.2275C12.5801 11.2099 12.5768 11.191 12.5773 11.172V10.6H12.5843V10.599C12.9599 10.5467 13.304 10.3604 13.5532 10.0745C13.8024 9.78857 13.9398 9.42226 13.9403 9.043C13.9403 8.227 13.3133 7.554 12.5163 7.48C12.4913 6.042 12.0793 5.354 11.7803 4.9C11.7787 4.89763 11.777 4.8953 11.7753 4.893C11.4113 4.383 10.5823 3.611 9.50031 3.577C8.99731 3.561 8.65831 3.701 8.37531 3.831C8.15831 3.931 7.95531 4.008 7.70531 4.051C7.70731 2.765 8.65031 2.07 8.65031 2.07C8.69639 2.03706 8.72752 1.98719 8.73689 1.93133C8.74627 1.87547 8.73311 1.81818 8.70031 1.772C8.70031 1.772 8.61331 1.65 8.49031 1.512C8.36931 1.376 8.22131 1.218 8.02031 1.134C7.9953 1.12337 7.96849 1.1176 7.94131 1.117C7.8878 1.11656 7.83607 1.13618 7.79631 1.172C7.44631 1.48859 7.1507 1.86055 6.92131 2.273C6.87296 2.36199 6.82858 2.45308 6.78831 2.546C6.69945 2.24833 6.57133 1.96383 6.40731 1.7C5.95431 0.978 5.22331 0.436 4.17731 0.016C4.15254 0.00583406 4.12608 0.000406799 4.09931 2.2039e-10L4.09831 2.2039e-10ZM4.25431 0.524C5.10431 0.902 5.68431 1.354 6.04431 1.927C6.31831 2.365 6.47031 2.889 6.52831 3.511C6.51271 3.66448 6.5087 3.81892 6.51631 3.973C6.46009 3.95638 6.40409 3.93905 6.34831 3.921C5.86349 3.62156 5.42827 3.24842 5.05831 2.815C4.50731 2.158 4.12331 1.355 4.25431 0.524V0.524ZM7.96031 1.618C8.03031 1.672 8.10131 1.719 8.17231 1.798C8.20631 1.837 8.20431 1.838 8.23031 1.871C7.89831 2.179 7.16031 3.015 7.27831 4.324C7.28315 4.37881 7.30892 4.42965 7.35026 4.46596C7.3916 4.50228 7.44534 4.52127 7.50031 4.519C7.96931 4.502 8.28231 4.347 8.55631 4.22C8.82931 4.094 9.06431 3.992 9.48731 4.006C10.3623 4.033 11.1263 4.721 11.4263 5.14C11.7213 5.589 12.0763 6.14 12.0893 7.5C11.947 7.52919 11.8092 7.57693 11.6793 7.642C11.5285 7.29788 11.2809 7.00503 10.9666 6.79908C10.6524 6.59313 10.285 6.48297 9.90931 6.482C9.48159 6.48345 9.06633 6.62622 8.72814 6.88809C8.38995 7.14996 8.14778 7.51626 8.03931 7.93C7.87332 7.73126 7.66603 7.57105 7.43186 7.46053C7.19769 7.35 6.94225 7.29181 6.68331 7.29C6.19931 7.29 5.77331 7.495 5.45031 7.807C5.39038 7.35831 5.16997 6.94651 4.82987 6.64777C4.48977 6.34903 4.05298 6.18357 3.60031 6.182C2.95131 6.182 2.38231 6.517 2.04831 7.022C2.07064 6.77154 2.12336 6.52473 2.20531 6.287C2.71531 4.85 3.56031 4.242 4.62531 4.033C4.99231 3.96 5.28931 4.022 5.61531 4.128C5.94031 4.234 6.28631 4.39 6.70931 4.47C6.74321 4.47659 6.7782 4.47489 6.81129 4.46503C6.84438 4.45517 6.8746 4.43745 6.89936 4.41338C6.92412 4.38931 6.94268 4.3596 6.95347 4.3268C6.96426 4.29399 6.96695 4.25907 6.96131 4.225C6.84931 3.555 7.03431 2.959 7.29731 2.481C7.47469 2.16231 7.69809 1.87151 7.96031 1.618V1.618ZM3.60031 6.611C3.83158 6.61031 4.05962 6.66525 4.26519 6.7712C4.47076 6.87714 4.64784 7.03097 4.78148 7.21971C4.91512 7.40846 5.0014 7.62657 5.03305 7.85566C5.06469 8.08475 5.04078 8.31809 4.96331 8.536C4.95279 8.5656 4.94892 8.59715 4.95197 8.62842C4.95501 8.65968 4.9649 8.68989 4.98094 8.7169C4.99697 8.74391 5.01876 8.76706 5.04475 8.78471C5.07074 8.80235 5.10029 8.81406 5.13131 8.819H5.13631C5.18689 8.82719 5.23873 8.81695 5.2824 8.79016C5.32608 8.76337 5.35869 8.7218 5.37431 8.673C5.46251 8.39638 5.63613 8.15484 5.87023 7.98309C6.10432 7.81133 6.38683 7.71821 6.67717 7.7171C6.96751 7.71599 7.25073 7.80695 7.48613 7.9769C7.72153 8.14686 7.897 8.38706 7.98731 8.663C8.00286 8.71447 8.03722 8.75819 8.08354 8.78549C8.12986 8.81278 8.18476 8.82163 8.23731 8.81029C8.28987 8.79895 8.33623 8.76824 8.36717 8.72427C8.39811 8.6803 8.41137 8.6263 8.40431 8.573C8.38259 8.36263 8.40533 8.15004 8.47106 7.94902C8.53678 7.74801 8.64403 7.56305 8.78584 7.40615C8.92766 7.24925 9.10086 7.12392 9.29424 7.03827C9.48761 6.95262 9.69682 6.90858 9.90831 6.909C10.5863 6.909 11.1573 7.354 11.3503 7.965C11.3668 8.0176 11.4029 8.06183 11.4511 8.08847C11.4994 8.1151 11.556 8.1221 11.6093 8.108L11.7593 8.068C11.7771 8.06355 11.7942 8.05682 11.8103 8.048C11.9839 7.94928 12.1804 7.89794 12.3802 7.89914C12.5799 7.90034 12.7758 7.95403 12.9482 8.05482C13.1206 8.15562 13.2635 8.29997 13.3625 8.47342C13.4615 8.64686 13.5132 8.84329 13.5123 9.043C13.5127 9.31877 13.4131 9.58533 13.232 9.79329C13.0509 10.0012 12.8005 10.1365 12.5273 10.174C12.527 10.174 12.5266 10.174 12.5263 10.174C12.3604 10.1975 12.1977 10.2398 12.0413 10.3C11.6567 10.4442 11.264 10.5661 10.8653 10.665C10.8224 10.6755 10.7838 10.699 10.7548 10.7323C10.7258 10.7656 10.7078 10.8071 10.7033 10.851C10.6866 11.0184 10.637 11.1808 10.5573 11.329C10.3756 11.6698 10.2928 12.0546 10.3183 12.44L10.3193 12.591C10.3226 12.6593 10.3099 12.7275 10.2821 12.79C10.2543 12.8525 10.2122 12.9077 10.1593 12.951C10.0367 13.0465 9.8846 13.096 9.72931 13.091C9.65185 13.0913 9.57511 13.0762 9.50352 13.0466C9.43193 13.017 9.36691 12.9735 9.31223 12.9187C9.25755 12.8638 9.21429 12.7986 9.18495 12.7269C9.15562 12.6553 9.14078 12.5785 9.14131 12.501C9.14105 12.3646 9.10602 12.2304 9.03953 12.1113C8.97305 11.9921 8.87729 11.8919 8.76131 11.82C8.76065 11.8193 8.75998 11.8187 8.75931 11.818C8.51931 11.673 8.32931 11.448 8.22731 11.182C8.2115 11.1403 8.18304 11.1046 8.14593 11.0798C8.10881 11.0551 8.06489 11.0426 8.02031 11.044C6.21113 11.0946 4.40372 10.8926 2.65031 10.444L2.64731 10.442C2.37123 10.364 2.09158 10.2993 1.80931 10.248H1.81231C1.54911 10.1964 1.31191 10.0553 1.14107 9.84852C0.970236 9.64176 0.876322 9.3822 0.875313 9.114C0.875313 8.495 1.36331 7.996 1.97631 7.974C2.02534 7.97248 2.07235 7.95417 2.10949 7.92213C2.14662 7.89009 2.17163 7.84627 2.18031 7.798C2.24033 7.46508 2.4154 7.16383 2.67495 6.94686C2.9345 6.7299 3.26203 6.61103 3.60031 6.611V6.611ZM12.1493 10.717V11.172C12.1493 11.486 12.4083 11.745 12.7213 11.745H14.0503C14.4208 11.745 14.7762 11.8922 15.0381 12.1542C15.3001 12.4162 15.4473 12.7715 15.4473 13.142V18.946C15.4473 19.1298 15.411 19.3119 15.3405 19.4816C15.2699 19.6514 15.1666 19.8055 15.0363 19.9352C14.906 20.065 14.7514 20.1677 14.5814 20.2375C14.4113 20.3073 14.2291 20.3428 14.0453 20.342C14.0446 20.342 14.044 20.342 14.0433 20.342C13.5953 20.344 13.1253 20.342 12.7333 20.337C12.6571 20.3355 12.5815 20.3493 12.5107 20.3774C12.4399 20.4056 12.3754 20.4475 12.321 20.5009C12.2666 20.5542 12.2234 20.6179 12.194 20.6882C12.1645 20.7584 12.1493 20.8338 12.1493 20.91C12.1493 21.378 12.1493 22.172 12.1473 22.513C12.1473 22.5133 12.1473 22.5137 12.1473 22.514C12.1473 22.556 12.1283 22.594 12.0973 22.621C11.7513 22.881 10.3473 23.571 7.18231 23.571C4.07531 23.571 2.59531 23.051 2.19231 22.819C2.17262 22.8062 2.15638 22.7887 2.14505 22.7681C2.13371 22.7476 2.12762 22.7245 2.12731 22.701L2.10231 10.746C2.24731 10.779 2.39031 10.816 2.53331 10.856C2.53431 10.856 2.53531 10.856 2.53631 10.856C2.65131 10.887 2.78231 10.92 2.91931 10.953V21.323C2.91931 21.452 2.98831 21.57 3.09931 21.633C3.55231 21.85 4.86631 22.365 7.17031 22.365C9.49031 22.365 10.7653 21.739 11.1923 21.481C11.2426 21.4487 11.2839 21.4043 11.3126 21.3519C11.3412 21.2995 11.3563 21.2407 11.3563 21.181L11.3573 10.971C11.6243 10.896 11.8883 10.813 12.1493 10.717V10.717ZM4.15931 11.611C4.22414 11.6109 4.28835 11.6235 4.34828 11.6482C4.40821 11.673 4.46268 11.7092 4.50856 11.755C4.55445 11.8008 4.59085 11.8552 4.61569 11.9151C4.64053 11.975 4.65331 12.0392 4.65331 12.104V20.682C4.65331 20.8128 4.60137 20.9381 4.50892 21.0306C4.41646 21.1231 4.29106 21.175 4.16031 21.175C4.09549 21.1751 4.03127 21.1625 3.97134 21.1378C3.91141 21.113 3.85695 21.0768 3.81106 21.031C3.76518 20.9852 3.72877 20.9308 3.70394 20.8709C3.6791 20.811 3.66631 20.7468 3.66631 20.682V12.104C3.66631 12.0392 3.6791 11.975 3.70394 11.9151C3.72877 11.8552 3.76518 11.8008 3.81106 11.755C3.85695 11.7092 3.91141 11.673 3.97134 11.6482C4.03127 11.6235 4.09549 11.6109 4.16031 11.611H4.15931ZM12.8113 12.751C12.6358 12.7513 12.4676 12.8211 12.3435 12.9452C12.2194 13.0693 12.1496 13.2375 12.1493 13.413V18.621C12.1496 18.7965 12.2194 18.9647 12.3435 19.0888C12.4676 19.2129 12.6358 19.2827 12.8113 19.283H13.9513C14.1268 19.2827 14.295 19.2129 14.4191 19.0888C14.5432 18.9647 14.613 18.7965 14.6133 18.621V13.412C14.613 13.2365 14.5432 13.0683 14.4191 12.9442C14.295 12.8201 14.1268 12.7503 13.9513 12.75L12.8113 12.751ZM12.8113 13.179H13.9513C14.0131 13.179 14.0724 13.2035 14.1161 13.2472C14.1598 13.2909 14.1843 13.3502 14.1843 13.412V18.622C14.184 18.6836 14.1594 18.7426 14.1157 18.7861C14.072 18.8296 14.0129 18.854 13.9513 18.854H12.8113C12.7495 18.854 12.6903 18.8295 12.6466 18.7858C12.6029 18.7421 12.5783 18.6828 12.5783 18.621V13.412C12.5783 13.3502 12.6029 13.2909 12.6466 13.2472C12.6903 13.2035 12.7495 13.179 12.8113 13.179V13.179Z" fill="white" />
</svg>
