<svg width="446" height="469" viewBox="0 0 446 469" fill="none" xmlns="http://www.w3.org/2000/svg">
<g filter="url(#filter0_d)">
<rect x="31" y="6" width="384" height="407" rx="10" fill="#282828"/>
<path d="M62.92 63.01V66.01C63.7267 66.09 64.44 66.28 65.06 66.58C65.6867 66.88 66.2133 67.2233 66.64 67.61L65.53 68.76C64.7633 68.06 63.8933 67.65 62.92 67.53V71.92C63.6267 72.1467 64.2733 72.4367 64.86 72.79C65.4533 73.1433 65.9267 73.5933 66.28 74.14C66.64 74.68 66.82 75.3533 66.82 76.16C66.82 76.8133 66.6733 77.4233 66.38 77.99C66.0867 78.5567 65.65 79.0333 65.07 79.42C64.4967 79.8067 63.78 80.0567 62.92 80.17V83.09H61.53V80.23C60.5767 80.1633 59.7433 79.9433 59.03 79.57C58.3233 79.1967 57.7433 78.7867 57.29 78.34L58.38 77.13C58.8 77.55 59.2667 77.8967 59.78 78.17C60.3 78.4433 60.8833 78.6067 61.53 78.66V73.35C60.3167 72.9433 59.3933 72.4333 58.76 71.82C58.1267 71.2 57.81 70.4267 57.81 69.5C57.81 68.9333 57.95 68.4 58.23 67.9C58.51 67.4 58.9233 66.98 59.47 66.64C60.0233 66.3 60.71 66.09 61.53 66.01V63.01H62.92ZM61.53 67.57C61.0033 67.6567 60.5767 67.8567 60.25 68.17C59.93 68.4767 59.77 68.8933 59.77 69.42C59.77 69.86 59.8867 70.2367 60.12 70.55C60.36 70.8567 60.83 71.1567 61.53 71.45V67.57ZM62.92 73.84V78.58C64.1867 78.32 64.82 77.54 64.82 76.24C64.82 75.7133 64.6833 75.26 64.41 74.88C64.1367 74.4933 63.64 74.1467 62.92 73.84Z" fill="#FFB61D"/>
<path d="M85.4244 78.72C86.191 78.72 86.7944 78.58 87.2344 78.3C87.681 78.02 87.9044 77.64 87.9044 77.16C87.9044 76.8533 87.8444 76.5933 87.7244 76.38C87.611 76.16 87.371 75.96 87.0044 75.78C86.6444 75.5933 86.0977 75.4067 85.3644 75.22C84.6444 75.04 84.0177 74.83 83.4844 74.59C82.9577 74.35 82.5477 74.0367 82.2544 73.65C81.9677 73.2633 81.8244 72.7633 81.8244 72.15C81.8244 71.2567 82.1977 70.5433 82.9444 70.01C83.691 69.4767 84.681 69.21 85.9144 69.21C86.781 69.21 87.5344 69.3267 88.1744 69.56C88.8144 69.7867 89.361 70.0667 89.8144 70.4L88.9944 71.65C88.5877 71.3833 88.141 71.1633 87.6544 70.99C87.1744 70.81 86.6077 70.72 85.9544 70.72C85.1744 70.72 84.6177 70.84 84.2844 71.08C83.9577 71.3133 83.7944 71.6233 83.7944 72.01C83.7944 72.3033 83.8744 72.5467 84.0344 72.74C84.201 72.9267 84.4844 73.1 84.8844 73.26C85.2844 73.4133 85.8377 73.5867 86.5444 73.78C87.231 73.9667 87.831 74.1867 88.3444 74.44C88.8577 74.6933 89.2544 75.0267 89.5344 75.44C89.821 75.8467 89.9644 76.3833 89.9644 77.05C89.9644 77.8033 89.7477 78.4167 89.3144 78.89C88.881 79.3567 88.3177 79.7 87.6244 79.92C86.9377 80.14 86.2044 80.25 85.4244 80.25C84.4644 80.25 83.6377 80.11 82.9444 79.83C82.2577 79.55 81.681 79.2067 81.2144 78.8L82.2744 77.58C82.681 77.92 83.151 78.1967 83.6844 78.41C84.2244 78.6167 84.8044 78.72 85.4244 78.72ZM95.1966 75.38C95.2499 76.54 95.5632 77.3833 96.1366 77.91C96.7166 78.4367 97.4032 78.7 98.1966 78.7C98.7232 78.7 99.2066 78.62 99.6466 78.46C100.087 78.3 100.533 78.0667 100.987 77.76L101.857 78.97C101.363 79.3633 100.793 79.6767 100.147 79.91C99.4999 80.1367 98.8299 80.25 98.1366 80.25C97.0832 80.25 96.1866 80.02 95.4466 79.56C94.7132 79.0933 94.1532 78.4467 93.7666 77.62C93.3866 76.7933 93.1966 75.8333 93.1966 74.74C93.1966 73.68 93.3866 72.7333 93.7666 71.9C94.1532 71.0667 94.6966 70.41 95.3966 69.93C96.0966 69.45 96.9299 69.21 97.8966 69.21C99.2566 69.21 100.327 69.6767 101.107 70.61C101.893 71.5367 102.287 72.8067 102.287 74.42C102.287 74.6 102.283 74.7733 102.277 74.94C102.27 75.1067 102.26 75.2533 102.247 75.38H95.1966ZM97.9166 70.71C97.1632 70.71 96.5399 70.9767 96.0466 71.51C95.5532 72.0433 95.2699 72.8667 95.1966 73.98H100.437C100.417 72.9133 100.183 72.1033 99.7366 71.55C99.2966 70.99 98.6899 70.71 97.9166 70.71ZM110.459 78.63C110.972 78.63 111.449 78.5467 111.889 78.38C112.335 78.2067 112.752 77.9833 113.139 77.71L114.059 78.96C113.592 79.3467 113.032 79.66 112.379 79.9C111.732 80.1333 111.082 80.25 110.429 80.25C109.369 80.25 108.462 80.0233 107.709 79.57C106.962 79.1167 106.392 78.48 105.999 77.66C105.605 76.84 105.409 75.88 105.409 74.78C105.409 73.7133 105.605 72.7633 105.999 71.93C106.399 71.09 106.975 70.4267 107.729 69.94C108.482 69.4533 109.392 69.21 110.459 69.21C111.832 69.21 113.025 69.6233 114.039 70.45L113.129 71.7C112.242 71.0867 111.355 70.78 110.469 70.78C109.589 70.78 108.869 71.1067 108.309 71.76C107.749 72.4133 107.469 73.42 107.469 74.78C107.469 76.1467 107.749 77.13 108.309 77.73C108.875 78.33 109.592 78.63 110.459 78.63ZM124.561 69.21C124.921 69.21 125.258 69.29 125.571 69.45C125.891 69.61 126.148 69.9033 126.341 70.33C126.534 70.75 126.631 71.36 126.631 72.16V80H124.881V72.44C124.881 71.8267 124.841 71.3867 124.761 71.12C124.688 70.8467 124.474 70.71 124.121 70.71C123.828 70.71 123.534 70.8 123.241 70.98C122.954 71.16 122.674 71.46 122.401 71.88V80H120.721V72.44C120.721 71.8267 120.681 71.3867 120.601 71.12C120.528 70.8467 120.314 70.71 119.961 70.71C119.661 70.71 119.368 70.8 119.081 70.98C118.794 71.16 118.514 71.46 118.241 71.88V80H116.491V69.46H117.971L118.091 70.64C118.384 70.2333 118.708 69.8933 119.061 69.62C119.421 69.3467 119.858 69.21 120.371 69.21C120.771 69.21 121.141 69.3067 121.481 69.5C121.828 69.6933 122.081 70.0533 122.241 70.58C122.528 70.1733 122.854 69.8433 123.221 69.59C123.588 69.3367 124.034 69.21 124.561 69.21ZM137.153 77.58C137.153 78 137.22 78.3067 137.353 78.5C137.486 78.6867 137.696 78.8267 137.983 78.92L137.533 80.24C137.053 80.18 136.633 80.0367 136.273 79.81C135.92 79.5833 135.66 79.2367 135.493 78.77C135.113 79.2633 134.633 79.6333 134.053 79.88C133.473 80.1267 132.843 80.25 132.163 80.25C131.103 80.25 130.266 79.95 129.653 79.35C129.04 78.75 128.733 77.96 128.733 76.98C128.733 75.8867 129.16 75.0467 130.013 74.46C130.873 73.8667 132.106 73.57 133.713 73.57H135.243V72.77C135.243 72.0433 135.026 71.5267 134.593 71.22C134.166 70.9133 133.57 70.76 132.803 70.76C132.45 70.76 132.033 70.8033 131.553 70.89C131.08 70.9767 130.573 71.1133 130.033 71.3L129.543 69.9C130.19 69.6533 130.813 69.4767 131.413 69.37C132.013 69.2633 132.573 69.21 133.093 69.21C134.446 69.21 135.46 69.52 136.133 70.14C136.813 70.76 137.153 71.6033 137.153 72.67V77.58ZM132.703 78.81C133.19 78.81 133.66 78.6833 134.113 78.43C134.573 78.1767 134.95 77.8233 135.243 77.37V74.82H133.843C132.73 74.82 131.94 75.01 131.473 75.39C131.006 75.7633 130.773 76.2767 130.773 76.93C130.773 78.1833 131.416 78.81 132.703 78.81ZM141.295 80V69.46H142.945L143.085 70.88C143.519 70.34 144.045 69.9267 144.665 69.64C145.292 69.3533 145.915 69.21 146.535 69.21C147.549 69.21 148.295 69.4867 148.775 70.04C149.255 70.5867 149.495 71.35 149.495 72.33V80H147.575V73.51C147.575 72.8433 147.535 72.3033 147.455 71.89C147.382 71.4767 147.225 71.1767 146.985 70.99C146.745 70.7967 146.382 70.7 145.895 70.7C145.322 70.7 144.802 70.8767 144.335 71.23C143.869 71.5833 143.495 71.9633 143.215 72.37V80H141.295Z" fill="#EFEFEF"/>
<rect x="30.75" y="5.75" width="384.5" height="407.5" rx="10.25" stroke="white" stroke-opacity="0.12" stroke-width="0.5"/>
<g filter="url(#filter1_di)">
<path d="M31 22C31 16.3995 31 13.5992 32.0899 11.4601C33.0487 9.57847 34.5785 8.04867 36.4601 7.08993C38.5992 6 41.3995 6 47 6H399C404.601 6 407.401 6 409.54 7.08993C411.422 8.04867 412.951 9.57847 413.91 11.4601C415 13.5992 415 16.3995 415 22V34H31V22Z" fill="#1E1E1E"/>
<path fill-rule="evenodd" clip-rule="evenodd" d="M45 26C48.3137 26 51 23.3137 51 20C51 16.6863 48.3137 14 45 14C41.6863 14 39 16.6863 39 20C39 23.3137 41.6863 26 45 26Z" fill="#FF5E57"/>
<path fill-rule="evenodd" clip-rule="evenodd" d="M65 26C68.3137 26 71 23.3137 71 20C71 16.6863 68.3137 14 65 14C61.6863 14 59 16.6863 59 20C59 23.3137 61.6863 26 65 26Z" fill="#FFBB2E"/>
<path fill-rule="evenodd" clip-rule="evenodd" d="M85 26C88.3137 26 91 23.3137 91 20C91 16.6863 88.3137 14 85 14C81.6863 14 79 16.6863 79 20C79 23.3137 81.6863 26 85 26Z" fill="#38C149"/>
</g>
</g>
<path d="M59.7477 103.983C59.7477 103.657 59.8246 103.358 59.9785 103.087C60.1385 102.817 60.3538 102.601 60.6246 102.441C60.8954 102.281 61.1969 102.201 61.5292 102.201C61.8615 102.201 62.1631 102.281 62.4338 102.441C62.7108 102.601 62.9262 102.817 63.08 103.087C63.24 103.358 63.32 103.657 63.32 103.983C63.32 104.309 63.24 104.611 63.08 104.887C62.92 105.158 62.7046 105.374 62.4338 105.534C62.1631 105.694 61.8615 105.774 61.5292 105.774C61.2031 105.774 60.9015 105.694 60.6246 105.534C60.3538 105.374 60.1385 105.158 59.9785 104.887C59.8246 104.611 59.7477 104.309 59.7477 103.983ZM60.8 109.063H62.2769V120.324H67.1692V121.801H62.2769V136.755H60.8V109.063ZM66.9099 120.324H78.1714V121.801H66.9099V120.324ZM77.9121 120.324H89.1737V121.801H77.9121V120.324ZM98.8282 127.524H91.2128V114.786H93.3543V125.734H99.059L98.8282 127.524ZM105.557 117.518C106.492 117.518 107.289 117.727 107.947 118.146C108.606 118.564 109.104 119.158 109.443 119.927C109.781 120.691 109.95 121.592 109.95 122.632C109.95 123.666 109.778 124.571 109.433 125.346C109.089 126.115 108.587 126.712 107.929 127.137C107.27 127.561 106.477 127.774 105.547 127.774C104.612 127.774 103.815 127.567 103.157 127.155C102.498 126.743 101.997 126.152 101.652 125.383C101.313 124.614 101.144 123.703 101.144 122.651C101.144 121.635 101.317 120.74 101.661 119.964C102.006 119.189 102.507 118.589 103.166 118.164C103.83 117.734 104.627 117.518 105.557 117.518ZM105.557 119.124C104.806 119.124 104.243 119.414 103.867 119.992C103.498 120.564 103.313 121.451 103.313 122.651C103.313 123.851 103.498 124.74 103.867 125.318C104.237 125.891 104.797 126.177 105.547 126.177C106.298 126.177 106.858 125.891 107.227 125.318C107.597 124.74 107.781 123.844 107.781 122.632C107.781 121.438 107.597 120.555 107.227 119.983C106.858 119.411 106.301 119.124 105.557 119.124ZM121.414 118.257C121.051 118.38 120.642 118.466 120.186 118.515C119.737 118.558 119.202 118.58 118.58 118.58C119.171 118.844 119.611 119.18 119.9 119.586C120.196 119.986 120.343 120.475 120.343 121.054C120.343 121.694 120.186 122.263 119.873 122.761C119.565 123.26 119.122 123.651 118.543 123.934C117.965 124.211 117.285 124.349 116.503 124.349C115.974 124.349 115.528 124.297 115.165 124.192C115.036 124.278 114.931 124.395 114.851 124.543C114.771 124.691 114.731 124.841 114.731 124.995C114.731 125.223 114.82 125.401 114.999 125.531C115.177 125.66 115.494 125.724 115.95 125.724H117.648C118.331 125.724 118.94 125.844 119.476 126.084C120.017 126.318 120.439 126.641 120.74 127.054C121.048 127.466 121.202 127.927 121.202 128.438C121.202 129.084 121.014 129.635 120.639 130.091C120.263 130.552 119.71 130.903 118.977 131.143C118.251 131.383 117.368 131.503 116.328 131.503C115.233 131.503 114.368 131.389 113.734 131.161C113.1 130.94 112.648 130.611 112.377 130.174C112.113 129.737 111.98 129.177 111.98 128.494H113.836C113.836 128.857 113.903 129.146 114.039 129.361C114.18 129.577 114.433 129.737 114.796 129.841C115.159 129.946 115.676 129.998 116.346 129.998C117.331 129.998 118.039 129.878 118.47 129.638C118.906 129.398 119.125 129.044 119.125 128.577C119.125 128.183 118.953 127.878 118.608 127.663C118.27 127.447 117.808 127.34 117.223 127.34H115.553C114.962 127.34 114.466 127.257 114.066 127.091C113.666 126.918 113.368 126.691 113.171 126.407C112.98 126.124 112.885 125.811 112.885 125.466C112.885 125.134 112.977 124.814 113.162 124.506C113.353 124.198 113.623 123.931 113.974 123.703C113.39 123.401 112.962 123.032 112.691 122.595C112.426 122.152 112.294 121.614 112.294 120.98C112.294 120.303 112.466 119.703 112.811 119.18C113.156 118.657 113.636 118.251 114.251 117.961C114.866 117.672 115.571 117.527 116.365 117.527C117.103 117.527 117.734 117.487 118.257 117.407C118.786 117.327 119.236 117.22 119.605 117.084C119.98 116.949 120.399 116.767 120.86 116.54L121.414 118.257ZM116.383 118.949C115.743 118.949 115.251 119.131 114.906 119.494C114.568 119.857 114.399 120.346 114.399 120.961C114.399 121.589 114.571 122.087 114.916 122.457C115.26 122.82 115.759 123.001 116.411 123.001C117.02 123.001 117.485 122.823 117.805 122.466C118.131 122.109 118.294 121.601 118.294 120.943C118.294 119.614 117.657 118.949 116.383 118.949ZM127.543 113.004C127.943 113.004 128.269 113.127 128.521 113.374C128.773 113.62 128.899 113.927 128.899 114.297C128.899 114.672 128.773 114.986 128.521 115.238C128.269 115.484 127.943 115.607 127.543 115.607C127.149 115.607 126.826 115.484 126.573 115.238C126.321 114.986 126.195 114.672 126.195 114.297C126.195 113.927 126.321 113.62 126.573 113.374C126.826 113.127 127.149 113.004 127.543 113.004ZM124.09 117.777H128.983V126.011H131.632V127.524H123.998V126.011H126.915V119.291H124.09V117.777ZM134.659 127.524V117.777H136.44L136.597 119.041C136.997 118.555 137.474 118.18 138.028 117.915C138.582 117.651 139.154 117.518 139.745 117.518C140.643 117.518 141.32 117.771 141.776 118.275C142.237 118.774 142.468 119.487 142.468 120.417V127.524H140.4V121.441C140.4 120.838 140.363 120.374 140.289 120.047C140.222 119.721 140.086 119.481 139.883 119.327C139.686 119.174 139.394 119.097 139.006 119.097C138.563 119.097 138.145 119.232 137.751 119.503C137.363 119.774 137.022 120.115 136.726 120.527V127.524H134.659ZM149.205 126.186C149.858 126.186 150.372 126.072 150.747 125.844C151.129 125.611 151.319 125.291 151.319 124.884C151.319 124.601 151.261 124.371 151.144 124.192C151.033 124.014 150.812 123.847 150.479 123.694C150.147 123.534 149.645 123.367 148.975 123.195C148.273 123.017 147.692 122.814 147.23 122.586C146.769 122.352 146.409 122.054 146.15 121.691C145.898 121.321 145.772 120.863 145.772 120.315C145.772 119.761 145.929 119.275 146.242 118.857C146.562 118.432 147.015 118.103 147.599 117.869C148.19 117.635 148.879 117.518 149.667 117.518C151.113 117.518 152.347 117.894 153.369 118.644L152.501 119.946C152.089 119.675 151.655 119.466 151.199 119.318C150.75 119.164 150.258 119.087 149.722 119.087C148.492 119.087 147.876 119.447 147.876 120.167C147.876 120.414 147.947 120.617 148.089 120.777C148.23 120.931 148.47 121.078 148.809 121.22C149.153 121.355 149.67 121.518 150.359 121.709C151.061 121.906 151.636 122.121 152.085 122.355C152.535 122.589 152.882 122.897 153.129 123.278C153.381 123.66 153.507 124.149 153.507 124.746C153.507 125.417 153.31 125.98 152.916 126.435C152.522 126.891 151.999 127.229 151.347 127.451C150.701 127.666 149.987 127.774 149.205 127.774C148.35 127.774 147.59 127.651 146.925 127.404C146.261 127.158 145.685 126.823 145.199 126.398L146.298 125.143C146.692 125.469 147.135 125.724 147.627 125.909C148.125 126.094 148.652 126.186 149.205 126.186ZM60.5969 132.909H62.48V155.063H60.5969V132.909ZM93.8067 131.063H95.2836V142.324H100.176V143.801H95.2836V158.755H93.8067V131.063ZM99.9166 142.324H111.178V143.801H99.9166V142.324ZM110.919 142.324H122.18V143.801H110.919V142.324ZM132.287 138.512H128.595V149.524H126.453V138.512H122.632V136.786H132.509L132.287 138.512ZM143.871 139.777L142.283 149.524H139.699L138.6 142.601L137.419 149.524H134.889L133.237 139.777H135.231L136.246 148.241L137.603 141.014H139.671L140.936 148.241L141.951 139.777H143.871ZM149.547 135.004C149.947 135.004 150.273 135.127 150.525 135.374C150.778 135.62 150.904 135.927 150.904 136.297C150.904 136.672 150.778 136.986 150.525 137.238C150.273 137.484 149.947 137.607 149.547 137.607C149.153 137.607 148.83 137.484 148.578 137.238C148.325 136.986 148.199 136.672 148.199 136.297C148.199 135.927 148.325 135.62 148.578 135.374C148.83 135.127 149.153 135.004 149.547 135.004ZM146.095 139.777H150.987V148.011H153.636V149.524H146.002V148.011H148.919V141.291H146.095V139.777ZM164.805 149.007C164.442 149.241 164.008 149.426 163.503 149.561C163.005 149.703 162.491 149.774 161.962 149.774C161.217 149.774 160.586 149.641 160.069 149.377C159.552 149.112 159.162 148.74 158.897 148.26C158.632 147.78 158.5 147.217 158.5 146.571V141.281H156.331V139.777H158.5V137.598L160.568 137.349V139.777H163.854L163.623 141.281H160.568V146.552C160.568 147.081 160.7 147.472 160.965 147.724C161.229 147.977 161.657 148.103 162.248 148.103C162.9 148.103 163.503 147.949 164.057 147.641L164.805 149.007ZM175.807 149.007C175.444 149.241 175.01 149.426 174.505 149.561C174.007 149.703 173.493 149.774 172.964 149.774C172.219 149.774 171.588 149.641 171.071 149.377C170.554 149.112 170.164 148.74 169.899 148.26C169.634 147.78 169.502 147.217 169.502 146.571V141.281H167.333V139.777H169.502V137.598L171.57 137.349V139.777H174.856L174.625 141.281H171.57V146.552C171.57 147.081 171.702 147.472 171.967 147.724C172.231 147.977 172.659 148.103 173.25 148.103C173.902 148.103 174.505 147.949 175.059 147.641L175.807 149.007ZM180.384 145.315C180.44 146.269 180.707 146.983 181.187 147.457C181.674 147.931 182.292 148.167 183.043 148.167C183.504 148.167 183.938 148.097 184.344 147.955C184.751 147.814 185.169 147.601 185.6 147.318L186.495 148.555C186.034 148.937 185.495 149.235 184.88 149.451C184.264 149.666 183.618 149.774 182.941 149.774C181.951 149.774 181.101 149.561 180.394 149.137C179.686 148.706 179.151 148.106 178.787 147.337C178.424 146.567 178.243 145.675 178.243 144.66C178.243 143.681 178.421 142.804 178.778 142.029C179.141 141.247 179.658 140.635 180.329 140.192C181 139.743 181.787 139.518 182.692 139.518C183.547 139.518 184.289 139.715 184.917 140.109C185.551 140.497 186.037 141.057 186.375 141.789C186.72 142.521 186.892 143.389 186.892 144.392C186.892 144.731 186.877 145.038 186.846 145.315H180.384ZM182.711 141.051C182.04 141.051 181.498 141.291 181.086 141.771C180.674 142.244 180.437 142.955 180.375 143.903H184.889C184.871 142.986 184.674 142.281 184.298 141.789C183.923 141.297 183.394 141.051 182.711 141.051ZM196.584 139.527C196.854 139.527 197.104 139.549 197.331 139.592C197.559 139.635 197.799 139.697 198.051 139.777L197.7 143.367H196.224V141.383C195.54 141.407 194.95 141.681 194.451 142.204C193.953 142.721 193.556 143.463 193.26 144.429V148.047H195.227V149.524H189.762V148.047H191.193V141.244H189.762V139.777H192.771L193.15 142.038C193.525 141.195 193.984 140.567 194.525 140.155C195.073 139.737 195.759 139.527 196.584 139.527ZM60.5969 154.909H62.48V177.063H60.5969V154.909ZM93.8067 153.063H95.2836V164.324H100.176V165.801H95.2836V180.755H93.8067V153.063ZM99.9166 164.324H111.178V165.801H99.9166V164.324ZM110.919 164.324H122.18V165.801H110.919V164.324ZM127.884 171.774C126.795 171.774 125.863 171.524 125.087 171.026C124.312 170.527 123.718 169.783 123.306 168.792C122.899 167.801 122.696 166.583 122.696 165.137C122.696 163.734 122.946 162.537 123.444 161.546C123.949 160.549 124.623 159.798 125.466 159.294C126.309 158.783 127.238 158.527 128.253 158.527C129.078 158.527 129.783 158.651 130.367 158.897C130.952 159.137 131.512 159.503 132.047 159.995L130.847 161.241C130.453 160.884 130.053 160.623 129.647 160.457C129.247 160.284 128.801 160.198 128.309 160.198C127.675 160.198 127.106 160.364 126.601 160.697C126.096 161.023 125.693 161.555 125.392 162.294C125.09 163.032 124.939 163.983 124.939 165.146C124.939 166.321 125.05 167.275 125.272 168.007C125.499 168.734 125.835 169.266 126.278 169.604C126.727 169.937 127.296 170.103 127.986 170.103C128.73 170.103 129.432 169.924 130.09 169.567V166.06H127.93L127.699 164.426H132.167V170.601C131.503 170.977 130.829 171.266 130.146 171.469C129.469 171.672 128.715 171.774 127.884 171.774ZM138.545 157.004C138.945 157.004 139.271 157.127 139.523 157.374C139.776 157.62 139.902 157.927 139.902 158.297C139.902 158.672 139.776 158.986 139.523 159.238C139.271 159.484 138.945 159.607 138.545 159.607C138.151 159.607 137.828 159.484 137.576 159.238C137.323 158.986 137.197 158.672 137.197 158.297C137.197 157.927 137.323 157.62 137.576 157.374C137.828 157.127 138.151 157.004 138.545 157.004ZM135.092 161.777H139.985V170.011H142.634V171.524H135V170.011H137.917V163.291H135.092V161.777ZM153.802 171.007C153.439 171.241 153.005 171.426 152.501 171.561C152.002 171.703 151.489 171.774 150.959 171.774C150.215 171.774 149.584 171.641 149.067 171.377C148.55 171.112 148.159 170.74 147.895 170.26C147.63 169.78 147.498 169.217 147.498 168.571V163.281H145.329V161.777H147.498V159.598L149.565 159.349V161.777H152.852L152.621 163.281H149.565V168.552C149.565 169.081 149.698 169.472 149.962 169.724C150.227 169.977 150.655 170.103 151.245 170.103C151.898 170.103 152.501 169.949 153.055 169.641L153.802 171.007ZM164.777 171.524H162.635V165.737H158.482V171.524H156.34V158.786H158.482V163.974H162.635V158.786H164.777V171.524ZM169.733 168.589C169.733 169.155 169.844 169.564 170.065 169.817C170.293 170.069 170.647 170.195 171.127 170.195C171.558 170.195 171.979 170.066 172.391 169.807C172.81 169.549 173.142 169.223 173.388 168.829V161.777H175.456V171.524H173.674L173.545 170.278C173.188 170.752 172.733 171.121 172.179 171.386C171.631 171.644 171.062 171.774 170.471 171.774C169.542 171.774 168.841 171.518 168.367 171.007C167.899 170.497 167.665 169.777 167.665 168.847V161.777H169.733V168.589ZM180.735 162.94C181.08 162.484 181.48 162.134 181.935 161.887C182.391 161.641 182.883 161.518 183.412 161.518C184.649 161.518 185.563 161.967 186.154 162.866C186.744 163.758 187.04 165.014 187.04 166.632C187.04 167.635 186.889 168.524 186.587 169.3C186.292 170.075 185.852 170.681 185.267 171.118C184.683 171.555 183.981 171.774 183.163 171.774C182.074 171.774 181.218 171.371 180.597 170.564L180.486 171.524H178.667V157.863L180.735 157.632V162.94ZM182.646 170.195C183.36 170.195 183.904 169.903 184.28 169.318C184.661 168.734 184.852 167.841 184.852 166.641C184.852 165.423 184.683 164.531 184.344 163.964C184.006 163.398 183.507 163.115 182.849 163.115C182.418 163.115 182.024 163.244 181.667 163.503C181.317 163.755 181.006 164.091 180.735 164.509V169.069C180.963 169.426 181.24 169.703 181.566 169.9C181.898 170.097 182.258 170.195 182.646 170.195ZM60.5969 176.909H62.48V199.063H60.5969V176.909ZM93.8067 175.063H95.2836V186.324H100.176V187.801H93.8067V175.063ZM99.9166 186.324H111.178V187.801H99.9166V186.324ZM110.919 186.324H122.18V187.801H110.919V186.324ZM131.521 182.411H126.241V186.241H130.856V187.866H126.241V191.9H131.863V193.524H124.099V180.786H131.761L131.521 182.411ZM138.48 189.546L136.099 193.524H133.809L137.308 188.383L134.197 183.777H136.579L138.572 187.211L140.566 183.777H142.837L139.791 188.3L143.299 193.524H140.871L138.48 189.546ZM150.415 183.518C152.778 183.518 153.959 185.223 153.959 188.632C153.959 189.641 153.815 190.534 153.525 191.309C153.242 192.078 152.818 192.681 152.252 193.118C151.692 193.555 151.009 193.774 150.202 193.774C149.181 193.774 148.356 193.414 147.729 192.694V197.272L145.661 197.503V183.777H147.461L147.59 185.032C147.953 184.534 148.378 184.158 148.864 183.906C149.35 183.647 149.867 183.518 150.415 183.518ZM149.842 185.115C149.412 185.115 149.018 185.244 148.661 185.503C148.31 185.755 147.999 186.091 147.729 186.509V191.069C148.215 191.795 148.858 192.158 149.658 192.158C150.365 192.158 150.898 191.875 151.255 191.309C151.612 190.737 151.79 189.847 151.79 188.641C151.79 187.411 151.63 186.515 151.31 185.955C150.99 185.395 150.501 185.115 149.842 185.115ZM160.568 183.518C161.503 183.518 162.3 183.727 162.958 184.146C163.617 184.564 164.115 185.158 164.454 185.927C164.792 186.691 164.962 187.592 164.962 188.632C164.962 189.666 164.789 190.571 164.445 191.346C164.1 192.115 163.598 192.712 162.94 193.137C162.282 193.561 161.488 193.774 160.558 193.774C159.623 193.774 158.826 193.567 158.168 193.155C157.509 192.743 157.008 192.152 156.663 191.383C156.325 190.614 156.155 189.703 156.155 188.651C156.155 187.635 156.328 186.74 156.672 185.964C157.017 185.189 157.518 184.589 158.177 184.164C158.842 183.734 159.638 183.518 160.568 183.518ZM160.568 185.124C159.817 185.124 159.254 185.414 158.878 185.992C158.509 186.564 158.325 187.451 158.325 188.651C158.325 189.851 158.509 190.74 158.878 191.318C159.248 191.891 159.808 192.177 160.558 192.177C161.309 192.177 161.869 191.891 162.238 191.318C162.608 190.74 162.792 189.844 162.792 188.632C162.792 187.438 162.608 186.555 162.238 185.983C161.869 185.411 161.312 185.124 160.568 185.124ZM60.8 197.063H62.2769V208.324H67.1692V209.801H62.2769V224.755H60.8V197.063ZM66.9099 208.324H78.1714V209.801H66.9099V208.324ZM77.9121 208.324H89.1737V209.801H77.9121V208.324ZM95.6159 202.527C96.4467 202.527 97.1605 202.635 97.7574 202.851C98.3543 203.06 98.9205 203.386 99.4559 203.829L98.339 205.158C97.582 204.531 96.7082 204.217 95.7174 204.217C95.0467 204.217 94.4467 204.383 93.9174 204.715C93.3882 205.047 92.9667 205.58 92.6528 206.312C92.3451 207.044 92.1913 207.986 92.1913 209.137C92.1913 210.811 92.5113 212.047 93.1513 212.847C93.7913 213.641 94.6467 214.038 95.7174 214.038C96.3328 214.038 96.862 213.943 97.3051 213.752C97.7482 213.555 98.182 213.284 98.6067 212.94L99.6405 214.26C99.1728 214.721 98.6067 215.091 97.942 215.367C97.2836 215.638 96.5174 215.774 95.6436 215.774C94.5482 215.774 93.5728 215.518 92.7174 215.007C91.862 214.491 91.1882 213.734 90.6959 212.737C90.2097 211.74 89.9667 210.54 89.9667 209.137C89.9667 207.752 90.2159 206.561 90.7143 205.564C91.2128 204.567 91.8897 203.814 92.7451 203.303C93.6067 202.786 94.5636 202.527 95.6159 202.527ZM108.566 205.527C108.837 205.527 109.086 205.549 109.313 205.592C109.541 205.635 109.781 205.697 110.033 205.777L109.683 209.367H108.206V207.383C107.523 207.407 106.932 207.681 106.433 208.204C105.935 208.721 105.538 209.463 105.243 210.429V214.047H107.209V215.524H101.744V214.047H103.175V207.244H101.744V205.777H104.753L105.132 208.038C105.507 207.195 105.966 206.567 106.507 206.155C107.055 205.737 107.741 205.527 108.566 205.527ZM114.371 211.315C114.426 212.269 114.694 212.983 115.174 213.457C115.66 213.931 116.279 214.167 117.03 214.167C117.491 214.167 117.925 214.097 118.331 213.955C118.737 213.814 119.156 213.601 119.586 213.318L120.482 214.555C120.02 214.937 119.482 215.235 118.866 215.451C118.251 215.666 117.605 215.774 116.928 215.774C115.937 215.774 115.088 215.561 114.38 215.137C113.673 214.706 113.137 214.106 112.774 213.337C112.411 212.567 112.23 211.675 112.23 210.66C112.23 209.681 112.408 208.804 112.765 208.029C113.128 207.247 113.645 206.635 114.316 206.192C114.986 205.743 115.774 205.518 116.679 205.518C117.534 205.518 118.276 205.715 118.903 206.109C119.537 206.497 120.023 207.057 120.362 207.789C120.706 208.521 120.879 209.389 120.879 210.392C120.879 210.731 120.863 211.038 120.833 211.315H114.371ZM116.697 207.051C116.026 207.051 115.485 207.291 115.073 207.771C114.66 208.244 114.423 208.955 114.362 209.903H118.876C118.857 208.986 118.66 208.281 118.285 207.789C117.91 207.297 117.38 207.051 116.697 207.051ZM129.379 201.632L131.447 201.863V215.524H129.629L129.481 214.324C129.149 214.792 128.749 215.152 128.281 215.404C127.819 215.651 127.306 215.774 126.739 215.774C125.527 215.774 124.613 215.318 123.998 214.407C123.383 213.491 123.075 212.238 123.075 210.651C123.075 209.66 123.229 208.777 123.536 208.001C123.844 207.226 124.287 206.62 124.866 206.183C125.45 205.74 126.136 205.518 126.924 205.518C127.921 205.518 128.739 205.872 129.379 206.58V201.632ZM127.469 207.106C126.755 207.106 126.207 207.398 125.826 207.983C125.45 208.567 125.263 209.457 125.263 210.651C125.263 213.007 125.936 214.186 127.284 214.186C128.09 214.186 128.789 213.724 129.379 212.801V208.186C129.133 207.835 128.85 207.567 128.53 207.383C128.21 207.198 127.856 207.106 127.469 207.106ZM138.545 201.004C138.945 201.004 139.271 201.127 139.523 201.374C139.776 201.62 139.902 201.927 139.902 202.297C139.902 202.672 139.776 202.986 139.523 203.238C139.271 203.484 138.945 203.607 138.545 203.607C138.151 203.607 137.828 203.484 137.576 203.238C137.323 202.986 137.197 202.672 137.197 202.297C137.197 201.927 137.323 201.62 137.576 201.374C137.828 201.127 138.151 201.004 138.545 201.004ZM135.092 205.777H139.985V214.011H142.634V215.524H135V214.011H137.917V207.291H135.092V205.777ZM153.802 215.007C153.439 215.241 153.005 215.426 152.501 215.561C152.002 215.703 151.489 215.774 150.959 215.774C150.215 215.774 149.584 215.641 149.067 215.377C148.55 215.112 148.159 214.74 147.895 214.26C147.63 213.78 147.498 213.217 147.498 212.571V207.281H145.329V205.777H147.498V203.598L149.565 203.349V205.777H152.852L152.621 207.281H149.565V212.552C149.565 213.081 149.698 213.472 149.962 213.724C150.227 213.977 150.655 214.103 151.245 214.103C151.898 214.103 152.501 213.949 153.055 213.641L153.802 215.007ZM164.371 210.595H156.746V208.897H164.371V210.595ZM172.631 202.527C173.462 202.527 174.176 202.635 174.773 202.851C175.37 203.06 175.936 203.386 176.471 203.829L175.354 205.158C174.598 204.531 173.724 204.217 172.733 204.217C172.062 204.217 171.462 204.383 170.933 204.715C170.404 205.047 169.982 205.58 169.668 206.312C169.361 207.044 169.207 207.986 169.207 209.137C169.207 210.811 169.527 212.047 170.167 212.847C170.807 213.641 171.662 214.038 172.733 214.038C173.348 214.038 173.878 213.943 174.321 213.752C174.764 213.555 175.198 213.284 175.622 212.94L176.656 214.26C176.188 214.721 175.622 215.091 174.958 215.367C174.299 215.638 173.533 215.774 172.659 215.774C171.564 215.774 170.588 215.518 169.733 215.007C168.878 214.491 168.204 213.734 167.711 212.737C167.225 211.74 166.982 210.54 166.982 209.137C166.982 207.752 167.231 206.561 167.73 205.564C168.228 204.567 168.905 203.814 169.761 203.303C170.622 202.786 171.579 202.527 172.631 202.527ZM186.117 213.134C186.117 213.509 186.172 213.786 186.283 213.964C186.4 214.143 186.591 214.275 186.855 214.361L186.394 215.764C185.895 215.709 185.477 215.574 185.138 215.358C184.8 215.143 184.544 214.829 184.372 214.417C184.021 214.86 183.575 215.198 183.034 215.432C182.492 215.66 181.901 215.774 181.261 215.774C180.609 215.774 180.04 215.647 179.554 215.395C179.074 215.143 178.704 214.789 178.446 214.334C178.187 213.878 178.058 213.349 178.058 212.746C178.058 211.718 178.458 210.927 179.258 210.374C180.064 209.82 181.209 209.543 182.692 209.543H184.086V208.906C184.086 208.291 183.901 207.841 183.532 207.558C183.163 207.275 182.624 207.134 181.917 207.134C181.578 207.134 181.181 207.177 180.726 207.263C180.271 207.349 179.803 207.475 179.323 207.641L178.815 206.183C179.406 205.961 179.994 205.795 180.578 205.684C181.163 205.574 181.714 205.518 182.231 205.518C183.517 205.518 184.486 205.801 185.138 206.367C185.791 206.934 186.117 207.74 186.117 208.786V213.134ZM181.889 214.251C182.314 214.251 182.723 214.14 183.117 213.918C183.517 213.691 183.84 213.38 184.086 212.986V210.835H182.941C182 210.835 181.311 210.992 180.874 211.306C180.443 211.614 180.227 212.063 180.227 212.654C180.227 213.177 180.366 213.574 180.643 213.844C180.926 214.115 181.341 214.251 181.889 214.251ZM196.584 205.527C196.854 205.527 197.104 205.549 197.331 205.592C197.559 205.635 197.799 205.697 198.051 205.777L197.7 209.367H196.224V207.383C195.54 207.407 194.95 207.681 194.451 208.204C193.953 208.721 193.556 209.463 193.26 210.429V214.047H195.227V215.524H189.762V214.047H191.193V207.244H189.762V205.777H192.771L193.15 208.038C193.525 207.195 193.984 206.567 194.525 206.155C195.073 205.737 195.759 205.527 196.584 205.527ZM206.395 201.632L208.463 201.863V215.524H206.644L206.497 214.324C206.164 214.792 205.764 215.152 205.297 215.404C204.835 215.651 204.321 215.774 203.755 215.774C202.543 215.774 201.629 215.318 201.013 214.407C200.398 213.491 200.09 212.238 200.09 210.651C200.09 209.66 200.244 208.777 200.552 208.001C200.86 207.226 201.303 206.62 201.881 206.183C202.466 205.74 203.152 205.518 203.94 205.518C204.937 205.518 205.755 205.872 206.395 206.58V201.632ZM204.484 207.106C203.77 207.106 203.223 207.398 202.841 207.983C202.466 208.567 202.278 209.457 202.278 210.651C202.278 213.007 202.952 214.186 204.3 214.186C205.106 214.186 205.804 213.724 206.395 212.801V208.186C206.149 207.835 205.866 207.567 205.546 207.383C205.226 207.198 204.872 207.106 204.484 207.106ZM215.219 214.186C215.871 214.186 216.385 214.072 216.76 213.844C217.142 213.611 217.333 213.291 217.333 212.884C217.333 212.601 217.274 212.371 217.157 212.192C217.046 212.014 216.825 211.847 216.493 211.694C216.16 211.534 215.659 211.367 214.988 211.195C214.286 211.017 213.705 210.814 213.243 210.586C212.782 210.352 212.422 210.054 212.163 209.691C211.911 209.321 211.785 208.863 211.785 208.315C211.785 207.761 211.942 207.275 212.256 206.857C212.576 206.432 213.028 206.103 213.613 205.869C214.203 205.635 214.893 205.518 215.68 205.518C217.126 205.518 218.36 205.894 219.382 206.644L218.514 207.946C218.102 207.675 217.668 207.466 217.213 207.318C216.763 207.164 216.271 207.087 215.736 207.087C214.505 207.087 213.89 207.447 213.89 208.167C213.89 208.414 213.96 208.617 214.102 208.777C214.243 208.931 214.483 209.078 214.822 209.22C215.166 209.355 215.683 209.518 216.373 209.709C217.074 209.906 217.65 210.121 218.099 210.355C218.548 210.589 218.896 210.897 219.142 211.278C219.394 211.66 219.52 212.149 219.52 212.746C219.52 213.417 219.323 213.98 218.93 214.435C218.536 214.891 218.013 215.229 217.36 215.451C216.714 215.666 216 215.774 215.219 215.774C214.363 215.774 213.603 215.651 212.939 215.404C212.274 215.158 211.699 214.823 211.213 214.398L212.311 213.143C212.705 213.469 213.148 213.724 213.64 213.909C214.139 214.094 214.665 214.186 215.219 214.186ZM60.5969 220.909H62.48V243.063H60.5969V220.909ZM93.8067 219.063H95.2836V230.324H100.176V231.801H93.8067V219.063ZM99.9166 230.324H111.178V231.801H99.9166V230.324ZM110.919 230.324H122.18V231.801H110.919V230.324ZM132.435 228.783C132.435 230.211 131.989 231.269 131.096 231.958C130.21 232.641 128.998 232.983 127.459 232.983H125.918V237.524H123.776V224.786H127.312C128.949 224.786 130.21 225.121 131.096 225.792C131.989 226.457 132.435 227.454 132.435 228.783ZM130.183 228.801C130.183 227.195 129.272 226.392 127.45 226.392H125.918V231.349H127.478C128.339 231.349 129.004 231.152 129.472 230.758C129.946 230.364 130.183 229.712 130.183 228.801ZM142.108 235.134C142.108 235.509 142.163 235.786 142.274 235.964C142.391 236.143 142.582 236.275 142.846 236.361L142.385 237.764C141.886 237.709 141.468 237.574 141.129 237.358C140.791 237.143 140.536 236.829 140.363 236.417C140.012 236.86 139.566 237.198 139.025 237.432C138.483 237.66 137.892 237.774 137.252 237.774C136.6 237.774 136.031 237.647 135.545 237.395C135.065 237.143 134.696 236.789 134.437 236.334C134.179 235.878 134.049 235.349 134.049 234.746C134.049 233.718 134.449 232.927 135.249 232.374C136.056 231.82 137.2 231.543 138.683 231.543H140.077V230.906C140.077 230.291 139.892 229.841 139.523 229.558C139.154 229.275 138.616 229.134 137.908 229.134C137.569 229.134 137.172 229.177 136.717 229.263C136.262 229.349 135.794 229.475 135.314 229.641L134.806 228.183C135.397 227.961 135.985 227.795 136.569 227.684C137.154 227.574 137.705 227.518 138.222 227.518C139.508 227.518 140.477 227.801 141.129 228.367C141.782 228.934 142.108 229.74 142.108 230.786V235.134ZM137.88 236.251C138.305 236.251 138.714 236.14 139.108 235.918C139.508 235.691 139.831 235.38 140.077 234.986V232.835H138.932C137.991 232.835 137.302 232.992 136.865 233.306C136.434 233.614 136.219 234.063 136.219 234.654C136.219 235.177 136.357 235.574 136.634 235.844C136.917 236.115 137.332 236.251 137.88 236.251ZM150.83 237.561C150.43 238.749 149.858 239.675 149.113 240.34C148.375 241.011 147.356 241.401 146.058 241.512L145.79 239.961C146.436 239.863 146.953 239.712 147.341 239.509C147.735 239.312 148.045 239.057 148.273 238.743C148.507 238.435 148.719 238.029 148.91 237.524H148.209L144.922 227.777H147.119L149.575 236.084L152.067 227.777H154.19L150.83 237.561ZM165.442 228.783C165.442 230.211 164.995 231.269 164.103 231.958C163.217 232.641 162.005 232.983 160.466 232.983H158.925V237.524H156.783V224.786H160.318C161.955 224.786 163.217 225.121 164.103 225.792C164.995 226.457 165.442 227.454 165.442 228.783ZM163.189 228.801C163.189 227.195 162.278 226.392 160.457 226.392H158.925V231.349H160.485C161.346 231.349 162.011 231.152 162.478 230.758C162.952 230.364 163.189 229.712 163.189 228.801ZM175.114 235.134C175.114 235.509 175.17 235.786 175.281 235.964C175.398 236.143 175.588 236.275 175.853 236.361L175.391 237.764C174.893 237.709 174.474 237.574 174.136 237.358C173.798 237.143 173.542 236.829 173.37 236.417C173.019 236.86 172.573 237.198 172.031 237.432C171.49 237.66 170.899 237.774 170.259 237.774C169.607 237.774 169.038 237.647 168.551 237.395C168.071 237.143 167.702 236.789 167.444 236.334C167.185 235.878 167.056 235.349 167.056 234.746C167.056 233.718 167.456 232.927 168.256 232.374C169.062 231.82 170.207 231.543 171.69 231.543H173.084V230.906C173.084 230.291 172.899 229.841 172.53 229.558C172.161 229.275 171.622 229.134 170.914 229.134C170.576 229.134 170.179 229.177 169.724 229.263C169.268 229.349 168.801 229.475 168.321 229.641L167.813 228.183C168.404 227.961 168.991 227.795 169.576 227.684C170.161 227.574 170.711 227.518 171.228 227.518C172.514 227.518 173.484 227.801 174.136 228.367C174.788 228.934 175.114 229.74 175.114 230.786V235.134ZM170.887 236.251C171.311 236.251 171.721 236.14 172.114 235.918C172.514 235.691 172.838 235.38 173.084 234.986V232.835H171.939C170.998 232.835 170.308 232.992 169.871 233.306C169.441 233.614 169.225 234.063 169.225 234.654C169.225 235.177 169.364 235.574 169.641 235.844C169.924 236.115 170.339 236.251 170.887 236.251ZM182.951 234.866C182.951 235.297 183.08 235.611 183.338 235.807C183.603 236.004 183.966 236.103 184.427 236.103C184.92 236.103 185.434 235.995 185.969 235.78L186.495 237.22C185.769 237.589 184.932 237.774 183.984 237.774C183.338 237.774 182.781 237.651 182.314 237.404C181.846 237.152 181.489 236.795 181.243 236.334C181.003 235.866 180.883 235.315 180.883 234.681V225.386H177.938V223.863H182.951V234.866ZM60.8 241.063H62.2769V252.324H67.1692V253.801H62.2769V268.755H60.8V241.063ZM66.9099 252.324H78.1714V253.801H66.9099V252.324ZM77.9121 252.324H89.1737V253.801H77.9121V252.324ZM98.5143 248.411H93.2343V252.241H97.8497V253.866H93.2343V257.9H98.8559V259.524H91.0928V246.786H98.7543L98.5143 248.411ZM108.372 249.518C108.981 249.518 109.458 249.727 109.803 250.146C110.147 250.558 110.32 251.269 110.32 252.278V259.524H108.483V252.564C108.483 252.189 108.467 251.906 108.437 251.715C108.412 251.518 108.35 251.374 108.252 251.281C108.16 251.183 108.018 251.134 107.827 251.134C107.304 251.134 106.824 251.454 106.387 252.094V259.524H104.717V252.564C104.717 252.189 104.701 251.906 104.67 251.715C104.646 251.518 104.584 251.374 104.486 251.281C104.393 251.183 104.252 251.134 104.061 251.134C103.803 251.134 103.557 251.211 103.323 251.364C103.089 251.512 102.855 251.755 102.621 252.094V259.524H100.775V249.777H102.335L102.473 250.829C102.781 250.398 103.095 250.072 103.415 249.851C103.741 249.629 104.123 249.518 104.56 249.518C105.427 249.518 105.984 249.934 106.23 250.764C106.526 250.364 106.846 250.057 107.19 249.841C107.535 249.626 107.929 249.518 108.372 249.518ZM120.103 257.134C120.103 257.509 120.159 257.786 120.27 257.964C120.386 258.143 120.577 258.275 120.842 258.361L120.38 259.764C119.882 259.709 119.463 259.574 119.125 259.358C118.786 259.143 118.531 258.829 118.359 258.417C118.008 258.86 117.562 259.198 117.02 259.432C116.479 259.66 115.888 259.774 115.248 259.774C114.596 259.774 114.026 259.647 113.54 259.395C113.06 259.143 112.691 258.789 112.433 258.334C112.174 257.878 112.045 257.349 112.045 256.746C112.045 255.718 112.445 254.927 113.245 254.374C114.051 253.82 115.196 253.543 116.679 253.543H118.073V252.906C118.073 252.291 117.888 251.841 117.519 251.558C117.15 251.275 116.611 251.134 115.903 251.134C115.565 251.134 115.168 251.177 114.713 251.263C114.257 251.349 113.79 251.475 113.31 251.641L112.802 250.183C113.393 249.961 113.98 249.795 114.565 249.684C115.15 249.574 115.7 249.518 116.217 249.518C117.503 249.518 118.473 249.801 119.125 250.367C119.777 250.934 120.103 251.74 120.103 252.786V257.134ZM115.876 258.251C116.3 258.251 116.71 258.14 117.103 257.918C117.503 257.691 117.826 257.38 118.073 256.986V254.835H116.928C115.986 254.835 115.297 254.992 114.86 255.306C114.43 255.614 114.214 256.063 114.214 256.654C114.214 257.177 114.353 257.574 114.63 257.844C114.913 258.115 115.328 258.251 115.876 258.251ZM127.543 245.004C127.943 245.004 128.269 245.127 128.521 245.374C128.773 245.62 128.899 245.927 128.899 246.297C128.899 246.672 128.773 246.986 128.521 247.238C128.269 247.484 127.943 247.607 127.543 247.607C127.149 247.607 126.826 247.484 126.573 247.238C126.321 246.986 126.195 246.672 126.195 246.297C126.195 245.927 126.321 245.62 126.573 245.374C126.826 245.127 127.149 245.004 127.543 245.004ZM124.09 249.777H128.983V258.011H131.632V259.524H123.998V258.011H126.915V251.291H124.09V249.777ZM138.942 256.866C138.942 257.297 139.071 257.611 139.329 257.807C139.594 258.004 139.957 258.103 140.419 258.103C140.911 258.103 141.425 257.995 141.96 257.78L142.486 259.22C141.76 259.589 140.923 259.774 139.976 259.774C139.329 259.774 138.772 259.651 138.305 259.404C137.837 259.152 137.48 258.795 137.234 258.334C136.994 257.866 136.874 257.315 136.874 256.681V247.386H133.929V245.863H138.942V256.866ZM149.205 258.186C149.858 258.186 150.372 258.072 150.747 257.844C151.129 257.611 151.319 257.291 151.319 256.884C151.319 256.601 151.261 256.371 151.144 256.192C151.033 256.014 150.812 255.847 150.479 255.694C150.147 255.534 149.645 255.367 148.975 255.195C148.273 255.017 147.692 254.814 147.23 254.586C146.769 254.352 146.409 254.054 146.15 253.691C145.898 253.321 145.772 252.863 145.772 252.315C145.772 251.761 145.929 251.275 146.242 250.857C146.562 250.432 147.015 250.103 147.599 249.869C148.19 249.635 148.879 249.518 149.667 249.518C151.113 249.518 152.347 249.894 153.369 250.644L152.501 251.946C152.089 251.675 151.655 251.466 151.199 251.318C150.75 251.164 150.258 251.087 149.722 251.087C148.492 251.087 147.876 251.447 147.876 252.167C147.876 252.414 147.947 252.617 148.089 252.777C148.23 252.931 148.47 253.078 148.809 253.22C149.153 253.355 149.67 253.518 150.359 253.709C151.061 253.906 151.636 254.121 152.085 254.355C152.535 254.589 152.882 254.897 153.129 255.278C153.381 255.66 153.507 256.149 153.507 256.746C153.507 257.417 153.31 257.98 152.916 258.435C152.522 258.891 151.999 259.229 151.347 259.451C150.701 259.666 149.987 259.774 149.205 259.774C148.35 259.774 147.59 259.651 146.925 259.404C146.261 259.158 145.685 258.823 145.199 258.398L146.298 257.143C146.692 257.469 147.135 257.724 147.627 257.909C148.125 258.094 148.652 258.186 149.205 258.186ZM60.5969 264.909H62.48V287.063H60.5969V264.909ZM93.8067 263.063H95.2836V274.324H100.176V275.801H95.2836V290.755H93.8067V263.063ZM99.9166 274.324H111.178V275.801H99.9166V274.324ZM110.919 274.324H122.18V275.801H110.919V274.324ZM132.398 275.155C132.398 276.478 132.213 277.638 131.844 278.635C131.475 279.626 130.927 280.398 130.201 280.952C129.475 281.5 128.592 281.774 127.552 281.774C126.506 281.774 125.619 281.506 124.893 280.971C124.167 280.429 123.619 279.666 123.25 278.681C122.887 277.691 122.706 276.521 122.706 275.174C122.706 273.851 122.89 272.691 123.259 271.694C123.629 270.691 124.176 269.912 124.903 269.358C125.629 268.804 126.512 268.527 127.552 268.527C128.598 268.527 129.484 268.798 130.21 269.34C130.936 269.881 131.481 270.651 131.844 271.647C132.213 272.638 132.398 273.807 132.398 275.155ZM130.183 275.155C130.183 273.475 129.973 272.229 129.555 271.417C129.143 270.604 128.475 270.198 127.552 270.198C126.629 270.198 125.958 270.607 125.539 271.426C125.127 272.244 124.921 273.494 124.921 275.174C124.921 276.841 125.13 278.081 125.549 278.894C125.973 279.7 126.641 280.103 127.552 280.103C128.481 280.103 129.152 279.7 129.564 278.894C129.976 278.081 130.183 276.835 130.183 275.155ZM136.726 278.589C136.726 279.155 136.837 279.564 137.059 279.817C137.286 280.069 137.64 280.195 138.12 280.195C138.551 280.195 138.972 280.066 139.385 279.807C139.803 279.549 140.136 279.223 140.382 278.829V271.777H142.449V281.524H140.668L140.539 280.278C140.182 280.752 139.726 281.121 139.172 281.386C138.625 281.644 138.056 281.774 137.465 281.774C136.536 281.774 135.834 281.518 135.36 281.007C134.892 280.497 134.659 279.777 134.659 278.847V271.777H136.726V278.589ZM153.802 281.007C153.439 281.241 153.005 281.426 152.501 281.561C152.002 281.703 151.489 281.774 150.959 281.774C150.215 281.774 149.584 281.641 149.067 281.377C148.55 281.112 148.159 280.74 147.895 280.26C147.63 279.78 147.498 279.217 147.498 278.571V273.281H145.329V271.777H147.498V269.598L149.565 269.349V271.777H152.852L152.621 273.281H149.565V278.552C149.565 279.081 149.698 279.472 149.962 279.724C150.227 279.977 150.655 280.103 151.245 280.103C151.898 280.103 152.501 279.949 153.055 279.641L153.802 281.007ZM160.946 278.866C160.946 279.297 161.075 279.611 161.334 279.807C161.598 280.004 161.962 280.103 162.423 280.103C162.915 280.103 163.429 279.995 163.965 279.78L164.491 281.22C163.765 281.589 162.928 281.774 161.98 281.774C161.334 281.774 160.777 281.651 160.309 281.404C159.842 281.152 159.485 280.795 159.238 280.334C158.998 279.866 158.878 279.315 158.878 278.681V269.386H155.934V267.863H160.946V278.866ZM171.57 271.518C172.505 271.518 173.302 271.727 173.961 272.146C174.619 272.564 175.118 273.158 175.456 273.927C175.794 274.691 175.964 275.592 175.964 276.632C175.964 277.666 175.791 278.571 175.447 279.346C175.102 280.115 174.601 280.712 173.942 281.137C173.284 281.561 172.49 281.774 171.561 281.774C170.625 281.774 169.828 281.567 169.17 281.155C168.511 280.743 168.01 280.152 167.665 279.383C167.327 278.614 167.158 277.703 167.158 276.651C167.158 275.635 167.33 274.74 167.674 273.964C168.019 273.189 168.521 272.589 169.179 272.164C169.844 271.734 170.641 271.518 171.57 271.518ZM171.57 273.124C170.819 273.124 170.256 273.414 169.881 273.992C169.511 274.564 169.327 275.451 169.327 276.651C169.327 277.851 169.511 278.74 169.881 279.318C170.25 279.891 170.81 280.177 171.561 280.177C172.311 280.177 172.871 279.891 173.241 279.318C173.61 278.74 173.794 277.844 173.794 276.632C173.794 275.438 173.61 274.555 173.241 273.983C172.871 273.411 172.314 273.124 171.57 273.124ZM182.572 271.518C183.507 271.518 184.304 271.727 184.963 272.146C185.621 272.564 186.12 273.158 186.458 273.927C186.797 274.691 186.966 275.592 186.966 276.632C186.966 277.666 186.794 278.571 186.449 279.346C186.104 280.115 185.603 280.712 184.944 281.137C184.286 281.561 183.492 281.774 182.563 281.774C181.627 281.774 180.831 281.567 180.172 281.155C179.514 280.743 179.012 280.152 178.667 279.383C178.329 278.614 178.16 277.703 178.16 276.651C178.16 275.635 178.332 274.74 178.677 273.964C179.021 273.189 179.523 272.589 180.181 272.164C180.846 271.734 181.643 271.518 182.572 271.518ZM182.572 273.124C181.821 273.124 181.258 273.414 180.883 273.992C180.514 274.564 180.329 275.451 180.329 276.651C180.329 277.851 180.514 278.74 180.883 279.318C181.252 279.891 181.812 280.177 182.563 280.177C183.314 280.177 183.874 279.891 184.243 279.318C184.612 278.74 184.797 277.844 184.797 276.632C184.797 275.438 184.612 274.555 184.243 273.983C183.874 273.411 183.317 273.124 182.572 273.124ZM189.734 267.863L191.802 267.632V281.524H189.734V267.863ZM195.845 271.777H198.254L194.313 276.134L198.67 281.524H196.14L191.95 276.189L195.845 271.777ZM60.5969 286.909H62.48V309.063H60.5969V286.909ZM93.8067 285.063H95.2836V296.324H100.176V297.801H93.8067V285.063ZM99.9166 296.324H111.178V297.801H99.9166V296.324ZM110.919 296.324H122.18V297.801H110.919V296.324ZM127.884 303.774C126.795 303.774 125.863 303.524 125.087 303.026C124.312 302.527 123.718 301.783 123.306 300.792C122.899 299.801 122.696 298.583 122.696 297.137C122.696 295.734 122.946 294.537 123.444 293.546C123.949 292.549 124.623 291.798 125.466 291.294C126.309 290.783 127.238 290.527 128.253 290.527C129.078 290.527 129.783 290.651 130.367 290.897C130.952 291.137 131.512 291.503 132.047 291.995L130.847 293.241C130.453 292.884 130.053 292.623 129.647 292.457C129.247 292.284 128.801 292.198 128.309 292.198C127.675 292.198 127.106 292.364 126.601 292.697C126.096 293.023 125.693 293.555 125.392 294.294C125.09 295.032 124.939 295.983 124.939 297.146C124.939 298.321 125.05 299.275 125.272 300.007C125.499 300.734 125.835 301.266 126.278 301.604C126.727 301.937 127.296 302.103 127.986 302.103C128.73 302.103 129.432 301.924 130.09 301.567V298.06H127.93L127.699 296.426H132.167V302.601C131.503 302.977 130.829 303.266 130.146 303.469C129.469 303.672 128.715 303.774 127.884 303.774ZM141.379 293.518C141.988 293.518 142.465 293.727 142.809 294.146C143.154 294.558 143.326 295.269 143.326 296.278V303.524H141.489V296.564C141.489 296.189 141.474 295.906 141.443 295.715C141.419 295.518 141.357 295.374 141.259 295.281C141.166 295.183 141.025 295.134 140.834 295.134C140.311 295.134 139.831 295.454 139.394 296.094V303.524H137.723V296.564C137.723 296.189 137.708 295.906 137.677 295.715C137.652 295.518 137.591 295.374 137.492 295.281C137.4 295.183 137.259 295.134 137.068 295.134C136.809 295.134 136.563 295.211 136.329 295.364C136.096 295.512 135.862 295.755 135.628 296.094V303.524H133.782V293.777H135.342L135.48 294.829C135.788 294.398 136.102 294.072 136.422 293.851C136.748 293.629 137.129 293.518 137.566 293.518C138.434 293.518 138.991 293.934 139.237 294.764C139.532 294.364 139.852 294.057 140.197 293.841C140.542 293.626 140.936 293.518 141.379 293.518ZM153.11 301.134C153.11 301.509 153.165 301.786 153.276 301.964C153.393 302.143 153.584 302.275 153.849 302.361L153.387 303.764C152.889 303.709 152.47 303.574 152.132 303.358C151.793 303.143 151.538 302.829 151.365 302.417C151.015 302.86 150.569 303.198 150.027 303.432C149.485 303.66 148.895 303.774 148.255 303.774C147.602 303.774 147.033 303.647 146.547 303.395C146.067 303.143 145.698 302.789 145.439 302.334C145.181 301.878 145.052 301.349 145.052 300.746C145.052 299.718 145.452 298.927 146.252 298.374C147.058 297.82 148.202 297.543 149.685 297.543H151.079V296.906C151.079 296.291 150.895 295.841 150.525 295.558C150.156 295.275 149.618 295.134 148.91 295.134C148.572 295.134 148.175 295.177 147.719 295.263C147.264 295.349 146.796 295.475 146.316 295.641L145.809 294.183C146.399 293.961 146.987 293.795 147.572 293.684C148.156 293.574 148.707 293.518 149.224 293.518C150.51 293.518 151.479 293.801 152.132 294.367C152.784 294.934 153.11 295.74 153.11 296.786V301.134ZM148.882 302.251C149.307 302.251 149.716 302.14 150.11 301.918C150.51 301.691 150.833 301.38 151.079 300.986V298.835H149.935C148.993 298.835 148.304 298.992 147.867 299.306C147.436 299.614 147.221 300.063 147.221 300.654C147.221 301.177 147.359 301.574 147.636 301.844C147.919 302.115 148.335 302.251 148.882 302.251ZM160.549 289.004C160.949 289.004 161.275 289.127 161.528 289.374C161.78 289.62 161.906 289.927 161.906 290.297C161.906 290.672 161.78 290.986 161.528 291.238C161.275 291.484 160.949 291.607 160.549 291.607C160.155 291.607 159.832 291.484 159.58 291.238C159.328 290.986 159.202 290.672 159.202 290.297C159.202 289.927 159.328 289.62 159.58 289.374C159.832 289.127 160.155 289.004 160.549 289.004ZM157.097 293.777H161.989V302.011H164.638V303.524H157.005V302.011H159.922V295.291H157.097V293.777ZM171.948 300.866C171.948 301.297 172.078 301.611 172.336 301.807C172.601 302.004 172.964 302.103 173.425 302.103C173.918 302.103 174.431 301.995 174.967 301.78L175.493 303.22C174.767 303.589 173.93 303.774 172.982 303.774C172.336 303.774 171.779 303.651 171.311 303.404C170.844 303.152 170.487 302.795 170.241 302.334C170.001 301.866 169.881 301.315 169.881 300.681V291.386H166.936V289.863H171.948V300.866ZM60.8 307.063H62.2769V318.324H67.1692V319.801H62.2769V334.755H60.8V307.063ZM66.9099 318.324H78.1714V319.801H66.9099V318.324ZM77.9121 318.324H89.1737V319.801H77.9121V318.324ZM99.4282 316.783C99.4282 318.211 98.982 319.269 98.0897 319.958C97.2036 320.641 95.9913 320.983 94.4528 320.983H92.9113V325.524H90.7697V312.786H94.3051C95.942 312.786 97.2036 313.121 98.0897 313.792C98.982 314.457 99.4282 315.454 99.4282 316.783ZM97.1759 316.801C97.1759 315.195 96.2651 314.392 94.4436 314.392H92.9113V319.349H94.4713C95.3328 319.349 95.9974 319.152 96.4651 318.758C96.939 318.364 97.1759 317.712 97.1759 316.801ZM108.566 315.527C108.837 315.527 109.086 315.549 109.313 315.592C109.541 315.635 109.781 315.697 110.033 315.777L109.683 319.367H108.206V317.383C107.523 317.407 106.932 317.681 106.433 318.204C105.935 318.721 105.538 319.463 105.243 320.429V324.047H107.209V325.524H101.744V324.047H103.175V317.244H101.744V315.777H104.753L105.132 318.038C105.507 317.195 105.966 316.567 106.507 316.155C107.055 315.737 107.741 315.527 108.566 315.527ZM116.54 311.004C116.94 311.004 117.266 311.127 117.519 311.374C117.771 311.62 117.897 311.927 117.897 312.297C117.897 312.672 117.771 312.986 117.519 313.238C117.266 313.484 116.94 313.607 116.54 313.607C116.146 313.607 115.823 313.484 115.571 313.238C115.319 312.986 115.193 312.672 115.193 312.297C115.193 311.927 115.319 311.62 115.571 311.374C115.823 311.127 116.146 311.004 116.54 311.004ZM113.088 315.777H117.98V324.011H120.63V325.524H112.996V324.011H115.913V317.291H113.088V315.777ZM130.081 315.777H132.195L128.761 325.524H126.343L122.909 315.777H125.124L127.598 323.807L130.081 315.777ZM142.108 323.134C142.108 323.509 142.163 323.786 142.274 323.964C142.391 324.143 142.582 324.275 142.846 324.361L142.385 325.764C141.886 325.709 141.468 325.574 141.129 325.358C140.791 325.143 140.536 324.829 140.363 324.417C140.012 324.86 139.566 325.198 139.025 325.432C138.483 325.66 137.892 325.774 137.252 325.774C136.6 325.774 136.031 325.647 135.545 325.395C135.065 325.143 134.696 324.789 134.437 324.334C134.179 323.878 134.049 323.349 134.049 322.746C134.049 321.718 134.449 320.927 135.249 320.374C136.056 319.82 137.2 319.543 138.683 319.543H140.077V318.906C140.077 318.291 139.892 317.841 139.523 317.558C139.154 317.275 138.616 317.134 137.908 317.134C137.569 317.134 137.172 317.177 136.717 317.263C136.262 317.349 135.794 317.475 135.314 317.641L134.806 316.183C135.397 315.961 135.985 315.795 136.569 315.684C137.154 315.574 137.705 315.518 138.222 315.518C139.508 315.518 140.477 315.801 141.129 316.367C141.782 316.934 142.108 317.74 142.108 318.786V323.134ZM137.88 324.251C138.305 324.251 138.714 324.14 139.108 323.918C139.508 323.691 139.831 323.38 140.077 322.986V320.835H138.932C137.991 320.835 137.302 320.992 136.865 321.306C136.434 321.614 136.219 322.063 136.219 322.654C136.219 323.177 136.357 323.574 136.634 323.844C136.917 324.115 137.332 324.251 137.88 324.251ZM153.802 325.007C153.439 325.241 153.005 325.426 152.501 325.561C152.002 325.703 151.489 325.774 150.959 325.774C150.215 325.774 149.584 325.641 149.067 325.377C148.55 325.112 148.159 324.74 147.895 324.26C147.63 323.78 147.498 323.217 147.498 322.571V317.281H145.329V315.777H147.498V313.598L149.565 313.349V315.777H152.852L152.621 317.281H149.565V322.552C149.565 323.081 149.698 323.472 149.962 323.724C150.227 323.977 150.655 324.103 151.245 324.103C151.898 324.103 152.501 323.949 153.055 323.641L153.802 325.007ZM158.38 321.315C158.435 322.269 158.703 322.983 159.183 323.457C159.669 323.931 160.288 324.167 161.038 324.167C161.5 324.167 161.934 324.097 162.34 323.955C162.746 323.814 163.165 323.601 163.595 323.318L164.491 324.555C164.029 324.937 163.491 325.235 162.875 325.451C162.26 325.666 161.614 325.774 160.937 325.774C159.946 325.774 159.097 325.561 158.389 325.137C157.682 324.706 157.146 324.106 156.783 323.337C156.42 322.567 156.238 321.675 156.238 320.66C156.238 319.681 156.417 318.804 156.774 318.029C157.137 317.247 157.654 316.635 158.325 316.192C158.995 315.743 159.783 315.518 160.688 315.518C161.543 315.518 162.285 315.715 162.912 316.109C163.546 316.497 164.032 317.057 164.371 317.789C164.715 318.521 164.888 319.389 164.888 320.392C164.888 320.731 164.872 321.038 164.842 321.315H158.38ZM160.706 317.051C160.035 317.051 159.494 317.291 159.082 317.771C158.669 318.244 158.432 318.955 158.371 319.903H162.885C162.866 318.986 162.669 318.281 162.294 317.789C161.918 317.297 161.389 317.051 160.706 317.051ZM175.373 320.595H167.748V318.897H175.373V320.595ZM179.941 314.687C180.021 315.531 180.092 316.364 180.154 317.189C180.215 318.007 180.246 318.857 180.246 319.737V325.524H178.344V312.786H181.123L185.184 323.632C184.981 321.761 184.88 320.081 184.88 318.592V312.786H186.781V325.524H183.994L179.941 314.687ZM193.574 315.518C194.51 315.518 195.307 315.727 195.965 316.146C196.624 316.564 197.122 317.158 197.46 317.927C197.799 318.691 197.968 319.592 197.968 320.632C197.968 321.666 197.796 322.571 197.451 323.346C197.107 324.115 196.605 324.712 195.947 325.137C195.288 325.561 194.494 325.774 193.565 325.774C192.63 325.774 191.833 325.567 191.174 325.155C190.516 324.743 190.014 324.152 189.67 323.383C189.331 322.614 189.162 321.703 189.162 320.651C189.162 319.635 189.334 318.74 189.679 317.964C190.024 317.189 190.525 316.589 191.184 316.164C191.848 315.734 192.645 315.518 193.574 315.518ZM193.574 317.124C192.824 317.124 192.26 317.414 191.885 317.992C191.516 318.564 191.331 319.451 191.331 320.651C191.331 321.851 191.516 322.74 191.885 323.318C192.254 323.891 192.814 324.177 193.565 324.177C194.316 324.177 194.876 323.891 195.245 323.318C195.614 322.74 195.799 321.844 195.799 320.632C195.799 319.438 195.614 318.555 195.245 317.983C194.876 317.411 194.319 317.124 193.574 317.124ZM208.813 325.007C208.45 325.241 208.017 325.426 207.512 325.561C207.013 325.703 206.5 325.774 205.97 325.774C205.226 325.774 204.595 325.641 204.078 325.377C203.561 325.112 203.17 324.74 202.906 324.26C202.641 323.78 202.509 323.217 202.509 322.571V317.281H200.34V315.777H202.509V313.598L204.577 313.349V315.777H207.863L207.632 317.281H204.577V322.552C204.577 323.081 204.709 323.472 204.973 323.724C205.238 323.977 205.666 324.103 206.257 324.103C206.909 324.103 207.512 323.949 208.066 323.641L208.813 325.007ZM213.391 321.315C213.446 322.269 213.714 322.983 214.194 323.457C214.68 323.931 215.299 324.167 216.05 324.167C216.511 324.167 216.945 324.097 217.351 323.955C217.757 323.814 218.176 323.601 218.606 323.318L219.502 324.555C219.04 324.937 218.502 325.235 217.886 325.451C217.271 325.666 216.625 325.774 215.948 325.774C214.957 325.774 214.108 325.561 213.4 325.137C212.693 324.706 212.157 324.106 211.794 323.337C211.431 322.567 211.25 321.675 211.25 320.66C211.25 319.681 211.428 318.804 211.785 318.029C212.148 317.247 212.665 316.635 213.336 316.192C214.006 315.743 214.794 315.518 215.699 315.518C216.554 315.518 217.296 315.715 217.923 316.109C218.557 316.497 219.043 317.057 219.382 317.789C219.726 318.521 219.899 319.389 219.899 320.392C219.899 320.731 219.883 321.038 219.853 321.315H213.391ZM215.717 317.051C215.046 317.051 214.505 317.291 214.093 317.771C213.68 318.244 213.443 318.955 213.382 319.903H217.896C217.877 318.986 217.68 318.281 217.305 317.789C216.93 317.297 216.4 317.051 215.717 317.051ZM226.221 324.186C226.873 324.186 227.387 324.072 227.763 323.844C228.144 323.611 228.335 323.291 228.335 322.884C228.335 322.601 228.276 322.371 228.159 322.192C228.049 322.014 227.827 321.847 227.495 321.694C227.163 321.534 226.661 321.367 225.99 321.195C225.289 321.017 224.707 320.814 224.246 320.586C223.784 320.352 223.424 320.054 223.166 319.691C222.913 319.321 222.787 318.863 222.787 318.315C222.787 317.761 222.944 317.275 223.258 316.857C223.578 316.432 224.03 316.103 224.615 315.869C225.206 315.635 225.895 315.518 226.683 315.518C228.129 315.518 229.363 315.894 230.384 316.644L229.516 317.946C229.104 317.675 228.67 317.466 228.215 317.318C227.766 317.164 227.273 317.087 226.738 317.087C225.507 317.087 224.892 317.447 224.892 318.167C224.892 318.414 224.963 318.617 225.104 318.777C225.246 318.931 225.486 319.078 225.824 319.22C226.169 319.355 226.686 319.518 227.375 319.709C228.076 319.906 228.652 320.121 229.101 320.355C229.55 320.589 229.898 320.897 230.144 321.278C230.396 321.66 230.523 322.149 230.523 322.746C230.523 323.417 230.326 323.98 229.932 324.435C229.538 324.891 229.015 325.229 228.363 325.451C227.716 325.666 227.003 325.774 226.221 325.774C225.366 325.774 224.606 325.651 223.941 325.404C223.276 325.158 222.701 324.823 222.215 324.398L223.313 323.143C223.707 323.469 224.15 323.724 224.643 323.909C225.141 324.094 225.667 324.186 226.221 324.186ZM60.5969 330.909H62.48V353.063H60.5969V330.909ZM93.8067 329.063H95.2836V340.324H100.176V341.801H93.8067V329.063ZM99.9166 340.324H111.178V341.801H99.9166V340.324ZM110.919 340.324H122.18V341.801H110.919V340.324ZM127.201 346.186C127.853 346.186 128.367 346.072 128.743 345.844C129.124 345.611 129.315 345.291 129.315 344.884C129.315 344.601 129.256 344.371 129.139 344.192C129.029 344.014 128.807 343.847 128.475 343.694C128.143 343.534 127.641 343.367 126.97 343.195C126.269 343.017 125.687 342.814 125.226 342.586C124.764 342.352 124.404 342.054 124.146 341.691C123.893 341.321 123.767 340.863 123.767 340.315C123.767 339.761 123.924 339.275 124.238 338.857C124.558 338.432 125.01 338.103 125.595 337.869C126.186 337.635 126.875 337.518 127.663 337.518C129.109 337.518 130.343 337.894 131.364 338.644L130.496 339.946C130.084 339.675 129.65 339.466 129.195 339.318C128.746 339.164 128.253 339.087 127.718 339.087C126.487 339.087 125.872 339.447 125.872 340.167C125.872 340.414 125.943 340.617 126.084 340.777C126.226 340.931 126.466 341.078 126.804 341.22C127.149 341.355 127.666 341.518 128.355 341.709C129.056 341.906 129.632 342.121 130.081 342.355C130.53 342.589 130.878 342.897 131.124 343.278C131.376 343.66 131.503 344.149 131.503 344.746C131.503 345.417 131.306 345.98 130.912 346.435C130.518 346.891 129.995 347.229 129.343 347.451C128.696 347.666 127.983 347.774 127.201 347.774C126.346 347.774 125.586 347.651 124.921 347.404C124.256 347.158 123.681 346.823 123.195 346.398L124.293 345.143C124.687 345.469 125.13 345.724 125.623 345.909C126.121 346.094 126.647 346.186 127.201 346.186ZM136.376 343.315C136.431 344.269 136.699 344.983 137.179 345.457C137.665 345.931 138.283 346.167 139.034 346.167C139.496 346.167 139.929 346.097 140.336 345.955C140.742 345.814 141.16 345.601 141.591 345.318L142.486 346.555C142.025 346.937 141.486 347.235 140.871 347.451C140.256 347.666 139.609 347.774 138.932 347.774C137.942 347.774 137.092 347.561 136.385 347.137C135.677 346.706 135.142 346.106 134.779 345.337C134.416 344.567 134.234 343.675 134.234 342.66C134.234 341.681 134.412 340.804 134.769 340.029C135.132 339.247 135.649 338.635 136.32 338.192C136.991 337.743 137.779 337.518 138.683 337.518C139.539 337.518 140.28 337.715 140.908 338.109C141.542 338.497 142.028 339.057 142.366 339.789C142.711 340.521 142.883 341.389 142.883 342.392C142.883 342.731 142.868 343.038 142.837 343.315H136.376ZM138.702 339.051C138.031 339.051 137.489 339.291 137.077 339.771C136.665 340.244 136.428 340.955 136.366 341.903H140.88C140.862 340.986 140.665 340.281 140.289 339.789C139.914 339.297 139.385 339.051 138.702 339.051ZM150.359 346.075C150.79 346.075 151.199 346.001 151.587 345.854C151.981 345.706 152.372 345.497 152.759 345.226L153.719 346.555C153.282 346.924 152.759 347.22 152.15 347.441C151.547 347.663 150.929 347.774 150.295 347.774C149.31 347.774 148.461 347.564 147.747 347.146C147.033 346.727 146.489 346.137 146.113 345.374C145.738 344.604 145.55 343.712 145.55 342.697C145.55 341.7 145.741 340.811 146.122 340.029C146.504 339.247 147.055 338.635 147.775 338.192C148.501 337.743 149.353 337.518 150.332 337.518C151.636 337.518 152.762 337.909 153.71 338.691L152.759 339.992C151.972 339.451 151.175 339.18 150.369 339.18C149.562 339.18 148.922 339.472 148.449 340.057C147.981 340.641 147.747 341.521 147.747 342.697C147.747 343.86 147.981 344.715 148.449 345.263C148.916 345.804 149.553 346.075 150.359 346.075ZM163.577 337.527C163.848 337.527 164.097 337.549 164.325 337.592C164.552 337.635 164.792 337.697 165.045 337.777L164.694 341.367H163.217V339.383C162.534 339.407 161.943 339.681 161.445 340.204C160.946 340.721 160.549 341.463 160.254 342.429V346.047H162.22V347.524H156.755V346.047H158.186V339.244H156.755V337.777H159.765L160.143 340.038C160.518 339.195 160.977 338.567 161.518 338.155C162.066 337.737 162.752 337.527 163.577 337.527ZM169.382 343.315C169.438 344.269 169.705 344.983 170.185 345.457C170.671 345.931 171.29 346.167 172.041 346.167C172.502 346.167 172.936 346.097 173.342 345.955C173.748 345.814 174.167 345.601 174.598 345.318L175.493 346.555C175.031 346.937 174.493 347.235 173.878 347.451C173.262 347.666 172.616 347.774 171.939 347.774C170.948 347.774 170.099 347.561 169.391 347.137C168.684 346.706 168.148 346.106 167.785 345.337C167.422 344.567 167.241 343.675 167.241 342.66C167.241 341.681 167.419 340.804 167.776 340.029C168.139 339.247 168.656 338.635 169.327 338.192C169.998 337.743 170.785 337.518 171.69 337.518C172.545 337.518 173.287 337.715 173.914 338.109C174.548 338.497 175.034 339.057 175.373 339.789C175.718 340.521 175.89 341.389 175.89 342.392C175.89 342.731 175.874 343.038 175.844 343.315H169.382ZM171.708 339.051C171.038 339.051 170.496 339.291 170.084 339.771C169.671 340.244 169.434 340.955 169.373 341.903H173.887C173.868 340.986 173.671 340.281 173.296 339.789C172.921 339.297 172.391 339.051 171.708 339.051ZM186.809 347.007C186.446 347.241 186.012 347.426 185.507 347.561C185.009 347.703 184.495 347.774 183.966 347.774C183.221 347.774 182.591 347.641 182.074 347.377C181.557 347.112 181.166 346.74 180.901 346.26C180.637 345.78 180.504 345.217 180.504 344.571V339.281H178.335V337.777H180.504V335.598L182.572 335.349V337.777H185.858L185.627 339.281H182.572V344.552C182.572 345.081 182.704 345.472 182.969 345.724C183.234 345.977 183.661 346.103 184.252 346.103C184.904 346.103 185.507 345.949 186.061 345.641L186.809 347.007ZM60.8 351.063H62.2769V362.324H67.1692V363.801H60.8V351.063ZM66.9099 362.324H78.1714V363.801H66.9099V362.324ZM77.9121 362.324H89.1737V363.801H77.9121V362.324ZM99.1328 365.924C99.1328 366.681 98.939 367.352 98.5513 367.937C98.1697 368.515 97.6128 368.967 96.8805 369.294C96.1482 369.614 95.2805 369.774 94.2774 369.774C93.2743 369.774 92.382 369.626 91.6005 369.331C90.819 369.029 90.1482 368.607 89.5882 368.066L90.7605 366.755C91.2282 367.186 91.7482 367.515 92.3205 367.743C92.899 367.971 93.5482 368.084 94.2682 368.084C94.7605 368.084 95.2036 368.007 95.5974 367.854C95.9974 367.694 96.3143 367.46 96.5482 367.152C96.7882 366.844 96.9082 366.469 96.9082 366.026C96.9082 365.644 96.8313 365.324 96.6774 365.066C96.5236 364.807 96.259 364.577 95.8836 364.374C95.5082 364.171 94.979 363.967 94.2959 363.764C93.3543 363.481 92.5851 363.174 91.9882 362.841C91.3974 362.509 90.9482 362.112 90.6405 361.651C90.339 361.183 90.1882 360.623 90.1882 359.971C90.1882 359.294 90.3759 358.694 90.7513 358.171C91.1328 357.647 91.6559 357.244 92.3205 356.961C92.9851 356.672 93.7328 356.527 94.5636 356.527C95.4559 356.527 96.2497 356.657 96.9451 356.915C97.6467 357.174 98.2743 357.555 98.8282 358.06L97.702 359.334C97.2651 358.952 96.7913 358.669 96.2805 358.484C95.7697 358.3 95.2405 358.207 94.6928 358.207C94.0097 358.207 93.4528 358.349 93.022 358.632C92.5974 358.915 92.3851 359.321 92.3851 359.851C92.3851 360.189 92.4743 360.472 92.6528 360.7C92.8374 360.927 93.139 361.14 93.5574 361.337C93.9759 361.534 94.579 361.749 95.3667 361.983C96.1667 362.223 96.8374 362.497 97.379 362.804C97.9205 363.106 98.3482 363.512 98.662 364.023C98.9759 364.527 99.1328 365.161 99.1328 365.924ZM103.369 365.315C103.424 366.269 103.692 366.983 104.172 367.457C104.658 367.931 105.277 368.167 106.027 368.167C106.489 368.167 106.923 368.097 107.329 367.955C107.735 367.814 108.153 367.601 108.584 367.318L109.48 368.555C109.018 368.937 108.48 369.235 107.864 369.451C107.249 369.666 106.603 369.774 105.926 369.774C104.935 369.774 104.086 369.561 103.378 369.137C102.67 368.706 102.135 368.106 101.772 367.337C101.409 366.567 101.227 365.675 101.227 364.66C101.227 363.681 101.406 362.804 101.763 362.029C102.126 361.247 102.643 360.635 103.313 360.192C103.984 359.743 104.772 359.518 105.677 359.518C106.532 359.518 107.273 359.715 107.901 360.109C108.535 360.497 109.021 361.057 109.36 361.789C109.704 362.521 109.877 363.389 109.877 364.392C109.877 364.731 109.861 365.038 109.83 365.315H103.369ZM105.695 361.051C105.024 361.051 104.483 361.291 104.07 361.771C103.658 362.244 103.421 362.955 103.36 363.903H107.873C107.855 362.986 107.658 362.281 107.283 361.789C106.907 361.297 106.378 361.051 105.695 361.051ZM119.568 359.527C119.839 359.527 120.088 359.549 120.316 359.592C120.543 359.635 120.783 359.697 121.036 359.777L120.685 363.367H119.208V361.383C118.525 361.407 117.934 361.681 117.436 362.204C116.937 362.721 116.54 363.463 116.245 364.429V368.047H118.211V369.524H112.746V368.047H114.177V361.244H112.746V359.777H115.756L116.134 362.038C116.51 361.195 116.968 360.567 117.51 360.155C118.057 359.737 118.743 359.527 119.568 359.527ZM130.081 359.777H132.195L128.761 369.524H126.343L122.909 359.777H125.124L127.598 367.807L130.081 359.777ZM136.376 365.315C136.431 366.269 136.699 366.983 137.179 367.457C137.665 367.931 138.283 368.167 139.034 368.167C139.496 368.167 139.929 368.097 140.336 367.955C140.742 367.814 141.16 367.601 141.591 367.318L142.486 368.555C142.025 368.937 141.486 369.235 140.871 369.451C140.256 369.666 139.609 369.774 138.932 369.774C137.942 369.774 137.092 369.561 136.385 369.137C135.677 368.706 135.142 368.106 134.779 367.337C134.416 366.567 134.234 365.675 134.234 364.66C134.234 363.681 134.412 362.804 134.769 362.029C135.132 361.247 135.649 360.635 136.32 360.192C136.991 359.743 137.779 359.518 138.683 359.518C139.539 359.518 140.28 359.715 140.908 360.109C141.542 360.497 142.028 361.057 142.366 361.789C142.711 362.521 142.883 363.389 142.883 364.392C142.883 364.731 142.868 365.038 142.837 365.315H136.376ZM138.702 361.051C138.031 361.051 137.489 361.291 137.077 361.771C136.665 362.244 136.428 362.955 136.366 363.903H140.88C140.862 362.986 140.665 362.281 140.289 361.789C139.914 361.297 139.385 361.051 138.702 361.051ZM152.575 359.527C152.845 359.527 153.095 359.549 153.322 359.592C153.55 359.635 153.79 359.697 154.042 359.777L153.692 363.367H152.215V361.383C151.532 361.407 150.941 361.681 150.442 362.204C149.944 362.721 149.547 363.463 149.252 364.429V368.047H151.218V369.524H145.753V368.047H147.184V361.244H145.753V359.777H148.762L149.141 362.038C149.516 361.195 149.975 360.567 150.516 360.155C151.064 359.737 151.75 359.527 152.575 359.527ZM160.208 368.186C160.86 368.186 161.374 368.072 161.749 367.844C162.131 367.611 162.322 367.291 162.322 366.884C162.322 366.601 162.263 366.371 162.146 366.192C162.035 366.014 161.814 365.847 161.482 365.694C161.149 365.534 160.648 365.367 159.977 365.195C159.275 365.017 158.694 364.814 158.232 364.586C157.771 364.352 157.411 364.054 157.152 363.691C156.9 363.321 156.774 362.863 156.774 362.315C156.774 361.761 156.931 361.275 157.245 360.857C157.565 360.432 158.017 360.103 158.602 359.869C159.192 359.635 159.882 359.518 160.669 359.518C162.115 359.518 163.349 359.894 164.371 360.644L163.503 361.946C163.091 361.675 162.657 361.466 162.202 361.318C161.752 361.164 161.26 361.087 160.725 361.087C159.494 361.087 158.878 361.447 158.878 362.167C158.878 362.414 158.949 362.617 159.091 362.777C159.232 362.931 159.472 363.078 159.811 363.22C160.155 363.355 160.672 363.518 161.362 363.709C162.063 363.906 162.638 364.121 163.088 364.355C163.537 364.589 163.885 364.897 164.131 365.278C164.383 365.66 164.509 366.149 164.509 366.746C164.509 367.417 164.312 367.98 163.918 368.435C163.525 368.891 163.002 369.229 162.349 369.451C161.703 369.666 160.989 369.774 160.208 369.774C159.352 369.774 158.592 369.651 157.928 369.404C157.263 369.158 156.688 368.823 156.202 368.398L157.3 367.143C157.694 367.469 158.137 367.724 158.629 367.909C159.128 368.094 159.654 368.186 160.208 368.186Z" fill="white"/>
<defs>
<filter id="filter0_d" x="0" y="0" width="446" height="469" filterUnits="userSpaceOnUse" color-interpolation-filters="sRGB">
<feFlood flood-opacity="0" result="BackgroundImageFix"/>
<feColorMatrix in="SourceAlpha" type="matrix" values="0 0 0 0 0 0 0 0 0 0 0 0 0 0 0 0 0 0 127 0" result="hardAlpha"/>
<feOffset dy="25"/>
<feGaussianBlur stdDeviation="15"/>
<feColorMatrix type="matrix" values="0 0 0 0 0 0 0 0 0 0 0 0 0 0 0 0 0 0 0.35 0"/>
<feBlend mode="normal" in2="BackgroundImageFix" result="effect1_dropShadow"/>
<feBlend mode="normal" in="SourceGraphic" in2="effect1_dropShadow" result="shape"/>
</filter>
<filter id="filter1_di" x="31" y="6" width="384" height="28.5" filterUnits="userSpaceOnUse" color-interpolation-filters="sRGB">
<feFlood flood-opacity="0" result="BackgroundImageFix"/>
<feColorMatrix in="SourceAlpha" type="matrix" values="0 0 0 0 0 0 0 0 0 0 0 0 0 0 0 0 0 0 127 0" result="hardAlpha"/>
<feOffset dy="0.5"/>
<feColorMatrix type="matrix" values="0 0 0 0 0 0 0 0 0 0 0 0 0 0 0 0 0 0 0.15 0"/>
<feBlend mode="normal" in2="BackgroundImageFix" result="effect1_dropShadow"/>
<feBlend mode="normal" in="SourceGraphic" in2="effect1_dropShadow" result="shape"/>
<feColorMatrix in="SourceAlpha" type="matrix" values="0 0 0 0 0 0 0 0 0 0 0 0 0 0 0 0 0 0 127 0" result="hardAlpha"/>
<feOffset dy="-0.5"/>
<feComposite in2="hardAlpha" operator="arithmetic" k2="-1" k3="1"/>
<feColorMatrix type="matrix" values="0 0 0 0 0 0 0 0 0 0 0 0 0 0 0 0 0 0 0.05 0"/>
<feBlend mode="normal" in2="shape" result="effect2_innerShadow"/>
</filter>
</defs>
</svg>
