<svg width="1508" height="758" viewBox="0 0 1508 758" fill="none" xmlns="http://www.w3.org/2000/svg">
    <g filter="url(#filter0_d)">
        <path d="M4 5C4 2.23857 6.23858 0 9 0H1499C1501.76 0 1504 2.23858 1504 5V745C1504 747.761 1501.76 750 1499 750H9C6.23857 750 4 747.761 4 745V5Z" fill="#1435AB" />
        <g opacity="0.2">
            <path d="M1504 0H4V750H1504V0Z" fill="#103BB9" />
            <path d="M19.9375 137.25V12.75L175.563 137.25H19.9375Z" fill="#1D2488" />
            <path d="M207.438 137.25V12.75L363.063 137.25H207.438Z" fill="#1D2488" />
            <path d="M1145.41 437.391V312.891L1301.03 437.391H1145.41Z" fill="#1D2488" />
            <path d="M1332.91 437.391V312.891L1488.53 437.391H1332.91Z" fill="#1D2488" />
            <path d="M207.438 137.25V12.75L363.063 137.25H207.438Z" fill="#1D2488" />
            <path d="M957.906 437.391V312.891L1113.53 437.391H957.906Z" fill="#1D2488" />
            <path d="M394.938 137.25V12.75L550.563 137.25H394.938Z" fill="#011341" />
            <path d="M582.438 137.25V12.75L738.063 137.25H582.438Z" fill="#011341" />
            <path d="M769.938 137.25V12.75L925.563 137.25H769.938Z" fill="#1D2488" />
            <path d="M957.438 137.25V12.75L1113.06 137.25H957.438Z" fill="#1D2488" />
            <path d="M1144.94 137.25V12.75L1300.56 137.25H1144.94Z" fill="#1D2488" />
            <path d="M1332.44 137.25V12.75L1488.06 137.25H1332.44Z" fill="#1D2488" />
            <path d="M19.9375 287.25V162.75L175.563 287.25H19.9375Z" fill="#011341" />
            <path d="M207.438 287.25V162.75L363.063 287.25H207.438Z" fill="#011341" />
            <path d="M394.938 287.25V162.75L550.563 287.25H394.938Z" fill="#1D2488" />
            <path d="M582.438 287.25V162.75L738.063 287.25H582.438Z" fill="#1D2488" />
            <path d="M770.406 587.391V462.891L926.031 587.391H770.406Z" fill="#1D2488" />
            <path d="M957.906 587.391V462.891L1113.53 587.391H957.906Z" fill="#1D2488" />
            <path d="M1145.41 587.391V462.891L1301.03 587.391H1145.41Z" fill="#011341" />
            <path d="M1332.91 587.391V462.891L1488.53 587.391H1332.91Z" fill="#011341" />
            <path d="M770.406 737.391V612.891L926.031 737.391H770.406Z" fill="#011341" />
            <path d="M957.906 737.391V612.891L1113.53 737.391H957.906Z" fill="#011341" />
            <path d="M1145.41 737.391V612.891L1301.03 737.391H1145.41Z" fill="#1D2488" />
            <path d="M1332.91 737.391V612.891L1488.53 737.391H1332.91Z" fill="#1D2488" />
            <path d="M20.4062 587.391V462.891L176.031 587.391H20.4062Z" fill="#1D2488" />
            <path d="M207.906 587.391V462.891L363.531 587.391H207.906Z" fill="#1D2488" />
            <path d="M395.406 587.391V462.891L551.031 587.391H395.406Z" fill="#011341" />
            <path d="M582.906 587.391V462.891L738.531 587.391H582.906Z" fill="#011341" />
            <path d="M20.4062 737.391V612.891L176.031 737.391H20.4062Z" fill="#011341" />
            <path d="M207.906 737.391V612.891L363.531 737.391H207.906Z" fill="#011341" />
            <path d="M395.406 737.391V612.891L551.031 737.391H395.406Z" fill="#1D2488" />
            <path d="M582.906 737.391V612.891L738.531 737.391H582.906Z" fill="#1D2488" />
            <path d="M770.406 737.391V612.891L926.031 737.391H770.406Z" fill="#011341" />
            <path d="M957.906 737.391V612.891L1113.53 737.391H957.906Z" fill="#011341" />
            <path d="M1145.41 737.391V612.891L1301.03 737.391H1145.41Z" fill="#1D2488" />
            <path d="M1332.91 737.391V612.891L1488.53 737.391H1332.91Z" fill="#1D2488" />
            <path d="M20.4062 737.391V612.891L176.031 737.391H20.4062Z" fill="#011341" />
            <path d="M20.4062 737.391V612.891L176.031 737.391H20.4062Z" fill="#011341" />
            <path d="M207.906 737.391V612.891L363.531 737.391H207.906Z" fill="#011341" />
            <path d="M395.406 737.391V612.891L551.031 737.391H395.406Z" fill="#1D2488" />
            <path d="M582.906 737.391V612.891L738.531 737.391H582.906Z" fill="#1D2488" />
            <path d="M769.938 287.25V162.75L925.563 287.25H769.938Z" fill="#1D2488" />
            <path d="M957.438 287.25V162.75L1113.06 287.25H957.438Z" fill="#011341" />
            <path d="M1144.94 287.25V162.75L1300.56 287.25H1144.94Z" fill="#1D2488" />
            <path d="M1332.44 287.25V162.75L1488.06 287.25H1332.44Z" fill="#011341" />
            <path d="M19.9375 437.25V312.75L175.563 437.25H19.9375Z" fill="#011341" />
            <path d="M207.438 437.25V312.75L363.063 437.25H207.438Z" fill="#1D2488" />
            <path d="M394.938 437.25V312.75L550.563 437.25H394.938Z" fill="#1D2488" />
            <path d="M582.438 437.25V312.75L738.063 437.25H582.438Z" fill="#1D2488" />
            <path d="M769.938 437.25V312.75L925.563 437.25H769.938Z" fill="#1D2488" />
        </g>
        <g clip-path="url(#clip0)" filter="url(#filter1_d)">
            <ellipse cx="520.125" cy="313.125" rx="86.2265" ry="86.2265" fill="white" />
            <path d="M595.167 238.083C575.122 218.039 548.472 207 520.125 207C491.778 207 465.128 218.039 445.083 238.083C425.039 258.128 414 284.778 414 313.125C414 341.472 425.039 368.122 445.083 388.167C465.128 408.211 491.778 419.25 520.125 419.25C548.472 419.25 575.122 408.211 595.167 388.167C615.211 368.122 626.25 341.472 626.25 313.125C626.25 284.778 615.211 258.128 595.167 238.083ZM520.125 394.275C475.379 394.275 438.975 357.872 438.975 313.125C438.975 268.378 475.379 231.975 520.125 231.975C564.871 231.975 601.275 268.379 601.275 313.125C601.275 357.871 564.871 394.275 520.125 394.275Z" fill="black" />
            <path d="M520.126 244.412C482.237 244.412 451.412 275.236 451.412 313.125C451.412 323.838 453.878 333.985 458.27 343.031L460.444 338.553C460.474 338.492 460.505 338.431 460.537 338.371C461.46 336.619 464.473 329.621 464.473 313.125C464.473 303.246 467.094 293.526 472.055 285.017C473.784 282.05 477.591 281.047 480.558 282.777C483.525 284.506 484.528 288.313 482.799 291.28C478.946 297.89 476.909 305.444 476.909 313.125C476.909 331.117 473.601 340.209 471.59 344.072L466.051 355.476C473.081 364.433 482.287 371.603 492.862 376.192C497.954 372.117 502.239 366.499 505.622 359.439C511.326 347.533 514.219 331.951 514.219 313.125C514.219 309.691 517.003 306.907 520.437 306.907C523.871 306.907 526.655 309.691 526.655 313.125C526.655 333.826 523.352 351.216 516.837 364.813C513.944 370.85 510.461 376.079 506.434 380.467C510.86 381.366 515.439 381.839 520.126 381.839C520.511 381.839 520.894 381.83 521.277 381.824C529.583 370.093 535.045 355.11 537.525 337.236C537.997 333.835 541.137 331.463 544.539 331.932C547.941 332.404 550.316 335.544 549.843 338.946C547.692 354.451 543.439 368.092 537.18 379.696C543.138 378.168 548.785 375.859 554.008 372.886C560.609 355.92 563.965 335.834 563.965 313.125C563.965 289.124 544.438 269.597 520.437 269.597C512.696 269.597 505.092 271.664 498.445 275.573C495.485 277.314 491.674 276.327 489.933 273.366C488.192 270.406 489.18 266.595 492.14 264.854C500.696 259.821 510.481 257.161 520.437 257.161C551.296 257.161 576.401 282.266 576.401 313.125C576.401 329.662 574.703 344.959 571.359 358.861C582.224 346.704 588.839 330.674 588.839 313.125C588.84 275.236 558.015 244.412 520.126 244.412ZM489.346 313.125C489.346 295.981 503.293 282.034 520.437 282.034C537.581 282.034 551.528 295.981 551.528 313.125C551.528 316.559 548.744 319.343 545.31 319.343C541.876 319.343 539.092 316.559 539.092 313.125C539.092 302.839 530.723 294.47 520.437 294.47C510.151 294.47 501.782 302.839 501.782 313.125C501.782 331.332 498.947 345.804 493.356 356.136C492.231 358.216 490.091 359.396 487.881 359.396C486.882 359.396 485.868 359.155 484.928 358.645C481.907 357.011 480.784 353.238 482.418 350.217C485.579 344.377 489.346 333.201 489.346 313.125Z" fill="black" />
        </g>
        <path d="M728.782 340.617C728.782 327.097 722.802 321.117 705.382 313.187C691.732 306.947 688.352 303.697 688.352 296.807C688.352 290.177 692.902 284.717 703.172 284.717C710.322 284.717 717.082 287.577 722.022 291.347L723.972 279.127C718.772 276.137 712.272 274.057 703.562 274.057C687.312 274.057 676.262 283.287 676.262 297.717C676.262 310.587 682.632 316.177 699.532 323.847C713.052 329.957 716.692 333.337 716.692 341.527C716.692 350.237 710.062 355.177 700.702 355.177C691.732 355.177 683.282 351.537 677.172 347.507L675.352 359.987C681.982 363.497 690.692 365.837 700.442 365.837C717.212 365.837 728.782 356.087 728.782 340.617ZM794.265 332.557C794.265 315.397 785.945 301.487 767.875 301.487C752.275 301.487 740.575 313.707 740.575 333.597C740.575 356.347 753.185 366.097 769.305 366.097C779.575 366.097 787.505 362.977 794.135 357.777L792.445 347.377C785.685 352.707 779.185 356.217 770.215 356.217C759.425 356.217 752.535 349.457 752.145 335.027H794.265C794.265 334.247 794.265 333.207 794.265 332.557ZM782.565 326.317H752.665C754.485 315.657 760.595 310.587 767.745 310.587C776.715 310.587 781.135 316.307 782.565 326.317ZM855.498 359.467L853.808 349.067C847.438 354.527 841.978 355.957 835.738 355.957C824.818 355.957 817.148 348.807 817.148 333.727C817.148 319.297 824.298 311.627 834.438 311.627C841.588 311.627 847.438 313.837 853.158 318.517L854.848 307.207C850.168 303.827 843.668 301.487 834.568 301.487C818.448 301.487 805.448 312.667 805.448 333.857C805.448 354.527 817.668 366.097 834.308 366.097C842.628 366.097 849.128 364.277 855.498 359.467ZM957.906 364.797V319.687C957.906 308.507 952.186 301.487 940.356 301.487C931.646 301.487 924.106 306.427 918.516 311.757C916.176 305.387 911.236 301.487 902.136 301.487C893.426 301.487 886.406 306.427 880.556 311.757L879.126 302.787H869.896V364.797H881.466V321.897C887.056 315.917 892.906 311.887 899.016 311.887C905.776 311.887 908.116 316.177 908.116 322.547V364.797H919.686V321.897C925.276 315.917 931.126 311.887 937.236 311.887C943.996 311.887 946.336 316.177 946.336 322.547V364.797H957.906ZM1022.83 364.797V321.377C1022.83 307.597 1015.55 301.487 1000.47 301.487C990.852 301.487 983.832 303.697 976.422 306.687L977.982 316.697C984.742 313.707 991.892 311.367 999.432 311.367C1006.58 311.367 1011.26 314.097 1011.26 321.897V324.497C985.392 327.227 972.132 333.337 972.132 348.807C972.132 359.337 979.152 366.097 990.332 366.097C1000.47 366.097 1007.23 361.547 1012.17 356.477L1013.47 364.797H1022.83ZM1011.26 347.767C1006.06 353.097 999.562 356.477 992.802 356.477C986.952 356.477 983.572 353.227 983.572 348.157C983.572 341.787 988.382 335.547 1011.26 333.337V347.767ZM1091.34 364.797V319.687C1091.34 308.507 1085.1 301.487 1073.4 301.487C1064.56 301.487 1057.28 306.427 1051.43 311.757L1050 302.787H1040.77V364.797H1052.34V321.897C1057.93 315.917 1064.17 311.887 1070.28 311.887C1077.04 311.887 1079.77 316.177 1079.77 322.547V364.797H1091.34Z" fill="white" />
        <path d="M301.572 512.359H312.9V544H318.369V512.359H329.715V507.636H301.572V512.359ZM340.816 527.807C340.816 523.457 343.568 520.971 347.35 520.971C351.008 520.971 353.192 523.297 353.192 527.292V544H358.501V526.653C358.501 519.852 354.772 516.372 349.161 516.372C344.918 516.372 342.361 518.219 341.083 521.166H340.745V507.636H335.507V544H340.816V527.807ZM377.34 544.55C383.288 544.55 387.496 541.621 388.703 537.182L383.679 536.276C382.72 538.851 380.411 540.165 377.393 540.165C372.848 540.165 369.794 537.217 369.652 531.962H389.041V530.08C389.041 520.225 383.146 516.372 376.967 516.372C369.367 516.372 364.36 522.161 364.36 530.541C364.36 539.011 369.296 544.55 377.34 544.55ZM369.669 527.984C369.882 524.114 372.688 520.758 377.002 520.758C381.122 520.758 383.821 523.812 383.838 527.984H369.669ZM408.59 544H414.076V531.216H421.534C429.968 531.216 434.14 526.12 434.14 519.408C434.14 512.714 430.003 507.636 421.551 507.636H408.59V544ZM414.076 526.564V512.342H420.965C426.399 512.342 428.618 515.289 428.618 519.408C428.618 523.528 426.399 526.564 421.036 526.564H414.076ZM447.839 544.604C452.349 544.604 454.888 542.313 455.9 540.271H456.113V544H461.297V525.889C461.297 517.952 455.047 516.372 450.715 516.372C445.779 516.372 441.234 518.361 439.458 523.332L444.447 524.469C445.229 522.533 447.217 520.669 450.786 520.669C454.213 520.669 455.971 522.462 455.971 525.552V525.676C455.971 527.612 453.982 527.576 449.082 528.144C443.915 528.748 438.623 530.097 438.623 536.294C438.623 541.656 442.654 544.604 447.839 544.604ZM448.993 540.342C445.992 540.342 443.826 538.993 443.826 536.365C443.826 533.524 446.347 532.512 449.419 532.104C451.141 531.873 455.225 531.411 455.989 530.648V534.163C455.989 537.395 453.414 540.342 448.993 540.342ZM488.805 523.386C487.705 519.142 484.384 516.372 478.489 516.372C472.328 516.372 467.96 519.621 467.96 524.451C467.96 528.322 470.304 530.896 475.418 532.033L480.034 533.045C482.662 533.631 483.887 534.803 483.887 536.507C483.887 538.62 481.632 540.271 478.152 540.271C474.974 540.271 472.932 538.904 472.293 536.223L467.161 537.004C468.049 541.834 472.062 544.55 478.188 544.55C484.775 544.55 489.338 541.053 489.338 536.116C489.338 532.263 486.888 529.884 481.881 528.73L477.548 527.736C474.548 527.026 473.252 526.013 473.269 524.167C473.252 522.072 475.524 520.58 478.543 520.58C481.845 520.58 483.372 522.409 483.994 524.238L488.805 523.386ZM515.612 523.386C514.511 519.142 511.191 516.372 505.296 516.372C499.135 516.372 494.767 519.621 494.767 524.451C494.767 528.322 497.111 530.896 502.224 532.033L506.841 533.045C509.469 533.631 510.694 534.803 510.694 536.507C510.694 538.62 508.439 540.271 504.959 540.271C501.78 540.271 499.739 538.904 499.099 536.223L493.968 537.004C494.856 541.834 498.869 544.55 504.994 544.55C511.582 544.55 516.145 541.053 516.145 536.116C516.145 532.263 513.695 529.884 508.687 528.73L504.355 527.736C501.354 527.026 500.058 526.013 500.076 524.167C500.058 522.072 502.331 520.58 505.349 520.58C508.652 520.58 510.179 522.409 510.8 524.238L515.612 523.386ZM527.895 544H533.292L538.832 524.309H539.241L544.78 544H550.196L558.204 516.727H552.717L547.408 536.667H547.142L541.815 516.727H536.329L530.966 536.756H530.7L525.356 516.727H519.869L527.895 544ZM573.9 544.55C581.588 544.55 586.613 538.922 586.613 530.488C586.613 522.001 581.588 516.372 573.9 516.372C566.211 516.372 561.187 522.001 561.187 530.488C561.187 538.922 566.211 544.55 573.9 544.55ZM573.917 540.094C568.892 540.094 566.549 535.708 566.549 530.47C566.549 525.25 568.892 520.811 573.917 520.811C578.907 520.811 581.25 525.25 581.25 530.47C581.25 535.708 578.907 540.094 573.917 540.094ZM592.539 544H597.848V527.345C597.848 523.776 600.6 521.202 604.364 521.202C605.465 521.202 606.708 521.397 607.134 521.521V516.443C606.601 516.372 605.554 516.319 604.879 516.319C601.683 516.319 598.948 518.13 597.954 521.06H597.67V516.727H592.539V544ZM620.961 544.533C625.933 544.533 627.886 541.496 628.845 539.756H629.288V544H634.473V507.636H629.164V521.148H628.845C627.886 519.462 626.075 516.372 620.997 516.372C614.409 516.372 609.562 521.575 609.562 530.417C609.562 539.241 614.338 544.533 620.961 544.533ZM622.133 540.005C617.392 540.005 614.924 535.832 614.924 530.364C614.924 524.948 617.339 520.882 622.133 520.882C626.767 520.882 629.253 524.664 629.253 530.364C629.253 536.099 626.714 540.005 622.133 540.005ZM655.709 507.636V544H660.929V517.668H661.266L671.991 543.947H676.323L687.048 517.686H687.385V544H692.605V507.636H685.947L674.37 535.903H673.944L662.367 507.636H655.709ZM708.093 544.604C712.603 544.604 715.142 542.313 716.154 540.271H716.367V544H721.551V525.889C721.551 517.952 715.301 516.372 710.969 516.372C706.033 516.372 701.487 518.361 699.712 523.332L704.701 524.469C705.483 522.533 707.471 520.669 711.04 520.669C714.467 520.669 716.225 522.462 716.225 525.552V525.676C716.225 527.612 714.236 527.576 709.335 528.144C704.169 528.748 698.877 530.097 698.877 536.294C698.877 541.656 702.908 544.604 708.093 544.604ZM709.247 540.342C706.246 540.342 704.08 538.993 704.08 536.365C704.08 533.524 706.601 532.512 709.673 532.104C711.395 531.873 715.479 531.411 716.242 530.648V534.163C716.242 537.395 713.668 540.342 709.247 540.342ZM733.932 527.807C733.932 523.457 736.595 520.971 740.288 520.971C743.892 520.971 746.076 523.332 746.076 527.292V544H751.385V526.653C751.385 519.906 747.674 516.372 742.099 516.372C737.998 516.372 735.316 518.272 734.056 521.166H733.718V516.727H728.623V544H733.932V527.807ZM766.442 544.604C770.952 544.604 773.491 542.313 774.503 540.271H774.716V544H779.901V525.889C779.901 517.952 773.651 516.372 769.319 516.372C764.383 516.372 759.837 518.361 758.062 523.332L763.051 524.469C763.832 522.533 765.821 520.669 769.39 520.669C772.816 520.669 774.574 522.462 774.574 525.552V525.676C774.574 527.612 772.586 527.576 767.685 528.144C762.518 528.748 757.227 530.097 757.227 536.294C757.227 541.656 761.258 544.604 766.442 544.604ZM767.596 540.342C764.596 540.342 762.429 538.993 762.429 536.365C762.429 533.524 764.951 532.512 768.022 532.104C769.745 531.873 773.829 531.411 774.592 530.648V534.163C774.592 537.395 772.017 540.342 767.596 540.342ZM798.407 554.795C805.349 554.795 810.712 551.617 810.712 544.604V516.727H805.509V521.148H805.119C804.177 519.462 802.295 516.372 797.217 516.372C790.63 516.372 785.783 521.575 785.783 530.257C785.783 538.957 790.736 543.592 797.182 543.592C802.189 543.592 804.124 540.768 805.083 539.028H805.42V544.391C805.42 548.67 802.491 550.516 798.46 550.516C794.039 550.516 792.317 548.297 791.376 546.734L786.812 548.616C788.251 551.955 791.891 554.795 798.407 554.795ZM798.354 539.188C793.613 539.188 791.145 535.548 791.145 530.186C791.145 524.948 793.56 520.882 798.354 520.882C802.988 520.882 805.474 524.664 805.474 530.186C805.474 535.815 802.935 539.188 798.354 539.188ZM829.586 544.55C835.534 544.55 839.742 541.621 840.949 537.182L835.925 536.276C834.966 538.851 832.658 540.165 829.639 540.165C825.094 540.165 822.04 537.217 821.898 531.962H841.287V530.08C841.287 520.225 835.392 516.372 829.213 516.372C821.614 516.372 816.606 522.161 816.606 530.541C816.606 539.011 821.543 544.55 829.586 544.55ZM821.915 527.984C822.128 524.114 824.934 520.758 829.248 520.758C833.368 520.758 836.067 523.812 836.084 527.984H821.915ZM847.177 544H852.486V527.345C852.486 523.776 855.238 521.202 859.003 521.202C860.103 521.202 861.346 521.397 861.772 521.521V516.443C861.24 516.372 860.192 516.319 859.517 516.319C856.321 516.319 853.587 518.13 852.593 521.06H852.309V516.727H847.177V544ZM891.087 544.55C898.775 544.55 903.8 538.922 903.8 530.488C903.8 522.001 898.775 516.372 891.087 516.372C883.399 516.372 878.374 522.001 878.374 530.488C878.374 538.922 883.399 544.55 891.087 544.55ZM891.105 540.094C886.08 540.094 883.736 535.708 883.736 530.47C883.736 525.25 886.08 520.811 891.105 520.811C896.094 520.811 898.438 525.25 898.438 530.47C898.438 535.708 896.094 540.094 891.105 540.094ZM922.706 516.727H916.828V514.277C916.828 511.862 917.823 510.548 920.415 510.548C921.516 510.548 922.297 510.797 922.794 510.957L924.037 506.66C923.291 506.376 921.747 505.932 919.598 505.932C915.284 505.932 911.502 508.453 911.502 513.567V516.727H907.294V520.989H911.502V544H916.828V520.989H922.706V516.727ZM944.771 554.227C949.157 554.227 951.927 551.937 953.507 547.64L964.782 516.781L959.047 516.727L952.14 537.892H951.856L944.949 516.727H939.267L949.246 544.355L948.589 546.166C947.239 549.788 945.34 550.09 942.428 549.291L941.149 553.641C941.788 553.925 943.173 554.227 944.771 554.227ZM980.296 544.55C987.984 544.55 993.009 538.922 993.009 530.488C993.009 522.001 987.984 516.372 980.296 516.372C972.608 516.372 967.583 522.001 967.583 530.488C967.583 538.922 972.608 544.55 980.296 544.55ZM980.314 540.094C975.289 540.094 972.945 535.708 972.945 530.47C972.945 525.25 975.289 520.811 980.314 520.811C985.303 520.811 987.647 525.25 987.647 530.47C987.647 535.708 985.303 540.094 980.314 540.094ZM1016.21 532.69C1016.23 537.324 1012.78 539.526 1009.8 539.526C1006.52 539.526 1004.24 537.146 1004.24 533.435V516.727H998.935V534.075C998.935 540.839 1002.65 544.355 1007.88 544.355C1011.99 544.355 1014.77 542.189 1016.03 539.277H1016.32V544H1021.54V516.727H1016.21V532.69ZM1028.67 544H1033.98V527.345C1033.98 523.776 1036.73 521.202 1040.5 521.202C1041.6 521.202 1042.84 521.397 1043.27 521.521V516.443C1042.73 516.372 1041.69 516.319 1041.01 516.319C1037.82 516.319 1035.08 518.13 1034.09 521.06H1033.8V516.727H1028.67V544ZM1073.29 544C1084.37 544 1090.78 537.129 1090.78 525.765C1090.78 514.455 1084.37 507.636 1073.66 507.636H1061.52V544H1073.29ZM1067.01 539.206V512.43H1073.33C1081.28 512.43 1085.38 517.189 1085.38 525.765C1085.38 534.376 1081.28 539.206 1072.99 539.206H1067.01ZM1097.18 544H1102.49V527.345C1102.49 523.776 1105.24 521.202 1109 521.202C1110.1 521.202 1111.35 521.397 1111.77 521.521V516.443C1111.24 516.372 1110.19 516.319 1109.52 516.319C1106.32 516.319 1103.59 518.13 1102.59 521.06H1102.31V516.727H1097.18V544ZM1127.14 544.55C1133.09 544.55 1137.3 541.621 1138.51 537.182L1133.48 536.276C1132.52 538.851 1130.22 540.165 1127.2 540.165C1122.65 540.165 1119.6 537.217 1119.46 531.962H1138.85V530.08C1138.85 520.225 1132.95 516.372 1126.77 516.372C1119.17 516.372 1114.17 522.161 1114.17 530.541C1114.17 539.011 1119.1 544.55 1127.14 544.55ZM1119.47 527.984C1119.69 524.114 1122.49 520.758 1126.81 520.758C1130.93 520.758 1133.63 523.812 1133.64 527.984H1119.47ZM1152.67 544.604C1157.18 544.604 1159.72 542.313 1160.73 540.271H1160.95V544H1166.13V525.889C1166.13 517.952 1159.88 516.372 1155.55 516.372C1150.61 516.372 1146.07 518.361 1144.29 523.332L1149.28 524.469C1150.06 522.533 1152.05 520.669 1155.62 520.669C1159.05 520.669 1160.8 522.462 1160.8 525.552V525.676C1160.8 527.612 1158.82 527.576 1153.92 528.144C1148.75 528.748 1143.46 530.097 1143.46 536.294C1143.46 541.656 1147.49 544.604 1152.67 544.604ZM1153.83 540.342C1150.83 540.342 1148.66 538.993 1148.66 536.365C1148.66 533.524 1151.18 532.512 1154.25 532.104C1155.98 531.873 1160.06 531.411 1160.82 530.648V534.163C1160.82 537.395 1158.25 540.342 1153.83 540.342ZM1173.2 544H1178.51V527.185C1178.51 523.51 1181.09 520.953 1184.1 520.953C1187.05 520.953 1189.09 522.906 1189.09 525.871V544H1194.39V526.617C1194.39 523.332 1196.39 520.953 1199.85 520.953C1202.66 520.953 1204.97 522.516 1204.97 526.209V544H1210.28V525.712C1210.28 519.479 1206.8 516.372 1201.86 516.372C1197.94 516.372 1194.99 518.254 1193.67 521.166H1193.39C1192.2 518.183 1189.7 516.372 1186.06 516.372C1182.45 516.372 1179.77 518.165 1178.64 521.166H1178.3V516.727H1173.2V544ZM1237.83 523.386C1236.73 519.142 1233.41 516.372 1227.51 516.372C1221.35 516.372 1216.98 519.621 1216.98 524.451C1216.98 528.322 1219.33 530.896 1224.44 532.033L1229.06 533.045C1231.69 533.631 1232.91 534.803 1232.91 536.507C1232.91 538.62 1230.66 540.271 1227.18 540.271C1224 540.271 1221.96 538.904 1221.32 536.223L1216.18 537.004C1217.07 541.834 1221.09 544.55 1227.21 544.55C1233.8 544.55 1238.36 541.053 1238.36 536.116C1238.36 532.263 1235.91 529.884 1230.9 528.73L1226.57 527.736C1223.57 527.026 1222.27 526.013 1222.29 524.167C1222.27 522.072 1224.55 520.58 1227.57 520.58C1230.87 520.58 1232.4 522.409 1233.02 524.238L1237.83 523.386Z" fill="white" />
    </g>
    <defs>
        <filter id="filter0_d" x="0" y="0" width="1508" height="758" filterUnits="userSpaceOnUse" color-interpolation-filters="sRGB">
            <feFlood flood-opacity="0" result="BackgroundImageFix" />
            <feColorMatrix in="SourceAlpha" type="matrix" values="0 0 0 0 0 0 0 0 0 0 0 0 0 0 0 0 0 0 127 0" />
            <feOffset dy="4" />
            <feGaussianBlur stdDeviation="2" />
            <feColorMatrix type="matrix" values="0 0 0 0 0 0 0 0 0 0 0 0 0 0 0 0 0 0 0.25 0" />
            <feBlend mode="normal" in2="BackgroundImageFix" result="effect1_dropShadow" />
            <feBlend mode="normal" in="SourceGraphic" in2="effect1_dropShadow" result="shape" />
        </filter>
        <filter id="filter1_d" x="394" y="207" width="252.25" height="257.25" filterUnits="userSpaceOnUse" color-interpolation-filters="sRGB">
            <feFlood flood-opacity="0" result="BackgroundImageFix" />
            <feColorMatrix in="SourceAlpha" type="matrix" values="0 0 0 0 0 0 0 0 0 0 0 0 0 0 0 0 0 0 127 0" />
            <feOffset dy="25" />
            <feGaussianBlur stdDeviation="10" />
            <feColorMatrix type="matrix" values="0 0 0 0 0 0 0 0 0 0 0 0 0 0 0 0 0 0 0.25 0" />
            <feBlend mode="normal" in2="BackgroundImageFix" result="effect1_dropShadow" />
            <feBlend mode="normal" in="SourceGraphic" in2="effect1_dropShadow" result="shape" />
        </filter>
        <clipPath id="clip0">
            <rect width="212.25" height="212.25" fill="white" transform="translate(414 207)" />
        </clipPath>
    </defs>
</svg>
