<svg
  width="650"
  height="448"
  viewBox="0 0 650 448"
  fill="none"
  xmlns="http://www.w3.org/2000/svg"
>
  <g clip-path="url(#clip0)">
    <path
      d="M586.265 403.903C531.999 403.903 507.291 360.152 481.134 313.833C469.312 292.901 457.314 271.662 442.315 254.307C453.024 262.794 462.378 272.605 471.919 282.614C498.582 310.582 526.151 339.503 586.264 339.503C589.455 339.503 592.042 336.916 592.042 333.725C592.042 330.535 589.455 327.948 586.264 327.948C531.1 327.948 506.416 302.054 480.284 274.64C466.783 260.479 453.054 246.082 435.007 235.137C450.259 238.532 462.309 242.793 474.174 246.989C500.456 256.285 527.633 265.897 586.263 265.897C589.454 265.897 592.041 263.31 592.041 260.119C592.041 256.929 589.454 254.342 586.263 254.342C529.616 254.342 504.557 245.479 478.027 236.095C464.439 231.29 450.616 226.402 432.349 222.737C450.599 219.15 464.413 214.365 477.992 209.662C504.531 200.468 529.598 191.785 586.263 191.785C589.454 191.785 592.041 189.198 592.041 186.007C592.041 182.816 589.454 180.229 586.263 180.229C527.653 180.229 500.484 189.641 474.21 198.743C461.907 203.005 449.403 207.336 433.341 210.717C452.211 199.685 466.367 184.874 480.279 170.311C506.413 142.957 531.096 117.12 586.264 117.12C589.455 117.12 592.042 114.533 592.042 111.342C592.042 108.152 589.455 105.565 586.264 105.565C526.155 105.565 498.586 134.422 471.925 162.329C461.872 172.851 452.029 183.154 440.589 191.924C456.386 174.587 468.841 152.991 481.108 131.718C507.261 86.3577 531.964 43.5141 586.265 43.5141C589.455 43.5141 592.042 40.9271 592.042 37.7363C592.042 34.5455 589.455 31.9585 586.265 31.9585C525.288 31.9585 497.74 79.7386 471.097 125.946C445.89 169.665 421.993 211.103 371.739 215.976C368.476 215.69 365.122 215.535 361.654 215.535C358.463 215.535 355.876 218.122 355.876 221.313C355.876 221.452 355.888 221.587 355.897 221.724C355.888 221.859 355.876 221.996 355.876 222.134C355.876 222.151 355.879 222.167 355.879 222.184C355.879 222.201 355.876 222.217 355.876 222.234C355.876 222.273 355.882 222.311 355.882 222.35C355.882 222.4 355.875 222.446 355.875 222.495C355.875 222.533 355.88 222.57 355.881 222.607C355.881 222.635 355.876 222.662 355.876 222.69C355.876 222.714 355.881 222.736 355.881 222.761C355.88 222.793 355.875 222.825 355.875 222.858C355.875 226.049 358.462 228.636 361.653 228.636C366.503 228.636 371.144 228.576 375.592 228.461C377.508 228.617 379.387 228.804 381.227 229.022C425.079 238.085 447.503 277.782 471.072 319.515C497.709 366.684 525.253 415.459 586.265 415.459C589.455 415.459 592.042 412.872 592.042 409.681C592.042 406.49 589.455 403.903 586.265 403.903Z"
      fill="url(#paint0_linear)"
    />
    <path
      d="M307.126 218.539H277.26C226.292 216.688 203.014 192.462 178.431 166.866C153.022 140.413 126.754 113.062 69.6952 112.849C69.4713 112.848 61.9789 112.892 61.7543 112.892C58.5636 112.892 55.9766 115.479 55.9766 118.67C55.9766 121.861 58.5636 124.448 61.7543 124.448C61.9638 124.448 69.4409 124.404 69.6497 124.404C121.811 124.599 145.269 149.021 170.096 174.871C185.763 191.182 201.752 207.824 225.047 218.539H63.3757C60.1849 218.539 57.5979 221.126 57.5979 224.317C57.5979 227.507 60.1849 230.094 63.3757 230.094H225.063C201.785 240.588 185.8 256.883 170.138 272.854C145.401 298.082 122.024 321.921 70.2383 322.288C69.8346 322.29 62.5683 322.292 62.1609 322.292C58.9702 322.292 56.3832 324.879 56.3832 328.07C56.3832 331.26 58.9702 333.847 62.1609 333.847C62.5676 333.847 69.8338 333.846 70.2376 333.843C126.886 333.467 153.066 306.769 178.389 280.945C203.973 254.855 228.138 230.212 283.598 230.212C283.997 230.212 284.387 230.172 284.764 230.094H307.126C310.316 230.094 312.903 227.507 312.903 224.317C312.903 221.126 310.316 218.539 307.126 218.539Z"
      fill="url(#paint1_linear)"
    />
    <g opacity="0.3">
      <path
        d="M585.722 260.3C469.476 260.3 481.298 222.676 361.111 222.676"
        stroke="#5571EF"
        stroke-miterlimit="10"
        stroke-linecap="round"
        stroke-dasharray="5 5"
      />
      <path
        d="M585.722 186.187C469.476 186.187 481.298 223.039 361.111 223.039"
        stroke="#5571EF"
        stroke-miterlimit="10"
        stroke-linecap="round"
        stroke-dasharray="5 5"
      />
      <path
        d="M585.721 111.523C469.476 111.523 481.297 222.871 361.111 222.871"
        stroke="#5571EF"
        stroke-miterlimit="10"
        stroke-linecap="round"
        stroke-dasharray="5 5"
      />
      <path
        d="M585.724 37.9167C469.478 37.9167 481.3 222.414 361.113 222.414"
        stroke="#5571EF"
        stroke-miterlimit="10"
        stroke-linecap="round"
        stroke-dasharray="5 5"
      />
      <path
        d="M585.721 333.906C469.476 333.906 481.297 222.315 361.111 222.315"
        stroke="#5571EF"
        stroke-miterlimit="10"
        stroke-linecap="round"
        stroke-dasharray="5 5"
      />
      <path
        d="M585.724 409.861C469.478 409.861 481.3 221.493 361.113 221.493"
        stroke="#5571EF"
        stroke-miterlimit="10"
        stroke-linecap="round"
        stroke-dasharray="5 5"
      />
      <path
        d="M68.4805 328.25C179.533 328.25 168.24 224.615 283.056 224.615"
        stroke="#5571EF"
        stroke-miterlimit="10"
        stroke-linecap="round"
        stroke-dasharray="5 5"
      />
      <path
        d="M62.834 224.497H306.584"
        stroke="#5571EF"
        stroke-miterlimit="10"
        stroke-linecap="round"
        stroke-dasharray="5 5"
      />
      <path
        d="M68.4805 118.806C179.533 118.806 168.24 224.616 283.056 224.616"
        stroke="#5571EF"
        stroke-miterlimit="10"
        stroke-linecap="round"
        stroke-dasharray="5 5"
      />
    </g>
    <path
      d="M61.9303 117.542C60.7336 117.542 59.7637 118.512 59.7637 119.708C59.7637 120.904 60.7336 121.875 61.9303 121.875C63.1271 121.875 64.097 120.904 64.097 119.708C64.097 118.512 63.1271 117.542 61.9303 117.542Z"
      fill="#1163E6"
    />
    <path
      d="M61.9303 222.264C60.7336 222.264 59.7637 223.234 59.7637 224.431C59.7637 225.627 60.7336 226.597 61.9303 226.597C63.1271 226.597 64.097 225.627 64.097 224.431C64.097 223.234 63.1271 222.264 61.9303 222.264Z"
      fill="#1163E6"
    />
    <path
      d="M61.9303 326.264C60.7336 326.264 59.7637 327.234 59.7637 328.431C59.7637 329.627 60.7336 330.597 61.9303 330.597C63.1271 330.597 64.097 329.627 64.097 328.431C64.097 327.234 63.1271 326.264 61.9303 326.264Z"
      fill="#1163E6"
    />
    <path
      d="M584.819 407.153C583.622 407.153 582.652 408.123 582.652 409.319C582.652 410.515 583.622 411.486 584.819 411.486C586.016 411.486 586.986 410.515 586.986 409.319C586.986 408.123 586.016 407.153 584.819 407.153Z"
      fill="#1163E6"
    />
    <path
      d="M584.819 332.042C583.622 332.042 582.652 333.012 582.652 334.208C582.652 335.404 583.622 336.375 584.819 336.375C586.016 336.375 586.986 335.404 586.986 334.208C586.986 333.012 586.016 332.042 584.819 332.042Z"
      fill="#1163E6"
    />
    <path
      d="M584.819 258.375C583.622 258.375 582.652 259.345 582.652 260.542C582.652 261.738 583.622 262.708 584.819 262.708C586.016 262.708 586.986 261.738 586.986 260.542C586.986 259.345 586.016 258.375 584.819 258.375Z"
      fill="#1163E6"
    />
    <path
      d="M584.819 183.986C583.622 183.986 582.652 184.956 582.652 186.153C582.652 187.349 583.622 188.32 584.819 188.32C586.016 188.32 586.986 187.349 586.986 186.153C586.986 184.956 586.016 183.986 584.819 183.986Z"
      fill="#1163E6"
    />
    <path
      d="M584.819 109.597C583.622 109.597 582.652 110.567 582.652 111.764C582.652 112.96 583.622 113.931 584.819 113.931C586.016 113.931 586.986 112.96 586.986 111.764C586.986 110.567 586.016 109.597 584.819 109.597Z"
      fill="#1163E6"
    />
    <path
      d="M584.819 40.264C586.016 40.264 586.986 39.2933 586.986 38.0973C586.986 36.9006 586.016 35.9307 584.819 35.9307C583.622 35.9307 582.652 36.9006 582.652 38.0973C582.652 39.2933 583.622 40.264 584.819 40.264Z"
      fill="#1163E6"
    />
    <path
      d="M624.978 90.8918H587.422C585.827 90.8918 584.533 92.1845 584.533 93.7806V131.336C584.533 132.932 585.827 134.225 587.422 134.225H624.978C626.573 134.225 627.866 132.932 627.866 131.336V93.7806C627.866 92.1845 626.573 90.8918 624.978 90.8918ZM624.978 164.992H587.422C585.827 164.992 584.533 166.285 584.533 167.881V205.436C584.533 207.032 585.827 208.325 587.422 208.325H624.978C626.573 208.325 627.866 207.032 627.866 205.436V167.881C627.866 166.285 626.573 164.992 624.978 164.992ZM624.978 16.7917H587.422C585.827 16.7917 584.533 18.0852 584.533 19.6806V57.2362C584.533 58.8316 585.827 60.1251 587.422 60.1251H624.978C626.573 60.1251 627.866 58.8316 627.866 57.2362V19.6806C627.866 18.0852 626.573 16.7917 624.978 16.7917ZM624.978 387.292H587.422C585.827 387.292 584.533 388.585 584.533 390.181V427.736C584.533 429.332 585.827 430.625 587.422 430.625H624.978C626.573 430.625 627.866 429.332 627.866 427.736V390.181C627.866 388.585 626.573 387.292 624.978 387.292ZM624.978 239.091H587.422C585.827 239.091 584.533 240.385 584.533 241.98V279.535C584.533 281.131 585.827 282.424 587.422 282.424H624.978C626.573 282.424 627.866 281.131 627.866 279.535V241.98C627.866 240.385 626.573 239.091 624.978 239.091ZM624.978 313.191H587.422C585.827 313.191 584.533 314.485 584.533 316.08V353.635C584.533 355.232 585.827 356.524 587.422 356.524H624.978C626.573 356.524 627.866 355.232 627.866 353.635V316.08C627.866 314.485 626.573 313.191 624.978 313.191Z"
      fill="#1163E6"
    />
    <path
      d="M61.9719 102.718V137.427C61.9719 139.023 60.6784 140.316 59.0831 140.316H24.3752C22.7798 140.316 21.4863 139.023 21.4863 137.427V102.718C21.4863 101.123 22.7798 99.8291 24.3752 99.8291H59.0831C60.6784 99.8291 61.9719 101.123 61.9719 102.718ZM59.0831 204.42H24.3752C22.7798 204.42 21.4863 205.713 21.4863 207.309V242.017C21.4863 243.612 22.7798 244.906 24.3752 244.906H59.0831C60.6784 244.906 61.9719 243.612 61.9719 242.017V207.309C61.9719 205.713 60.6784 204.42 59.0831 204.42ZM59.0831 308.335H24.3752C22.7798 308.335 21.4863 309.628 21.4863 311.224V345.932C21.4863 347.528 22.7798 348.821 24.3752 348.821H59.0831C60.6784 348.821 61.9719 347.528 61.9719 345.932V311.224C61.9719 309.628 60.6784 308.335 59.0831 308.335Z"
      fill="#1163E6"
    />
    <g opacity="0.01">
      <path
        d="M325.001 290.257C288.804 290.257 259.355 260.808 259.355 224.611C259.355 188.415 288.804 158.966 325.001 158.966C361.197 158.966 390.646 188.415 390.646 224.611C390.646 260.808 361.197 290.257 325.001 290.257Z"
        fill="url(#paint2_linear)"
      />
    </g>
    <g opacity="0.0415601">
      <path
        d="M325 279.844C294.545 279.844 269.768 255.066 269.768 224.611C269.768 194.156 294.545 169.379 325 169.379C355.455 169.379 380.233 194.156 380.233 224.611C380.233 255.066 355.455 279.844 325 279.844Z"
        fill="url(#paint3_linear)"
      />
    </g>
    <g opacity="0.614436">
      <path
        d="M325.001 269.884C300.038 269.884 279.729 249.574 279.729 224.611C279.729 199.648 300.038 179.338 325.001 179.338C349.964 179.338 370.274 199.648 370.274 224.611C370.274 249.574 349.964 269.884 325.001 269.884Z"
        fill="#1780E0"
      />
    </g>
    <path
      d="M364.614 224.428C364.614 202.436 346.786 184.608 324.794 184.608C302.803 184.608 284.975 202.436 284.975 224.428C284.975 246.419 302.803 264.247 324.794 264.247C346.786 264.247 364.614 246.419 364.614 224.428Z"
      fill="white"
    />
    <g clip-path="url(#clip1)">
      <ellipse cx="325" cy="224.611" rx="14.6702" ry="14.6701" fill="white" />
      <path
        d="M337.768 211.844C334.358 208.434 329.824 206.556 325.001 206.556C320.178 206.556 315.644 208.434 312.234 211.844C308.823 215.254 306.945 219.788 306.945 224.611C306.945 229.434 308.823 233.968 312.234 237.378C315.644 240.789 320.178 242.667 325.001 242.667C329.824 242.667 334.358 240.789 337.768 237.378C341.178 233.968 343.056 229.434 343.056 224.611C343.056 219.788 341.178 215.254 337.768 211.844V211.844ZM325.001 238.418C317.388 238.418 311.194 232.224 311.194 224.611C311.194 216.998 317.388 210.805 325.001 210.805C332.614 210.805 338.807 216.998 338.807 224.611C338.807 232.224 332.614 238.418 325.001 238.418V238.418Z"
        fill="#1163E6"
      />
      <path
        d="M324.999 212.921C318.553 212.921 313.309 218.165 313.309 224.611C313.309 226.434 313.728 228.16 314.475 229.7L314.845 228.938C314.85 228.927 314.856 228.917 314.861 228.907C315.018 228.609 315.531 227.418 315.531 224.611C315.531 222.931 315.977 221.277 316.821 219.829C317.115 219.325 317.762 219.154 318.267 219.448C318.772 219.742 318.943 220.39 318.649 220.895C317.993 222.019 317.647 223.305 317.647 224.611C317.647 227.672 317.084 229.219 316.742 229.877L315.799 231.817C316.995 233.341 318.561 234.561 320.361 235.341C321.227 234.648 321.956 233.692 322.532 232.491C323.502 230.465 323.994 227.814 323.994 224.611C323.994 224.027 324.468 223.553 325.052 223.553C325.636 223.553 326.11 224.027 326.11 224.611C326.11 228.133 325.548 231.092 324.44 233.405C323.947 234.433 323.355 235.322 322.67 236.069C323.423 236.222 324.202 236.302 324.999 236.302C325.065 236.302 325.13 236.301 325.195 236.3C326.608 234.304 327.538 231.755 327.959 228.714C328.04 228.135 328.574 227.731 329.153 227.811C329.731 227.891 330.136 228.426 330.055 229.004C329.689 231.643 328.966 233.963 327.901 235.937C328.914 235.678 329.875 235.285 330.764 234.779C331.887 231.892 332.458 228.475 332.458 224.611C332.458 220.528 329.136 217.206 325.052 217.206C323.735 217.206 322.441 217.557 321.311 218.223C320.807 218.519 320.159 218.351 319.862 217.847C319.566 217.343 319.734 216.695 320.238 216.399C321.694 215.543 323.358 215.09 325.052 215.09C330.302 215.09 334.574 219.361 334.574 224.611C334.574 227.425 334.285 230.028 333.716 232.393C335.564 230.324 336.69 227.597 336.69 224.611C336.69 218.165 331.445 212.921 324.999 212.921V212.921ZM319.762 224.611C319.762 221.695 322.135 219.322 325.052 219.322C327.969 219.322 330.342 221.695 330.342 224.611C330.342 225.196 329.868 225.669 329.284 225.669C328.7 225.669 328.226 225.196 328.226 224.611C328.226 222.861 326.802 221.438 325.052 221.438C323.302 221.438 321.878 222.861 321.878 224.611C321.878 227.709 321.396 230.171 320.445 231.929C320.253 232.283 319.889 232.484 319.513 232.484C319.343 232.484 319.171 232.443 319.011 232.356C318.497 232.078 318.306 231.436 318.584 230.922C319.122 229.929 319.762 228.027 319.762 224.611Z"
        fill="#1163E6"
      />
    </g>
    <g clip-path="url(#clip2)">
      <path
        fill-rule="evenodd"
        clip-rule="evenodd"
        d="M606.666 27.6246C606.196 27.4744 605.692 27.4744 605.222 27.6246L598.113 29.8996C597.634 30.0526 597.217 30.3537 596.921 30.7594C596.624 31.1652 596.465 31.6546 596.465 32.1569L596.465 36.9236C596.465 39.0442 596.898 41.2326 598.229 43.2638C599.56 45.2924 601.73 47.0731 605.044 48.4841C605.328 48.6052 605.635 48.6676 605.944 48.6676C606.253 48.6676 606.56 48.6052 606.845 48.4841C610.158 47.0731 612.328 45.2924 613.659 43.2638C614.99 41.2326 615.423 39.0442 615.423 36.9236L615.423 32.1569C615.423 31.6546 615.264 31.1652 614.967 30.7594C614.671 30.3537 614.254 30.0526 613.775 29.8996L606.666 27.6246ZM605.84 29.5597C605.907 29.538 605.98 29.538 606.047 29.5597L613.156 31.8347C613.225 31.8565 613.284 31.8994 613.327 31.9574C613.369 32.0153 613.392 32.0852 613.392 32.1569L613.392 36.9236C613.392 38.7626 613.02 40.5338 611.961 42.1507C610.899 43.7676 609.088 45.3194 606.048 46.6154C606.015 46.6292 605.98 46.6363 605.944 46.6363C605.908 46.6363 605.873 46.6292 605.84 46.6154C602.8 45.3208 600.989 43.7662 599.927 42.1493C598.868 40.5338 598.496 38.7653 598.496 36.9236L598.496 32.1569C598.496 32.0854 598.519 32.0158 598.562 31.9582C598.604 31.9005 598.664 31.8578 598.732 31.836L605.841 29.561L605.84 29.5597ZM610.386 35.9486C610.565 35.7561 610.663 35.5014 610.658 35.2383C610.654 34.9752 610.547 34.7242 610.361 34.5381C610.175 34.352 609.924 34.2454 609.661 34.2408C609.397 34.2361 609.143 34.3338 608.95 34.5132L604.928 38.5351L603.615 37.2215C603.522 37.1217 603.41 37.0417 603.285 36.9862C603.161 36.9307 603.026 36.9008 602.89 36.8984C602.753 36.896 602.618 36.9211 602.491 36.9722C602.365 37.0233 602.25 37.0993 602.154 37.1958C602.057 37.2922 601.981 37.4071 601.93 37.5335C601.879 37.66 601.854 37.7955 601.856 37.9318C601.859 38.0682 601.889 38.2027 601.944 38.3273C602 38.4518 602.08 38.564 602.179 38.6569L604.211 40.6882C604.401 40.8784 604.659 40.9852 604.928 40.9852C605.198 40.9852 605.456 40.8784 605.646 40.6882L610.386 35.9486V35.9486Z"
        fill="white"
      />
    </g>
    <g clip-path="url(#clip3)">
      <path
        fill-rule="evenodd"
        clip-rule="evenodd"
        d="M33.763 111.425C33.763 110.117 34.8247 109.056 36.1328 109.056L47.6432 109.056C48.9514 109.056 50.013 110.117 50.013 111.425L50.013 118.196C50.013 118.825 49.7634 119.428 49.3189 119.872C48.8745 120.316 48.2717 120.566 47.6432 120.566L36.1328 120.566C35.5043 120.566 34.9015 120.316 34.4571 119.872C34.0127 119.428 33.763 118.825 33.763 118.196L33.763 111.425ZM36.1328 111.087C36.043 111.087 35.9569 111.123 35.8934 111.186C35.8299 111.25 35.7943 111.336 35.7943 111.425L35.7943 118.196C35.7943 118.383 35.9459 118.535 36.1328 118.535L47.6432 118.535C47.733 118.535 47.8191 118.499 47.8826 118.436C47.9461 118.372 47.9818 118.286 47.9818 118.196L47.9818 111.425C47.9818 111.336 47.9461 111.25 47.8826 111.186C47.8191 111.123 47.733 111.087 47.6432 111.087L36.1328 111.087ZM31.0547 124.29C31.0547 122.982 32.1164 121.92 33.4245 121.92L50.3516 121.92C51.6597 121.92 52.7214 122.982 52.7214 124.29L52.7214 128.353C52.7214 128.981 52.4717 129.584 52.0273 130.028C51.5828 130.473 50.9801 130.722 50.3516 130.722L33.4245 130.722C32.796 130.722 32.1932 130.473 31.7488 130.028C31.3044 129.584 31.0547 128.981 31.0547 128.353L31.0547 124.29ZM33.4245 123.951C33.3347 123.951 33.2486 123.987 33.1851 124.051C33.1216 124.114 33.0859 124.2 33.0859 124.29L33.0859 128.353C33.0859 128.539 33.2376 128.691 33.4245 128.691L50.3516 128.691C50.4414 128.691 50.5275 128.655 50.591 128.592C50.6544 128.528 50.6901 128.442 50.6901 128.353L50.6901 124.29C50.6901 124.2 50.6544 124.114 50.591 124.051C50.5275 123.987 50.4414 123.951 50.3516 123.951L33.4245 123.951Z"
        fill="white"
      />
      <path
        fill-rule="evenodd"
        clip-rule="evenodd"
        d="M35.1172 126.321C35.1172 126.052 35.2242 125.794 35.4147 125.603C35.6051 125.413 35.8635 125.306 36.1328 125.306L36.8099 125.306C37.0793 125.306 37.3376 125.413 37.5281 125.603C37.7185 125.794 37.8255 126.052 37.8255 126.321C37.8255 126.591 37.7185 126.849 37.5281 127.039C37.3376 127.23 37.0793 127.337 36.8099 127.337L36.1328 127.337C35.8635 127.337 35.6051 127.23 35.4147 127.039C35.2242 126.849 35.1172 126.591 35.1172 126.321ZM40.5339 126.321C40.5339 126.052 40.6409 125.794 40.8313 125.603C41.0218 125.413 41.2801 125.306 41.5495 125.306L47.6432 125.306C47.9126 125.306 48.1709 125.413 48.3614 125.603C48.5519 125.794 48.6589 126.052 48.6589 126.321C48.6589 126.591 48.5519 126.849 48.3614 127.039C48.1709 127.23 47.9126 127.337 47.6432 127.337L41.5495 127.337C41.2801 127.337 41.0218 127.23 40.8313 127.039C40.6409 126.849 40.5339 126.591 40.5339 126.321Z"
        fill="white"
      />
    </g>
    <path
      fill-rule="evenodd"
      clip-rule="evenodd"
      d="M31.0547 225.333C31.0547 222.46 32.1961 219.705 34.2277 217.673C36.2593 215.641 39.0148 214.5 41.888 214.5C44.7612 214.5 47.5167 215.641 49.5483 217.673C51.58 219.705 52.7214 222.46 52.7214 225.333L52.7214 232.443C52.7214 232.712 52.6144 232.97 52.4239 233.161C52.2334 233.351 51.9751 233.458 51.7057 233.458C51.4364 233.458 51.178 233.351 50.9876 233.161C50.7971 232.97 50.6901 232.712 50.6901 232.443L50.6901 225.333C50.6901 222.999 49.7627 220.76 48.112 219.109C46.4613 217.459 44.2225 216.531 41.888 216.531C39.5536 216.531 37.3147 217.459 35.664 219.109C34.0133 220.76 33.0859 222.999 33.0859 225.333L33.0859 232.443C33.0859 232.712 32.9789 232.97 32.7885 233.161C32.598 233.351 32.3397 233.458 32.0703 233.458C31.801 233.458 31.5426 233.351 31.3522 233.161C31.1617 232.97 31.0547 232.712 31.0547 232.443L31.0547 225.333ZM38.5026 231.089C38.5026 230.819 38.6096 230.561 38.8001 230.37C38.9905 230.18 39.2489 230.073 39.5182 230.073L44.2578 230.073C44.5272 230.073 44.7855 230.18 44.976 230.37C45.1664 230.561 45.2734 230.819 45.2734 231.089C45.2734 231.358 45.1664 231.616 44.976 231.807C44.7855 231.997 44.5272 232.104 44.2578 232.104L39.5182 232.104C39.2489 232.104 38.9905 231.997 38.8001 231.807C38.6096 231.616 38.5026 231.358 38.5026 231.089ZM35.1172 223.641C35.1172 222.333 36.1789 221.271 37.487 221.271L46.2891 221.271C47.5972 221.271 48.6589 222.333 48.6589 223.641L48.6589 225.672C48.6589 226.3 48.4092 226.903 47.9648 227.348C47.5203 227.792 46.9176 228.042 46.2891 228.042L37.487 228.042C36.8585 228.042 36.2557 227.792 35.8113 227.348C35.3669 226.903 35.1172 226.3 35.1172 225.672L35.1172 223.641ZM37.1078 222.923C37.2982 222.733 37.5564 222.626 37.8255 222.626C38.0947 222.626 38.3528 222.733 38.5432 222.923L39.8568 224.236L41.1703 222.923C41.3607 222.733 41.6189 222.626 41.888 222.626C42.1572 222.626 42.4153 222.733 42.6057 222.923L43.9193 224.236L45.2328 222.923C45.3258 222.823 45.4379 222.743 45.5625 222.688C45.6871 222.632 45.8216 222.602 45.9579 222.6C46.0943 222.597 46.2298 222.623 46.3562 222.674C46.4827 222.725 46.5976 222.801 46.694 222.897C46.7905 222.994 46.8665 223.108 46.9176 223.235C46.9686 223.361 46.9937 223.497 46.9913 223.633C46.9889 223.77 46.9591 223.904 46.9036 224.029C46.8481 224.153 46.768 224.265 46.6682 224.358L44.637 226.39C44.4466 226.58 44.1884 226.687 43.9193 226.687C43.6501 226.687 43.392 226.58 43.2016 226.39L41.888 225.076L40.5745 226.39C40.3841 226.58 40.1259 226.687 39.8568 226.687C39.5876 226.687 39.3295 226.58 39.1391 226.39L37.1078 224.358C36.9176 224.168 36.8108 223.91 36.8108 223.641C36.8108 223.371 36.9176 223.113 37.1078 222.923V222.923Z"
      fill="white"
    />
    <path
      fill-rule="evenodd"
      clip-rule="evenodd"
      d="M601.853 404.204L601.853 406.611L601.552 406.611C600.993 406.611 600.457 406.833 600.062 407.228C599.667 407.623 599.445 408.159 599.445 408.718L599.445 415.338C599.445 416.501 600.389 417.445 601.552 417.445L611.783 417.445C612.342 417.445 612.878 417.223 613.273 416.828C613.668 416.433 613.89 415.897 613.89 415.338L613.89 408.718C613.89 408.159 613.668 407.623 613.273 407.228C612.878 406.833 612.342 406.611 611.783 406.611L611.482 406.611L611.482 404.204C611.482 402.927 610.975 401.702 610.072 400.799C609.169 399.896 607.944 399.389 606.668 399.389C605.391 399.389 604.166 399.896 603.263 400.799C602.36 401.702 601.853 402.927 601.853 404.204V404.204ZM609.677 406.611L609.677 404.204C609.677 403.406 609.36 402.64 608.795 402.076C608.231 401.512 607.466 401.194 606.668 401.194C605.869 401.194 605.104 401.512 604.54 402.076C603.975 402.64 603.658 403.406 603.658 404.204L603.658 406.611L609.677 406.611ZM611.482 408.417L611.783 408.417C611.863 408.417 611.94 408.448 611.996 408.505C612.052 408.561 612.084 408.638 612.084 408.718L612.084 415.338C612.084 415.418 612.052 415.494 611.996 415.551C611.94 415.607 611.863 415.639 611.783 415.639L601.552 415.639C601.472 415.639 601.395 415.607 601.339 415.551C601.283 415.494 601.251 415.418 601.251 415.338L601.251 408.718C601.251 408.638 601.283 408.561 601.339 408.505C601.395 408.448 601.472 408.417 601.552 408.417L611.482 408.417Z"
      fill="white"
    />
    <g clip-path="url(#clip4)">
      <path
        d="M38.8418 327.934C39.1112 327.934 39.3695 328.041 39.56 328.232C39.7504 328.422 39.8574 328.68 39.8574 328.95L39.8574 330.981C39.8574 331.25 39.7504 331.509 39.56 331.699C39.3695 331.89 39.1112 331.997 38.8418 331.997C38.5724 331.997 38.3141 331.89 38.1236 331.699C37.9332 331.509 37.8262 331.25 37.8262 330.981L37.8262 328.95C37.8262 328.68 37.9332 328.422 38.1236 328.232C38.3141 328.041 38.5724 327.934 38.8418 327.934ZM45.9512 328.95C45.9512 328.68 45.8442 328.422 45.6537 328.232C45.4632 328.041 45.2049 327.934 44.9355 327.934C44.6662 327.934 44.4079 328.041 44.2174 328.232C44.0269 328.422 43.9199 328.68 43.9199 328.95L43.9199 330.981C43.9199 331.25 44.0269 331.509 44.2174 331.699C44.4079 331.89 44.6662 331.997 44.9355 331.997C45.2049 331.997 45.4632 331.89 45.6537 331.699C45.8442 331.509 45.9512 331.25 45.9512 330.981L45.9512 328.95Z"
        fill="white"
      />
      <path
        fill-rule="evenodd"
        clip-rule="evenodd"
        d="M39.5182 317.778C39.2489 317.778 38.9905 317.885 38.8001 318.075C38.6096 318.266 38.5026 318.524 38.5026 318.793C38.5026 319.063 38.6096 319.321 38.8001 319.512C38.9905 319.702 39.2489 319.809 39.5182 319.809L41.2109 319.809L41.2109 322.517L36.1328 322.517C35.3247 322.517 34.5497 322.838 33.9783 323.41C33.4069 323.981 33.0859 324.756 33.0859 325.564L33.0859 328.611L32.0703 328.611C31.801 328.611 31.5426 328.718 31.3522 328.909C31.1617 329.099 31.0547 329.357 31.0547 329.627C31.0547 329.896 31.1617 330.154 31.3522 330.345C31.5426 330.535 31.801 330.642 32.0703 330.642L33.0859 330.642L33.0859 334.366C33.0859 335.174 33.4069 335.949 33.9783 336.521C34.5497 337.092 35.3247 337.413 36.1328 337.413L47.6432 337.413C48.4513 337.413 49.2263 337.092 49.7977 336.521C50.3691 335.949 50.6901 335.174 50.6901 334.366L50.6901 330.642L51.7057 330.642C51.9751 330.642 52.2334 330.535 52.4239 330.345C52.6144 330.154 52.7214 329.896 52.7214 329.627C52.7214 329.357 52.6144 329.099 52.4239 328.909C52.2334 328.718 51.9751 328.611 51.7057 328.611L50.6901 328.611L50.6901 325.564C50.6901 324.756 50.3691 323.981 49.7977 323.41C49.2263 322.838 48.4513 322.517 47.6432 322.517L43.2422 322.517L43.2422 318.793C43.2422 318.524 43.1352 318.266 42.9447 318.075C42.7543 317.885 42.4959 317.778 42.2266 317.778L39.5182 317.778ZM35.1172 325.564C35.1172 325.295 35.2242 325.037 35.4147 324.846C35.6051 324.656 35.8635 324.549 36.1328 324.549L47.6432 324.549C47.9126 324.549 48.1709 324.656 48.3614 324.846C48.5519 325.037 48.6589 325.295 48.6589 325.564L48.6589 334.366C48.6589 334.636 48.5519 334.894 48.3614 335.084C48.1709 335.275 47.9126 335.382 47.6432 335.382L36.1328 335.382C35.8635 335.382 35.6051 335.275 35.4147 335.084C35.2242 334.894 35.1172 334.636 35.1172 334.366L35.1172 325.564Z"
        fill="white"
      />
    </g>
    <g clip-path="url(#clip5)">
      <path
        d="M609.668 335.743C609.399 335.743 609.14 335.85 608.95 336.041C608.759 336.231 608.652 336.489 608.652 336.759C608.652 337.028 608.759 337.286 608.95 337.477C609.14 337.667 609.399 337.774 609.668 337.774L611.699 337.774C611.969 337.774 612.227 337.667 612.417 337.477C612.608 337.286 612.715 337.028 612.715 336.759C612.715 336.489 612.608 336.231 612.417 336.041C612.227 335.85 611.969 335.743 611.699 335.743L609.668 335.743Z"
        fill="white"
      />
      <path
        fill-rule="evenodd"
        clip-rule="evenodd"
        d="M595.111 328.634C595.111 327.326 596.173 326.264 597.481 326.264L614.408 326.264C615.716 326.264 616.778 327.326 616.778 328.634L616.778 340.144C616.778 340.773 616.528 341.375 616.084 341.82C615.64 342.264 615.037 342.514 614.408 342.514L597.481 342.514C596.853 342.514 596.25 342.264 595.805 341.82C595.361 341.375 595.111 340.773 595.111 340.144L595.111 328.634ZM614.747 328.634L614.747 330.326L597.143 330.326L597.143 328.634C597.143 328.544 597.178 328.458 597.242 328.394C597.305 328.331 597.391 328.295 597.481 328.295L614.408 328.295C614.498 328.295 614.584 328.331 614.648 328.394C614.711 328.458 614.747 328.544 614.747 328.634ZM614.747 332.358L597.143 332.358L597.143 340.144C597.143 340.331 597.294 340.483 597.481 340.483L614.408 340.483C614.498 340.483 614.584 340.447 614.648 340.384C614.711 340.32 614.747 340.234 614.747 340.144L614.747 332.358Z"
        fill="white"
      />
    </g>
    <path
      fill-rule="evenodd"
      clip-rule="evenodd"
      d="M595.111 253.703C595.111 252.395 596.173 251.333 597.481 251.333L614.408 251.333C615.716 251.333 616.778 252.395 616.778 253.703L616.778 267.922C616.778 268.55 616.528 269.153 616.084 269.598C615.64 270.042 615.037 270.292 614.408 270.292L597.481 270.292C596.853 270.292 596.25 270.042 595.805 269.598C595.361 269.153 595.111 268.55 595.111 267.922L595.111 253.703ZM597.481 253.365C597.391 253.365 597.305 253.4 597.242 253.464C597.178 253.527 597.143 253.613 597.143 253.703L597.143 267.922C597.143 268.109 597.294 268.26 597.481 268.26L614.408 268.26C614.498 268.26 614.584 268.225 614.648 268.161C614.711 268.098 614.747 268.012 614.747 267.922L614.747 253.703C614.747 253.613 614.711 253.527 614.648 253.464C614.584 253.4 614.498 253.365 614.408 253.365L597.481 253.365ZM604.929 260.812C604.929 261.082 604.822 261.34 604.631 261.53L601.584 264.577C601.491 264.677 601.379 264.757 601.255 264.812C601.13 264.868 600.996 264.898 600.859 264.9C600.723 264.903 600.587 264.877 600.461 264.826C600.334 264.775 600.22 264.699 600.123 264.603C600.027 264.506 599.951 264.391 599.9 264.265C599.848 264.139 599.823 264.003 599.826 263.867C599.828 263.73 599.858 263.596 599.914 263.471C599.969 263.347 600.049 263.235 600.149 263.142L602.478 260.812L600.149 258.483C600.049 258.39 599.969 258.278 599.914 258.154C599.858 258.029 599.828 257.895 599.826 257.758C599.823 257.622 599.848 257.486 599.9 257.36C599.951 257.233 600.027 257.119 600.123 257.022C600.22 256.926 600.334 256.85 600.461 256.799C600.587 256.747 600.723 256.722 600.859 256.725C600.996 256.727 601.13 256.757 601.255 256.813C601.379 256.868 601.491 256.948 601.584 257.048L604.631 260.095C604.822 260.284 604.929 260.543 604.929 260.812ZM606.96 262.844C606.691 262.844 606.433 262.951 606.242 263.141C606.052 263.332 605.945 263.59 605.945 263.859C605.945 264.129 606.052 264.387 606.242 264.577C606.433 264.768 606.691 264.875 606.96 264.875L611.023 264.875C611.292 264.875 611.551 264.768 611.741 264.577C611.932 264.387 612.039 264.129 612.039 263.859C612.039 263.59 611.932 263.332 611.741 263.141C611.551 262.951 611.292 262.844 611.023 262.844L606.96 262.844Z"
      fill="white"
    />
    <path
      fill-rule="evenodd"
      clip-rule="evenodd"
      d="M601.542 178.711C600.541 179.289 599.663 180.059 598.96 180.976C598.256 181.893 597.739 182.94 597.44 184.057C596.836 186.312 597.152 188.715 598.319 190.737C599.486 192.759 601.409 194.235 603.665 194.839C605.92 195.444 608.323 195.128 610.345 193.96C610.578 193.837 610.849 193.808 611.102 193.88C611.355 193.953 611.57 194.121 611.702 194.349C611.834 194.577 611.872 194.847 611.808 195.102C611.745 195.358 611.584 195.579 611.361 195.718C609.313 196.9 606.934 197.38 604.587 197.083C602.241 196.787 600.056 195.731 598.366 194.076C596.676 192.422 595.574 190.26 595.228 187.92C594.882 185.581 595.311 183.192 596.449 181.119C597.587 179.046 599.373 177.403 601.533 176.439C603.693 175.476 606.108 175.246 608.411 175.784C610.714 176.323 612.778 177.599 614.287 179.42C615.796 181.241 616.668 183.506 616.77 185.868C616.775 185.911 616.778 185.954 616.778 185.997L616.778 188.029C616.779 188.835 616.517 189.62 616.033 190.266C615.549 190.911 614.868 191.382 614.094 191.607C613.319 191.832 612.492 191.8 611.738 191.515C610.983 191.23 610.341 190.707 609.909 190.026C609.05 190.95 607.895 191.544 606.644 191.707C605.393 191.87 604.124 191.591 603.056 190.919C601.989 190.246 601.19 189.222 600.796 188.024C600.403 186.825 600.441 185.526 600.903 184.352C601.365 183.178 602.222 182.202 603.326 181.593C604.431 180.983 605.714 180.778 606.953 181.013C608.193 181.248 609.311 181.909 610.116 182.88C610.921 183.852 611.361 185.074 611.361 186.336L611.361 188.029C611.361 188.477 611.539 188.908 611.857 189.226C612.174 189.543 612.605 189.721 613.054 189.721C613.503 189.721 613.933 189.543 614.251 189.226C614.568 188.908 614.747 188.477 614.747 188.029L614.747 186.156C614.716 184.626 614.286 183.13 613.501 181.817C612.715 180.504 611.601 179.418 610.268 178.666C608.935 177.915 607.429 177.524 605.899 177.532C604.369 177.54 602.867 177.947 601.542 178.712V178.711ZM609.33 186.336C609.33 185.438 608.973 184.577 608.338 183.942C607.703 183.307 606.842 182.95 605.944 182.95C605.046 182.95 604.185 183.307 603.55 183.942C602.915 184.577 602.558 185.438 602.558 186.336C602.558 187.234 602.915 188.095 603.55 188.73C604.185 189.365 605.046 189.721 605.944 189.721C606.842 189.721 607.703 189.365 608.338 188.73C608.973 188.095 609.33 187.234 609.33 186.336Z"
      fill="white"
    />
    <path
      fill-rule="evenodd"
      clip-rule="evenodd"
      d="M603.916 108.561C603.916 107.415 604.28 106.298 604.955 105.372C605.63 104.446 606.581 103.758 607.672 103.406C608.763 103.055 609.937 103.058 611.026 103.416C612.115 103.774 613.062 104.468 613.731 105.398C614.401 106.329 614.758 107.447 614.752 108.593C614.745 109.739 614.376 110.854 613.696 111.777C613.016 112.699 612.061 113.383 610.969 113.728C609.876 114.074 608.702 114.065 607.615 113.701C607.436 113.641 607.244 113.632 607.06 113.675C606.876 113.718 606.708 113.812 606.575 113.945L605.189 115.333L603.577 115.333C603.308 115.333 603.049 115.44 602.859 115.631C602.668 115.821 602.561 116.08 602.561 116.349L602.561 117.961L602.48 118.042L600.868 118.042C600.599 118.042 600.34 118.149 600.15 118.34C599.959 118.53 599.852 118.789 599.852 119.058L599.852 120.67L599.771 120.751L597.482 120.751C597.392 120.751 597.306 120.716 597.242 120.652C597.179 120.589 597.143 120.502 597.143 120.413L597.143 118.124L603.948 111.32C604.082 111.186 604.175 111.018 604.219 110.835C604.262 110.651 604.253 110.459 604.193 110.28C604.009 109.725 603.915 109.145 603.916 108.561V108.561ZM609.334 101.111C608.207 101.111 607.095 101.366 606.081 101.858C605.067 102.35 604.178 103.065 603.481 103.95C602.783 104.836 602.296 105.867 602.055 106.968C601.814 108.069 601.826 109.21 602.09 110.305L595.409 116.986C595.219 117.176 595.112 117.434 595.111 117.704L595.111 120.413C595.111 121.721 596.173 122.783 597.482 122.783L600.191 122.783C600.46 122.783 600.718 122.676 600.909 122.485L601.586 121.808C601.776 121.617 601.884 121.359 601.884 121.09L601.884 120.074L602.9 120.074C603.169 120.074 603.427 119.967 603.618 119.776L604.295 119.099C604.485 118.908 604.593 118.65 604.593 118.381L604.593 117.365L605.609 117.365C605.878 117.365 606.136 117.258 606.327 117.067L607.589 115.805C608.612 116.05 609.675 116.076 610.709 115.881C611.743 115.687 612.724 115.275 613.587 114.673C614.45 114.072 615.176 113.295 615.717 112.393C616.258 111.49 616.602 110.484 616.726 109.439C616.85 108.395 616.752 107.335 616.437 106.332C616.122 105.328 615.598 104.402 614.9 103.615C614.201 102.829 613.344 102.199 612.385 101.767C611.426 101.335 610.386 101.112 609.334 101.111V101.111ZM610.011 109.238C610.37 109.238 610.715 109.095 610.969 108.841C611.223 108.587 611.365 108.243 611.365 107.884C611.365 107.524 611.223 107.18 610.969 106.926C610.715 106.672 610.37 106.529 610.011 106.529C609.652 106.529 609.307 106.672 609.053 106.926C608.799 107.18 608.656 107.524 608.656 107.884C608.656 108.243 608.799 108.587 609.053 108.841C609.307 109.095 609.652 109.238 610.011 109.238V109.238Z"
      fill="white"
    />
  </g>
  <defs>
    <linearGradient
      id="paint0_linear"
      x1="333.724"
      y1="303.968"
      x2="609.229"
      y2="197.46"
      gradientUnits="userSpaceOnUse"
    >
      <stop stop-color="#E3EAFD" />
      <stop offset="0.28" stop-color="#F1F5FE" />
      <stop offset="0.56" stop-color="white" />
      <stop offset="0.78" stop-color="#F1F5FE" />
      <stop offset="1" stop-color="#E3EAFD" />
    </linearGradient>
    <linearGradient
      id="paint1_linear"
      x1="45.0154"
      y1="303.607"
      x2="320.521"
      y2="197.099"
      gradientUnits="userSpaceOnUse"
    >
      <stop stop-color="#E3EAFD" />
      <stop offset="0.28" stop-color="#F1F5FE" />
      <stop offset="0.56" stop-color="white" />
      <stop offset="0.78" stop-color="#F1F5FE" />
      <stop offset="1" stop-color="#E3EAFD" />
    </linearGradient>
    <linearGradient
      id="paint2_linear"
      x1="391.747"
      y1="224.929"
      x2="260.859"
      y2="224.797"
      gradientUnits="userSpaceOnUse"
    >
      <stop stop-color="#516FF7" />
      <stop offset="0.25" stop-color="#3471FB" />
      <stop offset="0.51" stop-color="#1673FF" />
      <stop offset="0.75" stop-color="#2B89FB" />
      <stop offset="1" stop-color="#409FF8" />
    </linearGradient>
    <linearGradient
      id="paint3_linear"
      x1="381.159"
      y1="224.879"
      x2="271.032"
      y2="224.767"
      gradientUnits="userSpaceOnUse"
    >
      <stop stop-color="#516FF7" />
      <stop offset="0.25" stop-color="#3471FB" />
      <stop offset="0.51" stop-color="#1673FF" />
      <stop offset="0.75" stop-color="#2B89FB" />
      <stop offset="1" stop-color="#409FF8" />
    </linearGradient>
    <clipPath id="clip0">
      <rect width="650" height="447.778" fill="white" />
    </clipPath>
    <clipPath id="clip1">
      <rect
        width="36.1111"
        height="36.1111"
        fill="white"
        transform="translate(306.945 206.556)"
      />
    </clipPath>
    <clipPath id="clip2">
      <rect
        width="21.6667"
        height="21.6667"
        fill="white"
        transform="translate(595.111 27.4446)"
      />
    </clipPath>
    <clipPath id="clip3">
      <rect
        width="21.6667"
        height="21.6666"
        fill="white"
        transform="translate(31.0547 109.056)"
      />
    </clipPath>
    <clipPath id="clip4">
      <rect
        width="21.6667"
        height="21.6666"
        fill="white"
        transform="translate(31.0547 317.778)"
      />
    </clipPath>
    <clipPath id="clip5">
      <rect
        width="21.6668"
        height="21.6667"
        fill="white"
        transform="translate(595.111 323.556)"
      />
    </clipPath>
  </defs>
</svg>
