<svg width="1550" height="800" viewBox="0 0 1550 800" fill="none" xmlns="http://www.w3.org/2000/svg">
    <g filter="url(#filter0_d)">
        <rect x="25" width="1500" height="750" rx="15" fill="#1435AB" />
        <g opacity="0.2">
            <path d="M1525 0H25V750H1525V0Z" fill="#103BB9" />
            <path d="M40.9375 137.25V12.75L196.563 137.25H40.9375Z" fill="#1D2488" />
            <path d="M228.438 137.25V12.75L384.063 137.25H228.438Z" fill="#1D2488" />
            <path d="M1166.41 437.391V312.891L1322.03 437.391H1166.41Z" fill="#1D2488" />
            <path d="M1353.91 437.391V312.891L1509.53 437.391H1353.91Z" fill="#1D2488" />
            <path d="M228.438 137.25V12.75L384.063 137.25H228.438Z" fill="#1D2488" />
            <path d="M978.906 437.391V312.891L1134.53 437.391H978.906Z" fill="#1D2488" />
            <path d="M415.938 137.25V12.75L571.563 137.25H415.938Z" fill="#011341" />
            <path d="M603.438 137.25V12.75L759.063 137.25H603.438Z" fill="#011341" />
            <path d="M790.938 137.25V12.75L946.563 137.25H790.938Z" fill="#1D2488" />
            <path d="M978.438 137.25V12.75L1134.06 137.25H978.438Z" fill="#1D2488" />
            <path d="M1165.94 137.25V12.75L1321.56 137.25H1165.94Z" fill="#1D2488" />
            <path d="M1353.44 137.25V12.75L1509.06 137.25H1353.44Z" fill="#1D2488" />
            <path d="M40.9375 287.25V162.75L196.563 287.25H40.9375Z" fill="#011341" />
            <path d="M228.438 287.25V162.75L384.063 287.25H228.438Z" fill="#011341" />
            <path d="M415.938 287.25V162.75L571.563 287.25H415.938Z" fill="#1D2488" />
            <path d="M603.438 287.25V162.75L759.063 287.25H603.438Z" fill="#1D2488" />
            <path d="M791.406 587.391V462.891L947.031 587.391H791.406Z" fill="#1D2488" />
            <path d="M978.906 587.391V462.891L1134.53 587.391H978.906Z" fill="#1D2488" />
            <path d="M1166.41 587.391V462.891L1322.03 587.391H1166.41Z" fill="#011341" />
            <path d="M1353.91 587.391V462.891L1509.53 587.391H1353.91Z" fill="#011341" />
            <path d="M791.406 737.391V612.891L947.031 737.391H791.406Z" fill="#011341" />
            <path d="M978.906 737.391V612.891L1134.53 737.391H978.906Z" fill="#011341" />
            <path d="M1166.41 737.391V612.891L1322.03 737.391H1166.41Z" fill="#1D2488" />
            <path d="M1353.91 737.391V612.891L1509.53 737.391H1353.91Z" fill="#1D2488" />
            <path d="M41.4062 587.391V462.891L197.031 587.391H41.4062Z" fill="#1D2488" />
            <path d="M228.906 587.391V462.891L384.531 587.391H228.906Z" fill="#1D2488" />
            <path d="M416.406 587.391V462.891L572.031 587.391H416.406Z" fill="#011341" />
            <path d="M603.906 587.391V462.891L759.531 587.391H603.906Z" fill="#011341" />
            <path d="M41.4062 737.391V612.891L197.031 737.391H41.4062Z" fill="#011341" />
            <path d="M228.906 737.391V612.891L384.531 737.391H228.906Z" fill="#011341" />
            <path d="M416.406 737.391V612.891L572.031 737.391H416.406Z" fill="#1D2488" />
            <path d="M603.906 737.391V612.891L759.531 737.391H603.906Z" fill="#1D2488" />
            <path d="M791.406 737.391V612.891L947.031 737.391H791.406Z" fill="#011341" />
            <path d="M978.906 737.391V612.891L1134.53 737.391H978.906Z" fill="#011341" />
            <path d="M1166.41 737.391V612.891L1322.03 737.391H1166.41Z" fill="#1D2488" />
            <path d="M1353.91 737.391V612.891L1509.53 737.391H1353.91Z" fill="#1D2488" />
            <path d="M41.4062 737.391V612.891L197.031 737.391H41.4062Z" fill="#011341" />
            <path d="M41.4062 737.391V612.891L197.031 737.391H41.4062Z" fill="#011341" />
            <path d="M228.906 737.391V612.891L384.531 737.391H228.906Z" fill="#011341" />
            <path d="M416.406 737.391V612.891L572.031 737.391H416.406Z" fill="#1D2488" />
            <path d="M603.906 737.391V612.891L759.531 737.391H603.906Z" fill="#1D2488" />
            <path d="M790.938 287.25V162.75L946.563 287.25H790.938Z" fill="#1D2488" />
            <path d="M978.438 287.25V162.75L1134.06 287.25H978.438Z" fill="#011341" />
            <path d="M1165.94 287.25V162.75L1321.56 287.25H1165.94Z" fill="#1D2488" />
            <path d="M1353.44 287.25V162.75L1509.06 287.25H1353.44Z" fill="#011341" />
            <path d="M40.9375 437.25V312.75L196.563 437.25H40.9375Z" fill="#011341" />
            <path d="M228.438 437.25V312.75L384.063 437.25H228.438Z" fill="#1D2488" />
            <path d="M415.938 437.25V312.75L571.563 437.25H415.938Z" fill="#1D2488" />
            <path d="M603.438 437.25V312.75L759.063 437.25H603.438Z" fill="#1D2488" />
            <path d="M790.938 437.25V312.75L946.563 437.25H790.938Z" fill="#1D2488" />
        </g>
        <g clip-path="url(#clip0)" filter="url(#filter1_d)">
            <ellipse cx="541.125" cy="313.125" rx="86.2265" ry="86.2265" fill="white" />
            <path d="M616.167 238.083C596.122 218.039 569.472 207 541.125 207C512.778 207 486.128 218.039 466.083 238.083C446.039 258.128 435 284.778 435 313.125C435 341.472 446.039 368.122 466.083 388.167C486.128 408.211 512.778 419.25 541.125 419.25C569.472 419.25 596.122 408.211 616.167 388.167C636.211 368.122 647.25 341.472 647.25 313.125C647.25 284.778 636.211 258.128 616.167 238.083V238.083ZM541.125 394.275C496.379 394.275 459.975 357.872 459.975 313.125C459.975 268.378 496.379 231.975 541.125 231.975C585.871 231.975 622.275 268.379 622.275 313.125C622.275 357.871 585.871 394.275 541.125 394.275V394.275Z" fill="black" />
            <path d="M541.126 244.411C503.237 244.411 472.412 275.236 472.412 313.125C472.412 323.838 474.878 333.985 479.27 343.031L481.444 338.553C481.474 338.492 481.505 338.431 481.537 338.371C482.46 336.619 485.473 329.621 485.473 313.125C485.473 303.246 488.094 293.526 493.055 285.017C494.784 282.05 498.591 281.047 501.558 282.776C504.525 284.506 505.528 288.313 503.799 291.28C499.946 297.89 497.909 305.444 497.909 313.125C497.909 331.117 494.601 340.209 492.59 344.072L487.051 355.476C494.081 364.433 503.287 371.603 513.862 376.192C518.954 372.117 523.239 366.499 526.622 359.438C532.326 347.533 535.219 331.951 535.219 313.125C535.219 309.691 538.003 306.907 541.437 306.907C544.871 306.907 547.655 309.691 547.655 313.125C547.655 333.826 544.352 351.216 537.837 364.813C534.944 370.85 531.461 376.079 527.434 380.467C531.86 381.366 536.439 381.839 541.126 381.839C541.511 381.839 541.894 381.83 542.277 381.824C550.583 370.093 556.045 355.11 558.525 337.236C558.997 333.835 562.137 331.463 565.539 331.932C568.941 332.404 571.316 335.544 570.843 338.946C568.692 354.451 564.439 368.092 558.18 379.695C564.138 378.168 569.785 375.859 575.008 372.886C581.609 355.92 584.965 335.834 584.965 313.125C584.965 289.124 565.438 269.597 541.437 269.597C533.696 269.597 526.092 271.664 519.445 275.573C516.485 277.314 512.674 276.326 510.933 273.366C509.192 270.406 510.18 266.595 513.14 264.854C521.696 259.821 531.481 257.161 541.437 257.161C572.296 257.161 597.401 282.266 597.401 313.125C597.401 329.662 595.703 344.959 592.359 358.861C603.224 346.704 609.839 330.674 609.839 313.125C609.84 275.236 579.015 244.411 541.126 244.411V244.411ZM510.346 313.125C510.346 295.981 524.293 282.034 541.437 282.034C558.581 282.034 572.528 295.981 572.528 313.125C572.528 316.559 569.744 319.343 566.31 319.343C562.876 319.343 560.092 316.559 560.092 313.125C560.092 302.839 551.723 294.47 541.437 294.47C531.151 294.47 522.782 302.839 522.782 313.125C522.782 331.332 519.947 345.804 514.356 356.136C513.231 358.216 511.091 359.396 508.881 359.396C507.882 359.396 506.868 359.155 505.928 358.645C502.907 357.011 501.784 353.238 503.418 350.217C506.579 344.377 510.346 333.201 510.346 313.125Z" fill="black" />
        </g>
        <path d="M749.782 340.617C749.782 327.097 743.802 321.117 726.382 313.187C712.732 306.947 709.352 303.697 709.352 296.807C709.352 290.177 713.902 284.717 724.172 284.717C731.322 284.717 738.082 287.577 743.022 291.347L744.972 279.127C739.772 276.137 733.272 274.057 724.562 274.057C708.312 274.057 697.262 283.287 697.262 297.717C697.262 310.587 703.632 316.177 720.532 323.847C734.052 329.957 737.692 333.337 737.692 341.527C737.692 350.237 731.062 355.177 721.702 355.177C712.732 355.177 704.282 351.537 698.172 347.507L696.352 359.987C702.982 363.497 711.692 365.837 721.442 365.837C738.212 365.837 749.782 356.087 749.782 340.617ZM815.265 332.557C815.265 315.397 806.945 301.487 788.875 301.487C773.275 301.487 761.575 313.707 761.575 333.597C761.575 356.347 774.185 366.097 790.305 366.097C800.575 366.097 808.505 362.977 815.135 357.777L813.445 347.377C806.685 352.707 800.185 356.217 791.215 356.217C780.425 356.217 773.535 349.457 773.145 335.027H815.265C815.265 334.247 815.265 333.207 815.265 332.557ZM803.565 326.317H773.665C775.485 315.657 781.595 310.587 788.745 310.587C797.715 310.587 802.135 316.307 803.565 326.317ZM876.498 359.467L874.808 349.067C868.438 354.527 862.978 355.957 856.738 355.957C845.818 355.957 838.148 348.807 838.148 333.727C838.148 319.297 845.298 311.627 855.438 311.627C862.588 311.627 868.438 313.837 874.158 318.517L875.848 307.207C871.168 303.827 864.668 301.487 855.568 301.487C839.448 301.487 826.448 312.667 826.448 333.857C826.448 354.527 838.668 366.097 855.308 366.097C863.628 366.097 870.128 364.277 876.498 359.467ZM978.906 364.797V319.687C978.906 308.507 973.186 301.487 961.356 301.487C952.646 301.487 945.106 306.427 939.516 311.757C937.176 305.387 932.236 301.487 923.136 301.487C914.426 301.487 907.406 306.427 901.556 311.757L900.126 302.787H890.896V364.797H902.466V321.897C908.056 315.917 913.906 311.887 920.016 311.887C926.776 311.887 929.116 316.177 929.116 322.547V364.797H940.686V321.897C946.276 315.917 952.126 311.887 958.236 311.887C964.996 311.887 967.336 316.177 967.336 322.547V364.797H978.906ZM1043.83 364.797V321.377C1043.83 307.597 1036.55 301.487 1021.47 301.487C1011.85 301.487 1004.83 303.697 997.422 306.687L998.982 316.697C1005.74 313.707 1012.89 311.367 1020.43 311.367C1027.58 311.367 1032.26 314.097 1032.26 321.897V324.497C1006.39 327.227 993.132 333.337 993.132 348.807C993.132 359.337 1000.15 366.097 1011.33 366.097C1021.47 366.097 1028.23 361.547 1033.17 356.477L1034.47 364.797H1043.83ZM1032.26 347.767C1027.06 353.097 1020.56 356.477 1013.8 356.477C1007.95 356.477 1004.57 353.227 1004.57 348.157C1004.57 341.787 1009.38 335.547 1032.26 333.337V347.767ZM1112.34 364.797V319.687C1112.34 308.507 1106.1 301.487 1094.4 301.487C1085.56 301.487 1078.28 306.427 1072.43 311.757L1071 302.787H1061.77V364.797H1073.34V321.897C1078.93 315.917 1085.17 311.887 1091.28 311.887C1098.04 311.887 1100.77 316.177 1100.77 322.547V364.797H1112.34Z" fill="white" />
        <path d="M455.111 517.189H460.403C460.243 511.365 455.094 507.139 447.707 507.139C440.41 507.139 434.817 511.312 434.817 517.58C434.817 522.64 438.439 525.605 444.28 527.185L448.577 528.357C452.466 529.387 455.466 530.665 455.466 533.897C455.466 537.448 452.075 539.792 447.405 539.792C443.18 539.792 439.664 537.91 439.344 533.95H433.84C434.195 540.538 439.291 544.604 447.441 544.604C455.981 544.604 460.9 540.112 460.9 533.95C460.9 527.398 455.058 524.859 450.442 523.723L446.89 522.8C444.05 522.072 440.268 520.74 440.285 517.26C440.285 514.17 443.108 511.88 447.583 511.88C451.756 511.88 454.721 513.833 455.111 517.189ZM478.784 544.55C484.732 544.55 488.94 541.621 490.148 537.182L485.123 536.276C484.164 538.851 481.856 540.165 478.837 540.165C474.292 540.165 471.238 537.217 471.096 531.962H490.485V530.08C490.485 520.225 484.59 516.372 478.411 516.372C470.812 516.372 465.805 522.161 465.805 530.541C465.805 539.011 470.741 544.55 478.784 544.55ZM471.114 527.984C471.327 524.114 474.132 520.758 478.447 520.758C482.566 520.758 485.265 523.812 485.283 527.984H471.114ZM507.863 544.55C514.309 544.55 518.481 540.68 519.067 535.371H513.9C513.226 538.318 510.935 540.058 507.899 540.058C503.407 540.058 500.513 536.312 500.513 530.364C500.513 524.522 503.46 520.847 507.899 520.847C511.273 520.847 513.332 522.977 513.9 525.534H519.067C518.499 520.03 514.007 516.372 507.81 516.372C500.122 516.372 495.15 522.161 495.15 530.488C495.15 538.709 499.944 544.55 507.863 544.55ZM524.745 544H530.054V527.185C530.054 523.51 532.628 520.953 535.647 520.953C538.594 520.953 540.636 522.906 540.636 525.871V544H545.927V526.617C545.927 523.332 547.934 520.953 551.396 520.953C554.201 520.953 556.51 522.516 556.51 526.209V544H561.819V525.712C561.819 519.479 558.338 516.372 553.402 516.372C549.478 516.372 546.531 518.254 545.217 521.166H544.933C543.743 518.183 541.24 516.372 537.6 516.372C533.995 516.372 531.314 518.165 530.178 521.166H529.841V516.727H524.745V544ZM576.871 544.604C581.381 544.604 583.92 542.313 584.932 540.271H585.145V544H590.33V525.889C590.33 517.952 584.08 516.372 579.747 516.372C574.811 516.372 570.266 518.361 568.49 523.332L573.48 524.469C574.261 522.533 576.249 520.669 579.818 520.669C583.245 520.669 585.003 522.462 585.003 525.552V525.676C585.003 527.612 583.014 527.576 578.114 528.144C572.947 528.748 567.656 530.097 567.656 536.294C567.656 541.656 571.686 544.604 576.871 544.604ZM578.025 540.342C575.024 540.342 572.858 538.993 572.858 536.365C572.858 533.524 575.379 532.512 578.451 532.104C580.173 531.873 584.257 531.411 585.021 530.648V534.163C585.021 537.395 582.446 540.342 578.025 540.342ZM602.71 527.807C602.71 523.457 605.373 520.971 609.066 520.971C612.671 520.971 614.855 523.332 614.855 527.292V544H620.164V526.653C620.164 519.906 616.453 516.372 610.877 516.372C606.776 516.372 604.095 518.272 602.834 521.166H602.497V516.727H597.401V544H602.71V527.807ZM663.847 516.727H658.148L651.258 537.714H650.974L644.067 516.727H638.368L648.275 544H653.957L663.847 516.727ZM680.768 544.497C688.084 544.497 693.304 539.33 693.286 532.246C693.304 525.214 688.403 520.101 681.78 520.101C679.081 520.101 676.578 521.131 675.157 522.516H674.944L676.099 512.342H691.528V507.636H671.535L669.493 525.96L674.518 526.706C675.885 525.481 678.336 524.646 680.537 524.646C684.852 524.682 687.977 527.913 687.977 532.352C687.977 536.72 684.941 539.881 680.768 539.881C677.253 539.881 674.465 537.643 674.181 534.518H668.854C669.067 540.307 674.092 544.497 680.768 544.497ZM702.071 544.337C704.006 544.337 705.622 542.757 705.622 540.786C705.622 538.851 704.006 537.253 702.071 537.253C700.118 537.253 698.52 538.851 698.52 540.786C698.52 542.757 700.118 544.337 702.071 544.337ZM724.052 544.497C731.474 544.497 736.925 540.058 736.907 534.021C736.925 529.423 734.137 526.12 729.308 525.374V525.09C733.108 524.114 735.576 521.131 735.558 517.047C735.576 511.702 731.19 507.139 724.194 507.139C717.518 507.139 712.156 511.17 711.978 517.082H717.287C717.412 513.744 720.554 511.72 724.123 511.72C727.834 511.72 730.267 513.975 730.249 517.331C730.267 520.847 727.444 523.155 723.413 523.155H720.341V527.629H723.413C728.456 527.629 731.368 530.186 731.368 533.844C731.368 537.377 728.296 539.774 724.017 539.774C720.075 539.774 717.003 537.75 716.79 534.518H711.215C711.446 540.449 716.701 544.497 724.052 544.497ZM746.065 544.337C748 544.337 749.616 542.757 749.616 540.786C749.616 538.851 748 537.253 746.065 537.253C744.112 537.253 742.514 538.851 742.514 540.786C742.514 542.757 744.112 544.337 746.065 544.337ZM767.984 544.497C775.584 544.568 780.626 539.099 780.608 532.121C780.626 525.161 775.566 520.172 769.263 520.172C765.427 520.172 762.107 522.018 760.243 525.09H759.976C759.994 516.834 763.119 511.933 768.446 511.933C771.944 511.933 774.145 514.064 774.891 517.082H780.307C779.472 511.33 774.944 507.139 768.446 507.139C759.994 507.139 754.721 514.401 754.721 527.043C754.703 540.431 761.521 544.444 767.984 544.497ZM767.966 539.881C763.741 539.881 760.651 536.33 760.651 532.246C760.669 528.18 763.9 524.629 768.091 524.629C772.246 524.629 775.3 527.984 775.282 532.192C775.3 536.489 772.121 539.881 767.966 539.881ZM799.736 544.497C807.158 544.497 812.609 540.058 812.591 534.021C812.609 529.423 809.821 526.12 804.991 525.374V525.09C808.791 524.114 811.259 521.131 811.241 517.047C811.259 511.702 806.874 507.139 799.878 507.139C793.202 507.139 787.839 511.17 787.662 517.082H792.971C793.095 513.744 796.238 511.72 799.807 511.72C803.518 511.72 805.95 513.975 805.933 517.331C805.95 520.847 803.127 523.155 799.097 523.155H796.025V527.629H799.097C804.139 527.629 807.051 530.186 807.051 533.844C807.051 537.377 803.979 539.774 799.7 539.774C795.759 539.774 792.687 537.75 792.474 534.518H786.898C787.129 540.449 792.385 544.497 799.736 544.497ZM832.606 544H837.915V527.345C837.915 523.776 840.667 521.202 844.431 521.202C845.532 521.202 846.775 521.397 847.201 521.521V516.443C846.669 516.372 845.621 516.319 844.946 516.319C841.75 516.319 839.016 518.13 838.021 521.06H837.737V516.727H832.606V544ZM862.573 544.55C868.521 544.55 872.729 541.621 873.937 537.182L868.912 536.276C867.953 538.851 865.645 540.165 862.626 540.165C858.081 540.165 855.027 537.217 854.885 531.962H874.274V530.08C874.274 520.225 868.379 516.372 862.2 516.372C854.601 516.372 849.594 522.161 849.594 530.541C849.594 539.011 854.53 544.55 862.573 544.55ZM854.903 527.984C855.116 524.114 857.921 520.758 862.236 520.758C866.355 520.758 869.054 523.812 869.072 527.984H854.903ZM885.474 507.636H880.165V544H885.474V507.636ZM904.37 544.55C910.318 544.55 914.526 541.621 915.734 537.182L910.709 536.276C909.75 538.851 907.442 540.165 904.423 540.165C899.878 540.165 896.824 537.217 896.682 531.962H916.071V530.08C916.071 520.225 910.176 516.372 903.997 516.372C896.398 516.372 891.391 522.161 891.391 530.541C891.391 539.011 896.327 544.55 904.37 544.55ZM896.7 527.984C896.913 524.114 899.718 520.758 904.033 520.758C908.152 520.758 910.851 523.812 910.869 527.984H896.7ZM929.898 544.604C934.408 544.604 936.947 542.313 937.959 540.271H938.172V544H943.357V525.889C943.357 517.952 937.107 516.372 932.775 516.372C927.839 516.372 923.293 518.361 921.518 523.332L926.507 524.469C927.288 522.533 929.277 520.669 932.846 520.669C936.273 520.669 938.03 522.462 938.03 525.552V525.676C938.03 527.612 936.042 527.576 931.141 528.144C925.974 528.748 920.683 530.097 920.683 536.294C920.683 541.656 924.714 544.604 929.898 544.604ZM931.052 540.342C928.052 540.342 925.885 538.993 925.885 536.365C925.885 533.524 928.407 532.512 931.479 532.104C933.201 531.873 937.285 531.411 938.048 530.648V534.163C938.048 537.395 935.474 540.342 931.052 540.342ZM970.865 523.386C969.764 519.142 966.444 516.372 960.549 516.372C954.388 516.372 950.02 519.621 950.02 524.451C950.02 528.322 952.364 530.896 957.477 532.033L962.094 533.045C964.722 533.631 965.947 534.803 965.947 536.507C965.947 538.62 963.692 540.271 960.212 540.271C957.033 540.271 954.991 538.904 954.352 536.223L949.221 537.004C950.109 541.834 954.121 544.55 960.247 544.55C966.835 544.55 971.398 541.053 971.398 536.116C971.398 532.263 968.947 529.884 963.94 528.73L959.608 527.736C956.607 527.026 955.311 526.013 955.329 524.167C955.311 522.072 957.584 520.58 960.602 520.58C963.905 520.58 965.432 522.409 966.053 524.238L970.865 523.386ZM988.989 544.55C994.937 544.55 999.145 541.621 1000.35 537.182L995.328 536.276C994.369 538.851 992.061 540.165 989.042 540.165C984.497 540.165 981.443 537.217 981.301 531.962H1000.69V530.08C1000.69 520.225 994.795 516.372 988.616 516.372C981.017 516.372 976.01 522.161 976.01 530.541C976.01 539.011 980.946 544.55 988.989 544.55ZM981.319 527.984C981.532 524.114 984.337 520.758 988.652 520.758C992.771 520.758 995.47 523.812 995.488 527.984H981.319ZM1025.12 527.807C1025.12 523.457 1027.79 520.971 1031.48 520.971C1035.08 520.971 1037.27 523.332 1037.27 527.292V544H1042.58V526.653C1042.58 519.906 1038.86 516.372 1033.29 516.372C1029.19 516.372 1026.51 518.272 1025.25 521.166H1024.91V516.727H1019.81V544H1025.12V527.807ZM1061.18 544.55C1068.87 544.55 1073.9 538.922 1073.9 530.488C1073.9 522.001 1068.87 516.372 1061.18 516.372C1053.5 516.372 1048.47 522.001 1048.47 530.488C1048.47 538.922 1053.5 544.55 1061.18 544.55ZM1061.2 540.094C1056.18 540.094 1053.83 535.708 1053.83 530.47C1053.83 525.25 1056.18 520.811 1061.2 520.811C1066.19 520.811 1068.53 525.25 1068.53 530.47C1068.53 535.708 1066.19 540.094 1061.2 540.094ZM1092.55 516.727H1086.96V510.193H1081.65V516.727H1077.66V520.989H1081.65V537.093C1081.63 542.047 1085.42 544.444 1089.61 544.355C1091.29 544.337 1092.43 544.018 1093.05 543.787L1092.09 539.401C1091.74 539.472 1091.08 539.632 1090.23 539.632C1088.51 539.632 1086.96 539.064 1086.96 535.992V520.989H1092.55V516.727ZM1109.89 544.55C1115.84 544.55 1120.04 541.621 1121.25 537.182L1116.23 536.276C1115.27 538.851 1112.96 540.165 1109.94 540.165C1105.4 540.165 1102.34 537.217 1102.2 531.962H1121.59V530.08C1121.59 520.225 1115.69 516.372 1109.51 516.372C1101.92 516.372 1096.91 522.161 1096.91 530.541C1096.91 539.011 1101.84 544.55 1109.89 544.55ZM1102.22 527.984C1102.43 524.114 1105.24 520.758 1109.55 520.758C1113.67 520.758 1116.37 523.812 1116.39 527.984H1102.22ZM1147.92 523.386C1146.81 519.142 1143.49 516.372 1137.6 516.372C1131.44 516.372 1127.07 519.621 1127.07 524.451C1127.07 528.322 1129.41 530.896 1134.53 532.033L1139.14 533.045C1141.77 533.631 1143 534.803 1143 536.507C1143 538.62 1140.74 540.271 1137.26 540.271C1134.08 540.271 1132.04 538.904 1131.4 536.223L1126.27 537.004C1127.16 541.834 1131.17 544.55 1137.3 544.55C1143.89 544.55 1148.45 541.053 1148.45 536.116C1148.45 532.263 1146 529.884 1140.99 528.73L1136.66 527.736C1133.66 527.026 1132.36 526.013 1132.38 524.167C1132.36 522.072 1134.63 520.58 1137.65 520.58C1140.96 520.58 1142.48 522.409 1143.1 524.238L1147.92 523.386Z" fill="white" />
    </g>
    <defs>
        <filter id="filter0_d" x="0" y="0" width="1550" height="800" filterUnits="userSpaceOnUse" color-interpolation-filters="sRGB">
            <feFlood flood-opacity="0" result="BackgroundImageFix" />
            <feColorMatrix in="SourceAlpha" type="matrix" values="0 0 0 0 0 0 0 0 0 0 0 0 0 0 0 0 0 0 127 0" />
            <feOffset dy="25" />
            <feGaussianBlur stdDeviation="12.5" />
            <feColorMatrix type="matrix" values="0 0 0 0 0 0 0 0 0 0 0 0 0 0 0 0 0 0 0.3 0" />
            <feBlend mode="normal" in2="BackgroundImageFix" result="effect1_dropShadow" />
            <feBlend mode="normal" in="SourceGraphic" in2="effect1_dropShadow" result="shape" />
        </filter>
        <filter id="filter1_d" x="415" y="207" width="252.25" height="257.25" filterUnits="userSpaceOnUse" color-interpolation-filters="sRGB">
            <feFlood flood-opacity="0" result="BackgroundImageFix" />
            <feColorMatrix in="SourceAlpha" type="matrix" values="0 0 0 0 0 0 0 0 0 0 0 0 0 0 0 0 0 0 127 0" />
            <feOffset dy="25" />
            <feGaussianBlur stdDeviation="10" />
            <feColorMatrix type="matrix" values="0 0 0 0 0 0 0 0 0 0 0 0 0 0 0 0 0 0 0.25 0" />
            <feBlend mode="normal" in2="BackgroundImageFix" result="effect1_dropShadow" />
            <feBlend mode="normal" in="SourceGraphic" in2="effect1_dropShadow" result="shape" />
        </filter>
        <clipPath id="clip0">
            <rect width="212.25" height="212.25" fill="white" transform="translate(435 207)" />
        </clipPath>
    </defs>
</svg>
