<svg width="1550" height="800" viewBox="0 0 1550 800" fill="none" xmlns="http://www.w3.org/2000/svg">
    <g filter="url(#filter0_d)">
        <g clip-path="url(#clip0)">
            <path d="M25 15C25 6.71571 31.7157 0 40 0H1510C1518.28 0 1525 6.71573 1525 15V735C1525 743.284 1518.28 750 1510 750H40C31.7157 750 25 743.284 25 735V15Z" fill="white" />
            <g filter="url(#filter1_d)">
                <path fill-rule="evenodd" clip-rule="evenodd" d="M306.378 500.984L357.208 507.908C408.039 514.833 509.699 528.682 534.801 393.105C559.902 257.527 508.444 -27.4762 566.357 -99.0137C624.269 -170.551 791.552 -28.6224 893.213 -14.7734C994.873 -0.924362 1030.91 -115.155 1048.93 -172.27L1066.95 -229.386L1545.94 705.494L1506.05 719.916C1466.15 734.338 1386.37 763.182 1306.58 792.027C1226.79 820.871 1147.01 849.715 1067.22 878.559C987.434 907.403 907.647 936.248 827.861 965.092C748.074 993.936 668.288 1022.78 628.395 1037.2L588.501 1051.62L306.378 500.984Z" fill="white" />
            </g>
            <g filter="url(#filter2_i)">
                <path fill-rule="evenodd" clip-rule="evenodd" d="M826.609 115.944L784.719 128.855C742.829 141.766 659.05 167.588 575.898 189.157C492.747 210.727 410.222 228.043 334.602 198.578C258.981 169.113 190.264 92.8673 112.133 80.4138C34.0017 67.9603 -53.5431 119.3 -97.3155 144.969L-141.088 170.639L-82.3567 -227.357L-42.9774 -223.256C-3.5981 -219.156 75.1606 -210.956 153.919 -202.755C232.678 -194.554 311.436 -186.354 390.195 -178.153C468.954 -169.952 547.712 -161.752 626.471 -153.551C705.23 -145.351 783.988 -137.15 823.367 -133.05L862.747 -128.949L826.609 115.944Z" fill="white" />
            </g>
            <g filter="url(#filter3_i)">
                <path fill-rule="evenodd" clip-rule="evenodd" d="M739.709 -445.009L734.466 -387.933C729.223 -330.856 718.737 -216.703 716.485 -106.416C714.232 3.87155 720.213 110.293 816.76 174.193C913.307 238.093 1100.42 259.471 1164.03 338.834C1227.65 418.196 1167.76 555.543 1137.82 624.216L1107.88 692.89L1878.38 331.132L1850.69 289.518C1823 247.904 1767.61 164.676 1712.23 81.4478C1656.85 -1.78029 1601.47 -85.0083 1546.09 -168.236C1490.71 -251.464 1435.33 -334.692 1379.95 -417.92C1324.57 -501.149 1269.19 -584.377 1241.5 -625.991L1213.81 -667.605L739.709 -445.009Z" fill="white" />
            </g>
            <path d="M506.98 517.189L512.272 517.189C512.112 511.365 506.963 507.139 499.576 507.139C492.279 507.139 486.686 511.312 486.686 517.58C486.686 522.64 490.308 525.605 496.15 527.185L500.446 528.357C504.335 529.387 507.336 530.666 507.336 533.897C507.336 537.448 503.944 539.792 499.275 539.792C495.049 539.792 491.533 537.91 491.213 533.95L485.709 533.95C486.064 540.538 491.16 544.604 499.31 544.604C507.85 544.604 512.769 540.112 512.769 533.95C512.769 527.399 506.927 524.859 502.311 523.723L498.76 522.8C495.919 522.072 492.137 520.74 492.154 517.26C492.154 514.171 494.978 511.88 499.452 511.88C503.625 511.88 506.59 513.833 506.98 517.189ZM530.653 544.551C536.601 544.551 540.809 541.621 542.017 537.182L536.992 536.276C536.033 538.851 533.725 540.165 530.706 540.165C526.161 540.165 523.107 537.217 522.965 531.962L542.354 531.962L542.354 530.08C542.354 520.225 536.459 516.372 530.28 516.372C522.681 516.372 517.674 522.161 517.674 530.541C517.674 539.011 522.61 544.551 530.653 544.551ZM522.983 527.984C523.196 524.114 526.001 520.758 530.316 520.758C534.435 520.758 537.134 523.812 537.152 527.984L522.983 527.984ZM559.733 544.551C566.178 544.551 570.35 540.68 570.936 535.371L565.77 535.371C565.095 538.318 562.804 540.058 559.768 540.058C555.276 540.058 552.382 536.312 552.382 530.364C552.382 524.522 555.329 520.847 559.768 520.847C563.142 520.847 565.201 522.977 565.77 525.534L570.936 525.534C570.368 520.03 565.876 516.372 559.679 516.372C551.991 516.372 547.02 522.161 547.02 530.488C547.02 538.709 551.814 544.551 559.733 544.551ZM576.614 544L581.923 544L581.923 527.185C581.923 523.51 584.497 520.953 587.516 520.953C590.463 520.953 592.505 522.906 592.505 525.872L592.505 544L597.796 544L597.796 526.617C597.796 523.333 599.803 520.953 603.265 520.953C606.07 520.953 608.379 522.516 608.379 526.209L608.379 544L613.688 544L613.688 525.712C613.688 519.48 610.208 516.372 605.271 516.372C601.347 516.372 598.4 518.254 597.086 521.166L596.802 521.166C595.612 518.183 593.109 516.372 589.469 516.372C585.865 516.372 583.183 518.166 582.047 521.166L581.71 521.166L581.71 516.727L576.614 516.727L576.614 544ZM628.74 544.604C633.25 544.604 635.789 542.313 636.801 540.271L637.014 540.271L637.014 544L642.199 544L642.199 525.889C642.199 517.953 635.949 516.372 631.616 516.372C626.68 516.372 622.135 518.361 620.359 523.333L625.349 524.469C626.13 522.534 628.119 520.669 631.687 520.669C635.114 520.669 636.872 522.462 636.872 525.552L636.872 525.676C636.872 527.612 634.884 527.576 629.983 528.144C624.816 528.748 619.525 530.097 619.525 536.294C619.525 541.656 623.555 544.604 628.74 544.604ZM629.894 540.342C626.893 540.342 624.727 538.993 624.727 536.365C624.727 533.524 627.249 532.512 630.32 532.104C632.043 531.873 636.126 531.411 636.89 530.648L636.89 534.163C636.89 537.395 634.315 540.342 629.894 540.342ZM654.579 527.807C654.579 523.457 657.242 520.971 660.936 520.971C664.54 520.971 666.724 523.333 666.724 527.292L666.724 544L672.033 544L672.033 526.653C672.033 519.906 668.322 516.372 662.747 516.372C658.645 516.372 655.964 518.272 654.703 521.166L654.366 521.166L654.366 516.727L649.27 516.727L649.27 544L654.579 544L654.579 527.807ZM715.716 516.727L710.017 516.727L703.127 537.715L702.843 537.715L695.936 516.727L690.237 516.727L700.145 544L705.826 544L715.716 516.727ZM732.637 544.497C739.953 544.497 745.173 539.33 745.155 532.246C745.173 525.215 740.272 520.101 733.65 520.101C730.951 520.101 728.447 521.131 727.027 522.516L726.814 522.516L727.968 512.342L743.397 512.342L743.397 507.636L723.404 507.636L721.363 525.96L726.387 526.706C727.755 525.481 730.205 524.646 732.407 524.646C736.721 524.682 739.846 527.913 739.846 532.352C739.846 536.72 736.81 539.881 732.637 539.881C729.122 539.881 726.334 537.644 726.05 534.519L720.723 534.519C720.936 540.307 725.961 544.497 732.637 544.497ZM753.94 544.337C755.875 544.337 757.491 542.757 757.491 540.786C757.491 538.851 755.875 537.253 753.94 537.253C751.987 537.253 750.389 538.851 750.389 540.786C750.389 542.757 751.987 544.337 753.94 544.337ZM775.921 544.497C783.343 544.497 788.794 540.058 788.776 534.021C788.794 529.423 786.007 526.12 781.177 525.374L781.177 525.09C784.977 524.114 787.445 521.131 787.427 517.047C787.445 511.703 783.059 507.139 776.063 507.139C769.387 507.139 764.025 511.17 763.847 517.083L769.156 517.083C769.281 513.744 772.423 511.72 775.992 511.72C779.703 511.72 782.136 513.975 782.118 517.331C782.136 520.847 779.313 523.155 775.282 523.155L772.21 523.155L772.21 527.629L775.282 527.629C780.325 527.629 783.237 530.186 783.237 533.844C783.237 537.377 780.165 539.774 775.886 539.774C771.944 539.774 768.872 537.75 768.659 534.519L763.084 534.519C763.315 540.449 768.57 544.497 775.921 544.497ZM797.934 544.337C799.869 544.337 801.485 542.757 801.485 540.786C801.485 538.851 799.869 537.253 797.934 537.253C795.981 537.253 794.383 538.851 794.383 540.786C794.383 542.757 795.981 544.337 797.934 544.337ZM819.818 544.604C828.216 544.604 833.135 537.75 833.135 525.836C833.135 514.011 828.145 507.139 819.818 507.139C811.473 507.139 806.501 513.993 806.483 525.836C806.483 537.732 811.402 544.586 819.818 544.604ZM819.818 539.863C814.9 539.863 811.934 534.927 811.934 525.836C811.952 516.781 814.917 511.791 819.818 511.791C824.701 511.791 827.684 516.781 827.684 525.836C827.684 534.927 824.718 539.863 819.818 539.863ZM852.737 544L858.046 544L858.046 527.345C858.046 523.776 860.798 521.202 864.562 521.202C865.663 521.202 866.906 521.397 867.332 521.521L867.332 516.443C866.799 516.372 865.752 516.319 865.077 516.319C861.881 516.319 859.147 518.13 858.152 521.06L857.868 521.06L857.868 516.727L852.737 516.727L852.737 544ZM882.704 544.551C888.652 544.551 892.86 541.621 894.068 537.182L889.043 536.276C888.084 538.851 885.776 540.165 882.757 540.165C878.212 540.165 875.158 537.217 875.016 531.962L894.405 531.962L894.405 530.08C894.405 520.225 888.51 516.372 882.331 516.372C874.732 516.372 869.725 522.161 869.725 530.541C869.725 539.011 874.661 544.551 882.704 544.551ZM875.034 527.985C875.247 524.114 878.052 520.758 882.367 520.758C886.486 520.758 889.185 523.812 889.203 527.985L875.034 527.985ZM905.604 507.636L900.295 507.636L900.295 544L905.604 544L905.604 507.636ZM924.501 544.551C930.449 544.551 934.657 541.621 935.865 537.182L930.84 536.276C929.881 538.851 927.573 540.165 924.554 540.165C920.009 540.165 916.955 537.217 916.813 531.962L936.202 531.962L936.202 530.08C936.202 520.225 930.307 516.372 924.128 516.372C916.529 516.372 911.521 522.161 911.521 530.541C911.521 539.011 916.458 544.551 924.501 544.551ZM916.83 527.985C917.044 524.114 919.849 520.758 924.164 520.758C928.283 520.758 930.982 523.812 930.999 527.985L916.83 527.985ZM950.029 544.604C954.539 544.604 957.078 542.313 958.09 540.271L958.303 540.271L958.303 544L963.488 544L963.488 525.889C963.488 517.953 957.238 516.372 952.906 516.372C947.969 516.372 943.424 518.361 941.648 523.333L946.638 524.469C947.419 522.534 949.408 520.669 952.977 520.669C956.403 520.669 958.161 522.462 958.161 525.552L958.161 525.676C958.161 527.612 956.173 527.576 951.272 528.144C946.105 528.748 940.814 530.097 940.814 536.294C940.814 541.656 944.844 544.604 950.029 544.604ZM951.183 540.342C948.183 540.342 946.016 538.993 946.016 536.365C946.016 533.524 948.538 532.512 951.609 532.104C953.332 531.873 957.415 531.411 958.179 530.648L958.179 534.163C958.179 537.395 955.604 540.342 951.183 540.342ZM990.996 523.386C989.895 519.142 986.575 516.372 980.68 516.372C974.519 516.372 970.151 519.622 970.151 524.451C970.151 528.322 972.494 530.896 977.608 532.033L982.225 533.045C984.852 533.631 986.078 534.803 986.078 536.507C986.078 538.62 983.823 540.271 980.343 540.271C977.164 540.271 975.122 538.904 974.483 536.223L969.352 537.004C970.24 541.834 974.252 544.551 980.378 544.551C986.965 544.551 991.529 541.053 991.529 536.117C991.529 532.264 989.078 529.884 984.071 528.73L979.739 527.736C976.738 527.026 975.442 526.014 975.46 524.167C975.442 522.072 977.715 520.58 980.733 520.58C984.036 520.58 985.563 522.409 986.184 524.238L990.996 523.386ZM1009.12 544.551C1015.07 544.551 1019.28 541.621 1020.48 537.182L1015.46 536.276C1014.5 538.851 1012.19 540.165 1009.17 540.165C1004.63 540.165 1001.57 537.217 1001.43 531.962L1020.82 531.962L1020.82 530.08C1020.82 520.225 1014.93 516.372 1008.75 516.372C1001.15 516.372 996.141 522.161 996.141 530.541C996.141 539.011 1001.08 544.551 1009.12 544.551ZM1001.45 527.985C1001.66 524.114 1004.47 520.758 1008.78 520.758C1012.9 520.758 1015.6 523.812 1015.62 527.985L1001.45 527.985ZM1045.25 527.807C1045.25 523.457 1047.92 520.971 1051.61 520.971C1055.21 520.971 1057.4 523.333 1057.4 527.292L1057.4 544L1062.71 544L1062.71 526.653C1062.71 519.906 1059 516.372 1053.42 516.372C1049.32 516.372 1046.64 518.272 1045.38 521.166L1045.04 521.166L1045.04 516.727L1039.94 516.727L1039.94 544L1045.25 544L1045.25 527.807ZM1081.31 544.551C1089 544.551 1094.03 538.922 1094.03 530.488C1094.03 522.001 1089 516.372 1081.31 516.372C1073.63 516.372 1068.6 522.001 1068.6 530.488C1068.6 538.922 1073.63 544.551 1081.31 544.551ZM1081.33 540.094C1076.31 540.094 1073.96 535.708 1073.96 530.47C1073.96 525.25 1076.31 520.811 1081.33 520.811C1086.32 520.811 1088.67 525.25 1088.67 530.47C1088.67 535.708 1086.32 540.094 1081.33 540.094ZM1112.68 516.727L1107.09 516.727L1107.09 510.193L1101.78 510.193L1101.78 516.727L1097.79 516.727L1097.79 520.989L1101.78 520.989L1101.78 537.093C1101.76 542.047 1105.55 544.444 1109.74 544.355C1111.42 544.337 1112.56 544.018 1113.18 543.787L1112.22 539.401C1111.87 539.472 1111.21 539.632 1110.36 539.632C1108.64 539.632 1107.09 539.064 1107.09 535.992L1107.09 520.989L1112.68 520.989L1112.68 516.727ZM1130.02 544.551C1135.97 544.551 1140.17 541.621 1141.38 537.182L1136.36 536.276C1135.4 538.851 1133.09 540.165 1130.07 540.165C1125.53 540.165 1122.47 537.217 1122.33 531.962L1141.72 531.962L1141.72 530.08C1141.72 520.225 1135.82 516.372 1129.65 516.372C1122.05 516.372 1117.04 522.161 1117.04 530.541C1117.04 539.011 1121.98 544.551 1130.02 544.551ZM1122.35 527.985C1122.56 524.114 1125.37 520.758 1129.68 520.758C1133.8 520.758 1136.5 523.812 1136.52 527.985L1122.35 527.985ZM1168.05 523.386C1166.95 519.142 1163.63 516.372 1157.73 516.372C1151.57 516.372 1147.2 519.622 1147.2 524.451C1147.2 528.322 1149.55 530.896 1154.66 532.033L1159.28 533.045C1161.9 533.631 1163.13 534.803 1163.13 536.507C1163.13 538.62 1160.87 540.271 1157.39 540.271C1154.22 540.271 1152.17 538.904 1151.53 536.223L1146.4 537.004C1147.29 541.834 1151.3 544.551 1157.43 544.551C1164.02 544.551 1168.58 541.053 1168.58 536.117C1168.58 532.264 1166.13 529.884 1161.12 528.73L1156.79 527.736C1153.79 527.026 1152.49 526.014 1152.51 524.167C1152.49 522.072 1154.77 520.58 1157.78 520.58C1161.09 520.58 1162.61 522.409 1163.23 524.238L1168.05 523.386Z" fill="black" />
            <g filter="url(#filter4_d)">
                <path fill-rule="evenodd" clip-rule="evenodd" d="M-506.86 -14.68L-468.869 40.2309C-430.878 95.1418 -354.897 204.963 -195.878 251.008C-36.8585 297.053 205.199 279.32 328.63 352.698C452.062 426.076 456.868 590.564 532.849 700.385C608.83 810.207 755.987 865.363 829.565 892.941L903.144 920.519L383.619 1319.54L333.766 1273.74C283.913 1227.94 184.207 1136.34 84.5001 1044.74C-15.2062 953.138 -114.913 861.539 -214.619 769.939C-314.325 678.339 -414.032 586.739 -513.738 495.14C-613.445 403.54 -713.151 311.94 -763.004 266.14L-812.857 220.34L-506.86 -14.68Z" fill="white" />
            </g>
            <g filter="url(#filter5_d)">
                <path fill-rule="evenodd" clip-rule="evenodd" d="M1786.9 551.374L1757.21 512.569C1727.52 473.763 1668.15 396.153 1550.99 367.081C1433.83 338.01 1258.89 357.477 1166.5 307.603C1074.1 257.729 1064.26 138.514 1004.89 60.9034C945.513 -16.707 836.609 -52.7128 782.158 -70.7156L727.706 -88.7184L1089.23 -392.4L1127.17 -360.529C1165.12 -328.658 1241 -264.915 1316.88 -201.173C1392.77 -137.431 1468.65 -73.6888 1544.53 -9.94661C1620.42 53.7956 1696.3 117.538 1772.18 181.28C1848.07 245.022 1923.95 308.764 1961.89 340.636L1999.83 372.507L1786.9 551.374Z" fill="white" />
            </g>
            <g filter="url(#filter6_i)">
                <path fill-rule="evenodd" clip-rule="evenodd" d="M1666.91 701.824L1589.66 682.117C1512.41 662.41 1357.9 622.997 1205.18 591.341C1052.45 559.685 901.494 535.787 770.066 597.228C638.637 658.669 526.734 805.447 388.205 835.856C249.677 866.264 84.5231 780.302 1.94622 737.321L-80.6306 694.34L85.4809 1420.36L155.633 1409.04C225.784 1397.71 366.088 1375.06 506.392 1352.41C646.695 1329.76 786.998 1307.11 927.302 1284.46C1067.61 1261.81 1207.91 1239.16 1348.21 1216.51C1488.52 1193.86 1628.82 1171.21 1698.97 1159.88L1769.12 1148.56L1666.91 701.824Z" fill="white" />
            </g>
            <g filter="url(#filter7_d)">
                <path fill-rule="evenodd" clip-rule="evenodd" d="M212.403 968.734L273.061 969.824C333.72 970.914 455.036 973.095 568.635 923.661C682.235 874.226 788.116 773.176 905.023 745.862C1021.93 718.548 1149.86 764.971 1271.18 767.152C1392.49 769.333 1507.2 727.272 1564.55 706.242L1621.9 685.211L1670.18 1008.14L1610.63 1014.42C1551.07 1020.71 1431.96 1033.27 1312.85 1045.84C1193.74 1058.41 1074.62 1070.97 955.512 1083.54C836.401 1096.11 717.289 1108.67 598.177 1121.24C479.066 1133.81 359.954 1146.37 300.398 1152.66L240.842 1158.94L212.403 968.734Z" fill="white" />
            </g>
            <g clip-path="url(#clip1)">
                <ellipse cx="574.125" cy="313.125" rx="86.2265" ry="86.2265" fill="white" />
                <path d="M649.167 238.083C629.122 218.039 602.472 207 574.125 207C545.778 207 519.128 218.039 499.083 238.083C479.039 258.128 468 284.778 468 313.125C468 341.472 479.039 368.122 499.083 388.167C519.128 408.211 545.778 419.25 574.125 419.25C602.472 419.25 629.122 408.211 649.167 388.167C669.211 368.122 680.25 341.472 680.25 313.125C680.25 284.778 669.211 258.128 649.167 238.083ZM574.125 394.275C529.379 394.275 492.975 357.872 492.975 313.125C492.975 268.378 529.379 231.975 574.125 231.975C618.871 231.975 655.275 268.379 655.275 313.125C655.275 357.871 618.871 394.275 574.125 394.275Z" fill="black" />
                <path d="M574.126 244.411C536.237 244.411 505.412 275.236 505.412 313.125C505.412 323.838 507.878 333.985 512.27 343.031L514.444 338.553C514.474 338.492 514.505 338.431 514.537 338.371C515.46 336.619 518.473 329.621 518.473 313.125C518.473 303.246 521.094 293.526 526.055 285.017C527.784 282.05 531.591 281.047 534.558 282.776C537.525 284.506 538.528 288.313 536.799 291.28C532.946 297.89 530.909 305.444 530.909 313.125C530.909 331.117 527.601 340.209 525.59 344.072L520.051 355.476C527.081 364.433 536.287 371.603 546.862 376.192C551.954 372.117 556.239 366.499 559.622 359.438C565.326 347.533 568.219 331.951 568.219 313.125C568.219 309.691 571.003 306.907 574.437 306.907C577.871 306.907 580.655 309.691 580.655 313.125C580.655 333.826 577.352 351.216 570.837 364.813C567.944 370.85 564.461 376.079 560.434 380.467C564.86 381.366 569.439 381.839 574.126 381.839C574.511 381.839 574.894 381.83 575.277 381.824C583.583 370.093 589.045 355.11 591.525 337.236C591.997 333.835 595.137 331.463 598.539 331.932C601.941 332.404 604.316 335.544 603.843 338.946C601.692 354.451 597.439 368.092 591.18 379.695C597.138 378.168 602.785 375.859 608.008 372.886C614.609 355.92 617.965 335.834 617.965 313.125C617.965 289.124 598.438 269.597 574.437 269.597C566.696 269.597 559.092 271.664 552.445 275.573C549.485 277.314 545.674 276.326 543.933 273.366C542.192 270.406 543.18 266.595 546.14 264.854C554.696 259.821 564.481 257.161 574.437 257.161C605.296 257.161 630.401 282.266 630.401 313.125C630.401 329.662 628.703 344.959 625.359 358.861C636.224 346.704 642.839 330.674 642.839 313.125C642.84 275.236 612.015 244.411 574.126 244.411ZM543.346 313.125C543.346 295.981 557.293 282.034 574.437 282.034C591.581 282.034 605.528 295.981 605.528 313.125C605.528 316.559 602.744 319.343 599.31 319.343C595.876 319.343 593.092 316.559 593.092 313.125C593.092 302.839 584.723 294.47 574.437 294.47C564.151 294.47 555.782 302.839 555.782 313.125C555.782 331.332 552.947 345.804 547.356 356.136C546.231 358.216 544.091 359.396 541.881 359.396C540.882 359.396 539.868 359.155 538.928 358.645C535.907 357.011 534.784 353.238 536.418 350.217C539.579 344.377 543.346 333.201 543.346 313.125Z" fill="black" />
            </g>
            <path d="M782.782 340.617C782.782 327.097 776.802 321.117 759.382 313.187C745.732 306.947 742.352 303.697 742.352 296.807C742.352 290.177 746.902 284.717 757.172 284.717C764.322 284.717 771.082 287.577 776.022 291.347L777.972 279.127C772.772 276.137 766.272 274.057 757.562 274.057C741.312 274.057 730.262 283.287 730.262 297.717C730.262 310.587 736.632 316.177 753.532 323.847C767.052 329.957 770.692 333.337 770.692 341.527C770.692 350.237 764.062 355.177 754.702 355.177C745.732 355.177 737.282 351.537 731.172 347.507L729.352 359.987C735.982 363.497 744.692 365.837 754.442 365.837C771.212 365.837 782.782 356.087 782.782 340.617ZM848.265 332.557C848.265 315.397 839.945 301.487 821.875 301.487C806.275 301.487 794.575 313.707 794.575 333.597C794.575 356.347 807.185 366.097 823.305 366.097C833.575 366.097 841.505 362.977 848.135 357.777L846.445 347.377C839.685 352.707 833.185 356.217 824.215 356.217C813.425 356.217 806.535 349.457 806.145 335.027L848.265 335.027C848.265 334.247 848.265 333.207 848.265 332.557ZM836.565 326.317L806.665 326.317C808.485 315.657 814.595 310.587 821.745 310.587C830.715 310.587 835.135 316.307 836.565 326.317ZM909.498 359.467L907.808 349.067C901.438 354.527 895.978 355.957 889.738 355.957C878.818 355.957 871.148 348.807 871.148 333.727C871.148 319.297 878.298 311.627 888.438 311.627C895.588 311.627 901.438 313.837 907.158 318.517L908.848 307.207C904.168 303.827 897.668 301.487 888.568 301.487C872.448 301.487 859.448 312.667 859.448 333.857C859.448 354.527 871.668 366.097 888.308 366.097C896.628 366.097 903.128 364.277 909.498 359.467ZM1011.91 364.797L1011.91 319.687C1011.91 308.507 1006.19 301.487 994.356 301.487C985.646 301.487 978.106 306.427 972.516 311.757C970.176 305.387 965.236 301.487 956.136 301.487C947.426 301.487 940.406 306.427 934.556 311.757L933.126 302.787L923.896 302.787L923.896 364.797L935.466 364.797L935.466 321.897C941.056 315.917 946.906 311.887 953.016 311.887C959.776 311.887 962.116 316.177 962.116 322.547L962.116 364.797L973.686 364.797L973.686 321.897C979.276 315.917 985.126 311.887 991.236 311.887C997.996 311.887 1000.34 316.177 1000.34 322.547L1000.34 364.797L1011.91 364.797ZM1076.83 364.797L1076.83 321.377C1076.83 307.597 1069.55 301.487 1054.47 301.487C1044.85 301.487 1037.83 303.697 1030.42 306.687L1031.98 316.697C1038.74 313.707 1045.89 311.367 1053.43 311.367C1060.58 311.367 1065.26 314.097 1065.26 321.897L1065.26 324.497C1039.39 327.227 1026.13 333.337 1026.13 348.807C1026.13 359.337 1033.15 366.097 1044.33 366.097C1054.47 366.097 1061.23 361.547 1066.17 356.477L1067.47 364.797L1076.83 364.797ZM1065.26 347.767C1060.06 353.097 1053.56 356.477 1046.8 356.477C1040.95 356.477 1037.57 353.227 1037.57 348.157C1037.57 341.787 1042.38 335.547 1065.26 333.337L1065.26 347.767ZM1145.34 364.797L1145.34 319.687C1145.34 308.507 1139.1 301.487 1127.4 301.487C1118.56 301.487 1111.28 306.427 1105.43 311.757L1104 302.787L1094.77 302.787L1094.77 364.797L1106.34 364.797L1106.34 321.897C1111.93 315.917 1118.17 311.887 1124.28 311.887C1131.04 311.887 1133.77 316.177 1133.77 322.547L1133.77 364.797L1145.34 364.797Z" fill="black" />
        </g>
        <path d="M40 0.2H1510V-0.2H40V0.2ZM1524.8 15V735H1525.2V15H1524.8ZM1510 749.8H40V750.2H1510V749.8ZM25.2 735V15H24.8V735H25.2ZM40 749.8C31.8262 749.8 25.2 743.174 25.2 735H24.8C24.8 743.395 31.6053 750.2 40 750.2V749.8ZM1524.8 735C1524.8 743.174 1518.17 749.8 1510 749.8V750.2C1518.39 750.2 1525.2 743.395 1525.2 735H1524.8ZM1510 0.2C1518.17 0.2 1524.8 6.82619 1524.8 15H1525.2C1525.2 6.60527 1518.39 -0.2 1510 -0.2V0.2ZM40 -0.2C31.6053 -0.2 24.8 6.60526 24.8 15H25.2C25.2 6.82617 31.8262 0.2 40 0.2V-0.2Z" fill="black" />
    </g>
    <defs>
        <filter id="filter0_d" x="0" y="0" width="1550" height="800" filterUnits="userSpaceOnUse" color-interpolation-filters="sRGB">
            <feFlood flood-opacity="0" result="BackgroundImageFix" />
            <feColorMatrix in="SourceAlpha" type="matrix" values="0 0 0 0 0 0 0 0 0 0 0 0 0 0 0 0 0 0 127 0" />
            <feOffset dy="25" />
            <feGaussianBlur stdDeviation="12.5" />
            <feColorMatrix type="matrix" values="0 0 0 0 0 0 0 0 0 0 0 0 0 0 0 0 0 0 0.3 0" />
            <feBlend mode="normal" in2="BackgroundImageFix" result="effect1_dropShadow" />
            <feBlend mode="normal" in="SourceGraphic" in2="effect1_dropShadow" result="shape" />
        </filter>
        <filter id="filter1_d" x="183.413" y="-352.351" width="1485.49" height="1526.94" filterUnits="userSpaceOnUse" color-interpolation-filters="sRGB">
            <feFlood flood-opacity="0" result="BackgroundImageFix" />
            <feColorMatrix in="SourceAlpha" type="matrix" values="0 0 0 0 0 0 0 0 0 0 0 0 0 0 0 0 0 0 127 0" />
            <feOffset />
            <feGaussianBlur stdDeviation="61.4829" />
            <feColorMatrix type="matrix" values="0 0 0 0 0.239216 0 0 0 0 0.443137 0 0 0 0 0.686275 0 0 0 0.2 0" />
            <feBlend mode="multiply" in2="BackgroundImageFix" result="effect1_dropShadow" />
            <feBlend mode="normal" in="SourceGraphic" in2="effect1_dropShadow" result="shape" />
        </filter>
        <filter id="filter2_i" x="-141.088" y="-227.357" width="1003.83" height="441.593" filterUnits="userSpaceOnUse" color-interpolation-filters="sRGB">
            <feFlood flood-opacity="0" result="BackgroundImageFix" />
            <feBlend mode="normal" in="SourceGraphic" in2="BackgroundImageFix" result="shape" />
            <feColorMatrix in="SourceAlpha" type="matrix" values="0 0 0 0 0 0 0 0 0 0 0 0 0 0 0 0 0 0 127 0" result="hardAlpha" />
            <feOffset />
            <feGaussianBlur stdDeviation="61.4829" />
            <feComposite in2="hardAlpha" operator="arithmetic" k2="-1" k3="1" />
            <feColorMatrix type="matrix" values="0 0 0 0 0.23776 0 0 0 0 0.444641 0 0 0 0 0.6875 0 0 0 0.2 0" />
            <feBlend mode="multiply" in2="shape" result="effect1_innerShadow" />
        </filter>
        <filter id="filter3_i" x="716.137" y="-667.605" width="1162.24" height="1360.49" filterUnits="userSpaceOnUse" color-interpolation-filters="sRGB">
            <feFlood flood-opacity="0" result="BackgroundImageFix" />
            <feBlend mode="normal" in="SourceGraphic" in2="BackgroundImageFix" result="shape" />
            <feColorMatrix in="SourceAlpha" type="matrix" values="0 0 0 0 0 0 0 0 0 0 0 0 0 0 0 0 0 0 127 0" result="hardAlpha" />
            <feOffset />
            <feGaussianBlur stdDeviation="61.4829" />
            <feComposite in2="hardAlpha" operator="arithmetic" k2="-1" k3="1" />
            <feColorMatrix type="matrix" values="0 0 0 0 0.23776 0 0 0 0 0.444641 0 0 0 0 0.6875 0 0 0 0.2 0" />
            <feBlend mode="multiply" in2="shape" result="effect1_innerShadow" />
        </filter>
        <filter id="filter4_d" x="-935.823" y="-137.646" width="1961.93" height="1580.15" filterUnits="userSpaceOnUse" color-interpolation-filters="sRGB">
            <feFlood flood-opacity="0" result="BackgroundImageFix" />
            <feColorMatrix in="SourceAlpha" type="matrix" values="0 0 0 0 0 0 0 0 0 0 0 0 0 0 0 0 0 0 127 0" />
            <feOffset />
            <feGaussianBlur stdDeviation="61.4829" />
            <feColorMatrix type="matrix" values="0 0 0 0 0.239216 0 0 0 0 0.443137 0 0 0 0 0.686275 0 0 0 0.2 0" />
            <feBlend mode="multiply" in2="BackgroundImageFix" result="effect1_dropShadow" />
            <feBlend mode="normal" in="SourceGraphic" in2="effect1_dropShadow" result="shape" />
        </filter>
        <filter id="filter5_d" x="604.741" y="-515.366" width="1518.06" height="1189.71" filterUnits="userSpaceOnUse" color-interpolation-filters="sRGB">
            <feFlood flood-opacity="0" result="BackgroundImageFix" />
            <feColorMatrix in="SourceAlpha" type="matrix" values="0 0 0 0 0 0 0 0 0 0 0 0 0 0 0 0 0 0 127 0" />
            <feOffset />
            <feGaussianBlur stdDeviation="61.4829" />
            <feColorMatrix type="matrix" values="0 0 0 0 0.239216 0 0 0 0 0.443137 0 0 0 0 0.686275 0 0 0 0.2 0" />
            <feBlend mode="multiply" in2="BackgroundImageFix" result="effect1_dropShadow" />
            <feBlend mode="normal" in="SourceGraphic" in2="effect1_dropShadow" result="shape" />
        </filter>
        <filter id="filter6_i" x="-80.6309" y="559.055" width="1849.75" height="861.308" filterUnits="userSpaceOnUse" color-interpolation-filters="sRGB">
            <feFlood flood-opacity="0" result="BackgroundImageFix" />
            <feBlend mode="normal" in="SourceGraphic" in2="BackgroundImageFix" result="shape" />
            <feColorMatrix in="SourceAlpha" type="matrix" values="0 0 0 0 0 0 0 0 0 0 0 0 0 0 0 0 0 0 127 0" result="hardAlpha" />
            <feOffset />
            <feGaussianBlur stdDeviation="61.4829" />
            <feComposite in2="hardAlpha" operator="arithmetic" k2="-1" k3="1" />
            <feColorMatrix type="matrix" values="0 0 0 0 0.23776 0 0 0 0 0.444641 0 0 0 0 0.6875 0 0 0 0.2 0" />
            <feBlend mode="multiply" in2="shape" result="effect1_innerShadow" />
        </filter>
        <filter id="filter7_d" x="89.4366" y="562.245" width="1703.71" height="719.659" filterUnits="userSpaceOnUse" color-interpolation-filters="sRGB">
            <feFlood flood-opacity="0" result="BackgroundImageFix" />
            <feColorMatrix in="SourceAlpha" type="matrix" values="0 0 0 0 0 0 0 0 0 0 0 0 0 0 0 0 0 0 127 0" />
            <feOffset />
            <feGaussianBlur stdDeviation="61.4829" />
            <feColorMatrix type="matrix" values="0 0 0 0 0.239216 0 0 0 0 0.443137 0 0 0 0 0.686275 0 0 0 0.2 0" />
            <feBlend mode="multiply" in2="BackgroundImageFix" result="effect1_dropShadow" />
            <feBlend mode="normal" in="SourceGraphic" in2="effect1_dropShadow" result="shape" />
        </filter>
        <clipPath id="clip0">
            <path d="M25 15C25 6.71571 31.7157 0 40 0H1510C1518.28 0 1525 6.71573 1525 15V735C1525 743.284 1518.28 750 1510 750H40C31.7157 750 25 743.284 25 735V15Z" fill="white" />
        </clipPath>
        <clipPath id="clip1">
            <rect width="212.25" height="212.25" fill="white" transform="translate(468 207)" />
        </clipPath>
    </defs>
</svg>
