<svg width="16" height="20" viewBox="0 0 16 20" fill="none" xmlns="http://www.w3.org/2000/svg">
    <path fill-rule="evenodd" clip-rule="evenodd" d="M2.66667 5.33333V8H2.33333C1.71449 8 1.121 8.24583 0.683413 8.68341C0.245827 9.121 0 9.71449 0 10.3333V17.6667C0 18.9547 1.04533 20 2.33333 20H13.6667C14.2855 20 14.8789 19.7541 15.3165 19.3165C15.7541 18.8789 16 18.2855 16 17.6667V10.3333C16 9.71449 15.7541 9.121 15.3165 8.68341C14.8789 8.24583 14.2855 8 13.6667 8H13.3333V5.33333C13.3333 3.91884 12.7715 2.56229 11.7712 1.56209C10.7711 0.561903 9.41449 0 8 0C6.58551 0 5.22896 0.561903 4.22876 1.56209C3.22857 2.56229 2.66667 3.91884 2.66667 5.33333ZM11.3333 8V5.33333C11.3333 4.44928 10.9821 3.60143 10.357 2.97631C9.73191 2.35119 8.88405 2 8 2C7.11595 2 6.26809 2.35119 5.64297 2.97631C5.01785 3.60143 4.66667 4.44928 4.66667 5.33333V8H11.3333ZM13.3333 10H13.6667C13.7551 10 13.8399 10.0351 13.9024 10.0976C13.9649 10.1601 14 10.2449 14 10.3333V17.6667C14 17.7551 13.9649 17.8399 13.9024 17.9024C13.8399 17.9649 13.7551 18 13.6667 18H2.33333C2.24493 18 2.16015 17.9649 2.09763 17.9024C2.03512 17.8399 2 17.7551 2 17.6667V10.3333C2 10.2449 2.03512 10.1601 2.09763 10.0976C2.16015 10.0351 2.24493 10 2.33333 10H13.3333Z" fill="white" />
</svg>
