<svg width="20" height="20" viewBox="0 0 20 20" fill="none" xmlns="http://www.w3.org/2000/svg">
    <path d="M10.9375 6.25001L10.9375 0.9375C10.9375 0.419733 10.5178 0 10 0C9.48223 0 9.0625 0.419733 9.0625 0.9375L9.0625 6.25001H6.37944C6.10103 6.25001 5.9616 6.58661 6.15847 6.78348L9.77903 10.404C9.90107 10.5261 10.0989 10.5261 10.221 10.404L13.8415 6.78348C14.0384 6.58662 13.899 6.25001 13.6206 6.25001H10.9375Z" fill="white" />
    <path fill-rule="evenodd" clip-rule="evenodd" d="M1.875 3.4375C1.875 3.26491 2.01491 3.125 2.1875 3.125H5.9375C6.45527 3.125 6.875 2.70527 6.875 2.1875C6.875 1.66973 6.45527 1.25 5.9375 1.25H2.1875C0.979377 1.25 0 2.22938 0 3.4375V12.8125C0 14.0206 0.979377 15 2.1875 15H6.84627C6.7224 16.3013 6.19603 17.3405 5.23116 18.4461C4.98943 18.723 4.9319 19.1158 5.08403 19.4504C5.23616 19.7851 5.56986 20 5.9375 20H14.0625C14.4301 20 14.7638 19.7851 14.916 19.4504C15.0681 19.1158 15.0106 18.723 14.7688 18.4461C13.804 17.3405 13.2776 16.3013 13.1537 15H17.8125C19.0206 15 20 14.0206 20 12.8125V3.4375C20 2.22938 19.0206 1.25 17.8125 1.25H14.0625C13.5447 1.25 13.125 1.66973 13.125 2.1875C13.125 2.70527 13.5447 3.125 14.0625 3.125H17.8125C17.9851 3.125 18.125 3.26491 18.125 3.4375V12.8125C18.125 12.9851 17.9851 13.125 17.8125 13.125H2.1875C2.01491 13.125 1.875 12.9851 1.875 12.8125V3.4375ZM11.2723 15H8.72771C8.64238 16.1721 8.31373 17.1842 7.77165 18.125H12.2283C11.6863 17.1842 11.3576 16.1721 11.2723 15Z" fill="white" />
</svg>
