<svg width="20" height="20" viewBox="0 0 20 20" fill="none" xmlns="http://www.w3.org/2000/svg">
    <path fill-rule="evenodd" clip-rule="evenodd" d="M7.65249 0.295244C8.33121 -0.0984147 9.16879 -0.0984146 9.84751 0.295244L16.41 4.10149C17.0847 4.49282 17.5 5.21378 17.5 5.99376V8.86747C17.5 9.38523 17.0802 9.80497 16.5625 9.80497C16.0448 9.80497 15.625 9.38523 15.625 8.86747V6.90127L9.6875 10.345V17.93V18.325C9.6875 19.2884 8.64369 19.8896 7.81035 19.4062L1.08999 15.5085C0.415296 15.1171 0 14.3961 0 13.6162V5.99376C0 5.21378 0.415295 4.49282 1.08999 4.10149L7.65249 0.295244ZM8.90679 1.91718L14.694 5.27373L8.75001 8.72122L2.80606 5.27373L8.59321 1.91718C8.69018 1.86094 8.80982 1.86094 8.90679 1.91718ZM1.875 13.6162V6.90127L7.8125 10.345V17.24L2.03071 13.8865C1.93433 13.8306 1.875 13.7276 1.875 13.6162ZM16.4648 13.2636C16.8216 12.8885 16.8068 12.2951 16.4316 11.9383C16.0565 11.5814 15.4631 11.5962 15.1062 11.9713L12.1333 15.0964C11.7889 15.4582 11.7889 16.0267 12.1333 16.3886L15.1062 19.5136C15.4631 19.8889 16.0565 19.9036 16.4316 19.5467C16.8068 19.1899 16.8216 18.5965 16.4648 18.2214L14.9984 16.68H19.0625C19.5802 16.68 20 16.2602 20 15.7425C20 15.2247 19.5802 14.805 19.0625 14.805H14.9984L16.4648 13.2636Z" fill="white" />
</svg>
