<svg width="20" height="20" viewBox="0 0 20 20" fill="none" xmlns="http://www.w3.org/2000/svg">
    <path fill-rule="evenodd" clip-rule="evenodd" d="M9.99996 2.14286C7.64951 2.14286 5.5391 3.17467 4.09833 4.81259L5.81889 6.53314C6.04387 6.75813 5.88453 7.14283 5.56636 7.14283H0.357143C0.1599 7.14283 0 6.98293 0 6.78569V1.57647C0 1.25829 0.3847 1.09894 0.609686 1.32393L2.58086 3.29511C4.40994 1.2725 7.05589 0 9.99996 0C15.1174 0 19.3359 3.84316 19.9287 8.80134C19.999 9.38889 19.5797 9.92216 18.9921 9.99241C18.4046 10.0627 17.8713 9.64334 17.801 9.0558C17.3354 5.16207 14.0194 2.14286 9.99996 2.14286ZM1.00779 10.0076C1.59533 9.93731 2.12859 10.3567 2.19886 10.9442C2.66451 14.8379 5.98044 17.8571 9.99996 17.8571C12.3504 17.8571 14.4609 16.8253 15.9016 15.1874L14.1811 13.4669C13.9561 13.2419 14.1154 12.8571 14.4337 12.8571H19.6429C19.8401 12.8571 20 13.0171 20 13.2143V18.4236C20 18.7417 19.6153 18.901 19.3903 18.676L17.4191 16.7049C15.59 18.7274 12.944 20 9.99996 20C4.88244 20 0.664129 16.1569 0.0711572 11.1987C0.000900073 10.6111 0.420243 10.0778 1.00779 10.0076Z" fill="white" />
</svg>
