<svg width="5452" height="148" viewBox="0 0 5452 148" fill="none" xmlns="http://www.w3.org/2000/svg">
    <g filter="url(#filter0_d)">
        <rect x="4" width="5444" height="140" rx="20" fill="#E9E9E9" />
    </g>
    <path d="M111.811 104V69.3C111.811 60.7 107.411 55.3 98.3113 55.3C91.6113 55.3 85.8113 59.1 81.5113 63.2C79.7113 58.3 75.9113 55.3 68.9113 55.3C62.2113 55.3 56.8113 59.1 52.3113 63.2L51.2113 56.3H44.1113V104H53.0113V71C57.3113 66.4 61.8113 63.3 66.5113 63.3C71.7113 63.3 73.5113 66.6 73.5113 71.5V104H82.4113V71C86.7113 66.4 91.2113 63.3 95.9113 63.3C101.111 63.3 102.911 66.6 102.911 71.5V104H111.811ZM163.775 56.3H154.675L141.975 93.6L128.975 55.6L120.175 57L137.575 104.2L135.775 109.1C134.375 112.9 131.875 114.7 128.175 114.7C126.475 114.7 124.675 114.4 123.175 114L124.375 121.8C125.275 122 126.275 122.2 127.475 122.2C135.375 122.2 140.475 119.3 144.575 108.2L163.775 56.3ZM194.846 79.9V71.2H170.246V79.9H194.846ZM240.497 90.7C240.497 81.6 235.197 78.2 223.397 75.2C215.897 73.3 213.497 71.5 213.497 68.3C213.497 64.9 216.297 62.8 221.697 62.8C226.697 62.8 231.997 64.5 236.197 66.9L237.597 58.5C233.097 56.5 227.797 55.3 221.897 55.3C211.497 55.3 205.097 60.9 205.097 68.5C205.097 77 209.597 80.4 220.797 83.2C229.397 85.3 232.097 86.9 232.097 91.3C232.097 95.3 228.497 97.6 222.397 97.6C215.897 97.6 210.097 95.2 205.597 92.1L204.297 100.5C208.397 102.8 215.397 105 221.697 105C233.997 105 240.497 99.4 240.497 90.7ZM290.036 79.2C290.036 66 283.636 55.3 269.736 55.3C257.736 55.3 248.736 64.7 248.736 80C248.736 97.5 258.436 105 270.836 105C278.736 105 284.836 102.6 289.936 98.6L288.636 90.6C283.436 94.7 278.436 97.4 271.536 97.4C263.236 97.4 257.936 92.2 257.636 81.1H290.036C290.036 80.5 290.036 79.7 290.036 79.2ZM281.036 74.4H258.036C259.436 66.2 264.136 62.3 269.636 62.3C276.536 62.3 279.936 66.7 281.036 74.4ZM337.138 99.9L335.838 91.9C330.938 96.1 326.738 97.2 321.938 97.2C313.538 97.2 307.638 91.7 307.638 80.1C307.638 69 313.138 63.1 320.938 63.1C326.438 63.1 330.938 64.8 335.338 68.4L336.638 59.7C333.038 57.1 328.038 55.3 321.038 55.3C308.638 55.3 298.638 63.9 298.638 80.2C298.638 96.1 308.038 105 320.838 105C327.238 105 332.238 103.6 337.138 99.9ZM374.913 63.8L373.513 55.3C365.713 55.7 360.213 60.6 356.813 66L355.313 56.3H348.213V104H357.113V75.8C360.313 69.5 367.013 64.2 374.913 63.8ZM420.895 79.2C420.895 66 414.495 55.3 400.595 55.3C388.595 55.3 379.595 64.7 379.595 80C379.595 97.5 389.295 105 401.695 105C409.595 105 415.695 102.6 420.795 98.6L419.495 90.6C414.295 94.7 409.295 97.4 402.395 97.4C394.095 97.4 388.795 92.2 388.495 81.1H420.895C420.895 80.5 420.895 79.7 420.895 79.2ZM411.895 74.4H388.895C390.295 66.2 394.995 62.3 400.495 62.3C407.395 62.3 410.795 66.7 411.895 74.4ZM455.097 104.2L453.897 96.6C452.797 96.8 451.397 96.9 449.797 96.9C444.797 96.9 443.197 94.5 443.197 90.6V63.8H454.697L453.497 56.3H443.197V39.1L434.497 40.4V56.3H427.297V63.8H434.497V92.2C434.497 101.8 439.997 104.8 448.397 104.8C451.497 104.8 453.597 104.5 455.097 104.2Z" fill="black" />
    <path d="M1680.63 69.8C1680.63 53.9 1672.13 46.3 1661.83 46.3C1654.83 46.3 1649.93 50 1646.33 54.2L1645.23 47.3H1638.13V113.6L1647.03 112.3V93.5C1650.03 94.7 1654.33 95.6 1659.03 95.6C1670.63 95.6 1680.63 87.2 1680.63 69.8ZM1671.63 70.2C1671.63 82 1666.13 88.1 1658.63 88.1C1653.53 88.1 1650.63 87.3 1647.03 85.5V62.6C1650.83 57.5 1655.03 54.2 1660.43 54.2C1666.93 54.2 1671.63 59.8 1671.63 70.2ZM1725.66 95L1724.46 87.6H1697.66L1724.46 54.3V47.3H1688.76L1689.96 54.7H1714.26L1687.56 88V95H1725.66ZM1760.17 56.4C1749.37 51.9 1745.17 49.5 1745.17 43.4C1745.17 38 1749.37 33.7 1757.77 33.7C1765.87 33.7 1770.37 37.4 1770.37 43.2C1770.37 48.4 1766.27 53.1 1760.17 56.4ZM1755.37 62.7C1768.17 67.9 1772.57 70.5 1772.57 77.6C1772.57 84.4 1766.57 88.7 1757.77 88.7C1749.07 88.7 1742.77 84.6 1742.77 77.3C1742.77 71.2 1747.77 66.1 1755.37 62.7ZM1747.87 59.4C1739.67 63.7 1733.77 69.7 1733.77 77.7C1733.77 87.8 1742.07 96.3 1757.57 96.3C1772.37 96.3 1781.57 88.3 1781.57 77.9C1781.57 68.2 1776.27 63.7 1767.37 59.5C1773.87 55.8 1779.17 50.6 1779.17 43C1779.17 33.4 1771.07 26.1 1757.97 26.1C1744.97 26.1 1736.37 33.5 1736.37 43.5C1736.37 51.7 1740.97 56 1747.87 59.4ZM1826.71 46.1C1826.71 53.9 1820.91 58 1811.81 58H1803.81V34.3H1812.81C1822.01 34.3 1826.71 38.6 1826.71 46.1ZM1821.01 64.7C1830.01 62.2 1836.11 56 1836.11 45.6C1836.11 33 1827.31 26 1813.21 26H1794.41V95H1803.81V65.9H1810.91L1832.01 95.7L1841.51 93.6L1821.01 64.7ZM1886.24 95V61.6C1886.24 51 1880.64 46.3 1869.04 46.3C1861.64 46.3 1856.24 48 1850.54 50.3L1851.74 58C1856.94 55.7 1862.44 53.9 1868.24 53.9C1873.74 53.9 1877.34 56 1877.34 62V64C1857.44 66.1 1847.24 70.8 1847.24 82.7C1847.24 90.8 1852.64 96 1861.24 96C1869.04 96 1874.24 92.5 1878.04 88.6L1879.04 95H1886.24ZM1877.34 81.9C1873.34 86 1868.34 88.6 1863.14 88.6C1858.64 88.6 1856.04 86.1 1856.04 82.2C1856.04 77.3 1859.74 72.5 1877.34 70.8V81.9ZM1955.04 95V26H1946.34V77.7L1909.74 26H1901.34V95H1910.04V41.3L1947.94 95H1955.04ZM2003.66 81.7C2003.66 72.6 1998.36 69.2 1986.56 66.2C1979.06 64.3 1976.66 62.5 1976.66 59.3C1976.66 55.9 1979.46 53.8 1984.86 53.8C1989.86 53.8 1995.16 55.5 1999.36 57.9L2000.76 49.5C1996.26 47.5 1990.96 46.3 1985.06 46.3C1974.66 46.3 1968.26 51.9 1968.26 59.5C1968.26 68 1972.76 71.4 1983.96 74.2C1992.56 76.3 1995.26 77.9 1995.26 82.3C1995.26 86.3 1991.66 88.6 1985.56 88.6C1979.06 88.6 1973.26 86.2 1968.76 83.1L1967.46 91.5C1971.56 93.8 1978.56 96 1984.86 96C1997.16 96 2003.66 90.4 2003.66 81.7ZM2037.19 32L2035.89 23.9C2034.99 23.9 2033.89 23.7 2032.09 23.7C2023.59 23.7 2017.29 27.3 2017.29 36.8V47.3H2010.09V54.8H2017.29V95H2025.99V54.8H2036.69L2035.59 47.3H2025.99V37.7C2025.99 33.3 2028.49 31.6 2032.59 31.6C2034.39 31.6 2036.19 31.8 2037.19 32ZM2079.86 95L2078.66 87.6H2051.86L2078.66 54.3V47.3H2042.96L2044.16 54.7H2068.46L2041.76 88V95H2079.86ZM2123.38 81.7C2123.38 72.6 2118.08 69.2 2106.28 66.2C2098.78 64.3 2096.38 62.5 2096.38 59.3C2096.38 55.9 2099.18 53.8 2104.58 53.8C2109.58 53.8 2114.88 55.5 2119.08 57.9L2120.48 49.5C2115.98 47.5 2110.68 46.3 2104.78 46.3C2094.38 46.3 2087.98 51.9 2087.98 59.5C2087.98 68 2092.48 71.4 2103.68 74.2C2112.28 76.3 2114.98 77.9 2114.98 82.3C2114.98 86.3 2111.38 88.6 2105.28 88.6C2098.78 88.6 2092.98 86.2 2088.48 83.1L2087.18 91.5C2091.28 93.8 2098.28 96 2104.58 96C2116.88 96 2123.38 90.4 2123.38 81.7ZM2196.42 60.4C2196.42 39.1 2184.22 24.7 2164.72 24.7C2145.32 24.7 2132.82 39.2 2132.82 60.6C2132.82 81.9 2145.12 96.3 2164.52 96.3C2184.02 96.3 2196.42 81.7 2196.42 60.4ZM2186.72 60.5C2186.72 77.1 2178.32 87.7 2164.62 87.7C2151.02 87.7 2142.52 77.1 2142.52 60.5C2142.52 43.9 2150.92 33.3 2164.62 33.3C2178.22 33.3 2186.72 43.9 2186.72 60.5ZM2250.33 71.2C2250.33 55.5 2240.93 46.3 2228.13 46.3C2215.43 46.3 2206.23 55.5 2206.23 71.2C2206.23 86.9 2215.43 96 2228.13 96C2240.93 96 2250.33 86.9 2250.33 71.2ZM2241.33 71.2C2241.33 81.2 2236.93 88.6 2228.13 88.6C2219.73 88.6 2215.23 81 2215.23 71.2C2215.23 61.2 2219.53 53.8 2228.13 53.8C2236.73 53.8 2241.33 61.4 2241.33 71.2ZM2320.56 93.7L2293.96 25.7H2284.56L2257.56 95H2267.06L2274.86 74.3H2303.36L2311.46 95.7L2320.56 93.7ZM2300.16 66H2278.06L2289.06 36.9L2300.16 66ZM2341.81 91.3C2343.71 91.7 2345.11 92 2347.71 92.5L2353.41 93.5C2360.21 94.7 2362.41 96.7 2362.41 99.6C2362.41 103.6 2357.21 106.8 2347.91 106.8C2338.61 106.8 2333.71 104 2333.71 100.2C2333.71 96.9 2336.21 94.1 2341.81 91.3ZM2356.61 62.8C2356.61 68.5 2352.81 73 2346.71 73C2340.81 73 2337.01 68.7 2337.01 63.2C2337.01 57.4 2340.71 52.8 2346.71 52.8C2352.61 52.8 2356.61 57.1 2356.61 62.8ZM2359.01 50.3C2355.71 47.7 2351.51 46.3 2346.71 46.3C2337.01 46.3 2328.41 52.6 2328.41 62.9C2328.41 69.4 2332.01 74.5 2337.31 77.1C2334.11 79 2332.31 81.3 2332.31 83.6C2332.31 85.4 2333.21 87.1 2335.31 88.6C2328.61 92.2 2325.21 96 2325.21 100.9C2325.21 109.3 2335.11 113.2 2347.51 113.2C2359.91 113.2 2370.81 108.5 2370.81 98.5C2370.81 91.1 2364.51 87.9 2354.41 86.1L2351.01 85.5C2342.61 84 2340.91 83.6 2340.91 81.9C2340.91 81 2341.91 79.9 2343.31 79C2344.51 79.2 2345.71 79.3 2346.91 79.3C2356.61 79.3 2365.21 73.1 2365.21 62.9C2365.21 60.2 2364.61 57.7 2363.31 55.5L2372.41 54.6L2371.11 46.6L2359.01 50.3ZM2443 60.4C2443 39.1 2430.8 24.7 2411.3 24.7C2391.9 24.7 2379.4 39.2 2379.4 60.6C2379.4 78.2 2387.2 89.8 2402.3 95.4L2439.6 109.3L2441.5 101L2421.7 94C2434.5 89.8 2443 78 2443 60.4ZM2433.3 60.5C2433.3 77.1 2424.9 88.2 2411.2 88.2C2397.6 88.2 2389.1 77.1 2389.1 60.5C2389.1 43.9 2397.5 33.3 2411.2 33.3C2424.8 33.3 2433.3 43.9 2433.3 60.5ZM2492.71 34.6V26H2456.81V95H2466.21V64.3H2488.41L2487.01 55.7H2466.21V34.6H2492.71ZM2536.87 46.1C2536.87 53.9 2531.07 58 2521.97 58H2513.97V34.3H2522.97C2532.17 34.3 2536.87 38.6 2536.87 46.1ZM2531.17 64.7C2540.17 62.2 2546.27 56 2546.27 45.6C2546.27 33 2537.47 26 2523.37 26H2504.57V95H2513.97V65.9H2521.07L2542.17 95.7L2551.67 93.6L2531.17 64.7ZM2609.7 79.7V72.3H2598.9V27.2H2588.2L2556.8 73.1V79.7H2590.6V95H2598.9V79.7H2609.7ZM2590.6 72.3H2566.4L2590.6 37.3V72.3ZM2710.38 26H2700.78L2685.48 80.2L2667.88 26H2658.48L2640.88 80.2L2625.28 25.3L2616.08 27.3L2636.48 95H2644.28L2662.98 39.1L2681.68 95H2689.58L2710.38 26ZM2762.14 34.4V27.4H2717.34L2718.54 35.5H2752.04L2726.24 93.7L2735.04 95.7L2762.14 34.4ZM2809.78 95V61.6C2809.78 51 2804.18 46.3 2792.58 46.3C2785.18 46.3 2779.78 48 2774.08 50.3L2775.28 58C2780.48 55.7 2785.98 53.9 2791.78 53.9C2797.28 53.9 2800.88 56 2800.88 62V64C2780.98 66.1 2770.78 70.8 2770.78 82.7C2770.78 90.8 2776.18 96 2784.78 96C2792.58 96 2797.78 92.5 2801.58 88.6L2802.58 95H2809.78ZM2800.88 81.9C2796.88 86 2791.88 88.6 2786.68 88.6C2782.18 88.6 2779.58 86.1 2779.58 82.2C2779.58 77.3 2783.28 72.5 2800.88 70.8V81.9ZM2859.68 95V61.6C2859.68 51 2854.08 46.3 2842.48 46.3C2835.08 46.3 2829.68 48 2823.98 50.3L2825.18 58C2830.38 55.7 2835.88 53.9 2841.68 53.9C2847.18 53.9 2850.78 56 2850.78 62V64C2830.88 66.1 2820.68 70.8 2820.68 82.7C2820.68 90.8 2826.08 96 2834.68 96C2842.48 96 2847.68 92.5 2851.48 88.6L2852.48 95H2859.68ZM2850.78 81.9C2846.78 86 2841.78 88.6 2836.58 88.6C2832.08 88.6 2829.48 86.1 2829.48 82.2C2829.48 77.3 2833.18 72.5 2850.78 70.8V81.9ZM2931.28 26H2921.38L2900.28 82.7L2878.78 25.3L2869.38 27.3L2895.98 95.3H2904.38L2931.28 26ZM2991.46 34.6L2990.06 26H2937.46V34.6H2959.46V95H2968.86V34.6H2991.46ZM3043.12 69.8C3043.12 53.9 3034.62 46.3 3024.32 46.3C3017.82 46.3 3013.22 49.6 3010.02 52.9V22.8L3001.12 24.2V92.6C3007.42 94.5 3012.52 95.6 3019.72 95.6C3033.52 95.6 3043.12 87.2 3043.12 69.8ZM3034.12 70.2C3034.12 82.5 3028.92 88 3019.62 88C3015.22 88 3013.02 87.5 3010.02 86.4V62C3013.62 57.5 3018.02 54.2 3023.02 54.2C3029.42 54.2 3034.12 59.8 3034.12 70.2ZM3088.16 95L3086.96 87.6H3060.16L3086.96 54.3V47.3H3051.26L3052.46 54.7H3076.76L3050.06 88V95H3088.16ZM3138.57 94.2L3116.77 68.4L3136.87 47.3H3126.17L3107.67 67.3V22.8L3098.77 24.2V95H3107.67V70L3128.87 95.7L3138.57 94.2ZM3183.98 95V22.8L3175.08 24.2V48.8C3172.08 47.6 3167.78 46.7 3163.08 46.7C3151.48 46.7 3141.48 55.1 3141.48 72.5C3141.48 88.5 3149.98 96 3160.28 96C3167.28 96 3172.18 92.4 3175.78 88.1L3176.88 95H3183.98ZM3175.08 79.7C3171.28 84.8 3167.08 88.1 3161.58 88.1C3155.18 88.1 3150.48 82.6 3150.48 72.1C3150.48 60.3 3155.88 54.2 3163.38 54.2C3168.48 54.2 3171.38 55 3175.08 56.9V79.7ZM3249.29 89.6L3247.89 80.7C3242.39 84.7 3235.89 87.6 3228.49 87.6C3214.59 87.6 3206.19 77.1 3206.19 60.5C3206.19 43.9 3214.49 33.3 3228.49 33.3C3235.89 33.3 3241.79 36.2 3246.79 40L3248.19 30.4C3242.89 26.8 3236.79 24.7 3228.59 24.7C3209.19 24.7 3196.49 39.2 3196.49 60.6C3196.49 81.9 3208.99 96.3 3228.39 96.3C3236.29 96.3 3243.99 93.5 3249.29 89.6ZM3295.94 81.7C3295.94 72.6 3290.64 69.2 3278.84 66.2C3271.34 64.3 3268.94 62.5 3268.94 59.3C3268.94 55.9 3271.74 53.8 3277.14 53.8C3282.14 53.8 3287.44 55.5 3291.64 57.9L3293.04 49.5C3288.54 47.5 3283.24 46.3 3277.34 46.3C3266.94 46.3 3260.54 51.9 3260.54 59.5C3260.54 68 3265.04 71.4 3276.24 74.2C3284.84 76.3 3287.54 77.9 3287.54 82.3C3287.54 86.3 3283.94 88.6 3277.84 88.6C3271.34 88.6 3265.54 86.2 3261.04 83.1L3259.74 91.5C3263.84 93.8 3270.84 96 3277.14 96C3289.44 96 3295.94 90.4 3295.94 81.7ZM3343.9 47.3H3334.8L3322.8 84.3L3310.4 46.6L3301.5 48L3318.4 95.2H3326.9L3343.9 47.3ZM3408.67 89.6V57.3H3382.17L3383.47 65.9H3399.37V84.2C3395.37 86.4 3391.37 87.6 3385.37 87.6C3369.57 87.6 3361.47 77.1 3361.47 60.5C3361.47 43.9 3369.37 33.3 3384.47 33.3C3392.57 33.3 3398.97 36.2 3404.07 40.2L3405.57 30.6C3400.17 27 3393.77 24.7 3384.57 24.7C3363.97 24.7 3351.77 39.2 3351.77 60.6C3351.77 81.9 3363.47 96.3 3385.37 96.3C3394.47 96.3 3402.77 93.4 3408.67 89.6ZM3484.51 47.3H3475.81L3465.61 81.9L3455.01 47.3H3447.51L3436.91 81.9L3426.41 46.6L3417.91 48L3433.31 95H3440.21L3451.11 58.9L3462.11 95H3469.11L3484.51 47.3ZM3530.7 94.4L3514.6 70.3L3529.7 47.3H3520.4L3510 63.6L3499.1 46.6L3490.3 48L3505.4 70.6L3489.3 95H3498.7L3509.9 77.2L3521.9 95.7L3530.7 94.4ZM3585.07 26.8L3577.07 25.1L3529.87 106L3537.87 107.7L3585.07 26.8ZM3603.78 95V22.8L3594.88 24.2V95H3603.78ZM3673.5 95V26H3664.8V77.7L3628.2 26H3619.8V95H3628.5V41.3L3666.4 95H3673.5ZM3711.71 95.2L3710.51 87.6C3709.41 87.8 3708.01 87.9 3706.41 87.9C3701.41 87.9 3699.81 85.5 3699.81 81.6V54.8H3711.31L3710.11 47.3H3699.81V30.1L3691.11 31.4V47.3H3683.91V54.8H3691.11V83.2C3691.11 92.8 3696.61 95.8 3705.01 95.8C3708.11 95.8 3710.21 95.5 3711.71 95.2ZM3761.4 95V60.3C3761.4 51.7 3756.6 46.3 3747.6 46.3C3740.8 46.3 3735.2 50.1 3730.7 54.2L3729.6 47.3H3722.5V95H3731.4V62C3735.7 57.4 3740.5 54.3 3745.2 54.3C3750.4 54.3 3752.5 57.6 3752.5 62.5V95H3761.4ZM3837.34 60.4C3837.34 39.1 3825.14 24.7 3805.64 24.7C3786.24 24.7 3773.74 39.2 3773.74 60.6C3773.74 78.2 3781.54 89.8 3796.64 95.4L3833.94 109.3L3835.84 101L3816.04 94C3828.84 89.8 3837.34 78 3837.34 60.4ZM3827.64 60.5C3827.64 77.1 3819.24 88.2 3805.54 88.2C3791.94 88.2 3783.44 77.1 3783.44 60.5C3783.44 43.9 3791.84 33.3 3805.54 33.3C3819.14 33.3 3827.64 43.9 3827.64 60.5ZM3883.15 81.7C3883.15 72.6 3877.85 69.2 3866.05 66.2C3858.55 64.3 3856.15 62.5 3856.15 59.3C3856.15 55.9 3858.95 53.8 3864.35 53.8C3869.35 53.8 3874.65 55.5 3878.85 57.9L3880.25 49.5C3875.75 47.5 3870.45 46.3 3864.55 46.3C3854.15 46.3 3847.75 51.9 3847.75 59.5C3847.75 68 3852.25 71.4 3863.45 74.2C3872.05 76.3 3874.75 77.9 3874.75 82.3C3874.75 86.3 3871.15 88.6 3865.05 88.6C3858.55 88.6 3852.75 86.2 3848.25 83.1L3846.95 91.5C3851.05 93.8 3858.05 96 3864.35 96C3876.65 96 3883.15 90.4 3883.15 81.7ZM3935.59 95L3934.39 87H3903.29L3922.59 67.4C3930.89 58.9 3934.59 53.4 3934.59 45.2C3934.59 33.6 3926.59 26.1 3913.49 26.1C3905.09 26.1 3898.29 29.4 3893.29 33.7L3894.59 42.4C3899.89 37.7 3905.99 34.4 3912.99 34.4C3920.89 34.4 3925.29 38.2 3925.29 45.8C3925.29 51.3 3922.59 55.6 3916.49 62L3891.49 88.1V95H3935.59ZM4038.7 26H4029.1L4013.8 80.2L3996.2 26H3986.8L3969.2 80.2L3953.6 25.3L3944.4 27.3L3964.8 95H3972.6L3991.3 39.1L4010 95H4017.9L4038.7 26ZM4097.59 95L4096.29 86.8H4057.39L4096.69 33V26H4047.79L4049.09 34.2H4085.39L4046.09 88V95H4097.59ZM4157.4 89.6L4156 80.7C4150.5 84.7 4144 87.6 4136.6 87.6C4122.7 87.6 4114.3 77.1 4114.3 60.5C4114.3 43.9 4122.6 33.3 4136.6 33.3C4144 33.3 4149.9 36.2 4154.9 40L4156.3 30.4C4151 26.8 4144.9 24.7 4136.7 24.7C4117.3 24.7 4104.6 39.2 4104.6 60.6C4104.6 81.9 4117.1 96.3 4136.5 96.3C4144.4 96.3 4152.1 93.5 4157.4 89.6ZM4178.25 58.9C4181.25 44.5 4192.75 37.6 4206.55 34.1L4205.35 26.1C4183.85 31.4 4168.75 44.3 4168.75 67.7C4168.75 86.4 4178.95 96.3 4193.05 96.3C4206.45 96.3 4216.35 87.1 4216.35 74.3C4216.35 61.6 4208.35 53.6 4195.35 53.6C4188.65 53.6 4183.05 55.7 4178.25 58.9ZM4177.45 67.4C4182.05 63.6 4187.35 61.5 4193.35 61.5C4203.05 61.5 4207.35 66.5 4207.35 74.7C4207.35 83.3 4201.55 88.4 4193.35 88.4C4183.65 88.4 4177.55 80.2 4177.45 67.4ZM4282.59 89.6V57.3H4256.09L4257.39 65.9H4273.29V84.2C4269.29 86.4 4265.29 87.6 4259.29 87.6C4243.49 87.6 4235.39 77.1 4235.39 60.5C4235.39 43.9 4243.29 33.3 4258.39 33.3C4266.49 33.3 4272.89 36.2 4277.99 40.2L4279.49 30.6C4274.09 27 4267.69 24.7 4258.49 24.7C4237.89 24.7 4225.69 39.2 4225.69 60.6C4225.69 81.9 4237.39 96.3 4259.29 96.3C4268.39 96.3 4276.69 93.4 4282.59 89.6ZM4331.52 95L4330.32 87.6H4303.52L4330.32 54.3V47.3H4294.62L4295.82 54.7H4320.12L4293.42 88V95H4331.52ZM4399.73 60.4C4399.73 40.2 4387.43 26 4363.43 26H4343.43V95H4363.03C4386.73 95 4399.73 80.9 4399.73 60.4ZM4390.03 60.5C4390.03 78.1 4380.03 86.5 4363.43 86.5H4352.83V34.5H4363.73C4379.53 34.5 4390.03 43.2 4390.03 60.5ZM4470.05 60.4C4470.05 40.2 4457.75 26 4433.75 26H4413.75V95H4433.35C4457.05 95 4470.05 80.9 4470.05 60.4ZM4460.35 60.5C4460.35 78.1 4450.35 86.5 4433.75 86.5H4423.15V34.5H4434.05C4449.85 34.5 4460.35 43.2 4460.35 60.5ZM4537.76 95V26H4528.36V54.6H4493.46V26H4484.06V95H4493.46V63.2H4528.36V95H4537.76ZM4590.97 47.3H4581.87L4569.87 84.3L4557.47 46.6L4548.57 48L4565.47 95.2H4573.97L4590.97 47.3ZM4640.14 76.5C4640.14 67.1 4635.14 61.8 4626.44 59.4C4633.74 57 4638.84 52.2 4638.84 43.8C4638.84 34.7 4632.54 26.1 4617.34 26.1C4608.94 26.1 4602.94 28.5 4597.74 32.3L4599.04 40.7C4604.04 36.7 4609.94 34.2 4616.94 34.2C4625.44 34.2 4629.64 38.4 4629.64 44.2C4629.64 51.5 4624.34 55.5 4613.14 55.5H4608.04L4609.34 63.5H4612.44C4625.44 63.5 4630.94 68.4 4630.94 76.6C4630.94 84.2 4625.44 88.2 4616.54 88.2C4609.44 88.2 4603.84 86.1 4598.14 82.2L4596.64 91C4601.84 94.2 4608.94 96.3 4616.04 96.3C4630.84 96.3 4640.14 88.4 4640.14 76.5ZM4694.7 45.9C4694.7 33.1 4685.9 26 4671.3 26H4653V95H4662.4V67H4669.7C4684.7 67 4694.7 60 4694.7 45.9ZM4685.2 46.2C4685.2 54.8 4679.6 58.7 4670.2 58.7H4662.4V34.3H4670.8C4680.2 34.3 4685.2 38.3 4685.2 46.2ZM4729.1 95.2L4727.9 87.6C4726.8 87.8 4725.4 87.9 4723.8 87.9C4718.8 87.9 4717.2 85.5 4717.2 81.6V54.8H4728.7L4727.5 47.3H4717.2V30.1L4708.5 31.4V47.3H4701.3V54.8H4708.5V83.2C4708.5 92.8 4714 95.8 4722.4 95.8C4725.5 95.8 4727.6 95.5 4729.1 95.2ZM4774.49 95L4773.29 87.6H4746.49L4773.29 54.3V47.3H4737.59L4738.79 54.7H4763.09L4736.39 88V95H4774.49ZM4819.63 90.9L4818.33 82.9C4813.43 87.1 4809.23 88.2 4804.43 88.2C4796.03 88.2 4790.13 82.7 4790.13 71.1C4790.13 60 4795.63 54.1 4803.43 54.1C4808.93 54.1 4813.43 55.8 4817.83 59.4L4819.13 50.7C4815.53 48.1 4810.53 46.3 4803.53 46.3C4791.13 46.3 4781.13 54.9 4781.13 71.2C4781.13 87.1 4790.53 96 4803.33 96C4809.73 96 4814.73 94.6 4819.63 90.9ZM4880.01 95L4878.71 86.8H4839.81L4879.11 33V26H4830.21L4831.51 34.2H4867.81L4828.51 88V95H4880.01ZM4900.85 95V22.8L4891.95 24.2V95H4900.85ZM4992.07 95L4986.67 26H4975.17L4953.67 82.6L4932.17 26H4920.57L4915.07 95H4923.87L4928.07 40.1L4949.87 95.3H4956.97L4978.77 40.1L4983.07 95H4992.07ZM5047.11 95L5045.91 87H5014.81L5034.11 67.4C5042.41 58.9 5046.11 53.4 5046.11 45.2C5046.11 33.6 5038.11 26.1 5025.01 26.1C5016.61 26.1 5009.81 29.4 5004.81 33.7L5006.11 42.4C5011.41 37.7 5017.51 34.4 5024.51 34.4C5032.41 34.4 5036.81 38.2 5036.81 45.8C5036.81 51.3 5034.11 55.6 5028.01 62L5003.01 88.1V95H5047.11ZM5112.03 93.5L5079.93 58L5110.23 26H5098.93L5069.73 57V26H5060.33V95H5069.73V60L5102.23 95.7L5112.03 93.5ZM5130.76 32.1C5130.76 29 5128.26 26.4 5125.16 26.4C5122.06 26.4 5119.46 29 5119.46 32.1C5119.46 35.2 5122.06 37.7 5125.16 37.7C5128.26 37.7 5130.76 35.2 5130.76 32.1ZM5129.56 101V47.3H5120.66V100.2C5120.66 103.8 5118.76 105.4 5115.66 105.4C5114.26 105.4 5112.56 105.3 5111.46 105L5112.76 112.9C5113.46 113.1 5115.36 113.2 5116.86 113.2C5124.46 113.2 5129.56 109.6 5129.56 101ZM5170.98 54.8L5169.58 46.3C5161.78 46.7 5156.28 51.6 5152.88 57L5151.38 47.3H5144.28V95H5153.18V66.8C5156.38 60.5 5163.08 55.2 5170.98 54.8ZM5223.12 45.9C5223.12 33.1 5214.32 26 5199.72 26H5181.42V95H5190.82V67H5198.12C5213.12 67 5223.12 60 5223.12 45.9ZM5213.62 46.2C5213.62 54.8 5208.02 58.7 5198.62 58.7H5190.82V34.3H5199.22C5208.62 34.3 5213.62 38.3 5213.62 46.2ZM5296.13 47.3H5287.43L5277.23 81.9L5266.63 47.3H5259.13L5248.53 81.9L5238.03 46.6L5229.53 48L5244.93 95H5251.83L5262.73 58.9L5273.73 95H5280.73L5296.13 47.3ZM5350.7 54V46H5306.2V54H5350.7ZM5350.7 76.4V68.4H5306.2V76.4H5350.7ZM5409.69 54V46H5365.19V54H5409.69ZM5409.69 76.4V68.4H5365.19V76.4H5409.69Z" fill="black" />
    <defs>
        <filter id="filter0_d" x="0" y="0" width="5452" height="148" filterUnits="userSpaceOnUse" color-interpolation-filters="sRGB">
            <feFlood flood-opacity="0" result="BackgroundImageFix" />
            <feColorMatrix in="SourceAlpha" type="matrix" values="0 0 0 0 0 0 0 0 0 0 0 0 0 0 0 0 0 0 127 0" />
            <feOffset dy="4" />
            <feGaussianBlur stdDeviation="2" />
            <feColorMatrix type="matrix" values="0 0 0 0 0 0 0 0 0 0 0 0 0 0 0 0 0 0 0.25 0" />
            <feBlend mode="normal" in2="BackgroundImageFix" result="effect1_dropShadow" />
            <feBlend mode="normal" in="SourceGraphic" in2="effect1_dropShadow" result="shape" />
        </filter>
    </defs>
</svg>
