<svg width="540" height="431" viewBox="0 0 540 431" fill="none" xmlns="http://www.w3.org/2000/svg">
    <g filter="url(#filter0_d)">
        <path d="M25 32H515V375C515 378.314 512.314 381 509 381H31C27.6863 381 25 378.314 25 375V32Z" fill="#282828" />
        <path d="M384.028 264H326.282C318.946 264 313 269.946 313 277.282V277.282C313 284.617 318.946 290.563 326.282 290.563H384.028C391.363 290.563 397.31 284.617 397.31 277.282V277.282C397.31 269.946 391.363 264 384.028 264Z" fill="white" fill-opacity="0.2" />
        <path d="M61.3213 86.25H59.6865V75.4131L56.4082 76.6172V75.1406L61.0664 73.3916H61.3213V86.25Z" fill="white" />
        <path d="M64.3623 153.221H55.9775V152.052L60.4072 147.13C61.0635 146.386 61.5146 145.783 61.7607 145.32C62.0127 144.851 62.1387 144.367 62.1387 143.869C62.1387 143.201 61.9365 142.654 61.5322 142.226C61.1279 141.798 60.5889 141.584 59.915 141.584C59.1064 141.584 58.4766 141.816 58.0254 142.279C57.5801 142.736 57.3574 143.374 57.3574 144.195H55.7314C55.7314 143.017 56.1094 142.065 56.8652 141.338C57.627 140.612 58.6436 140.248 59.915 140.248C61.1045 140.248 62.0449 140.562 62.7363 141.189C63.4277 141.81 63.7734 142.639 63.7734 143.676C63.7734 144.936 62.9707 146.436 61.3652 148.176L57.9375 151.894H64.3623V153.221Z" fill="white" />
        <path d="M58.4277 212.811H59.6494C60.417 212.799 61.0205 212.597 61.46 212.204C61.8994 211.812 62.1191 211.281 62.1191 210.613C62.1191 209.113 61.3721 208.363 59.8779 208.363C59.1748 208.363 58.6123 208.565 58.1904 208.97C57.7744 209.368 57.5664 209.898 57.5664 210.561H55.9404C55.9404 209.547 56.3096 208.706 57.0479 208.038C57.792 207.364 58.7354 207.027 59.8779 207.027C61.085 207.027 62.0312 207.347 62.7168 207.985C63.4023 208.624 63.7451 209.512 63.7451 210.648C63.7451 211.205 63.5635 211.744 63.2002 212.266C62.8428 212.787 62.3535 213.177 61.7324 213.435C62.4355 213.657 62.9775 214.026 63.3584 214.542C63.7451 215.058 63.9385 215.688 63.9385 216.432C63.9385 217.58 63.5635 218.491 62.8135 219.165C62.0635 219.839 61.0879 220.176 59.8867 220.176C58.6855 220.176 57.707 219.851 56.9512 219.2C56.2012 218.55 55.8262 217.691 55.8262 216.625H57.4609C57.4609 217.299 57.6807 217.838 58.1201 218.242C58.5596 218.646 59.1484 218.849 59.8867 218.849C60.6719 218.849 61.2725 218.644 61.6885 218.233C62.1045 217.823 62.3125 217.234 62.3125 216.467C62.3125 215.723 62.084 215.151 61.627 214.753C61.1699 214.354 60.5107 214.149 59.6494 214.138H58.4277V212.811Z" fill="white" />
        <path d="M62.9277 282.702H64.7031V284.029H62.9277V287H61.293V284.029H55.4658V283.071L61.1963 274.203H62.9277V282.702ZM57.3115 282.702H61.293V276.427L61.0996 276.778L57.3115 282.702Z" fill="white" />
        <path d="M56.8105 347.584L57.4609 341.203H64.0176V342.706H58.8408L58.4541 346.195C59.0811 345.826 59.793 345.642 60.5898 345.642C61.7559 345.642 62.6816 346.028 63.3672 346.802C64.0527 347.569 64.3955 348.609 64.3955 349.922C64.3955 351.24 64.0381 352.28 63.3232 353.042C62.6143 353.798 61.6211 354.176 60.3438 354.176C59.2129 354.176 58.29 353.862 57.5752 353.235C56.8604 352.608 56.4531 351.741 56.3535 350.634H57.8916C57.9912 351.366 58.252 351.92 58.6738 352.295C59.0957 352.664 59.6523 352.849 60.3438 352.849C61.0996 352.849 61.6914 352.591 62.1191 352.075C62.5527 351.56 62.7695 350.848 62.7695 349.939C62.7695 349.084 62.5352 348.398 62.0664 347.883C61.6035 347.361 60.9854 347.101 60.2119 347.101C59.5029 347.101 58.9463 347.256 58.542 347.566L58.1113 347.918L56.8105 347.584Z" fill="white" />
        <path d="M410.034 66.729H216.306C209.173 66.729 203.391 72.5114 203.391 79.6443C203.391 86.7772 209.173 92.5595 216.306 92.5595H410.034C417.167 92.5595 422.95 86.7772 422.95 79.6443C422.95 72.5114 417.167 66.729 410.034 66.729Z" fill="white" fill-opacity="0.2" />
        <path d="M308.644 134H114.915C107.782 134 102 139.782 102 146.915C102 154.048 107.782 159.831 114.915 159.831H308.644C315.777 159.831 321.559 154.048 321.559 146.915C321.559 139.782 315.777 134 308.644 134Z" fill="white" fill-opacity="0.2" />
        <path d="M347 201H197C191.477 201 187 206.82 187 214C187 221.18 191.477 227 197 227H347C352.523 227 357 221.18 357 214C357 206.82 352.523 201 347 201Z" fill="white" fill-opacity="0.2" />
        <path d="M275.882 335H109.118C102.978 335 98 340.82 98 348C98 355.18 102.978 361 109.118 361H275.882C282.022 361 287 355.18 287 348C287 340.82 282.022 335 275.882 335Z" fill="white" fill-opacity="0.2" />
        <path d="M173.294 66.3457H115.547C108.212 66.3457 102.266 72.2921 102.266 79.6273V79.6274C102.266 86.9626 108.212 92.909 115.547 92.909H173.294C180.629 92.909 186.575 86.9626 186.575 79.6274V79.6273C186.575 72.2921 180.629 66.3457 173.294 66.3457Z" fill="white" fill-opacity="0.2" />
        <path d="M152.76 201H108.24C102.584 201 98 207.044 98 214.5V214.5C98 221.956 102.584 228 108.24 228H152.76C158.416 228 163 221.956 163 214.5V214.5C163 207.044 158.416 201 152.76 201Z" fill="white" fill-opacity="0.2" />
        <path d="M169.028 264H111.282C103.946 264 98 269.946 98 277.282V277.282C98 284.617 103.946 290.563 111.282 290.563H169.028C176.363 290.563 182.31 284.617 182.31 277.282V277.282C182.31 269.946 176.363 264 169.028 264Z" fill="white" fill-opacity="0.2" />
        <path d="M274.028 264H216.282C208.946 264 203 269.946 203 277.282V277.282C203 284.617 208.946 290.563 216.282 290.563H274.028C281.363 290.563 287.31 284.617 287.31 277.282V277.282C287.31 269.946 281.363 264 274.028 264Z" fill="white" fill-opacity="0.2" />
        <g filter="url(#filter1_di)">
            <path d="M25 20C25 14.3995 25 11.5992 26.0899 9.46009C27.0487 7.57847 28.5785 6.04867 30.4601 5.08993C32.5992 4 35.3995 4 41 4H499C504.601 4 507.401 4 509.54 5.08993C511.422 6.04867 512.951 7.57847 513.91 9.46009C515 11.5992 515 14.3995 515 20V32H25V20Z" fill="#1E1E1E" />
            <path fill-rule="evenodd" clip-rule="evenodd" d="M39 24C42.3137 24 45 21.3137 45 18C45 14.6863 42.3137 12 39 12C35.6863 12 33 14.6863 33 18C33 21.3137 35.6863 24 39 24Z" fill="#FF5E57" />
            <path fill-rule="evenodd" clip-rule="evenodd" d="M59 24C62.3137 24 65 21.3137 65 18C65 14.6863 62.3137 12 59 12C55.6863 12 53 14.6863 53 18C53 21.3137 55.6863 24 59 24Z" fill="#FFBB2E" />
            <path fill-rule="evenodd" clip-rule="evenodd" d="M79 24C82.3137 24 85 21.3137 85 18C85 14.6863 82.3137 12 79 12C75.6863 12 73 14.6863 73 18C73 21.3137 75.6863 24 79 24Z" fill="#38C149" />
        </g>
    </g>
    <defs>
        <filter id="filter0_d" x="0" y="0" width="540" height="431" filterUnits="userSpaceOnUse" color-interpolation-filters="sRGB">
            <feFlood flood-opacity="0" result="BackgroundImageFix" />
            <feColorMatrix in="SourceAlpha" type="matrix" values="0 0 0 0 0 0 0 0 0 0 0 0 0 0 0 0 0 0 127 0" />
            <feOffset dy="25" />
            <feGaussianBlur stdDeviation="12.5" />
            <feColorMatrix type="matrix" values="0 0 0 0 0 0 0 0 0 0 0 0 0 0 0 0 0 0 0.3 0" />
            <feBlend mode="normal" in2="BackgroundImageFix" result="effect1_dropShadow" />
            <feBlend mode="normal" in="SourceGraphic" in2="effect1_dropShadow" result="shape" />
        </filter>
        <filter id="filter1_di" x="25" y="4" width="490" height="28.5" filterUnits="userSpaceOnUse" color-interpolation-filters="sRGB">
            <feFlood flood-opacity="0" result="BackgroundImageFix" />
            <feColorMatrix in="SourceAlpha" type="matrix" values="0 0 0 0 0 0 0 0 0 0 0 0 0 0 0 0 0 0 127 0" />
            <feOffset dy="0.5" />
            <feColorMatrix type="matrix" values="0 0 0 0 0 0 0 0 0 0 0 0 0 0 0 0 0 0 0.15 0" />
            <feBlend mode="normal" in2="BackgroundImageFix" result="effect1_dropShadow" />
            <feBlend mode="normal" in="SourceGraphic" in2="effect1_dropShadow" result="shape" />
            <feColorMatrix in="SourceAlpha" type="matrix" values="0 0 0 0 0 0 0 0 0 0 0 0 0 0 0 0 0 0 127 0" result="hardAlpha" />
            <feOffset dy="-0.5" />
            <feComposite in2="hardAlpha" operator="arithmetic" k2="-1" k3="1" />
            <feColorMatrix type="matrix" values="0 0 0 0 0 0 0 0 0 0 0 0 0 0 0 0 0 0 0.05 0" />
            <feBlend mode="normal" in2="shape" result="effect2_innerShadow" />
        </filter>
    </defs>
</svg>
