<svg width="599" height="296" viewBox="0 0 599 296" fill="none" xmlns="http://www.w3.org/2000/svg">
<g filter="url(#filter0_d)">
<rect x="31" y="6" width="537" height="207" rx="10" fill="#282828"/>
<path d="M63.1179 66.6103C63.8974 66.6855 64.6154 66.8701 65.2718 67.1641C65.9282 67.4513 66.4991 67.8103 66.9846 68.241L65.7333 69.5436C64.9607 68.853 64.0889 68.4564 63.1179 68.3538V72.6103C63.9658 72.8906 64.6838 73.2154 65.2718 73.5846C65.8667 73.9538 66.335 74.4188 66.6769 74.9795C67.0188 75.5333 67.1897 76.2068 67.1897 77C67.1897 77.7043 67.0325 78.3538 66.7179 78.9487C66.4103 79.5436 65.9487 80.0393 65.3333 80.4359C64.7179 80.8256 63.9795 81.0786 63.1179 81.1949V84.2103H61.6308V81.2564C60.7077 81.1949 59.8701 80.9863 59.1179 80.6308C58.3726 80.2752 57.7333 79.8376 57.2 79.3179L58.4308 77.9333C58.8957 78.3778 59.388 78.7299 59.9077 78.9897C60.4342 79.2496 61.0085 79.4034 61.6308 79.4513V74.3128C60.3043 73.8684 59.3231 73.3248 58.6872 72.6821C58.0513 72.0393 57.7333 71.2462 57.7333 70.3026C57.7333 69.6735 57.8838 69.0957 58.1846 68.5692C58.4855 68.0359 58.9299 67.5983 59.5179 67.2564C60.106 66.9077 60.8103 66.6923 61.6308 66.6103V63.5436H63.1179V66.6103ZM61.6308 68.3846C61.1111 68.4735 60.7043 68.6718 60.4103 68.9795C60.1162 69.2803 59.9692 69.6667 59.9692 70.1385C59.9692 70.4393 60.0137 70.6991 60.1026 70.9179C60.1983 71.1368 60.3658 71.3419 60.6051 71.5333C60.8513 71.7179 61.1932 71.906 61.6308 72.0974V68.3846ZM63.1179 79.3692C64.3009 79.1299 64.8923 78.3949 64.8923 77.1641C64.8923 76.6376 64.759 76.1932 64.4923 75.8308C64.2325 75.4684 63.7744 75.1436 63.1179 74.8564V79.3692Z" fill="#FFB61D"/>
<path d="M86.2135 79.5128C86.9383 79.5128 87.5092 79.3863 87.9263 79.1333C88.3502 78.8735 88.5622 78.5179 88.5622 78.0667C88.5622 77.7521 88.4972 77.4957 88.3673 77.2974C88.2442 77.0991 87.9981 76.9145 87.6289 76.7436C87.2596 76.5658 86.7024 76.3812 85.9571 76.1897C85.1776 75.9915 84.5314 75.7658 84.0186 75.5128C83.5058 75.253 83.1058 74.9214 82.8186 74.5179C82.5383 74.1077 82.3981 73.5983 82.3981 72.9897C82.3981 72.3744 82.5725 71.8342 82.9212 71.3692C83.2767 70.8974 83.7793 70.5316 84.4289 70.2718C85.0853 70.012 85.8511 69.8821 86.7263 69.8821C88.3331 69.8821 89.7041 70.2991 90.8391 71.1333L89.875 72.5795C89.4169 72.2786 88.9348 72.0462 88.4289 71.8821C87.9297 71.7111 87.3827 71.6256 86.7878 71.6256C85.4203 71.6256 84.7366 72.0256 84.7366 72.8256C84.7366 73.0991 84.8152 73.3248 84.9725 73.5026C85.1297 73.6735 85.3964 73.8376 85.7725 73.9949C86.1554 74.1453 86.7297 74.3265 87.4955 74.5385C88.275 74.7573 88.9143 74.9966 89.4135 75.2564C89.9126 75.5162 90.2989 75.8581 90.5725 76.2821C90.8528 76.706 90.993 77.2496 90.993 77.9128C90.993 78.6581 90.7742 79.2838 90.3366 79.7897C89.8989 80.2957 89.3178 80.6718 88.593 80.9179C87.875 81.1573 87.0819 81.2769 86.2135 81.2769C85.2631 81.2769 84.4186 81.1402 83.6801 80.8667C82.9417 80.5932 82.3024 80.2205 81.7622 79.7487L82.9827 78.3538C83.4203 78.7162 83.9126 79 84.4596 79.2051C85.0135 79.4103 85.5981 79.5128 86.2135 79.5128ZM96.4074 76.3231C96.4689 77.3829 96.7664 78.1761 97.2997 78.7026C97.8399 79.2291 98.5271 79.4923 99.3612 79.4923C99.8741 79.4923 100.356 79.4137 100.807 79.2564C101.259 79.0991 101.724 78.8632 102.202 78.5487L103.197 79.9231C102.684 80.347 102.086 80.6786 101.402 80.9179C100.719 81.1573 100.001 81.2769 99.2484 81.2769C98.1476 81.2769 97.204 81.041 96.4177 80.5692C95.6313 80.0906 95.0365 79.4239 94.633 78.5692C94.2296 77.7145 94.0279 76.7231 94.0279 75.5949C94.0279 74.5077 94.2262 73.5333 94.6228 72.6718C95.0262 71.8034 95.6006 71.1231 96.3459 70.6308C97.0912 70.1316 97.9664 69.8821 98.9715 69.8821C99.9219 69.8821 100.746 70.1009 101.443 70.5385C102.148 70.9692 102.688 71.5915 103.064 72.4051C103.447 73.2188 103.638 74.1829 103.638 75.2974C103.638 75.6735 103.621 76.0154 103.587 76.3231H96.4074ZM98.992 71.5846C98.2467 71.5846 97.645 71.8513 97.1869 72.3846C96.7288 72.9111 96.4655 73.7009 96.3971 74.7538H101.413C101.392 73.735 101.173 72.9521 100.756 72.4051C100.339 71.8581 99.751 71.5846 98.992 71.5846ZM111.945 79.3897C112.424 79.3897 112.878 79.3077 113.309 79.1436C113.747 78.9795 114.181 78.747 114.612 78.4462L115.678 79.9231C115.193 80.3333 114.612 80.6615 113.935 80.9077C113.265 81.1538 112.577 81.2769 111.873 81.2769C110.779 81.2769 109.836 81.0444 109.042 80.5795C108.249 80.1145 107.644 79.4581 107.227 78.6103C106.81 77.7556 106.601 76.7641 106.601 75.6359C106.601 74.5282 106.813 73.5402 107.237 72.6718C107.661 71.8034 108.273 71.1231 109.073 70.6308C109.88 70.1316 110.827 69.8821 111.914 69.8821C113.364 69.8821 114.615 70.3162 115.668 71.1846L114.612 72.6308C113.736 72.0291 112.851 71.7282 111.955 71.7282C111.059 71.7282 110.348 72.053 109.822 72.7026C109.302 73.3521 109.042 74.3299 109.042 75.6359C109.042 76.9282 109.302 77.8786 109.822 78.4872C110.341 79.0889 111.049 79.3897 111.945 79.3897ZM126.416 69.8821C127.093 69.8821 127.623 70.1145 128.005 70.5795C128.388 71.0376 128.58 71.8274 128.58 72.9487V81H126.539V73.2667C126.539 72.8496 126.522 72.535 126.488 72.3231C126.46 72.1043 126.392 71.9436 126.282 71.841C126.18 71.7316 126.023 71.6769 125.811 71.6769C125.229 71.6769 124.696 72.0325 124.211 72.7436V81H122.354V73.2667C122.354 72.8496 122.337 72.535 122.303 72.3231C122.276 72.1043 122.207 71.9436 122.098 71.841C121.995 71.7316 121.838 71.6769 121.626 71.6769C121.339 71.6769 121.065 71.7624 120.805 71.9333C120.546 72.0974 120.286 72.3675 120.026 72.7436V81H117.975V70.1692H119.708L119.862 71.3385C120.204 70.8598 120.552 70.4974 120.908 70.2513C121.27 70.0051 121.694 69.8821 122.18 69.8821C123.144 69.8821 123.763 70.3436 124.036 71.2667C124.364 70.8222 124.72 70.4803 125.103 70.241C125.486 70.0017 125.923 69.8821 126.416 69.8821ZM139.451 78.3436C139.451 78.7607 139.512 79.0684 139.635 79.2667C139.765 79.465 139.977 79.612 140.271 79.7077L139.758 81.2667C139.205 81.2051 138.74 81.0547 138.364 80.8154C137.987 80.5761 137.704 80.2274 137.512 79.7692C137.122 80.2615 136.627 80.6376 136.025 80.8974C135.423 81.1504 134.767 81.2769 134.056 81.2769C133.331 81.2769 132.699 81.1368 132.158 80.8564C131.625 80.5761 131.215 80.1829 130.928 79.6769C130.64 79.1709 130.497 78.5829 130.497 77.9128C130.497 76.7709 130.941 75.8923 131.83 75.2769C132.726 74.6615 133.998 74.3538 135.646 74.3538H137.194V73.6462C137.194 72.9624 136.989 72.4632 136.579 72.1487C136.169 71.8342 135.57 71.6769 134.784 71.6769C134.408 71.6769 133.967 71.7248 133.461 71.8205C132.955 71.9162 132.435 72.0564 131.902 72.241L131.338 70.6205C131.994 70.3744 132.647 70.1897 133.297 70.0667C133.946 69.9436 134.558 69.8821 135.133 69.8821C136.562 69.8821 137.639 70.1966 138.364 70.8256C139.088 71.4547 139.451 72.3504 139.451 73.5128V78.3436ZM134.753 79.5846C135.225 79.5846 135.68 79.4615 136.117 79.2154C136.562 78.9624 136.921 78.6171 137.194 78.1795V75.7897H135.922C134.876 75.7897 134.111 75.9641 133.625 76.3128C133.146 76.6547 132.907 77.1538 132.907 77.8103C132.907 78.3915 133.061 78.8325 133.369 79.1333C133.683 79.4342 134.145 79.5846 134.753 79.5846ZM143.398 81V70.1692H145.378L145.552 71.5744C145.997 71.0342 146.527 70.6171 147.142 70.3231C147.757 70.0291 148.393 69.8821 149.05 69.8821C150.048 69.8821 150.8 70.1624 151.306 70.7231C151.819 71.2769 152.075 72.0701 152.075 73.1026V81H149.778V74.241C149.778 73.5709 149.737 73.0547 149.655 72.6923C149.58 72.3299 149.429 72.0632 149.204 71.8923C148.985 71.7214 148.66 71.6359 148.229 71.6359C147.737 71.6359 147.272 71.7863 146.834 72.0872C146.404 72.388 146.024 72.7675 145.696 73.2256V81H143.398Z" fill="#EFEFEF"/>
<path d="M172.166 64.8667C172.61 64.8667 172.973 65.0034 173.253 65.2769C173.533 65.5504 173.673 65.8923 173.673 66.3026C173.673 66.7197 173.533 67.0684 173.253 67.3487C172.973 67.6222 172.61 67.759 172.166 67.759C171.728 67.759 171.369 67.6222 171.089 67.3487C170.809 67.0684 170.668 66.7197 170.668 66.3026C170.668 65.8923 170.809 65.5504 171.089 65.2769C171.369 65.0034 171.728 64.8667 172.166 64.8667ZM168.33 70.1692H173.766V79.3179H176.709V81H168.227V79.3179H171.468V71.8513H168.33V70.1692ZM180.073 81V70.1692H182.052L182.226 71.5744C182.671 71.0342 183.201 70.6171 183.816 70.3231C184.431 70.0291 185.067 69.8821 185.724 69.8821C186.722 69.8821 187.474 70.1624 187.98 70.7231C188.493 71.2769 188.749 72.0701 188.749 73.1026V81H186.452V74.241C186.452 73.5709 186.411 73.0547 186.329 72.6923C186.254 72.3299 186.103 72.0632 185.878 71.8923C185.659 71.7214 185.334 71.6359 184.903 71.6359C184.411 71.6359 183.946 71.7863 183.508 72.0872C183.078 72.388 182.698 72.7675 182.37 73.2256V81H180.073ZM196.615 64.8667C197.06 64.8667 197.422 65.0034 197.702 65.2769C197.983 65.5504 198.123 65.8923 198.123 66.3026C198.123 66.7197 197.983 67.0684 197.702 67.3487C197.422 67.6222 197.06 67.759 196.615 67.759C196.178 67.759 195.819 67.6222 195.538 67.3487C195.258 67.0684 195.118 66.7197 195.118 66.3026C195.118 65.8923 195.258 65.5504 195.538 65.2769C195.819 65.0034 196.178 64.8667 196.615 64.8667ZM192.779 70.1692H198.215V79.3179H201.159V81H192.677V79.3179H195.918V71.8513H192.779V70.1692ZM213.568 80.4256C213.165 80.6855 212.683 80.8906 212.122 81.041C211.568 81.1983 210.997 81.2769 210.409 81.2769C209.582 81.2769 208.881 81.1299 208.306 80.8359C207.732 80.5419 207.298 80.1282 207.004 79.5949C206.71 79.0615 206.563 78.4359 206.563 77.7179V71.841H204.153V70.1692H206.563V67.7487L208.86 67.4718V70.1692H212.512L212.255 71.841H208.86V77.6974C208.86 78.2855 209.007 78.7197 209.301 79C209.595 79.2803 210.071 79.4205 210.727 79.4205C211.452 79.4205 212.122 79.2496 212.737 78.9077L213.568 80.4256Z" fill="white"/>
<rect x="30.75" y="5.75" width="537.5" height="207.5" rx="10.25" stroke="white" stroke-opacity="0.12" stroke-width="0.5"/>
<g filter="url(#filter1_di)">
<path d="M31 22C31 16.3995 31 13.5992 32.0899 11.4601C33.0487 9.57847 34.5785 8.04867 36.4601 7.08993C38.5992 6 41.3995 6 47 6H552C557.601 6 560.401 6 562.54 7.08993C564.422 8.04867 565.951 9.57847 566.91 11.4601C568 13.5992 568 16.3995 568 22V34H31V22Z" fill="#1E1E1E"/>
<path fill-rule="evenodd" clip-rule="evenodd" d="M45 26C48.3137 26 51 23.3137 51 20C51 16.6863 48.3137 14 45 14C41.6863 14 39 16.6863 39 20C39 23.3137 41.6863 26 45 26Z" fill="#FF5E57"/>
<path fill-rule="evenodd" clip-rule="evenodd" d="M65 26C68.3137 26 71 23.3137 71 20C71 16.6863 68.3137 14 65 14C61.6863 14 59 16.6863 59 20C59 23.3137 61.6863 26 65 26Z" fill="#FFBB2E"/>
<path fill-rule="evenodd" clip-rule="evenodd" d="M85 26C88.3137 26 91 23.3137 91 20C91 16.6863 88.3137 14 85 14C81.6863 14 79 16.6863 79 20C79 23.3137 81.6863 26 85 26Z" fill="#38C149"/>
</g>
<path d="M69.4215 110.258C69.4215 111.686 68.9754 112.745 68.0831 113.434C67.1969 114.117 65.9846 114.458 64.4462 114.458H62.9046V119H60.7631V106.262H64.2985C65.9354 106.262 67.1969 106.597 68.0831 107.268C68.9754 107.932 69.4215 108.929 69.4215 110.258ZM67.1692 110.277C67.1692 108.671 66.2585 107.868 64.4369 107.868H62.9046V112.825H64.4646C65.3262 112.825 65.9908 112.628 66.4585 112.234C66.9323 111.84 67.1692 111.188 67.1692 110.277ZM75.9284 116.342C75.9284 116.772 76.0576 117.086 76.3161 117.283C76.5807 117.48 76.9438 117.578 77.4053 117.578C77.8976 117.578 78.4114 117.471 78.9468 117.255L79.473 118.695C78.7468 119.065 77.9099 119.249 76.9622 119.249C76.3161 119.249 75.7591 119.126 75.2914 118.88C74.8238 118.628 74.4668 118.271 74.2207 117.809C73.9807 117.342 73.8607 116.791 73.8607 116.157V106.862H70.9161V105.338H75.9284V116.342ZM84.3644 114.791C84.4198 115.745 84.6875 116.458 85.1675 116.932C85.6537 117.406 86.2721 117.643 87.0229 117.643C87.4844 117.643 87.9183 117.572 88.3244 117.431C88.7306 117.289 89.1491 117.077 89.5798 116.794L90.4752 118.031C90.0137 118.412 89.4752 118.711 88.8598 118.926C88.2444 119.142 87.5983 119.249 86.9214 119.249C85.9306 119.249 85.0814 119.037 84.3737 118.612C83.666 118.182 83.1306 117.582 82.7675 116.812C82.4044 116.043 82.2229 115.151 82.2229 114.135C82.2229 113.157 82.4014 112.28 82.7583 111.505C83.1214 110.723 83.6383 110.111 84.3091 109.668C84.9798 109.218 85.7675 108.994 86.6721 108.994C87.5275 108.994 88.2691 109.191 88.8967 109.585C89.5306 109.972 90.0167 110.532 90.3552 111.265C90.6998 111.997 90.8721 112.865 90.8721 113.868C90.8721 114.206 90.8567 114.514 90.826 114.791H84.3644ZM86.6906 110.526C86.0198 110.526 85.4783 110.766 85.066 111.246C84.6537 111.72 84.4167 112.431 84.3552 113.378H88.8691C88.8506 112.462 88.6537 111.757 88.2783 111.265C87.9029 110.772 87.3737 110.526 86.6906 110.526ZM101.099 116.609C101.099 116.985 101.154 117.262 101.265 117.44C101.382 117.618 101.573 117.751 101.837 117.837L101.376 119.24C100.877 119.185 100.459 119.049 100.121 118.834C99.782 118.618 99.5267 118.305 99.3543 117.892C99.0036 118.335 98.5574 118.674 98.0159 118.908C97.4743 119.135 96.8836 119.249 96.2436 119.249C95.5913 119.249 95.022 119.123 94.5359 118.871C94.0559 118.618 93.6867 118.265 93.4282 117.809C93.1697 117.354 93.0405 116.825 93.0405 116.222C93.0405 115.194 93.4405 114.403 94.2405 113.849C95.0467 113.295 96.1913 113.018 97.6743 113.018H99.0682V112.382C99.0682 111.766 98.8836 111.317 98.5143 111.034C98.1451 110.751 97.6067 110.609 96.899 110.609C96.5605 110.609 96.1636 110.652 95.7082 110.738C95.2528 110.825 94.7851 110.951 94.3051 111.117L93.7974 109.658C94.3882 109.437 94.9759 109.271 95.5605 109.16C96.1451 109.049 96.6959 108.994 97.2128 108.994C98.499 108.994 99.4682 109.277 100.121 109.843C100.773 110.409 101.099 111.215 101.099 112.262V116.609ZM96.8713 117.726C97.2959 117.726 97.7051 117.615 98.099 117.394C98.499 117.166 98.822 116.855 99.0682 116.462V114.311H97.9236C96.982 114.311 96.2928 114.468 95.8559 114.782C95.4251 115.089 95.2097 115.538 95.2097 116.129C95.2097 116.652 95.3482 117.049 95.6251 117.32C95.9082 117.591 96.3236 117.726 96.8713 117.726ZM108.197 117.662C108.849 117.662 109.363 117.548 109.738 117.32C110.12 117.086 110.31 116.766 110.31 116.36C110.31 116.077 110.252 115.846 110.135 115.668C110.024 115.489 109.803 115.323 109.47 115.169C109.138 115.009 108.637 114.843 107.966 114.671C107.264 114.492 106.683 114.289 106.221 114.062C105.76 113.828 105.4 113.529 105.141 113.166C104.889 112.797 104.763 112.338 104.763 111.791C104.763 111.237 104.92 110.751 105.233 110.332C105.553 109.908 106.006 109.578 106.59 109.345C107.181 109.111 107.87 108.994 108.658 108.994C110.104 108.994 111.338 109.369 112.36 110.12L111.492 111.422C111.08 111.151 110.646 110.942 110.19 110.794C109.741 110.64 109.249 110.563 108.713 110.563C107.483 110.563 106.867 110.923 106.867 111.643C106.867 111.889 106.938 112.092 107.08 112.252C107.221 112.406 107.461 112.554 107.8 112.695C108.144 112.831 108.661 112.994 109.35 113.185C110.052 113.382 110.627 113.597 111.077 113.831C111.526 114.065 111.873 114.372 112.12 114.754C112.372 115.135 112.498 115.625 112.498 116.222C112.498 116.892 112.301 117.455 111.907 117.911C111.513 118.366 110.99 118.705 110.338 118.926C109.692 119.142 108.978 119.249 108.197 119.249C107.341 119.249 106.581 119.126 105.917 118.88C105.252 118.634 104.677 118.298 104.19 117.874L105.289 116.618C105.683 116.945 106.126 117.2 106.618 117.385C107.117 117.569 107.643 117.662 108.197 117.662ZM117.371 114.791C117.426 115.745 117.694 116.458 118.174 116.932C118.66 117.406 119.279 117.643 120.03 117.643C120.491 117.643 120.925 117.572 121.331 117.431C121.737 117.289 122.156 117.077 122.586 116.794L123.482 118.031C123.02 118.412 122.482 118.711 121.866 118.926C121.251 119.142 120.605 119.249 119.928 119.249C118.937 119.249 118.088 119.037 117.38 118.612C116.673 118.182 116.137 117.582 115.774 116.812C115.411 116.043 115.23 115.151 115.23 114.135C115.23 113.157 115.408 112.28 115.765 111.505C116.128 110.723 116.645 110.111 117.316 109.668C117.986 109.218 118.774 108.994 119.679 108.994C120.534 108.994 121.276 109.191 121.903 109.585C122.537 109.972 123.023 110.532 123.362 111.265C123.706 111.997 123.879 112.865 123.879 113.868C123.879 114.206 123.863 114.514 123.833 114.791H117.371ZM119.697 110.526C119.026 110.526 118.485 110.766 118.073 111.246C117.66 111.72 117.423 112.431 117.362 113.378H121.876C121.857 112.462 121.66 111.757 121.285 111.265C120.91 110.772 120.38 110.526 119.697 110.526ZM139.376 114.791C139.431 115.745 139.699 116.458 140.179 116.932C140.665 117.406 141.283 117.643 142.034 117.643C142.496 117.643 142.929 117.572 143.336 117.431C143.742 117.289 144.16 117.077 144.591 116.794L145.486 118.031C145.025 118.412 144.486 118.711 143.871 118.926C143.256 119.142 142.609 119.249 141.932 119.249C140.942 119.249 140.092 119.037 139.385 118.612C138.677 118.182 138.142 117.582 137.779 116.812C137.416 116.043 137.234 115.151 137.234 114.135C137.234 113.157 137.412 112.28 137.769 111.505C138.132 110.723 138.649 110.111 139.32 109.668C139.991 109.218 140.779 108.994 141.683 108.994C142.539 108.994 143.28 109.191 143.908 109.585C144.542 109.972 145.028 110.532 145.366 111.265C145.711 111.997 145.883 112.865 145.883 113.868C145.883 114.206 145.868 114.514 145.837 114.791H139.376ZM141.702 110.526C141.031 110.526 140.489 110.766 140.077 111.246C139.665 111.72 139.428 112.431 139.366 113.378H143.88C143.862 112.462 143.665 111.757 143.289 111.265C142.914 110.772 142.385 110.526 141.702 110.526ZM148.661 119V109.252H150.442L150.599 110.517C150.999 110.031 151.476 109.655 152.03 109.391C152.584 109.126 153.156 108.994 153.747 108.994C154.645 108.994 155.322 109.246 155.778 109.751C156.239 110.249 156.47 110.963 156.47 111.892V119H154.402V112.917C154.402 112.314 154.365 111.849 154.292 111.523C154.224 111.197 154.089 110.957 153.885 110.803C153.689 110.649 153.396 110.572 153.009 110.572C152.565 110.572 152.147 110.708 151.753 110.978C151.365 111.249 151.024 111.591 150.729 112.003V119H148.661ZM167.805 118.483C167.442 118.717 167.008 118.902 166.503 119.037C166.005 119.178 165.491 119.249 164.962 119.249C164.217 119.249 163.586 119.117 163.069 118.852C162.552 118.588 162.162 118.215 161.897 117.735C161.632 117.255 161.5 116.692 161.5 116.046V110.757H159.331V109.252H161.5V107.074L163.568 106.825V109.252H166.854L166.623 110.757H163.568V116.028C163.568 116.557 163.7 116.948 163.965 117.2C164.229 117.452 164.657 117.578 165.248 117.578C165.9 117.578 166.503 117.425 167.057 117.117L167.805 118.483ZM172.382 114.791C172.438 115.745 172.705 116.458 173.185 116.932C173.671 117.406 174.29 117.643 175.041 117.643C175.502 117.643 175.936 117.572 176.342 117.431C176.748 117.289 177.167 117.077 177.598 116.794L178.493 118.031C178.031 118.412 177.493 118.711 176.878 118.926C176.262 119.142 175.616 119.249 174.939 119.249C173.948 119.249 173.099 119.037 172.391 118.612C171.684 118.182 171.148 117.582 170.785 116.812C170.422 116.043 170.241 115.151 170.241 114.135C170.241 113.157 170.419 112.28 170.776 111.505C171.139 110.723 171.656 110.111 172.327 109.668C172.998 109.218 173.785 108.994 174.69 108.994C175.545 108.994 176.287 109.191 176.914 109.585C177.548 109.972 178.034 110.532 178.373 111.265C178.718 111.997 178.89 112.865 178.89 113.868C178.89 114.206 178.874 114.514 178.844 114.791H172.382ZM174.708 110.526C174.038 110.526 173.496 110.766 173.084 111.246C172.671 111.72 172.434 112.431 172.373 113.378H176.887C176.868 112.462 176.671 111.757 176.296 111.265C175.921 110.772 175.391 110.526 174.708 110.526ZM188.581 109.003C188.852 109.003 189.101 109.025 189.329 109.068C189.557 109.111 189.797 109.172 190.049 109.252L189.698 112.843H188.221V110.858C187.538 110.883 186.947 111.157 186.449 111.68C185.951 112.197 185.554 112.938 185.258 113.905V117.523H187.224V119H181.76V117.523H183.191V110.72H181.76V109.252H184.769L185.147 111.514C185.523 110.671 185.981 110.043 186.523 109.631C187.071 109.212 187.757 109.003 188.581 109.003ZM211.121 116.609C211.121 116.985 211.177 117.262 211.287 117.44C211.404 117.618 211.595 117.751 211.86 117.837L211.398 119.24C210.9 119.185 210.481 119.049 210.143 118.834C209.804 118.618 209.549 118.305 209.377 117.892C209.026 118.335 208.58 118.674 208.038 118.908C207.497 119.135 206.906 119.249 206.266 119.249C205.613 119.249 205.044 119.123 204.558 118.871C204.078 118.618 203.709 118.265 203.45 117.809C203.192 117.354 203.063 116.825 203.063 116.222C203.063 115.194 203.463 114.403 204.263 113.849C205.069 113.295 206.213 113.018 207.697 113.018H209.09V112.382C209.09 111.766 208.906 111.317 208.537 111.034C208.167 110.751 207.629 110.609 206.921 110.609C206.583 110.609 206.186 110.652 205.73 110.738C205.275 110.825 204.807 110.951 204.327 111.117L203.82 109.658C204.41 109.437 204.998 109.271 205.583 109.16C206.167 109.049 206.718 108.994 207.235 108.994C208.521 108.994 209.49 109.277 210.143 109.843C210.795 110.409 211.121 111.215 211.121 112.262V116.609ZM206.893 117.726C207.318 117.726 207.727 117.615 208.121 117.394C208.521 117.166 208.844 116.855 209.09 116.462V114.311H207.946C207.004 114.311 206.315 114.468 205.878 114.782C205.447 115.089 205.232 115.538 205.232 116.129C205.232 116.652 205.37 117.049 205.647 117.32C205.93 117.591 206.346 117.726 206.893 117.726ZM229.221 117.662C229.873 117.662 230.387 117.548 230.763 117.32C231.144 117.086 231.335 116.766 231.335 116.36C231.335 116.077 231.276 115.846 231.159 115.668C231.049 115.489 230.827 115.323 230.495 115.169C230.163 115.009 229.661 114.843 228.99 114.671C228.289 114.492 227.707 114.289 227.246 114.062C226.784 113.828 226.424 113.529 226.166 113.166C225.913 112.797 225.787 112.338 225.787 111.791C225.787 111.237 225.944 110.751 226.258 110.332C226.578 109.908 227.03 109.578 227.615 109.345C228.206 109.111 228.895 108.994 229.683 108.994C231.129 108.994 232.363 109.369 233.384 110.12L232.516 111.422C232.104 111.151 231.67 110.942 231.215 110.794C230.766 110.64 230.273 110.563 229.738 110.563C228.507 110.563 227.892 110.923 227.892 111.643C227.892 111.889 227.963 112.092 228.104 112.252C228.246 112.406 228.486 112.554 228.824 112.695C229.169 112.831 229.686 112.994 230.375 113.185C231.076 113.382 231.652 113.597 232.101 113.831C232.55 114.065 232.898 114.372 233.144 114.754C233.396 115.135 233.523 115.625 233.523 116.222C233.523 116.892 233.326 117.455 232.932 117.911C232.538 118.366 232.015 118.705 231.363 118.926C230.716 119.142 230.003 119.249 229.221 119.249C228.366 119.249 227.606 119.126 226.941 118.88C226.276 118.634 225.701 118.298 225.215 117.874L226.313 116.618C226.707 116.945 227.15 117.2 227.643 117.385C228.141 117.569 228.667 117.662 229.221 117.662ZM244.82 118.483C244.457 118.717 244.023 118.902 243.519 119.037C243.02 119.178 242.506 119.249 241.977 119.249C241.232 119.249 240.602 119.117 240.085 118.852C239.568 118.588 239.177 118.215 238.912 117.735C238.648 117.255 238.516 116.692 238.516 116.046V110.757H236.346V109.252H238.516V107.074L240.583 106.825V109.252H243.869L243.639 110.757H240.583V116.028C240.583 116.557 240.716 116.948 240.98 117.2C241.245 117.452 241.672 117.578 242.263 117.578C242.916 117.578 243.519 117.425 244.072 117.117L244.82 118.483ZM254.595 109.003C254.865 109.003 255.115 109.025 255.342 109.068C255.57 109.111 255.81 109.172 256.062 109.252L255.712 112.843H254.235V110.858C253.552 110.883 252.961 111.157 252.462 111.68C251.964 112.197 251.567 112.938 251.272 113.905V117.523H253.238V119H247.773V117.523H249.204V110.72H247.773V109.252H250.782L251.161 111.514C251.536 110.671 251.995 110.043 252.536 109.631C253.084 109.212 253.77 109.003 254.595 109.003ZM262.588 108.994C263.523 108.994 264.32 109.203 264.978 109.622C265.637 110.04 266.135 110.634 266.474 111.403C266.812 112.166 266.981 113.068 266.981 114.108C266.981 115.142 266.809 116.046 266.465 116.822C266.12 117.591 265.618 118.188 264.96 118.612C264.301 119.037 263.508 119.249 262.578 119.249C261.643 119.249 260.846 119.043 260.188 118.631C259.529 118.218 259.028 117.628 258.683 116.858C258.345 116.089 258.175 115.178 258.175 114.126C258.175 113.111 258.348 112.215 258.692 111.44C259.037 110.665 259.538 110.065 260.197 109.64C260.861 109.209 261.658 108.994 262.588 108.994ZM262.588 110.6C261.837 110.6 261.274 110.889 260.898 111.468C260.529 112.04 260.345 112.926 260.345 114.126C260.345 115.326 260.529 116.215 260.898 116.794C261.268 117.366 261.828 117.652 262.578 117.652C263.329 117.652 263.889 117.366 264.258 116.794C264.628 116.215 264.812 115.32 264.812 114.108C264.812 112.914 264.628 112.031 264.258 111.458C263.889 110.886 263.332 110.6 262.588 110.6ZM269.685 119V109.252H271.467L271.624 110.517C272.024 110.031 272.501 109.655 273.054 109.391C273.608 109.126 274.181 108.994 274.771 108.994C275.67 108.994 276.347 109.246 276.802 109.751C277.264 110.249 277.494 110.963 277.494 111.892V119H275.427V112.917C275.427 112.314 275.39 111.849 275.316 111.523C275.248 111.197 275.113 110.957 274.91 110.803C274.713 110.649 274.421 110.572 274.033 110.572C273.59 110.572 273.171 110.708 272.778 110.978C272.39 111.249 272.048 111.591 271.753 112.003V119H269.685ZM289.447 109.732C289.084 109.855 288.675 109.942 288.22 109.991C287.771 110.034 287.235 110.055 286.614 110.055C287.204 110.32 287.644 110.655 287.934 111.062C288.229 111.462 288.377 111.951 288.377 112.529C288.377 113.169 288.22 113.738 287.906 114.237C287.598 114.735 287.155 115.126 286.577 115.409C285.998 115.686 285.318 115.825 284.537 115.825C284.007 115.825 283.561 115.772 283.198 115.668C283.069 115.754 282.964 115.871 282.884 116.018C282.804 116.166 282.764 116.317 282.764 116.471C282.764 116.698 282.854 116.877 283.032 117.006C283.211 117.135 283.527 117.2 283.983 117.2H285.681C286.364 117.2 286.974 117.32 287.509 117.56C288.051 117.794 288.472 118.117 288.774 118.529C289.081 118.942 289.235 119.403 289.235 119.914C289.235 120.56 289.047 121.111 288.672 121.566C288.297 122.028 287.743 122.378 287.011 122.618C286.284 122.858 285.401 122.978 284.361 122.978C283.266 122.978 282.401 122.865 281.767 122.637C281.134 122.415 280.681 122.086 280.411 121.649C280.146 121.212 280.014 120.652 280.014 119.969H281.869C281.869 120.332 281.937 120.622 282.072 120.837C282.214 121.052 282.466 121.212 282.829 121.317C283.192 121.422 283.709 121.474 284.38 121.474C285.364 121.474 286.072 121.354 286.503 121.114C286.94 120.874 287.158 120.52 287.158 120.052C287.158 119.658 286.986 119.354 286.641 119.138C286.303 118.923 285.841 118.815 285.257 118.815H283.586C282.995 118.815 282.5 118.732 282.1 118.566C281.7 118.394 281.401 118.166 281.204 117.883C281.014 117.6 280.918 117.286 280.918 116.942C280.918 116.609 281.011 116.289 281.195 115.982C281.386 115.674 281.657 115.406 282.007 115.178C281.423 114.877 280.995 114.508 280.724 114.071C280.46 113.628 280.327 113.089 280.327 112.455C280.327 111.778 280.5 111.178 280.844 110.655C281.189 110.132 281.669 109.726 282.284 109.437C282.9 109.148 283.604 109.003 284.398 109.003C285.137 109.003 285.767 108.963 286.291 108.883C286.82 108.803 287.269 108.695 287.638 108.56C288.014 108.425 288.432 108.243 288.894 108.015L289.447 109.732ZM284.417 110.425C283.777 110.425 283.284 110.606 282.94 110.969C282.601 111.332 282.432 111.822 282.432 112.437C282.432 113.065 282.604 113.563 282.949 113.932C283.294 114.295 283.792 114.477 284.444 114.477C285.054 114.477 285.518 114.298 285.838 113.942C286.164 113.585 286.327 113.077 286.327 112.418C286.327 111.089 285.691 110.425 284.417 110.425ZM309.412 108.994C310.021 108.994 310.498 109.203 310.843 109.622C311.187 110.034 311.36 110.745 311.36 111.754V119H309.523V112.04C309.523 111.665 309.507 111.382 309.477 111.191C309.452 110.994 309.39 110.849 309.292 110.757C309.2 110.658 309.058 110.609 308.867 110.609C308.344 110.609 307.864 110.929 307.427 111.569V119H305.757V112.04C305.757 111.665 305.741 111.382 305.71 111.191C305.686 110.994 305.624 110.849 305.526 110.757C305.433 110.658 305.292 110.609 305.101 110.609C304.843 110.609 304.597 110.686 304.363 110.84C304.129 110.988 303.895 111.231 303.661 111.569V119H301.815V109.252H303.375L303.513 110.305C303.821 109.874 304.135 109.548 304.455 109.326C304.781 109.105 305.163 108.994 305.6 108.994C306.467 108.994 307.024 109.409 307.27 110.24C307.566 109.84 307.886 109.532 308.23 109.317C308.575 109.102 308.969 108.994 309.412 108.994ZM321.143 116.609C321.143 116.985 321.199 117.262 321.309 117.44C321.426 117.618 321.617 117.751 321.882 117.837L321.42 119.24C320.922 119.185 320.503 119.049 320.165 118.834C319.826 118.618 319.571 118.305 319.399 117.892C319.048 118.335 318.602 118.674 318.06 118.908C317.519 119.135 316.928 119.249 316.288 119.249C315.636 119.249 315.066 119.123 314.58 118.871C314.1 118.618 313.731 118.265 313.473 117.809C313.214 117.354 313.085 116.825 313.085 116.222C313.085 115.194 313.485 114.403 314.285 113.849C315.091 113.295 316.236 113.018 317.719 113.018H319.113V112.382C319.113 111.766 318.928 111.317 318.559 111.034C318.189 110.751 317.651 110.609 316.943 110.609C316.605 110.609 316.208 110.652 315.753 110.738C315.297 110.825 314.829 110.951 314.349 111.117L313.842 109.658C314.433 109.437 315.02 109.271 315.605 109.16C316.189 109.049 316.74 108.994 317.257 108.994C318.543 108.994 319.513 109.277 320.165 109.843C320.817 110.409 321.143 111.215 321.143 112.262V116.609ZM316.916 117.726C317.34 117.726 317.749 117.615 318.143 117.394C318.543 117.166 318.866 116.855 319.113 116.462V114.311H317.968C317.026 114.311 316.337 114.468 315.9 114.782C315.469 115.089 315.254 115.538 315.254 116.129C315.254 116.652 315.393 117.049 315.669 117.32C315.953 117.591 316.368 117.726 316.916 117.726ZM328.241 117.662C328.893 117.662 329.407 117.548 329.782 117.32C330.164 117.086 330.355 116.766 330.355 116.36C330.355 116.077 330.296 115.846 330.179 115.668C330.069 115.489 329.847 115.323 329.515 115.169C329.182 115.009 328.681 114.843 328.01 114.671C327.309 114.492 326.727 114.289 326.266 114.062C325.804 113.828 325.444 113.529 325.186 113.166C324.933 112.797 324.807 112.338 324.807 111.791C324.807 111.237 324.964 110.751 325.278 110.332C325.598 109.908 326.05 109.578 326.635 109.345C327.226 109.111 327.915 108.994 328.702 108.994C330.149 108.994 331.382 109.369 332.404 110.12L331.536 111.422C331.124 111.151 330.69 110.942 330.235 110.794C329.786 110.64 329.293 110.563 328.758 110.563C327.527 110.563 326.912 110.923 326.912 111.643C326.912 111.889 326.982 112.092 327.124 112.252C327.266 112.406 327.506 112.554 327.844 112.695C328.189 112.831 328.706 112.994 329.395 113.185C330.096 113.382 330.672 113.597 331.121 113.831C331.57 114.065 331.918 114.372 332.164 114.754C332.416 115.135 332.542 115.625 332.542 116.222C332.542 116.892 332.346 117.455 331.952 117.911C331.558 118.366 331.035 118.705 330.382 118.926C329.736 119.142 329.022 119.249 328.241 119.249C327.386 119.249 326.626 119.126 325.961 118.88C325.296 118.634 324.721 118.298 324.235 117.874L325.333 116.618C325.727 116.945 326.17 117.2 326.662 117.385C327.161 117.569 327.687 117.662 328.241 117.662ZM343.84 118.483C343.477 118.717 343.043 118.902 342.539 119.037C342.04 119.178 341.526 119.249 340.997 119.249C340.252 119.249 339.622 119.117 339.105 118.852C338.588 118.588 338.197 118.215 337.932 117.735C337.668 117.255 337.535 116.692 337.535 116.046V110.757H335.366V109.252H337.535V107.074L339.603 106.825V109.252H342.889L342.659 110.757H339.603V116.028C339.603 116.557 339.735 116.948 340 117.2C340.265 117.452 340.692 117.578 341.283 117.578C341.935 117.578 342.539 117.425 343.092 117.117L343.84 118.483ZM348.418 114.791C348.473 115.745 348.741 116.458 349.221 116.932C349.707 117.406 350.325 117.643 351.076 117.643C351.538 117.643 351.972 117.572 352.378 117.431C352.784 117.289 353.202 117.077 353.633 116.794L354.528 118.031C354.067 118.412 353.528 118.711 352.913 118.926C352.298 119.142 351.652 119.249 350.975 119.249C349.984 119.249 349.135 119.037 348.427 118.612C347.719 118.182 347.184 117.582 346.821 116.812C346.458 116.043 346.276 115.151 346.276 114.135C346.276 113.157 346.455 112.28 346.812 111.505C347.175 110.723 347.692 110.111 348.362 109.668C349.033 109.218 349.821 108.994 350.725 108.994C351.581 108.994 352.322 109.191 352.95 109.585C353.584 109.972 354.07 110.532 354.408 111.265C354.753 111.997 354.925 112.865 354.925 113.868C354.925 114.206 354.91 114.514 354.879 114.791H348.418ZM350.744 110.526C350.073 110.526 349.532 110.766 349.119 111.246C348.707 111.72 348.47 112.431 348.408 113.378H352.922C352.904 112.462 352.707 111.757 352.332 111.265C351.956 110.772 351.427 110.526 350.744 110.526ZM364.617 109.003C364.888 109.003 365.137 109.025 365.365 109.068C365.592 109.111 365.832 109.172 366.085 109.252L365.734 112.843H364.257V110.858C363.574 110.883 362.983 111.157 362.485 111.68C361.986 112.197 361.589 112.938 361.294 113.905V117.523H363.26V119H357.795V117.523H359.226V110.72H357.795V109.252H360.805L361.183 111.514C361.558 110.671 362.017 110.043 362.558 109.631C363.106 109.212 363.792 109.003 364.617 109.003ZM384.461 108.994C386.824 108.994 388.006 110.698 388.006 114.108C388.006 115.117 387.861 116.009 387.572 116.785C387.289 117.554 386.864 118.157 386.298 118.594C385.738 119.031 385.055 119.249 384.249 119.249C383.227 119.249 382.403 118.889 381.775 118.169V122.748L379.707 122.978V109.252H381.507L381.637 110.508C382 110.009 382.424 109.634 382.91 109.382C383.397 109.123 383.914 108.994 384.461 108.994ZM383.889 110.591C383.458 110.591 383.064 110.72 382.707 110.978C382.357 111.231 382.046 111.566 381.775 111.985V116.545C382.261 117.271 382.904 117.634 383.704 117.634C384.412 117.634 384.944 117.351 385.301 116.785C385.658 116.212 385.837 115.323 385.837 114.117C385.837 112.886 385.677 111.991 385.357 111.431C385.037 110.871 384.547 110.591 383.889 110.591ZM398.159 116.609C398.159 116.985 398.214 117.262 398.325 117.44C398.442 117.618 398.633 117.751 398.897 117.837L398.436 119.24C397.937 119.185 397.519 119.049 397.18 118.834C396.842 118.618 396.587 118.305 396.414 117.892C396.063 118.335 395.617 118.674 395.076 118.908C394.534 119.135 393.943 119.249 393.303 119.249C392.651 119.249 392.082 119.123 391.596 118.871C391.116 118.618 390.747 118.265 390.488 117.809C390.23 117.354 390.1 116.825 390.1 116.222C390.1 115.194 390.5 114.403 391.3 113.849C392.107 113.295 393.251 113.018 394.734 113.018H396.128V112.382C396.128 111.766 395.943 111.317 395.574 111.034C395.205 110.751 394.667 110.609 393.959 110.609C393.62 110.609 393.223 110.652 392.768 110.738C392.313 110.825 391.845 110.951 391.365 111.117L390.857 109.658C391.448 109.437 392.036 109.271 392.62 109.16C393.205 109.049 393.756 108.994 394.273 108.994C395.559 108.994 396.528 109.277 397.18 109.843C397.833 110.409 398.159 111.215 398.159 112.262V116.609ZM393.931 117.726C394.356 117.726 394.765 117.615 395.159 117.394C395.559 117.166 395.882 116.855 396.128 116.462V114.311H394.983C394.042 114.311 393.353 114.468 392.916 114.782C392.485 115.089 392.27 115.538 392.27 116.129C392.27 116.652 392.408 117.049 392.685 117.32C392.968 117.591 393.383 117.726 393.931 117.726ZM405.256 117.662C405.909 117.662 406.423 117.548 406.798 117.32C407.18 117.086 407.37 116.766 407.37 116.36C407.37 116.077 407.312 115.846 407.195 115.668C407.084 115.489 406.863 115.323 406.53 115.169C406.198 115.009 405.696 114.843 405.026 114.671C404.324 114.492 403.743 114.289 403.281 114.062C402.82 113.828 402.46 113.529 402.201 113.166C401.949 112.797 401.823 112.338 401.823 111.791C401.823 111.237 401.98 110.751 402.293 110.332C402.613 109.908 403.066 109.578 403.65 109.345C404.241 109.111 404.93 108.994 405.718 108.994C407.164 108.994 408.398 109.369 409.42 110.12L408.552 111.422C408.14 111.151 407.706 110.942 407.25 110.794C406.801 110.64 406.309 110.563 405.773 110.563C404.543 110.563 403.927 110.923 403.927 111.643C403.927 111.889 403.998 112.092 404.14 112.252C404.281 112.406 404.521 112.554 404.86 112.695C405.204 112.831 405.721 112.994 406.41 113.185C407.112 113.382 407.687 113.597 408.136 113.831C408.586 114.065 408.933 114.372 409.18 114.754C409.432 115.135 409.558 115.625 409.558 116.222C409.558 116.892 409.361 117.455 408.967 117.911C408.573 118.366 408.05 118.705 407.398 118.926C406.752 119.142 406.038 119.249 405.256 119.249C404.401 119.249 403.641 119.126 402.976 118.88C402.312 118.634 401.736 118.298 401.25 117.874L402.349 116.618C402.743 116.945 403.186 117.2 403.678 117.385C404.176 117.569 404.703 117.662 405.256 117.662ZM416.259 117.662C416.911 117.662 417.425 117.548 417.8 117.32C418.182 117.086 418.373 116.766 418.373 116.36C418.373 116.077 418.314 115.846 418.197 115.668C418.086 115.489 417.865 115.323 417.533 115.169C417.2 115.009 416.699 114.843 416.028 114.671C415.326 114.492 414.745 114.289 414.283 114.062C413.822 113.828 413.462 113.529 413.203 113.166C412.951 112.797 412.825 112.338 412.825 111.791C412.825 111.237 412.982 110.751 413.296 110.332C413.616 109.908 414.068 109.578 414.653 109.345C415.243 109.111 415.933 108.994 416.72 108.994C418.166 108.994 419.4 109.369 420.422 110.12L419.554 111.422C419.142 111.151 418.708 110.942 418.253 110.794C417.803 110.64 417.311 110.563 416.776 110.563C415.545 110.563 414.929 110.923 414.929 111.643C414.929 111.889 415 112.092 415.142 112.252C415.283 112.406 415.523 112.554 415.862 112.695C416.206 112.831 416.723 112.994 417.413 113.185C418.114 113.382 418.689 113.597 419.139 113.831C419.588 114.065 419.936 114.372 420.182 114.754C420.434 115.135 420.56 115.625 420.56 116.222C420.56 116.892 420.363 117.455 419.969 117.911C419.576 118.366 419.053 118.705 418.4 118.926C417.754 119.142 417.04 119.249 416.259 119.249C415.403 119.249 414.643 119.126 413.979 118.88C413.314 118.634 412.739 118.298 412.253 117.874L413.351 116.618C413.745 116.945 414.188 117.2 414.68 117.385C415.179 117.569 415.705 117.662 416.259 117.662ZM432.929 109.252L431.341 119H428.756L427.658 112.077L426.476 119H423.947L422.295 109.252H424.289L425.304 117.717L426.661 110.489H428.729L429.993 117.717L431.009 109.252H432.929ZM438.623 108.994C439.559 108.994 440.355 109.203 441.014 109.622C441.672 110.04 442.171 110.634 442.509 111.403C442.848 112.166 443.017 113.068 443.017 114.108C443.017 115.142 442.845 116.046 442.5 116.822C442.155 117.591 441.654 118.188 440.995 118.612C440.337 119.037 439.543 119.249 438.614 119.249C437.679 119.249 436.882 119.043 436.223 118.631C435.565 118.218 435.063 117.628 434.719 116.858C434.38 116.089 434.211 115.178 434.211 114.126C434.211 113.111 434.383 112.215 434.728 111.44C435.072 110.665 435.574 110.065 436.232 109.64C436.897 109.209 437.694 108.994 438.623 108.994ZM438.623 110.6C437.872 110.6 437.309 110.889 436.934 111.468C436.565 112.04 436.38 112.926 436.38 114.126C436.38 115.326 436.565 116.215 436.934 116.794C437.303 117.366 437.863 117.652 438.614 117.652C439.365 117.652 439.925 117.366 440.294 116.794C440.663 116.215 440.848 115.32 440.848 114.108C440.848 112.914 440.663 112.031 440.294 111.458C439.925 110.886 439.368 110.6 438.623 110.6ZM452.635 109.003C452.905 109.003 453.155 109.025 453.382 109.068C453.61 109.111 453.85 109.172 454.102 109.252L453.752 112.843H452.275V110.858C451.592 110.883 451.001 111.157 450.502 111.68C450.004 112.197 449.607 112.938 449.312 113.905V117.523H451.278V119H445.813V117.523H447.244V110.72H445.813V109.252H448.822L449.201 111.514C449.576 110.671 450.035 110.043 450.576 109.631C451.124 109.212 451.81 109.003 452.635 109.003ZM462.446 105.108L464.514 105.338V119H462.695L462.548 117.8C462.215 118.268 461.815 118.628 461.348 118.88C460.886 119.126 460.372 119.249 459.806 119.249C458.594 119.249 457.68 118.794 457.064 117.883C456.449 116.966 456.141 115.714 456.141 114.126C456.141 113.135 456.295 112.252 456.603 111.477C456.911 110.702 457.354 110.095 457.932 109.658C458.517 109.215 459.203 108.994 459.991 108.994C460.988 108.994 461.806 109.348 462.446 110.055V105.108ZM460.535 110.582C459.821 110.582 459.274 110.874 458.892 111.458C458.517 112.043 458.329 112.932 458.329 114.126C458.329 116.483 459.003 117.662 460.351 117.662C461.157 117.662 461.855 117.2 462.446 116.277V111.662C462.2 111.311 461.917 111.043 461.597 110.858C461.277 110.674 460.923 110.582 460.535 110.582ZM469.95 111.025C469.95 110.729 470.024 110.455 470.171 110.203C470.319 109.945 470.519 109.742 470.771 109.594C471.024 109.446 471.304 109.372 471.611 109.372C471.919 109.372 472.199 109.446 472.451 109.594C472.704 109.742 472.904 109.945 473.051 110.203C473.199 110.455 473.273 110.729 473.273 111.025C473.273 111.326 473.199 111.606 473.051 111.865C472.904 112.117 472.704 112.32 472.451 112.474C472.199 112.622 471.919 112.695 471.611 112.695C471.304 112.695 471.024 112.622 470.771 112.474C470.519 112.32 470.319 112.117 470.171 111.865C470.024 111.606 469.95 111.326 469.95 111.025ZM469.95 117.578C469.95 117.283 470.024 117.009 470.171 116.757C470.319 116.505 470.519 116.305 470.771 116.157C471.03 116.009 471.31 115.935 471.611 115.935C471.919 115.935 472.199 116.009 472.451 116.157C472.704 116.305 472.904 116.505 473.051 116.757C473.199 117.009 473.273 117.283 473.273 117.578C473.273 117.88 473.199 118.16 473.051 118.418C472.91 118.671 472.71 118.871 472.451 119.018C472.199 119.172 471.919 119.249 471.611 119.249C471.304 119.249 471.024 119.172 470.771 119.018C470.519 118.871 470.319 118.671 470.171 118.418C470.024 118.16 469.95 117.88 469.95 117.578ZM494.64 108.218H492.61L492.84 111.865L489.453 110.535L488.834 112.437L492.36 113.351L490.043 116.175L491.659 117.338L493.625 114.274L495.591 117.338L497.207 116.175L494.89 113.351L498.416 112.437L497.797 110.535L494.41 111.865L494.64 108.218ZM505.643 108.218H503.612L503.843 111.865L500.455 110.535L499.836 112.437L503.363 113.351L501.046 116.175L502.661 117.338L504.627 114.274L506.593 117.338L508.209 116.175L505.892 113.351L509.418 112.437L508.8 110.535L505.412 111.865L505.643 108.218ZM516.645 108.218H514.614L514.845 111.865L511.457 110.535L510.839 112.437L514.365 113.351L512.048 116.175L513.663 117.338L515.629 114.274L517.596 117.338L519.211 116.175L516.894 113.351L520.42 112.437L519.802 110.535L516.414 111.865L516.645 108.218ZM527.647 108.218H525.616L525.847 111.865L522.459 110.535L521.841 112.437L525.367 113.351L523.05 116.175L524.666 117.338L526.632 114.274L528.598 117.338L530.213 116.175L527.896 113.351L531.422 112.437L530.804 110.535L527.416 111.865L527.647 108.218ZM538.649 108.218H536.618L536.849 111.865L533.462 110.535L532.843 112.437L536.369 113.351L534.052 116.175L535.668 117.338L537.634 114.274L539.6 117.338L541.215 116.175L538.898 113.351L542.425 112.437L541.806 110.535L538.418 111.865L538.649 108.218ZM64.0215 128.003C64.8646 128.003 65.5908 128.163 66.2 128.483C66.8092 128.797 67.2738 129.228 67.5938 129.775C67.9138 130.317 68.0738 130.926 68.0738 131.603C68.0738 132.348 67.8985 133.074 67.5477 133.782C67.2031 134.489 66.6431 135.271 65.8677 136.126C65.0923 136.982 63.9969 138.052 62.5815 139.338H68.3692L68.1292 141H60.2092V139.431C61.8092 137.892 63.0031 136.689 63.7908 135.822C64.5785 134.954 65.1323 134.215 65.4523 133.606C65.7723 132.991 65.9323 132.366 65.9323 131.732C65.9323 131.086 65.7508 130.582 65.3877 130.218C65.0246 129.849 64.52 129.665 63.8738 129.665C63.3138 129.665 62.84 129.769 62.4523 129.978C62.0646 130.182 61.68 130.52 61.2985 130.994L59.9508 129.969C60.4615 129.317 61.0431 128.828 61.6954 128.502C62.3477 128.169 63.1231 128.003 64.0215 128.003ZM75.5407 128.003C76.4822 128.003 77.2761 128.262 77.9222 128.778C78.5684 129.289 79.0545 130.04 79.3807 131.031C79.713 132.015 79.8791 133.209 79.8791 134.612C79.8791 136.022 79.713 137.222 79.3807 138.212C79.0545 139.203 78.5684 139.957 77.9222 140.474C77.2761 140.991 76.4822 141.249 75.5407 141.249C74.1191 141.249 73.0391 140.677 72.3007 139.532C71.5684 138.388 71.2022 136.748 71.2022 134.612C71.2022 132.489 71.5684 130.858 72.3007 129.72C73.0391 128.575 74.1191 128.003 75.5407 128.003ZM75.5407 129.582C74.7899 129.582 74.2207 129.985 73.833 130.791C73.4514 131.591 73.2607 132.865 73.2607 134.612C73.2607 135.917 73.3376 136.935 73.4914 137.668L77.1007 130.329C76.9222 130.065 76.7068 129.874 76.4545 129.757C76.2022 129.64 75.8976 129.582 75.5407 129.582ZM75.5407 139.671C76.2976 139.671 76.8668 139.271 77.2484 138.471C77.6299 137.671 77.8207 136.385 77.8207 134.612C77.8207 133.406 77.7561 132.468 77.6268 131.797L74.073 139.052C74.2514 139.268 74.4607 139.425 74.7007 139.523C74.9407 139.622 75.2207 139.671 75.5407 139.671ZM86.026 128.003C86.8691 128.003 87.5952 128.163 88.2044 128.483C88.8137 128.797 89.2783 129.228 89.5983 129.775C89.9183 130.317 90.0783 130.926 90.0783 131.603C90.0783 132.348 89.9029 133.074 89.5521 133.782C89.2075 134.489 88.6475 135.271 87.8721 136.126C87.0967 136.982 86.0014 138.052 84.586 139.338H90.3737L90.1337 141H82.2137V139.431C83.8137 137.892 85.0075 136.689 85.7952 135.822C86.5829 134.954 87.1367 134.215 87.4567 133.606C87.7767 132.991 87.9367 132.366 87.9367 131.732C87.9367 131.086 87.7552 130.582 87.3921 130.218C87.0291 129.849 86.5244 129.665 85.8783 129.665C85.3183 129.665 84.8444 129.769 84.4567 129.978C84.0691 130.182 83.6844 130.52 83.3029 130.994L81.9552 129.969C82.466 129.317 83.0475 128.828 83.6998 128.502C84.3521 128.169 85.1275 128.003 86.026 128.003ZM97.5451 128.003C98.4867 128.003 99.2805 128.262 99.9267 128.778C100.573 129.289 101.059 130.04 101.385 131.031C101.717 132.015 101.884 133.209 101.884 134.612C101.884 136.022 101.717 137.222 101.385 138.212C101.059 139.203 100.573 139.957 99.9267 140.474C99.2805 140.991 98.4867 141.249 97.5451 141.249C96.1236 141.249 95.0436 140.677 94.3051 139.532C93.5728 138.388 93.2067 136.748 93.2067 134.612C93.2067 132.489 93.5728 130.858 94.3051 129.72C95.0436 128.575 96.1236 128.003 97.5451 128.003ZM97.5451 129.582C96.7943 129.582 96.2251 129.985 95.8374 130.791C95.4559 131.591 95.2651 132.865 95.2651 134.612C95.2651 135.917 95.342 136.935 95.4959 137.668L99.1051 130.329C98.9267 130.065 98.7113 129.874 98.459 129.757C98.2067 129.64 97.902 129.582 97.5451 129.582ZM97.5451 139.671C98.302 139.671 98.8713 139.271 99.2528 138.471C99.6343 137.671 99.8251 136.385 99.8251 134.612C99.8251 133.406 99.7605 132.468 99.6313 131.797L96.0774 139.052C96.2559 139.268 96.4651 139.425 96.7051 139.523C96.9451 139.622 97.2251 139.671 97.5451 139.671ZM113.283 126.775L105.455 142.966L103.812 142.228L111.658 126.009L113.283 126.775ZM121.248 128.262V139.375H123.796V141H116.088V139.375H119.199V130.385L116.393 132.111L115.506 130.662L119.42 128.262H121.248ZM130.035 128.003C130.878 128.003 131.604 128.163 132.213 128.483C132.823 128.797 133.287 129.228 133.607 129.775C133.927 130.317 134.087 130.926 134.087 131.603C134.087 132.348 133.912 133.074 133.561 133.782C133.216 134.489 132.656 135.271 131.881 136.126C131.106 136.982 130.01 138.052 128.595 139.338H134.383L134.143 141H126.223V139.431C127.823 137.892 129.016 136.689 129.804 135.822C130.592 134.954 131.146 134.215 131.466 133.606C131.786 132.991 131.946 132.366 131.946 131.732C131.946 131.086 131.764 130.582 131.401 130.218C131.038 129.849 130.533 129.665 129.887 129.665C129.327 129.665 128.853 129.769 128.466 129.978C128.078 130.182 127.693 130.52 127.312 130.994L125.964 129.969C126.475 129.317 127.056 128.828 127.709 128.502C128.361 128.169 129.136 128.003 130.035 128.003ZM146.289 126.775L138.462 142.966L136.819 142.228L144.665 126.009L146.289 126.775ZM152.039 128.003C152.882 128.003 153.609 128.163 154.218 128.483C154.827 128.797 155.292 129.228 155.612 129.775C155.932 130.317 156.092 130.926 156.092 131.603C156.092 132.348 155.916 133.074 155.565 133.782C155.221 134.489 154.661 135.271 153.885 136.126C153.11 136.982 152.015 138.052 150.599 139.338H156.387L156.147 141H148.227V139.431C149.827 137.892 151.021 136.689 151.809 135.822C152.596 134.954 153.15 134.215 153.47 133.606C153.79 132.991 153.95 132.366 153.95 131.732C153.95 131.086 153.769 130.582 153.405 130.218C153.042 129.849 152.538 129.665 151.892 129.665C151.332 129.665 150.858 129.769 150.47 129.978C150.082 130.182 149.698 130.52 149.316 130.994L147.969 129.969C148.479 129.317 149.061 128.828 149.713 128.502C150.365 128.169 151.141 128.003 152.039 128.003ZM163.005 128.003C163.823 128.003 164.54 128.148 165.155 128.437C165.771 128.726 166.245 129.117 166.577 129.609C166.909 130.095 167.075 130.634 167.075 131.225C167.075 131.735 166.965 132.197 166.743 132.609C166.528 133.022 166.229 133.366 165.848 133.643C165.466 133.92 165.032 134.114 164.546 134.225C165.1 134.28 165.595 134.431 166.032 134.677C166.475 134.923 166.826 135.274 167.085 135.729C167.349 136.178 167.482 136.723 167.482 137.363C167.482 138.089 167.291 138.748 166.909 139.338C166.528 139.929 165.986 140.397 165.285 140.742C164.583 141.08 163.777 141.249 162.866 141.249C162.042 141.249 161.269 141.098 160.549 140.797C159.835 140.495 159.232 140.052 158.74 139.468L160.005 138.36C160.362 138.772 160.78 139.083 161.26 139.292C161.74 139.502 162.245 139.606 162.774 139.606C163.568 139.606 164.192 139.4 164.648 138.988C165.109 138.575 165.34 138.009 165.34 137.289C165.34 136.502 165.125 135.935 164.694 135.591C164.263 135.24 163.66 135.065 162.885 135.065H161.786L162.026 133.542H162.802C163.214 133.542 163.589 133.468 163.928 133.32C164.266 133.166 164.534 132.938 164.731 132.637C164.934 132.335 165.035 131.966 165.035 131.529C165.035 131.129 164.94 130.785 164.749 130.495C164.558 130.2 164.297 129.978 163.965 129.831C163.632 129.677 163.257 129.6 162.838 129.6C162.322 129.6 161.857 129.695 161.445 129.886C161.032 130.071 160.617 130.357 160.198 130.745L159.1 129.572C160.202 128.526 161.503 128.003 163.005 128.003ZM185.563 128.003C186.504 128.003 187.298 128.262 187.944 128.778C188.591 129.289 189.077 130.04 189.403 131.031C189.735 132.015 189.901 133.209 189.901 134.612C189.901 136.022 189.735 137.222 189.403 138.212C189.077 139.203 188.591 139.957 187.944 140.474C187.298 140.991 186.504 141.249 185.563 141.249C184.141 141.249 183.061 140.677 182.323 139.532C181.591 138.388 181.224 136.748 181.224 134.612C181.224 132.489 181.591 130.858 182.323 129.72C183.061 128.575 184.141 128.003 185.563 128.003ZM185.563 129.582C184.812 129.582 184.243 129.985 183.855 130.791C183.474 131.591 183.283 132.865 183.283 134.612C183.283 135.917 183.36 136.935 183.514 137.668L187.123 130.329C186.944 130.065 186.729 129.874 186.477 129.757C186.224 129.64 185.92 129.582 185.563 129.582ZM185.563 139.671C186.32 139.671 186.889 139.271 187.271 138.471C187.652 137.671 187.843 136.385 187.843 134.612C187.843 133.406 187.778 132.468 187.649 131.797L184.095 139.052C184.274 139.268 184.483 139.425 184.723 139.523C184.963 139.622 185.243 139.671 185.563 139.671ZM196.417 128.022C197.365 128.022 198.165 128.234 198.817 128.658C199.47 129.077 199.959 129.674 200.285 130.449C200.611 131.218 200.774 132.129 200.774 133.182C200.774 134.855 200.525 136.225 200.027 137.289C199.534 138.348 198.771 139.2 197.737 139.846C196.71 140.486 195.334 141.022 193.611 141.452L193.159 139.938C194.31 139.625 195.26 139.258 196.011 138.84C196.762 138.422 197.35 137.908 197.774 137.298C198.205 136.689 198.473 135.951 198.577 135.083C198.177 135.514 197.744 135.846 197.276 136.08C196.814 136.314 196.297 136.431 195.725 136.431C195.03 136.431 194.408 136.265 193.86 135.932C193.313 135.6 192.882 135.126 192.568 134.511C192.254 133.895 192.097 133.178 192.097 132.36C192.097 131.468 192.285 130.695 192.66 130.043C193.042 129.385 193.559 128.883 194.211 128.538C194.864 128.194 195.599 128.022 196.417 128.022ZM196.242 134.889C196.71 134.889 197.134 134.782 197.516 134.566C197.897 134.351 198.27 134.028 198.633 133.597C198.627 132.637 198.55 131.868 198.402 131.289C198.26 130.705 198.027 130.277 197.7 130.006C197.38 129.729 196.95 129.591 196.408 129.591C195.694 129.591 195.147 129.825 194.765 130.292C194.39 130.754 194.202 131.443 194.202 132.36C194.202 133.228 194.38 133.868 194.737 134.28C195.1 134.686 195.602 134.889 196.242 134.889ZM205.897 131.548C205.897 131.252 205.97 130.978 206.118 130.726C206.266 130.468 206.466 130.265 206.718 130.117C206.97 129.969 207.25 129.895 207.558 129.895C207.866 129.895 208.146 129.969 208.398 130.117C208.65 130.265 208.85 130.468 208.998 130.726C209.146 130.978 209.22 131.252 209.22 131.548C209.22 131.849 209.146 132.129 208.998 132.388C208.85 132.64 208.65 132.843 208.398 132.997C208.146 133.145 207.866 133.218 207.558 133.218C207.25 133.218 206.97 133.145 206.718 132.997C206.466 132.843 206.266 132.64 206.118 132.388C205.97 132.129 205.897 131.849 205.897 131.548ZM205.897 138.102C205.897 137.806 205.97 137.532 206.118 137.28C206.266 137.028 206.466 136.828 206.718 136.68C206.977 136.532 207.257 136.458 207.558 136.458C207.866 136.458 208.146 136.532 208.398 136.68C208.65 136.828 208.85 137.028 208.998 137.28C209.146 137.532 209.22 137.806 209.22 138.102C209.22 138.403 209.146 138.683 208.998 138.942C208.857 139.194 208.657 139.397 208.398 139.551C208.146 139.698 207.866 139.772 207.558 139.772C207.25 139.772 206.97 139.698 206.718 139.551C206.466 139.397 206.266 139.194 206.118 138.942C205.97 138.683 205.897 138.403 205.897 138.102ZM222.216 128.262L221.948 129.812H217.056V133.357C217.4 133.178 217.742 133.052 218.08 132.978C218.419 132.898 218.773 132.858 219.142 132.858C219.825 132.858 220.431 133.022 220.96 133.348C221.496 133.668 221.911 134.132 222.206 134.742C222.508 135.351 222.659 136.074 222.659 136.911C222.659 137.76 222.468 138.514 222.086 139.172C221.711 139.825 221.176 140.335 220.48 140.705C219.791 141.068 218.994 141.249 218.09 141.249C216.533 141.249 215.231 140.692 214.185 139.578L215.422 138.415C216.136 139.209 216.997 139.606 218.006 139.606C218.788 139.606 219.4 139.369 219.843 138.895C220.286 138.422 220.508 137.757 220.508 136.902C220.508 136.015 220.32 135.375 219.945 134.982C219.576 134.582 219.071 134.382 218.431 134.382C218.117 134.382 217.822 134.415 217.545 134.483C217.268 134.551 216.954 134.658 216.603 134.806H215.08V128.262H222.216ZM232.452 136.458H233.966V138.065H232.452V141H230.467L230.458 138.065H225.169V136.625L228.833 128.003L230.578 128.695L227.329 136.458H230.467L230.716 133.052H232.452V136.458ZM238.903 131.548C238.903 131.252 238.977 130.978 239.125 130.726C239.272 130.468 239.472 130.265 239.725 130.117C239.977 129.969 240.257 129.895 240.565 129.895C240.872 129.895 241.152 129.969 241.405 130.117C241.657 130.265 241.857 130.468 242.005 130.726C242.152 130.978 242.226 131.252 242.226 131.548C242.226 131.849 242.152 132.129 242.005 132.388C241.857 132.64 241.657 132.843 241.405 132.997C241.152 133.145 240.872 133.218 240.565 133.218C240.257 133.218 239.977 133.145 239.725 132.997C239.472 132.843 239.272 132.64 239.125 132.388C238.977 132.129 238.903 131.849 238.903 131.548ZM238.903 138.102C238.903 137.806 238.977 137.532 239.125 137.28C239.272 137.028 239.472 136.828 239.725 136.68C239.983 136.532 240.263 136.458 240.565 136.458C240.872 136.458 241.152 136.532 241.405 136.68C241.657 136.828 241.857 137.028 242.005 137.28C242.152 137.532 242.226 137.806 242.226 138.102C242.226 138.403 242.152 138.683 242.005 138.942C241.863 139.194 241.663 139.397 241.405 139.551C241.152 139.698 240.872 139.772 240.565 139.772C240.257 139.772 239.977 139.698 239.725 139.551C239.472 139.397 239.272 139.194 239.125 138.942C238.977 138.683 238.903 138.403 238.903 138.102ZM251.022 128.003C251.841 128.003 252.558 128.148 253.173 128.437C253.788 128.726 254.262 129.117 254.595 129.609C254.927 130.095 255.093 130.634 255.093 131.225C255.093 131.735 254.982 132.197 254.761 132.609C254.545 133.022 254.247 133.366 253.865 133.643C253.484 133.92 253.05 134.114 252.564 134.225C253.118 134.28 253.613 134.431 254.05 134.677C254.493 134.923 254.844 135.274 255.102 135.729C255.367 136.178 255.499 136.723 255.499 137.363C255.499 138.089 255.308 138.748 254.927 139.338C254.545 139.929 254.004 140.397 253.302 140.742C252.601 141.08 251.795 141.249 250.884 141.249C250.059 141.249 249.287 141.098 248.567 140.797C247.853 140.495 247.25 140.052 246.758 139.468L248.022 138.36C248.379 138.772 248.798 139.083 249.278 139.292C249.758 139.502 250.262 139.606 250.792 139.606C251.585 139.606 252.21 139.4 252.665 138.988C253.127 138.575 253.358 138.009 253.358 137.289C253.358 136.502 253.142 135.935 252.712 135.591C252.281 135.24 251.678 135.065 250.902 135.065H249.804L250.044 133.542H250.819C251.232 133.542 251.607 133.468 251.945 133.32C252.284 133.166 252.552 132.938 252.748 132.637C252.952 132.335 253.053 131.966 253.053 131.529C253.053 131.129 252.958 130.785 252.767 130.495C252.576 130.2 252.315 129.978 251.982 129.831C251.65 129.677 251.275 129.6 250.856 129.6C250.339 129.6 249.875 129.695 249.462 129.886C249.05 130.071 248.635 130.357 248.216 130.745L247.118 129.572C248.219 128.526 249.521 128.003 251.022 128.003ZM264.277 128.262V139.375H266.825V141H259.117V139.375H262.228V130.385L259.421 132.111L258.535 130.662L262.449 128.262H264.277ZM285.654 128.003C286.484 128.003 287.198 128.111 287.795 128.326C288.392 128.535 288.958 128.862 289.494 129.305L288.377 130.634C287.62 130.006 286.746 129.692 285.755 129.692C285.084 129.692 284.484 129.858 283.955 130.191C283.426 130.523 283.004 131.055 282.691 131.788C282.383 132.52 282.229 133.462 282.229 134.612C282.229 136.286 282.549 137.523 283.189 138.323C283.829 139.117 284.684 139.514 285.755 139.514C286.371 139.514 286.9 139.418 287.343 139.228C287.786 139.031 288.22 138.76 288.644 138.415L289.678 139.735C289.211 140.197 288.644 140.566 287.98 140.843C287.321 141.114 286.555 141.249 285.681 141.249C284.586 141.249 283.611 140.994 282.755 140.483C281.9 139.966 281.226 139.209 280.734 138.212C280.247 137.215 280.004 136.015 280.004 134.612C280.004 133.228 280.254 132.037 280.752 131.04C281.251 130.043 281.927 129.289 282.783 128.778C283.644 128.262 284.601 128.003 285.654 128.003ZM298.604 131.003C298.874 131.003 299.124 131.025 299.351 131.068C299.579 131.111 299.819 131.172 300.071 131.252L299.72 134.843H298.244V132.858C297.56 132.883 296.97 133.157 296.471 133.68C295.973 134.197 295.576 134.938 295.28 135.905V139.523H297.247V141H291.782V139.523H293.213V132.72H291.782V131.252H294.791L295.17 133.514C295.545 132.671 296.004 132.043 296.545 131.631C297.093 131.212 297.779 131.003 298.604 131.003ZM304.409 136.791C304.464 137.745 304.732 138.458 305.212 138.932C305.698 139.406 306.317 139.643 307.067 139.643C307.529 139.643 307.963 139.572 308.369 139.431C308.775 139.289 309.193 139.077 309.624 138.794L310.52 140.031C310.058 140.412 309.52 140.711 308.904 140.926C308.289 141.142 307.643 141.249 306.966 141.249C305.975 141.249 305.126 141.037 304.418 140.612C303.71 140.182 303.175 139.582 302.812 138.812C302.449 138.043 302.267 137.151 302.267 136.135C302.267 135.157 302.446 134.28 302.803 133.505C303.166 132.723 303.683 132.111 304.353 131.668C305.024 131.218 305.812 130.994 306.717 130.994C307.572 130.994 308.313 131.191 308.941 131.585C309.575 131.972 310.061 132.532 310.4 133.265C310.744 133.997 310.917 134.865 310.917 135.868C310.917 136.206 310.901 136.514 310.87 136.791H304.409ZM306.735 132.526C306.064 132.526 305.523 132.766 305.11 133.246C304.698 133.72 304.461 134.431 304.4 135.378H308.913C308.895 134.462 308.698 133.757 308.323 133.265C307.947 132.772 307.418 132.526 306.735 132.526ZM321.143 138.609C321.143 138.985 321.199 139.262 321.309 139.44C321.426 139.618 321.617 139.751 321.882 139.837L321.42 141.24C320.922 141.185 320.503 141.049 320.165 140.834C319.826 140.618 319.571 140.305 319.399 139.892C319.048 140.335 318.602 140.674 318.06 140.908C317.519 141.135 316.928 141.249 316.288 141.249C315.636 141.249 315.066 141.123 314.58 140.871C314.1 140.618 313.731 140.265 313.473 139.809C313.214 139.354 313.085 138.825 313.085 138.222C313.085 137.194 313.485 136.403 314.285 135.849C315.091 135.295 316.236 135.018 317.719 135.018H319.113V134.382C319.113 133.766 318.928 133.317 318.559 133.034C318.189 132.751 317.651 132.609 316.943 132.609C316.605 132.609 316.208 132.652 315.753 132.738C315.297 132.825 314.829 132.951 314.349 133.117L313.842 131.658C314.433 131.437 315.02 131.271 315.605 131.16C316.189 131.049 316.74 130.994 317.257 130.994C318.543 130.994 319.513 131.277 320.165 131.843C320.817 132.409 321.143 133.215 321.143 134.262V138.609ZM316.916 139.726C317.34 139.726 317.749 139.615 318.143 139.394C318.543 139.166 318.866 138.855 319.113 138.462V136.311H317.968C317.026 136.311 316.337 136.468 315.9 136.782C315.469 137.089 315.254 137.538 315.254 138.129C315.254 138.652 315.393 139.049 315.669 139.32C315.953 139.591 316.368 139.726 316.916 139.726ZM332.838 140.483C332.475 140.717 332.041 140.902 331.536 141.037C331.038 141.178 330.524 141.249 329.995 141.249C329.25 141.249 328.619 141.117 328.102 140.852C327.586 140.588 327.195 140.215 326.93 139.735C326.666 139.255 326.533 138.692 326.533 138.046V132.757H324.364V131.252H326.533V129.074L328.601 128.825V131.252H331.887L331.656 132.757H328.601V138.028C328.601 138.557 328.733 138.948 328.998 139.2C329.262 139.452 329.69 139.578 330.281 139.578C330.933 139.578 331.536 139.425 332.09 139.117L332.838 140.483ZM337.415 136.791C337.471 137.745 337.739 138.458 338.219 138.932C338.705 139.406 339.323 139.643 340.074 139.643C340.535 139.643 340.969 139.572 341.375 139.431C341.782 139.289 342.2 139.077 342.631 138.794L343.526 140.031C343.065 140.412 342.526 140.711 341.911 140.926C341.295 141.142 340.649 141.249 339.972 141.249C338.982 141.249 338.132 141.037 337.425 140.612C336.717 140.182 336.182 139.582 335.819 138.812C335.455 138.043 335.274 137.151 335.274 136.135C335.274 135.157 335.452 134.28 335.809 133.505C336.172 132.723 336.689 132.111 337.36 131.668C338.031 131.218 338.819 130.994 339.723 130.994C340.579 130.994 341.32 131.191 341.948 131.585C342.582 131.972 343.068 132.532 343.406 133.265C343.751 133.997 343.923 134.865 343.923 135.868C343.923 136.206 343.908 136.514 343.877 136.791H337.415ZM339.742 132.526C339.071 132.526 338.529 132.766 338.117 133.246C337.705 133.72 337.468 134.431 337.406 135.378H341.92C341.902 134.462 341.705 133.757 341.329 133.265C340.954 132.772 340.425 132.526 339.742 132.526ZM352.424 127.108L354.492 127.338V141H352.673L352.525 139.8C352.193 140.268 351.793 140.628 351.325 140.88C350.864 141.126 350.35 141.249 349.784 141.249C348.572 141.249 347.658 140.794 347.042 139.883C346.427 138.966 346.119 137.714 346.119 136.126C346.119 135.135 346.273 134.252 346.581 133.477C346.888 132.702 347.332 132.095 347.91 131.658C348.495 131.215 349.181 130.994 349.968 130.994C350.965 130.994 351.784 131.348 352.424 132.055V127.108ZM350.513 132.582C349.799 132.582 349.252 132.874 348.87 133.458C348.495 134.043 348.307 134.932 348.307 136.126C348.307 138.483 348.981 139.662 350.328 139.662C351.135 139.662 351.833 139.2 352.424 138.277V133.662C352.178 133.311 351.895 133.043 351.575 132.858C351.255 132.674 350.901 132.582 350.513 132.582ZM374.428 127.108L376.496 127.338V141H374.678L374.53 139.8C374.198 140.268 373.798 140.628 373.33 140.88C372.868 141.126 372.354 141.249 371.788 141.249C370.576 141.249 369.662 140.794 369.047 139.883C368.431 138.966 368.124 137.714 368.124 136.126C368.124 135.135 368.278 134.252 368.585 133.477C368.893 132.702 369.336 132.095 369.914 131.658C370.499 131.215 371.185 130.994 371.973 130.994C372.97 130.994 373.788 131.348 374.428 132.055V127.108ZM372.518 132.582C371.804 132.582 371.256 132.874 370.874 133.458C370.499 134.043 370.311 134.932 370.311 136.126C370.311 138.483 370.985 139.662 372.333 139.662C373.139 139.662 373.838 139.2 374.428 138.277V133.662C374.182 133.311 373.899 133.043 373.579 132.858C373.259 132.674 372.905 132.582 372.518 132.582ZM383.594 126.48C383.994 126.48 384.32 126.603 384.572 126.849C384.824 127.095 384.95 127.403 384.95 127.772C384.95 128.148 384.824 128.462 384.572 128.714C384.32 128.96 383.994 129.083 383.594 129.083C383.2 129.083 382.877 128.96 382.624 128.714C382.372 128.462 382.246 128.148 382.246 127.772C382.246 127.403 382.372 127.095 382.624 126.849C382.877 126.603 383.2 126.48 383.594 126.48ZM380.141 131.252H385.034V139.486H387.683V141H380.049V139.486H382.966V132.766H380.141V131.252ZM397.623 131.003C397.894 131.003 398.143 131.025 398.371 131.068C398.599 131.111 398.839 131.172 399.091 131.252L398.74 134.843H397.263V132.858C396.58 132.883 395.99 133.157 395.491 133.68C394.993 134.197 394.596 134.938 394.3 135.905V139.523H396.267V141H390.802V139.523H392.233V132.72H390.802V131.252H393.811L394.19 133.514C394.565 132.671 395.023 132.043 395.565 131.631C396.113 131.212 396.799 131.003 397.623 131.003ZM403.429 136.791C403.484 137.745 403.752 138.458 404.232 138.932C404.718 139.406 405.336 139.643 406.087 139.643C406.549 139.643 406.983 139.572 407.389 139.431C407.795 139.289 408.213 139.077 408.644 138.794L409.54 140.031C409.078 140.412 408.54 140.711 407.924 140.926C407.309 141.142 406.663 141.249 405.986 141.249C404.995 141.249 404.146 141.037 403.438 140.612C402.73 140.182 402.195 139.582 401.832 138.812C401.469 138.043 401.287 137.151 401.287 136.135C401.287 135.157 401.466 134.28 401.823 133.505C402.186 132.723 402.703 132.111 403.373 131.668C404.044 131.218 404.832 130.994 405.736 130.994C406.592 130.994 407.333 131.191 407.961 131.585C408.595 131.972 409.081 132.532 409.42 133.265C409.764 133.997 409.936 134.865 409.936 135.868C409.936 136.206 409.921 136.514 409.89 136.791H403.429ZM405.755 132.526C405.084 132.526 404.543 132.766 404.13 133.246C403.718 133.72 403.481 134.431 403.42 135.378H407.933C407.915 134.462 407.718 133.757 407.343 133.265C406.967 132.772 406.438 132.526 405.755 132.526ZM417.413 139.551C417.843 139.551 418.253 139.477 418.64 139.329C419.034 139.182 419.425 138.972 419.813 138.702L420.773 140.031C420.336 140.4 419.813 140.695 419.203 140.917C418.6 141.138 417.982 141.249 417.348 141.249C416.363 141.249 415.514 141.04 414.8 140.622C414.086 140.203 413.542 139.612 413.166 138.849C412.791 138.08 412.603 137.188 412.603 136.172C412.603 135.175 412.794 134.286 413.176 133.505C413.557 132.723 414.108 132.111 414.828 131.668C415.554 131.218 416.406 130.994 417.385 130.994C418.689 130.994 419.816 131.385 420.763 132.166L419.813 133.468C419.025 132.926 418.228 132.655 417.422 132.655C416.616 132.655 415.976 132.948 415.502 133.532C415.034 134.117 414.8 134.997 414.8 136.172C414.8 137.335 415.034 138.191 415.502 138.738C415.969 139.28 416.606 139.551 417.413 139.551ZM431.858 140.483C431.495 140.717 431.061 140.902 430.556 141.037C430.058 141.178 429.544 141.249 429.015 141.249C428.27 141.249 427.639 141.117 427.122 140.852C426.606 140.588 426.215 140.215 425.95 139.735C425.686 139.255 425.553 138.692 425.553 138.046V132.757H423.384V131.252H425.553V129.074L427.621 128.825V131.252H430.907L430.676 132.757H427.621V138.028C427.621 138.557 427.753 138.948 428.018 139.2C428.282 139.452 428.71 139.578 429.301 139.578C429.953 139.578 430.556 139.425 431.11 139.117L431.858 140.483ZM438.623 130.994C439.559 130.994 440.355 131.203 441.014 131.622C441.672 132.04 442.171 132.634 442.509 133.403C442.848 134.166 443.017 135.068 443.017 136.108C443.017 137.142 442.845 138.046 442.5 138.822C442.155 139.591 441.654 140.188 440.995 140.612C440.337 141.037 439.543 141.249 438.614 141.249C437.679 141.249 436.882 141.043 436.223 140.631C435.565 140.218 435.063 139.628 434.719 138.858C434.38 138.089 434.211 137.178 434.211 136.126C434.211 135.111 434.383 134.215 434.728 133.44C435.072 132.665 435.574 132.065 436.232 131.64C436.897 131.209 437.694 130.994 438.623 130.994ZM438.623 132.6C437.872 132.6 437.309 132.889 436.934 133.468C436.565 134.04 436.38 134.926 436.38 136.126C436.38 137.326 436.565 138.215 436.934 138.794C437.303 139.366 437.863 139.652 438.614 139.652C439.365 139.652 439.925 139.366 440.294 138.794C440.663 138.215 440.848 137.32 440.848 136.108C440.848 134.914 440.663 134.031 440.294 133.458C439.925 132.886 439.368 132.6 438.623 132.6ZM452.635 131.003C452.905 131.003 453.155 131.025 453.382 131.068C453.61 131.111 453.85 131.172 454.102 131.252L453.752 134.843H452.275V132.858C451.592 132.883 451.001 133.157 450.502 133.68C450.004 134.197 449.607 134.938 449.312 135.905V139.523H451.278V141H445.813V139.523H447.244V132.72H445.813V131.252H448.822L449.201 133.514C449.576 132.671 450.035 132.043 450.576 131.631C451.124 131.212 451.81 131.003 452.635 131.003ZM461.892 141.037C461.492 142.225 460.92 143.151 460.175 143.815C459.437 144.486 458.418 144.877 457.12 144.988L456.852 143.437C457.498 143.338 458.015 143.188 458.403 142.985C458.797 142.788 459.108 142.532 459.335 142.218C459.569 141.911 459.781 141.505 459.972 141H459.271L455.984 131.252H458.181L460.637 139.56L463.129 131.252H465.252L461.892 141.037ZM68.7846 162.483C68.4215 162.717 67.9877 162.902 67.4831 163.037C66.9846 163.178 66.4708 163.249 65.9415 163.249C65.1969 163.249 64.5662 163.117 64.0492 162.852C63.5323 162.588 63.1415 162.215 62.8769 161.735C62.6123 161.255 62.48 160.692 62.48 160.046V154.757H60.3108V153.252H62.48V151.074L64.5477 150.825V153.252H67.8338L67.6031 154.757H64.5477V160.028C64.5477 160.557 64.68 160.948 64.9446 161.2C65.2092 161.452 65.6369 161.578 66.2277 161.578C66.88 161.578 67.4831 161.425 68.0369 161.117L68.7846 162.483ZM75.5499 152.994C76.4853 152.994 77.2822 153.203 77.9407 153.622C78.5991 154.04 79.0976 154.634 79.4361 155.403C79.7745 156.166 79.9438 157.068 79.9438 158.108C79.9438 159.142 79.7714 160.046 79.4268 160.822C79.0822 161.591 78.5807 162.188 77.9222 162.612C77.2638 163.037 76.4699 163.249 75.5407 163.249C74.6053 163.249 73.8084 163.043 73.1499 162.631C72.4914 162.218 71.9899 161.628 71.6453 160.858C71.3068 160.089 71.1376 159.178 71.1376 158.126C71.1376 157.111 71.3099 156.215 71.6545 155.44C71.9991 154.665 72.5007 154.065 73.1591 153.64C73.8238 153.209 74.6207 152.994 75.5499 152.994ZM75.5499 154.6C74.7991 154.6 74.2361 154.889 73.8607 155.468C73.4914 156.04 73.3068 156.926 73.3068 158.126C73.3068 159.326 73.4914 160.215 73.8607 160.794C74.2299 161.366 74.7899 161.652 75.5407 161.652C76.2914 161.652 76.8514 161.366 77.2207 160.794C77.5899 160.215 77.7745 159.32 77.7745 158.108C77.7745 156.914 77.5899 156.031 77.2207 155.458C76.8514 154.886 76.2945 154.6 75.5499 154.6ZM97.1943 161.662C97.8467 161.662 98.3605 161.548 98.7359 161.32C99.1174 161.086 99.3082 160.766 99.3082 160.36C99.3082 160.077 99.2497 159.846 99.1328 159.668C99.022 159.489 98.8005 159.323 98.4682 159.169C98.1359 159.009 97.6343 158.843 96.9636 158.671C96.262 158.492 95.6805 158.289 95.219 158.062C94.7574 157.828 94.3974 157.529 94.139 157.166C93.8867 156.797 93.7605 156.338 93.7605 155.791C93.7605 155.237 93.9174 154.751 94.2313 154.332C94.5513 153.908 95.0036 153.578 95.5882 153.345C96.179 153.111 96.8682 152.994 97.6559 152.994C99.102 152.994 100.336 153.369 101.357 154.12L100.49 155.422C100.077 155.151 99.6436 154.942 99.1882 154.794C98.739 154.64 98.2467 154.563 97.7113 154.563C96.4805 154.563 95.8651 154.923 95.8651 155.643C95.8651 155.889 95.9359 156.092 96.0774 156.252C96.219 156.406 96.459 156.554 96.7974 156.695C97.142 156.831 97.659 156.994 98.3482 157.185C99.0497 157.382 99.6251 157.597 100.074 157.831C100.524 158.065 100.871 158.372 101.117 158.754C101.37 159.135 101.496 159.625 101.496 160.222C101.496 160.892 101.299 161.455 100.905 161.911C100.511 162.366 99.9882 162.705 99.3359 162.926C98.6897 163.142 97.9759 163.249 97.1943 163.249C96.339 163.249 95.579 163.126 94.9143 162.88C94.2497 162.634 93.6743 162.298 93.1882 161.874L94.2867 160.618C94.6805 160.945 95.1236 161.2 95.6159 161.385C96.1143 161.569 96.6405 161.662 97.1943 161.662ZM112.793 162.483C112.43 162.717 111.997 162.902 111.492 163.037C110.993 163.178 110.48 163.249 109.95 163.249C109.206 163.249 108.575 163.117 108.058 162.852C107.541 162.588 107.15 162.215 106.886 161.735C106.621 161.255 106.489 160.692 106.489 160.046V154.757H104.32V153.252H106.489V151.074L108.557 150.825V153.252H111.843L111.612 154.757H108.557V160.028C108.557 160.557 108.689 160.948 108.953 161.2C109.218 161.452 109.646 161.578 110.237 161.578C110.889 161.578 111.492 161.425 112.046 161.117L112.793 162.483ZM119.559 152.994C120.494 152.994 121.291 153.203 121.95 153.622C122.608 154.04 123.106 154.634 123.445 155.403C123.783 156.166 123.953 157.068 123.953 158.108C123.953 159.142 123.78 160.046 123.436 160.822C123.091 161.591 122.59 162.188 121.931 162.612C121.273 163.037 120.479 163.249 119.55 163.249C118.614 163.249 117.817 163.043 117.159 162.631C116.5 162.218 115.999 161.628 115.654 160.858C115.316 160.089 115.146 159.178 115.146 158.126C115.146 157.111 115.319 156.215 115.663 155.44C116.008 154.665 116.51 154.065 117.168 153.64C117.833 153.209 118.63 152.994 119.559 152.994ZM119.559 154.6C118.808 154.6 118.245 154.889 117.87 155.468C117.5 156.04 117.316 156.926 117.316 158.126C117.316 159.326 117.5 160.215 117.87 160.794C118.239 161.366 118.799 161.652 119.55 161.652C120.3 161.652 120.86 161.366 121.23 160.794C121.599 160.215 121.783 159.32 121.783 158.108C121.783 156.914 121.599 156.031 121.23 155.458C120.86 154.886 120.303 154.6 119.559 154.6ZM133.57 153.003C133.841 153.003 134.09 153.025 134.318 153.068C134.546 153.111 134.786 153.172 135.038 153.252L134.687 156.843H133.21V154.858C132.527 154.883 131.936 155.157 131.438 155.68C130.939 156.197 130.543 156.938 130.247 157.905V161.523H132.213V163H126.749V161.523H128.179V154.72H126.749V153.252H129.758L130.136 155.514C130.512 154.671 130.97 154.043 131.512 153.631C132.059 153.212 132.746 153.003 133.57 153.003ZM139.376 158.791C139.431 159.745 139.699 160.458 140.179 160.932C140.665 161.406 141.283 161.643 142.034 161.643C142.496 161.643 142.929 161.572 143.336 161.431C143.742 161.289 144.16 161.077 144.591 160.794L145.486 162.031C145.025 162.412 144.486 162.711 143.871 162.926C143.256 163.142 142.609 163.249 141.932 163.249C140.942 163.249 140.092 163.037 139.385 162.612C138.677 162.182 138.142 161.582 137.779 160.812C137.416 160.043 137.234 159.151 137.234 158.135C137.234 157.157 137.412 156.28 137.769 155.505C138.132 154.723 138.649 154.111 139.32 153.668C139.991 153.218 140.779 152.994 141.683 152.994C142.539 152.994 143.28 153.191 143.908 153.585C144.542 153.972 145.028 154.532 145.366 155.265C145.711 155.997 145.883 156.865 145.883 157.868C145.883 158.206 145.868 158.514 145.837 158.791H139.376ZM141.702 154.526C141.031 154.526 140.489 154.766 140.077 155.246C139.665 155.72 139.428 156.431 139.366 157.378H143.88C143.862 156.462 143.665 155.757 143.289 155.265C142.914 154.772 142.385 154.526 141.702 154.526ZM164.417 152.994C166.78 152.994 167.962 154.698 167.962 158.108C167.962 159.117 167.817 160.009 167.528 160.785C167.245 161.554 166.82 162.157 166.254 162.594C165.694 163.031 165.011 163.249 164.205 163.249C163.183 163.249 162.358 162.889 161.731 162.169V166.748L159.663 166.978V153.252H161.463L161.592 154.508C161.955 154.009 162.38 153.634 162.866 153.382C163.352 153.123 163.869 152.994 164.417 152.994ZM163.845 154.591C163.414 154.591 163.02 154.72 162.663 154.978C162.312 155.231 162.002 155.566 161.731 155.985V160.545C162.217 161.271 162.86 161.634 163.66 161.634C164.368 161.634 164.9 161.351 165.257 160.785C165.614 160.212 165.792 159.323 165.792 158.117C165.792 156.886 165.632 155.991 165.312 155.431C164.992 154.871 164.503 154.591 163.845 154.591ZM178.114 160.609C178.114 160.985 178.17 161.262 178.281 161.44C178.398 161.618 178.588 161.751 178.853 161.837L178.391 163.24C177.893 163.185 177.474 163.049 177.136 162.834C176.798 162.618 176.542 162.305 176.37 161.892C176.019 162.335 175.573 162.674 175.031 162.908C174.49 163.135 173.899 163.249 173.259 163.249C172.607 163.249 172.038 163.123 171.551 162.871C171.071 162.618 170.702 162.265 170.444 161.809C170.185 161.354 170.056 160.825 170.056 160.222C170.056 159.194 170.456 158.403 171.256 157.849C172.062 157.295 173.207 157.018 174.69 157.018H176.084V156.382C176.084 155.766 175.899 155.317 175.53 155.034C175.161 154.751 174.622 154.609 173.914 154.609C173.576 154.609 173.179 154.652 172.724 154.738C172.268 154.825 171.801 154.951 171.321 155.117L170.813 153.658C171.404 153.437 171.991 153.271 172.576 153.16C173.161 153.049 173.711 152.994 174.228 152.994C175.514 152.994 176.484 153.277 177.136 153.843C177.788 154.409 178.114 155.215 178.114 156.262V160.609ZM173.887 161.726C174.311 161.726 174.721 161.615 175.114 161.394C175.514 161.166 175.838 160.855 176.084 160.462V158.311H174.939C173.998 158.311 173.308 158.468 172.871 158.782C172.441 159.089 172.225 159.538 172.225 160.129C172.225 160.652 172.364 161.049 172.641 161.32C172.924 161.591 173.339 161.726 173.887 161.726ZM185.212 161.662C185.864 161.662 186.378 161.548 186.754 161.32C187.135 161.086 187.326 160.766 187.326 160.36C187.326 160.077 187.267 159.846 187.151 159.668C187.04 159.489 186.818 159.323 186.486 159.169C186.154 159.009 185.652 158.843 184.981 158.671C184.28 158.492 183.698 158.289 183.237 158.062C182.775 157.828 182.415 157.529 182.157 157.166C181.904 156.797 181.778 156.338 181.778 155.791C181.778 155.237 181.935 154.751 182.249 154.332C182.569 153.908 183.021 153.578 183.606 153.345C184.197 153.111 184.886 152.994 185.674 152.994C187.12 152.994 188.354 153.369 189.375 154.12L188.507 155.422C188.095 155.151 187.661 154.942 187.206 154.794C186.757 154.64 186.264 154.563 185.729 154.563C184.498 154.563 183.883 154.923 183.883 155.643C183.883 155.889 183.954 156.092 184.095 156.252C184.237 156.406 184.477 156.554 184.815 156.695C185.16 156.831 185.677 156.994 186.366 157.185C187.067 157.382 187.643 157.597 188.092 157.831C188.541 158.065 188.889 158.372 189.135 158.754C189.387 159.135 189.514 159.625 189.514 160.222C189.514 160.892 189.317 161.455 188.923 161.911C188.529 162.366 188.006 162.705 187.354 162.926C186.707 163.142 185.994 163.249 185.212 163.249C184.357 163.249 183.597 163.126 182.932 162.88C182.267 162.634 181.692 162.298 181.206 161.874L182.304 160.618C182.698 160.945 183.141 161.2 183.634 161.385C184.132 161.569 184.658 161.662 185.212 161.662ZM196.214 161.662C196.867 161.662 197.38 161.548 197.756 161.32C198.137 161.086 198.328 160.766 198.328 160.36C198.328 160.077 198.27 159.846 198.153 159.668C198.042 159.489 197.82 159.323 197.488 159.169C197.156 159.009 196.654 158.843 195.984 158.671C195.282 158.492 194.7 158.289 194.239 158.062C193.777 157.828 193.417 157.529 193.159 157.166C192.907 156.797 192.78 156.338 192.78 155.791C192.78 155.237 192.937 154.751 193.251 154.332C193.571 153.908 194.024 153.578 194.608 153.345C195.199 153.111 195.888 152.994 196.676 152.994C198.122 152.994 199.356 153.369 200.377 154.12L199.51 155.422C199.097 155.151 198.664 154.942 198.208 154.794C197.759 154.64 197.267 154.563 196.731 154.563C195.5 154.563 194.885 154.923 194.885 155.643C194.885 155.889 194.956 156.092 195.097 156.252C195.239 156.406 195.479 156.554 195.817 156.695C196.162 156.831 196.679 156.994 197.368 157.185C198.07 157.382 198.645 157.597 199.094 157.831C199.544 158.065 199.891 158.372 200.137 158.754C200.39 159.135 200.516 159.625 200.516 160.222C200.516 160.892 200.319 161.455 199.925 161.911C199.531 162.366 199.008 162.705 198.356 162.926C197.71 163.142 196.996 163.249 196.214 163.249C195.359 163.249 194.599 163.126 193.934 162.88C193.27 162.634 192.694 162.298 192.208 161.874L193.307 160.618C193.7 160.945 194.144 161.2 194.636 161.385C195.134 161.569 195.66 161.662 196.214 161.662ZM212.884 153.252L211.297 163H208.712L207.613 156.077L206.432 163H203.903L202.25 153.252H204.244L205.26 161.717L206.617 154.489H208.684L209.949 161.717L210.964 153.252H212.884ZM218.579 152.994C219.514 152.994 220.311 153.203 220.97 153.622C221.628 154.04 222.126 154.634 222.465 155.403C222.803 156.166 222.973 157.068 222.973 158.108C222.973 159.142 222.8 160.046 222.456 160.822C222.111 161.591 221.61 162.188 220.951 162.612C220.293 163.037 219.499 163.249 218.57 163.249C217.634 163.249 216.837 163.043 216.179 162.631C215.52 162.218 215.019 161.628 214.674 160.858C214.336 160.089 214.166 159.178 214.166 158.126C214.166 157.111 214.339 156.215 214.683 155.44C215.028 154.665 215.53 154.065 216.188 153.64C216.853 153.209 217.65 152.994 218.579 152.994ZM218.579 154.6C217.828 154.6 217.265 154.889 216.89 155.468C216.52 156.04 216.336 156.926 216.336 158.126C216.336 159.326 216.52 160.215 216.89 160.794C217.259 161.366 217.819 161.652 218.57 161.652C219.32 161.652 219.88 161.366 220.25 160.794C220.619 160.215 220.803 159.32 220.803 158.108C220.803 156.914 220.619 156.031 220.25 155.458C219.88 154.886 219.323 154.6 218.579 154.6ZM232.59 153.003C232.861 153.003 233.11 153.025 233.338 153.068C233.566 153.111 233.806 153.172 234.058 153.252L233.707 156.843H232.23V154.858C231.547 154.883 230.956 155.157 230.458 155.68C229.959 156.197 229.563 156.938 229.267 157.905V161.523H231.233V163H225.769V161.523H227.199V154.72H225.769V153.252H228.778L229.156 155.514C229.532 154.671 229.99 154.043 230.532 153.631C231.079 153.212 231.766 153.003 232.59 153.003ZM242.402 149.108L244.469 149.338V163H242.651L242.503 161.8C242.171 162.268 241.771 162.628 241.303 162.88C240.842 163.126 240.328 163.249 239.762 163.249C238.549 163.249 237.636 162.794 237.02 161.883C236.405 160.966 236.097 159.714 236.097 158.126C236.097 157.135 236.251 156.252 236.559 155.477C236.866 154.702 237.309 154.095 237.888 153.658C238.472 153.215 239.159 152.994 239.946 152.994C240.943 152.994 241.762 153.348 242.402 154.055V149.108ZM240.491 154.582C239.777 154.582 239.229 154.874 238.848 155.458C238.472 156.043 238.285 156.932 238.285 158.126C238.285 160.483 238.959 161.662 240.306 161.662C241.112 161.662 241.811 161.2 242.402 160.277V155.662C242.156 155.311 241.872 155.043 241.552 154.858C241.232 154.674 240.879 154.582 240.491 154.582ZM251.225 161.662C251.878 161.662 252.392 161.548 252.767 161.32C253.148 161.086 253.339 160.766 253.339 160.36C253.339 160.077 253.281 159.846 253.164 159.668C253.053 159.489 252.832 159.323 252.499 159.169C252.167 159.009 251.665 158.843 250.995 158.671C250.293 158.492 249.712 158.289 249.25 158.062C248.788 157.828 248.428 157.529 248.17 157.166C247.918 156.797 247.792 156.338 247.792 155.791C247.792 155.237 247.948 154.751 248.262 154.332C248.582 153.908 249.035 153.578 249.619 153.345C250.21 153.111 250.899 152.994 251.687 152.994C253.133 152.994 254.367 153.369 255.388 154.12L254.521 155.422C254.108 155.151 253.675 154.942 253.219 154.794C252.77 154.64 252.278 154.563 251.742 154.563C250.512 154.563 249.896 154.923 249.896 155.643C249.896 155.889 249.967 156.092 250.108 156.252C250.25 156.406 250.49 156.554 250.828 156.695C251.173 156.831 251.69 156.994 252.379 157.185C253.081 157.382 253.656 157.597 254.105 157.831C254.555 158.065 254.902 158.372 255.148 158.754C255.401 159.135 255.527 159.625 255.527 160.222C255.527 160.892 255.33 161.455 254.936 161.911C254.542 162.366 254.019 162.705 253.367 162.926C252.721 163.142 252.007 163.249 251.225 163.249C250.37 163.249 249.61 163.126 248.945 162.88C248.281 162.634 247.705 162.298 247.219 161.874L248.318 160.618C248.712 160.945 249.155 161.2 249.647 161.385C250.145 161.569 250.672 161.662 251.225 161.662ZM260.908 155.025C260.908 154.729 260.981 154.455 261.129 154.203C261.277 153.945 261.477 153.742 261.729 153.594C261.981 153.446 262.261 153.372 262.569 153.372C262.877 153.372 263.157 153.446 263.409 153.594C263.661 153.742 263.861 153.945 264.009 154.203C264.157 154.455 264.231 154.729 264.231 155.025C264.231 155.326 264.157 155.606 264.009 155.865C263.861 156.117 263.661 156.32 263.409 156.474C263.157 156.622 262.877 156.695 262.569 156.695C262.261 156.695 261.981 156.622 261.729 156.474C261.477 156.32 261.277 156.117 261.129 155.865C260.981 155.606 260.908 155.326 260.908 155.025ZM260.908 161.578C260.908 161.283 260.981 161.009 261.129 160.757C261.277 160.505 261.477 160.305 261.729 160.157C261.988 160.009 262.268 159.935 262.569 159.935C262.877 159.935 263.157 160.009 263.409 160.157C263.661 160.305 263.861 160.505 264.009 160.757C264.157 161.009 264.231 161.283 264.231 161.578C264.231 161.88 264.157 162.16 264.009 162.418C263.868 162.671 263.668 162.871 263.409 163.018C263.157 163.172 262.877 163.249 262.569 163.249C262.261 163.249 261.981 163.172 261.729 163.018C261.477 162.871 261.277 162.671 261.129 162.418C260.981 162.16 260.908 161.88 260.908 161.578ZM282.82 155.394C283.14 155.394 283.432 155.446 283.697 155.551C283.961 155.649 284.189 155.772 284.38 155.92C284.577 156.062 284.807 156.249 285.072 156.483C285.361 156.742 285.601 156.932 285.792 157.055C285.983 157.178 286.189 157.24 286.411 157.24C286.761 157.24 287.075 157.111 287.352 156.852C287.635 156.588 287.906 156.212 288.164 155.726L289.475 156.354C289.094 157.142 288.663 157.766 288.183 158.228C287.703 158.683 287.091 158.911 286.346 158.911C286.051 158.911 285.774 158.862 285.515 158.763C285.263 158.658 285.038 158.535 284.841 158.394C284.651 158.252 284.423 158.068 284.158 157.84C283.851 157.575 283.595 157.382 283.392 157.258C283.195 157.129 282.983 157.065 282.755 157.065C282.398 157.065 282.084 157.194 281.814 157.452C281.543 157.711 281.272 158.089 281.001 158.588L279.691 157.969C279.943 157.465 280.204 157.031 280.475 156.668C280.746 156.298 281.075 155.994 281.463 155.754C281.851 155.514 282.303 155.394 282.82 155.394ZM300.32 148.775L292.493 164.966L290.85 164.228L298.696 148.009L300.32 148.775ZM304.797 161.458C304.797 161.132 304.873 160.834 305.027 160.563C305.187 160.292 305.403 160.077 305.673 159.917C305.944 159.757 306.246 159.677 306.578 159.677C306.91 159.677 307.212 159.757 307.483 159.917C307.76 160.077 307.975 160.292 308.129 160.563C308.289 160.834 308.369 161.132 308.369 161.458C308.369 161.785 308.289 162.086 308.129 162.363C307.969 162.634 307.753 162.849 307.483 163.009C307.212 163.169 306.91 163.249 306.578 163.249C306.252 163.249 305.95 163.169 305.673 163.009C305.403 162.849 305.187 162.634 305.027 162.363C304.873 162.086 304.797 161.785 304.797 161.458ZM317.239 161.662C317.891 161.662 318.405 161.548 318.78 161.32C319.162 161.086 319.353 160.766 319.353 160.36C319.353 160.077 319.294 159.846 319.177 159.668C319.066 159.489 318.845 159.323 318.513 159.169C318.18 159.009 317.679 158.843 317.008 158.671C316.306 158.492 315.725 158.289 315.263 158.062C314.802 157.828 314.442 157.529 314.183 157.166C313.931 156.797 313.805 156.338 313.805 155.791C313.805 155.237 313.962 154.751 314.276 154.332C314.596 153.908 315.048 153.578 315.633 153.345C316.223 153.111 316.913 152.994 317.7 152.994C319.146 152.994 320.38 153.369 321.402 154.12L320.534 155.422C320.122 155.151 319.688 154.942 319.233 154.794C318.783 154.64 318.291 154.563 317.756 154.563C316.525 154.563 315.909 154.923 315.909 155.643C315.909 155.889 315.98 156.092 316.122 156.252C316.263 156.406 316.503 156.554 316.842 156.695C317.186 156.831 317.703 156.994 318.393 157.185C319.094 157.382 319.669 157.597 320.119 157.831C320.568 158.065 320.916 158.372 321.162 158.754C321.414 159.135 321.54 159.625 321.54 160.222C321.54 160.892 321.343 161.455 320.949 161.911C320.556 162.366 320.033 162.705 319.38 162.926C318.734 163.142 318.02 163.249 317.239 163.249C316.383 163.249 315.623 163.126 314.959 162.88C314.294 162.634 313.719 162.298 313.233 161.874L314.331 160.618C314.725 160.945 315.168 161.2 315.66 161.385C316.159 161.569 316.685 161.662 317.239 161.662ZM326.413 158.791C326.469 159.745 326.736 160.458 327.216 160.932C327.702 161.406 328.321 161.643 329.072 161.643C329.533 161.643 329.967 161.572 330.373 161.431C330.779 161.289 331.198 161.077 331.629 160.794L332.524 162.031C332.062 162.412 331.524 162.711 330.909 162.926C330.293 163.142 329.647 163.249 328.97 163.249C327.979 163.249 327.13 163.037 326.422 162.612C325.715 162.182 325.179 161.582 324.816 160.812C324.453 160.043 324.272 159.151 324.272 158.135C324.272 157.157 324.45 156.28 324.807 155.505C325.17 154.723 325.687 154.111 326.358 153.668C327.029 153.218 327.816 152.994 328.721 152.994C329.576 152.994 330.318 153.191 330.946 153.585C331.579 153.972 332.066 154.532 332.404 155.265C332.749 155.997 332.921 156.865 332.921 157.868C332.921 158.206 332.906 158.514 332.875 158.791H326.413ZM328.739 154.526C328.069 154.526 327.527 154.766 327.115 155.246C326.702 155.72 326.466 156.431 326.404 157.378H330.918C330.899 156.462 330.702 155.757 330.327 155.265C329.952 154.772 329.422 154.526 328.739 154.526ZM340.397 161.551C340.828 161.551 341.237 161.477 341.625 161.329C342.019 161.182 342.409 160.972 342.797 160.702L343.757 162.031C343.32 162.4 342.797 162.695 342.188 162.917C341.585 163.138 340.966 163.249 340.332 163.249C339.348 163.249 338.499 163.04 337.785 162.622C337.071 162.203 336.526 161.612 336.151 160.849C335.775 160.08 335.588 159.188 335.588 158.172C335.588 157.175 335.779 156.286 336.16 155.505C336.542 154.723 337.092 154.111 337.812 153.668C338.539 153.218 339.391 152.994 340.369 152.994C341.674 152.994 342.8 153.385 343.748 154.166L342.797 155.468C342.009 154.926 341.212 154.655 340.406 154.655C339.6 154.655 338.96 154.948 338.486 155.532C338.019 156.117 337.785 156.997 337.785 158.172C337.785 159.335 338.019 160.191 338.486 160.738C338.954 161.28 339.591 161.551 340.397 161.551ZM353.421 152.994C354.03 152.994 354.507 153.203 354.852 153.622C355.196 154.034 355.368 154.745 355.368 155.754V163H353.532V156.04C353.532 155.665 353.516 155.382 353.485 155.191C353.461 154.994 353.399 154.849 353.301 154.757C353.208 154.658 353.067 154.609 352.876 154.609C352.353 154.609 351.873 154.929 351.436 155.569V163H349.765V156.04C349.765 155.665 349.75 155.382 349.719 155.191C349.695 154.994 349.633 154.849 349.535 154.757C349.442 154.658 349.301 154.609 349.11 154.609C348.852 154.609 348.605 154.686 348.372 154.84C348.138 154.988 347.904 155.231 347.67 155.569V163H345.824V153.252H347.384L347.522 154.305C347.83 153.874 348.144 153.548 348.464 153.326C348.79 153.105 349.172 152.994 349.608 152.994C350.476 152.994 351.033 153.409 351.279 154.24C351.575 153.84 351.895 153.532 352.239 153.317C352.584 153.102 352.978 152.994 353.421 152.994ZM365.152 160.609C365.152 160.985 365.208 161.262 365.318 161.44C365.435 161.618 365.626 161.751 365.891 161.837L365.429 163.24C364.931 163.185 364.512 163.049 364.174 162.834C363.835 162.618 363.58 162.305 363.408 161.892C363.057 162.335 362.611 162.674 362.069 162.908C361.528 163.135 360.937 163.249 360.297 163.249C359.645 163.249 359.075 163.123 358.589 162.871C358.109 162.618 357.74 162.265 357.481 161.809C357.223 161.354 357.094 160.825 357.094 160.222C357.094 159.194 357.494 158.403 358.294 157.849C359.1 157.295 360.245 157.018 361.728 157.018H363.121V156.382C363.121 155.766 362.937 155.317 362.568 155.034C362.198 154.751 361.66 154.609 360.952 154.609C360.614 154.609 360.217 154.652 359.761 154.738C359.306 154.825 358.838 154.951 358.358 155.117L357.851 153.658C358.441 153.437 359.029 153.271 359.614 153.16C360.198 153.049 360.749 152.994 361.266 152.994C362.552 152.994 363.521 153.277 364.174 153.843C364.826 154.409 365.152 155.215 365.152 156.262V160.609ZM360.925 161.726C361.349 161.726 361.758 161.615 362.152 161.394C362.552 161.166 362.875 160.855 363.121 160.462V158.311H361.977C361.035 158.311 360.346 158.468 359.909 158.782C359.478 159.089 359.263 159.538 359.263 160.129C359.263 160.652 359.401 161.049 359.678 161.32C359.961 161.591 360.377 161.726 360.925 161.726ZM368.705 163V153.252H370.487L370.644 154.517C371.044 154.031 371.521 153.655 372.074 153.391C372.628 153.126 373.201 152.994 373.791 152.994C374.69 152.994 375.367 153.246 375.822 153.751C376.284 154.249 376.514 154.963 376.514 155.892V163H374.447V156.917C374.447 156.314 374.41 155.849 374.336 155.523C374.268 155.197 374.133 154.957 373.93 154.803C373.733 154.649 373.441 154.572 373.053 154.572C372.61 154.572 372.191 154.708 371.798 154.978C371.41 155.249 371.068 155.591 370.773 156.003V163H368.705Z" fill="white"/>
</g>
<defs>
<filter id="filter0_d" x="0" y="0" width="599" height="295.788" filterUnits="userSpaceOnUse" color-interpolation-filters="sRGB">
<feFlood flood-opacity="0" result="BackgroundImageFix"/>
<feColorMatrix in="SourceAlpha" type="matrix" values="0 0 0 0 0 0 0 0 0 0 0 0 0 0 0 0 0 0 127 0"/>
<feOffset dy="25"/>
<feGaussianBlur stdDeviation="15"/>
<feColorMatrix type="matrix" values="0 0 0 0 0 0 0 0 0 0 0 0 0 0 0 0 0 0 0.35 0"/>
<feBlend mode="normal" in2="BackgroundImageFix" result="effect1_dropShadow"/>
<feBlend mode="normal" in="SourceGraphic" in2="effect1_dropShadow" result="shape"/>
</filter>
<filter id="filter1_di" x="31" y="6" width="537" height="28.5" filterUnits="userSpaceOnUse" color-interpolation-filters="sRGB">
<feFlood flood-opacity="0" result="BackgroundImageFix"/>
<feColorMatrix in="SourceAlpha" type="matrix" values="0 0 0 0 0 0 0 0 0 0 0 0 0 0 0 0 0 0 127 0"/>
<feOffset dy="0.5"/>
<feColorMatrix type="matrix" values="0 0 0 0 0 0 0 0 0 0 0 0 0 0 0 0 0 0 0.15 0"/>
<feBlend mode="normal" in2="BackgroundImageFix" result="effect1_dropShadow"/>
<feBlend mode="normal" in="SourceGraphic" in2="effect1_dropShadow" result="shape"/>
<feColorMatrix in="SourceAlpha" type="matrix" values="0 0 0 0 0 0 0 0 0 0 0 0 0 0 0 0 0 0 127 0" result="hardAlpha"/>
<feOffset dy="-0.5"/>
<feComposite in2="hardAlpha" operator="arithmetic" k2="-1" k3="1"/>
<feColorMatrix type="matrix" values="0 0 0 0 0 0 0 0 0 0 0 0 0 0 0 0 0 0 0.05 0"/>
<feBlend mode="normal" in2="shape" result="effect2_innerShadow"/>
</filter>
</defs>
</svg>
