<svg width="446" height="491" viewBox="0 0 446 491" fill="none" xmlns="http://www.w3.org/2000/svg">
<g filter="url(#filter0_d_1706_32)">
<path d="M405 6H41C35.4772 6 31 10.4772 31 16V425C31 430.523 35.4772 435 41 435H405C410.523 435 415 430.523 415 425V16C415 10.4772 410.523 6 405 6Z" fill="#282828"/>
<path d="M62.9191 63.01V66.01C63.7258 66.09 64.4391 66.28 65.0591 66.58C65.6858 66.88 66.2124 67.2233 66.6391 67.61L65.5291 68.76C64.7624 68.06 63.8924 67.65 62.9191 67.53V71.92C63.6258 72.1467 64.2724 72.4367 64.8591 72.79C65.4524 73.1433 65.9258 73.5933 66.2791 74.14C66.6391 74.68 66.8191 75.3533 66.8191 76.16C66.8191 76.8133 66.6724 77.4233 66.3791 77.99C66.0858 78.5567 65.6491 79.0333 65.0691 79.42C64.4958 79.8067 63.7791 80.0567 62.9191 80.17V83.09H61.5291V80.23C60.5758 80.1633 59.7424 79.9433 59.0291 79.57C58.3224 79.1967 57.7424 78.7867 57.2891 78.34L58.3791 77.13C58.7991 77.55 59.2658 77.8967 59.7791 78.17C60.2991 78.4433 60.8824 78.6067 61.5291 78.66V73.35C60.3158 72.9433 59.3924 72.4333 58.7591 71.82C58.1258 71.2 57.8091 70.4267 57.8091 69.5C57.8091 68.9333 57.9491 68.4 58.2291 67.9C58.5091 67.4 58.9224 66.98 59.4691 66.64C60.0224 66.3 60.7091 66.09 61.5291 66.01V63.01H62.9191ZM61.5291 67.57C61.0024 67.6567 60.5758 67.8567 60.2491 68.17C59.9291 68.4767 59.7691 68.8933 59.7691 69.42C59.7691 69.86 59.8858 70.2367 60.1191 70.55C60.3591 70.8567 60.8291 71.1567 61.5291 71.45V67.57ZM62.9191 73.84V78.58C64.1858 78.32 64.8191 77.54 64.8191 76.24C64.8191 75.7133 64.6824 75.26 64.4091 74.88C64.1358 74.4933 63.6391 74.1467 62.9191 73.84Z" fill="#FFB61D"/>
<path d="M85.4248 78.72C86.1914 78.72 86.7948 78.58 87.2348 78.3C87.6814 78.02 87.9048 77.64 87.9048 77.16C87.9048 76.8533 87.8448 76.5933 87.7248 76.38C87.6114 76.16 87.3714 75.96 87.0048 75.78C86.6448 75.5933 86.0981 75.4067 85.3648 75.22C84.6448 75.04 84.0181 74.83 83.4848 74.59C82.9581 74.35 82.5481 74.0367 82.2548 73.65C81.9681 73.2633 81.8248 72.7633 81.8248 72.15C81.8248 71.2567 82.1981 70.5433 82.9448 70.01C83.6914 69.4767 84.6814 69.21 85.9148 69.21C86.7814 69.21 87.5348 69.3267 88.1748 69.56C88.8148 69.7867 89.3614 70.0667 89.8148 70.4L88.9948 71.65C88.5881 71.3833 88.1414 71.1633 87.6548 70.99C87.1748 70.81 86.6081 70.72 85.9548 70.72C85.1748 70.72 84.6181 70.84 84.2848 71.08C83.9581 71.3133 83.7948 71.6233 83.7948 72.01C83.7948 72.3033 83.8748 72.5467 84.0348 72.74C84.2014 72.9267 84.4848 73.1 84.8848 73.26C85.2848 73.4133 85.8381 73.5867 86.5448 73.78C87.2314 73.9667 87.8314 74.1867 88.3448 74.44C88.8581 74.6933 89.2548 75.0267 89.5348 75.44C89.8214 75.8467 89.9648 76.3833 89.9648 77.05C89.9648 77.8033 89.7481 78.4167 89.3148 78.89C88.8814 79.3567 88.3181 79.7 87.6248 79.92C86.9381 80.14 86.2048 80.25 85.4248 80.25C84.4648 80.25 83.6381 80.11 82.9448 79.83C82.2581 79.55 81.6814 79.2067 81.2148 78.8L82.2748 77.58C82.6814 77.92 83.1514 78.1967 83.6848 78.41C84.2248 78.6167 84.8048 78.72 85.4248 78.72ZM95.197 75.38C95.2503 76.54 95.5636 77.3833 96.137 77.91C96.717 78.4367 97.4036 78.7 98.197 78.7C98.7236 78.7 99.207 78.62 99.647 78.46C100.087 78.3 100.533 78.0667 100.987 77.76L101.857 78.97C101.363 79.3633 100.793 79.6767 100.147 79.91C99.5003 80.1367 98.8303 80.25 98.137 80.25C97.0836 80.25 96.187 80.02 95.447 79.56C94.7136 79.0933 94.1536 78.4467 93.767 77.62C93.387 76.7933 93.197 75.8333 93.197 74.74C93.197 73.68 93.387 72.7333 93.767 71.9C94.1536 71.0667 94.697 70.41 95.397 69.93C96.097 69.45 96.9303 69.21 97.897 69.21C99.257 69.21 100.327 69.6767 101.107 70.61C101.893 71.5367 102.287 72.8067 102.287 74.42C102.287 74.6 102.283 74.7733 102.277 74.94C102.27 75.1067 102.26 75.2533 102.247 75.38H95.197ZM97.917 70.71C97.1636 70.71 96.5403 70.9767 96.047 71.51C95.5536 72.0433 95.2703 72.8667 95.197 73.98H100.437C100.417 72.9133 100.183 72.1033 99.737 71.55C99.297 70.99 98.6903 70.71 97.917 70.71ZM110.459 78.63C110.972 78.63 111.449 78.5467 111.889 78.38C112.335 78.2067 112.752 77.9833 113.139 77.71L114.059 78.96C113.592 79.3467 113.032 79.66 112.379 79.9C111.732 80.1333 111.082 80.25 110.429 80.25C109.369 80.25 108.462 80.0233 107.709 79.57C106.962 79.1167 106.392 78.48 105.999 77.66C105.605 76.84 105.409 75.88 105.409 74.78C105.409 73.7133 105.605 72.7633 105.999 71.93C106.399 71.09 106.975 70.4267 107.729 69.94C108.482 69.4533 109.392 69.21 110.459 69.21C111.832 69.21 113.025 69.6233 114.039 70.45L113.129 71.7C112.242 71.0867 111.355 70.78 110.469 70.78C109.589 70.78 108.869 71.1067 108.309 71.76C107.749 72.4133 107.469 73.42 107.469 74.78C107.469 76.1467 107.749 77.13 108.309 77.73C108.875 78.33 109.592 78.63 110.459 78.63ZM124.561 69.21C124.921 69.21 125.258 69.29 125.571 69.45C125.891 69.61 126.148 69.9033 126.341 70.33C126.534 70.75 126.631 71.36 126.631 72.16V80H124.881V72.44C124.881 71.8267 124.841 71.3867 124.761 71.12C124.688 70.8467 124.474 70.71 124.121 70.71C123.828 70.71 123.534 70.8 123.241 70.98C122.954 71.16 122.674 71.46 122.401 71.88V80H120.721V72.44C120.721 71.8267 120.681 71.3867 120.601 71.12C120.528 70.8467 120.314 70.71 119.961 70.71C119.661 70.71 119.368 70.8 119.081 70.98C118.794 71.16 118.514 71.46 118.241 71.88V80H116.491V69.46H117.971L118.091 70.64C118.384 70.2333 118.708 69.8933 119.061 69.62C119.421 69.3467 119.858 69.21 120.371 69.21C120.771 69.21 121.141 69.3067 121.481 69.5C121.828 69.6933 122.081 70.0533 122.241 70.58C122.528 70.1733 122.854 69.8433 123.221 69.59C123.588 69.3367 124.034 69.21 124.561 69.21ZM137.153 77.58C137.153 78 137.22 78.3067 137.353 78.5C137.486 78.6867 137.696 78.8267 137.983 78.92L137.533 80.24C137.053 80.18 136.633 80.0367 136.273 79.81C135.92 79.5833 135.66 79.2367 135.493 78.77C135.113 79.2633 134.633 79.6333 134.053 79.88C133.473 80.1267 132.843 80.25 132.163 80.25C131.103 80.25 130.266 79.95 129.653 79.35C129.04 78.75 128.733 77.96 128.733 76.98C128.733 75.8867 129.16 75.0467 130.013 74.46C130.873 73.8667 132.106 73.57 133.713 73.57H135.243V72.77C135.243 72.0433 135.026 71.5267 134.593 71.22C134.166 70.9133 133.57 70.76 132.803 70.76C132.45 70.76 132.033 70.8033 131.553 70.89C131.08 70.9767 130.573 71.1133 130.033 71.3L129.543 69.9C130.19 69.6533 130.813 69.4767 131.413 69.37C132.013 69.2633 132.573 69.21 133.093 69.21C134.446 69.21 135.46 69.52 136.133 70.14C136.813 70.76 137.153 71.6033 137.153 72.67V77.58ZM132.703 78.81C133.19 78.81 133.66 78.6833 134.113 78.43C134.573 78.1767 134.95 77.8233 135.243 77.37V74.82H133.843C132.73 74.82 131.94 75.01 131.473 75.39C131.006 75.7633 130.773 76.2767 130.773 76.93C130.773 78.1833 131.416 78.81 132.703 78.81ZM141.295 80V69.46H142.945L143.085 70.88C143.519 70.34 144.045 69.9267 144.665 69.64C145.292 69.3533 145.915 69.21 146.535 69.21C147.549 69.21 148.295 69.4867 148.775 70.04C149.255 70.5867 149.495 71.35 149.495 72.33V80H147.575V73.51C147.575 72.8433 147.535 72.3033 147.455 71.89C147.382 71.4767 147.225 71.1767 146.985 70.99C146.745 70.7967 146.382 70.7 145.895 70.7C145.322 70.7 144.802 70.8767 144.335 71.23C143.869 71.5833 143.495 71.9633 143.215 72.37V80H141.295ZM167.37 78.4C167.37 77.8933 167.543 77.4633 167.89 77.11C168.243 76.7567 168.676 76.58 169.19 76.58C169.716 76.58 170.156 76.7567 170.51 77.11C170.863 77.4633 171.04 77.8933 171.04 78.4C171.04 78.9133 170.863 79.35 170.51 79.71C170.156 80.07 169.716 80.25 169.19 80.25C168.676 80.25 168.243 80.07 167.89 79.71C167.543 79.35 167.37 78.9133 167.37 78.4Z" fill="#EFEFEF"/>
<path d="M405 5.75H41C35.3391 5.75 30.75 10.3391 30.75 16V425C30.75 430.661 35.3391 435.25 41 435.25H405C410.661 435.25 415.25 430.661 415.25 425V16C415.25 10.3391 410.661 5.75 405 5.75Z" stroke="white" stroke-opacity="0.12" stroke-width="0.5"/>
<g filter="url(#filter1_di_1706_32)">
<path d="M31 22C31 16.3995 31 13.5992 32.0899 11.4601C33.0487 9.57847 34.5785 8.04867 36.4601 7.08993C38.5992 6 41.3995 6 47 6H399C404.601 6 407.401 6 409.54 7.08993C411.422 8.04867 412.951 9.57847 413.91 11.4601C415 13.5992 415 16.3995 415 22V34H31V22Z" fill="#1E1E1E"/>
<path fill-rule="evenodd" clip-rule="evenodd" d="M45 26C48.3137 26 51 23.3137 51 20C51 16.6863 48.3137 14 45 14C41.6863 14 39 16.6863 39 20C39 23.3137 41.6863 26 45 26Z" fill="#FF5E57"/>
<path fill-rule="evenodd" clip-rule="evenodd" d="M65 26C68.3137 26 71 23.3137 71 20C71 16.6863 68.3137 14 65 14C61.6863 14 59 16.6863 59 20C59 23.3137 61.6863 26 65 26Z" fill="#FFBB2E"/>
<path fill-rule="evenodd" clip-rule="evenodd" d="M85 26C88.3137 26 91 23.3137 91 20C91 16.6863 88.3137 14 85 14C81.6863 14 79 16.6863 79 20C79 23.3137 81.6863 26 85 26Z" fill="#38C149"/>
</g>
</g>
<path d="M59.748 112.458C59.748 112.132 59.8249 111.834 59.9788 111.563C60.1388 111.292 60.3541 111.077 60.6249 110.917C60.8957 110.757 61.1972 110.677 61.5295 110.677C61.8618 110.677 62.1634 110.757 62.4341 110.917C62.7111 111.077 62.9265 111.292 63.0803 111.563C63.2403 111.834 63.3203 112.132 63.3203 112.458C63.3203 112.785 63.2403 113.086 63.0803 113.363C62.9203 113.634 62.7049 113.849 62.4341 114.009C62.1634 114.169 61.8618 114.249 61.5295 114.249C61.2034 114.249 60.9018 114.169 60.6249 114.009C60.3541 113.849 60.1388 113.634 59.9788 113.363C59.8249 113.086 59.748 112.785 59.748 112.458ZM60.8003 117.538H62.2772V128.8H67.1695V130.277H62.2772V145.231H60.8003V117.538ZM66.9102 128.8H78.1717V130.277H66.9102V128.8ZM77.9124 128.8H89.174V130.277H77.9124V128.8ZM98.8285 136H91.2131V123.262H93.3546V134.209H99.0593L98.8285 136ZM105.557 125.994C106.492 125.994 107.289 126.203 107.947 126.622C108.606 127.04 109.104 127.634 109.443 128.403C109.781 129.166 109.95 130.068 109.95 131.108C109.95 132.142 109.778 133.046 109.433 133.822C109.089 134.591 108.587 135.188 107.929 135.612C107.27 136.037 106.477 136.249 105.547 136.249C104.612 136.249 103.815 136.043 103.157 135.631C102.498 135.218 101.997 134.628 101.652 133.858C101.313 133.089 101.144 132.178 101.144 131.126C101.144 130.111 101.317 129.215 101.661 128.44C102.006 127.665 102.507 127.065 103.166 126.64C103.83 126.209 104.627 125.994 105.557 125.994ZM105.557 127.6C104.806 127.6 104.243 127.889 103.867 128.468C103.498 129.04 103.313 129.926 103.313 131.126C103.313 132.326 103.498 133.215 103.867 133.794C104.237 134.366 104.797 134.652 105.547 134.652C106.298 134.652 106.858 134.366 107.227 133.794C107.597 133.215 107.781 132.32 107.781 131.108C107.781 129.914 107.597 129.031 107.227 128.458C106.858 127.886 106.301 127.6 105.557 127.6ZM121.414 126.732C121.051 126.855 120.642 126.942 120.186 126.991C119.737 127.034 119.202 127.055 118.58 127.055C119.171 127.32 119.611 127.655 119.9 128.062C120.196 128.462 120.343 128.951 120.343 129.529C120.343 130.169 120.186 130.738 119.873 131.237C119.565 131.735 119.122 132.126 118.543 132.409C117.965 132.686 117.285 132.825 116.503 132.825C115.974 132.825 115.528 132.772 115.165 132.668C115.036 132.754 114.931 132.871 114.851 133.018C114.771 133.166 114.731 133.317 114.731 133.471C114.731 133.698 114.82 133.877 114.999 134.006C115.177 134.135 115.494 134.2 115.95 134.2H117.648C118.331 134.2 118.94 134.32 119.476 134.56C120.017 134.794 120.439 135.117 120.74 135.529C121.048 135.942 121.202 136.403 121.202 136.914C121.202 137.56 121.014 138.111 120.639 138.566C120.263 139.028 119.71 139.378 118.977 139.618C118.251 139.858 117.368 139.978 116.328 139.978C115.233 139.978 114.368 139.865 113.734 139.637C113.1 139.415 112.648 139.086 112.377 138.649C112.113 138.212 111.98 137.652 111.98 136.969H113.836C113.836 137.332 113.903 137.622 114.039 137.837C114.18 138.052 114.433 138.212 114.796 138.317C115.159 138.422 115.676 138.474 116.346 138.474C117.331 138.474 118.039 138.354 118.47 138.114C118.906 137.874 119.125 137.52 119.125 137.052C119.125 136.658 118.953 136.354 118.608 136.138C118.27 135.923 117.808 135.815 117.223 135.815H115.553C114.962 135.815 114.466 135.732 114.066 135.566C113.666 135.394 113.368 135.166 113.171 134.883C112.98 134.6 112.885 134.286 112.885 133.942C112.885 133.609 112.977 133.289 113.162 132.982C113.353 132.674 113.623 132.406 113.974 132.178C113.39 131.877 112.962 131.508 112.691 131.071C112.426 130.628 112.294 130.089 112.294 129.455C112.294 128.778 112.466 128.178 112.811 127.655C113.156 127.132 113.636 126.726 114.251 126.437C114.866 126.148 115.571 126.003 116.365 126.003C117.103 126.003 117.734 125.963 118.257 125.883C118.786 125.803 119.236 125.695 119.605 125.56C119.98 125.425 120.399 125.243 120.86 125.015L121.414 126.732ZM116.383 127.425C115.743 127.425 115.251 127.606 114.906 127.969C114.568 128.332 114.399 128.822 114.399 129.437C114.399 130.065 114.571 130.563 114.916 130.932C115.26 131.295 115.759 131.477 116.411 131.477C117.02 131.477 117.485 131.298 117.805 130.942C118.131 130.585 118.294 130.077 118.294 129.418C118.294 128.089 117.657 127.425 116.383 127.425ZM127.543 121.48C127.943 121.48 128.269 121.603 128.521 121.849C128.773 122.095 128.899 122.403 128.899 122.772C128.899 123.148 128.773 123.462 128.521 123.714C128.269 123.96 127.943 124.083 127.543 124.083C127.149 124.083 126.826 123.96 126.573 123.714C126.321 123.462 126.195 123.148 126.195 122.772C126.195 122.403 126.321 122.095 126.573 121.849C126.826 121.603 127.149 121.48 127.543 121.48ZM124.09 126.252H128.983V134.486H131.632V136H123.998V134.486H126.915V127.766H124.09V126.252ZM134.659 136V126.252H136.44L136.597 127.517C136.997 127.031 137.474 126.655 138.028 126.391C138.582 126.126 139.154 125.994 139.745 125.994C140.643 125.994 141.32 126.246 141.776 126.751C142.237 127.249 142.468 127.963 142.468 128.892V136H140.4V129.917C140.4 129.314 140.363 128.849 140.289 128.523C140.222 128.197 140.086 127.957 139.883 127.803C139.686 127.649 139.394 127.572 139.006 127.572C138.563 127.572 138.145 127.708 137.751 127.978C137.363 128.249 137.022 128.591 136.726 129.003V136H134.659ZM149.205 134.662C149.858 134.662 150.372 134.548 150.747 134.32C151.129 134.086 151.319 133.766 151.319 133.36C151.319 133.077 151.261 132.846 151.144 132.668C151.033 132.489 150.812 132.323 150.479 132.169C150.147 132.009 149.645 131.843 148.975 131.671C148.273 131.492 147.692 131.289 147.23 131.062C146.769 130.828 146.409 130.529 146.15 130.166C145.898 129.797 145.772 129.338 145.772 128.791C145.772 128.237 145.929 127.751 146.242 127.332C146.562 126.908 147.015 126.578 147.599 126.345C148.19 126.111 148.879 125.994 149.667 125.994C151.113 125.994 152.347 126.369 153.369 127.12L152.501 128.422C152.089 128.151 151.655 127.942 151.199 127.794C150.75 127.64 150.258 127.563 149.722 127.563C148.492 127.563 147.876 127.923 147.876 128.643C147.876 128.889 147.947 129.092 148.089 129.252C148.23 129.406 148.47 129.554 148.809 129.695C149.153 129.831 149.67 129.994 150.359 130.185C151.061 130.382 151.636 130.597 152.085 130.831C152.535 131.065 152.882 131.372 153.129 131.754C153.381 132.135 153.507 132.625 153.507 133.222C153.507 133.892 153.31 134.455 152.916 134.911C152.522 135.366 151.999 135.705 151.347 135.926C150.701 136.142 149.987 136.249 149.205 136.249C148.35 136.249 147.59 136.126 146.925 135.88C146.261 135.634 145.685 135.298 145.199 134.874L146.298 133.618C146.692 133.945 147.135 134.2 147.627 134.385C148.125 134.569 148.652 134.662 149.205 134.662ZM60.8003 139.538H62.2772V167.231H60.8003V139.538ZM93.807 139.538H95.2839V150.8H100.176V152.277H95.2839V167.231H93.807V139.538ZM99.917 150.8H111.178V152.277H99.917V150.8ZM110.919 150.8H122.18V152.277H110.919V150.8ZM132.287 146.988H128.595V158H126.453V146.988H122.632V145.262H132.509L132.287 146.988ZM143.871 148.252L142.283 158H139.699L138.6 151.077L137.419 158H134.889L133.237 148.252H135.231L136.246 156.717L137.603 149.489H139.671L140.936 156.717L141.951 148.252H143.871ZM149.547 143.48C149.947 143.48 150.273 143.603 150.525 143.849C150.778 144.095 150.904 144.403 150.904 144.772C150.904 145.148 150.778 145.462 150.525 145.714C150.273 145.96 149.947 146.083 149.547 146.083C149.153 146.083 148.83 145.96 148.578 145.714C148.325 145.462 148.199 145.148 148.199 144.772C148.199 144.403 148.325 144.095 148.578 143.849C148.83 143.603 149.153 143.48 149.547 143.48ZM146.095 148.252H150.987V156.486H153.636V158H146.002V156.486H148.919V149.766H146.095V148.252ZM164.805 157.483C164.442 157.717 164.008 157.902 163.503 158.037C163.005 158.178 162.491 158.249 161.962 158.249C161.217 158.249 160.586 158.117 160.069 157.852C159.552 157.588 159.162 157.215 158.897 156.735C158.632 156.255 158.5 155.692 158.5 155.046V149.757H156.331V148.252H158.5V146.074L160.568 145.825V148.252H163.854L163.623 149.757H160.568V155.028C160.568 155.557 160.7 155.948 160.965 156.2C161.229 156.452 161.657 156.578 162.248 156.578C162.9 156.578 163.503 156.425 164.057 156.117L164.805 157.483ZM175.807 157.483C175.444 157.717 175.01 157.902 174.505 158.037C174.007 158.178 173.493 158.249 172.964 158.249C172.219 158.249 171.588 158.117 171.071 157.852C170.554 157.588 170.164 157.215 169.899 156.735C169.634 156.255 169.502 155.692 169.502 155.046V149.757H167.333V148.252H169.502V146.074L171.57 145.825V148.252H174.856L174.625 149.757H171.57V155.028C171.57 155.557 171.702 155.948 171.967 156.2C172.231 156.452 172.659 156.578 173.25 156.578C173.902 156.578 174.505 156.425 175.059 156.117L175.807 157.483ZM180.384 153.791C180.44 154.745 180.707 155.458 181.187 155.932C181.674 156.406 182.292 156.643 183.043 156.643C183.504 156.643 183.938 156.572 184.344 156.431C184.751 156.289 185.169 156.077 185.6 155.794L186.495 157.031C186.034 157.412 185.495 157.711 184.88 157.926C184.264 158.142 183.618 158.249 182.941 158.249C181.951 158.249 181.101 158.037 180.394 157.612C179.686 157.182 179.151 156.582 178.787 155.812C178.424 155.043 178.243 154.151 178.243 153.135C178.243 152.157 178.421 151.28 178.778 150.505C179.141 149.723 179.658 149.111 180.329 148.668C181 148.218 181.787 147.994 182.692 147.994C183.547 147.994 184.289 148.191 184.917 148.585C185.551 148.972 186.037 149.532 186.375 150.265C186.72 150.997 186.892 151.865 186.892 152.868C186.892 153.206 186.877 153.514 186.846 153.791H180.384ZM182.711 149.526C182.04 149.526 181.498 149.766 181.086 150.246C180.674 150.72 180.437 151.431 180.375 152.378H184.889C184.871 151.462 184.674 150.757 184.298 150.265C183.923 149.772 183.394 149.526 182.711 149.526ZM196.584 148.003C196.854 148.003 197.104 148.025 197.331 148.068C197.559 148.111 197.799 148.172 198.051 148.252L197.7 151.843H196.224V149.858C195.54 149.883 194.95 150.157 194.451 150.68C193.953 151.197 193.556 151.938 193.26 152.905V156.523H195.227V158H189.762V156.523H191.193V149.72H189.762V148.252H192.771L193.15 150.514C193.525 149.671 193.984 149.043 194.525 148.631C195.073 148.212 195.759 148.003 196.584 148.003ZM60.8003 161.538H62.2772V189.231H60.8003V161.538ZM93.807 161.538H95.2839V172.8H100.176V174.277H95.2839V189.231H93.807V161.538ZM99.917 172.8H111.178V174.277H99.917V172.8ZM110.919 172.8H122.18V174.277H110.919V172.8ZM127.884 180.249C126.795 180.249 125.863 180 125.087 179.502C124.312 179.003 123.718 178.258 123.306 177.268C122.899 176.277 122.696 175.058 122.696 173.612C122.696 172.209 122.946 171.012 123.444 170.022C123.949 169.025 124.623 168.274 125.466 167.769C126.309 167.258 127.238 167.003 128.253 167.003C129.078 167.003 129.783 167.126 130.367 167.372C130.952 167.612 131.512 167.978 132.047 168.471L130.847 169.717C130.453 169.36 130.053 169.098 129.647 168.932C129.247 168.76 128.801 168.674 128.309 168.674C127.675 168.674 127.106 168.84 126.601 169.172C126.096 169.498 125.693 170.031 125.392 170.769C125.09 171.508 124.939 172.458 124.939 173.622C124.939 174.797 125.05 175.751 125.272 176.483C125.499 177.209 125.835 177.742 126.278 178.08C126.727 178.412 127.296 178.578 127.986 178.578C128.73 178.578 129.432 178.4 130.09 178.043V174.535H127.93L127.699 172.902H132.167V179.077C131.503 179.452 130.829 179.742 130.146 179.945C129.469 180.148 128.715 180.249 127.884 180.249ZM138.545 165.48C138.945 165.48 139.271 165.603 139.523 165.849C139.776 166.095 139.902 166.403 139.902 166.772C139.902 167.148 139.776 167.462 139.523 167.714C139.271 167.96 138.945 168.083 138.545 168.083C138.151 168.083 137.828 167.96 137.576 167.714C137.323 167.462 137.197 167.148 137.197 166.772C137.197 166.403 137.323 166.095 137.576 165.849C137.828 165.603 138.151 165.48 138.545 165.48ZM135.092 170.252H139.985V178.486H142.634V180H135V178.486H137.917V171.766H135.092V170.252ZM153.802 179.483C153.439 179.717 153.005 179.902 152.501 180.037C152.002 180.178 151.489 180.249 150.959 180.249C150.215 180.249 149.584 180.117 149.067 179.852C148.55 179.588 148.159 179.215 147.895 178.735C147.63 178.255 147.498 177.692 147.498 177.046V171.757H145.329V170.252H147.498V168.074L149.565 167.825V170.252H152.852L152.621 171.757H149.565V177.028C149.565 177.557 149.698 177.948 149.962 178.2C150.227 178.452 150.655 178.578 151.245 178.578C151.898 178.578 152.501 178.425 153.055 178.117L153.802 179.483ZM164.777 180H162.635V174.212H158.482V180H156.34V167.262H158.482V172.449H162.635V167.262H164.777V180ZM169.733 177.065C169.733 177.631 169.844 178.04 170.065 178.292C170.293 178.545 170.647 178.671 171.127 178.671C171.558 178.671 171.979 178.542 172.391 178.283C172.81 178.025 173.142 177.698 173.388 177.305V170.252H175.456V180H173.674L173.545 178.754C173.188 179.228 172.733 179.597 172.179 179.862C171.631 180.12 171.062 180.249 170.471 180.249C169.542 180.249 168.841 179.994 168.367 179.483C167.899 178.972 167.665 178.252 167.665 177.323V170.252H169.733V177.065ZM180.735 171.415C181.08 170.96 181.48 170.609 181.935 170.363C182.391 170.117 182.883 169.994 183.412 169.994C184.649 169.994 185.563 170.443 186.154 171.342C186.744 172.234 187.04 173.489 187.04 175.108C187.04 176.111 186.889 177 186.587 177.775C186.292 178.551 185.852 179.157 185.267 179.594C184.683 180.031 183.981 180.249 183.163 180.249C182.074 180.249 181.218 179.846 180.597 179.04L180.486 180H178.667V166.338L180.735 166.108V171.415ZM182.646 178.671C183.36 178.671 183.904 178.378 184.28 177.794C184.661 177.209 184.852 176.317 184.852 175.117C184.852 173.898 184.683 173.006 184.344 172.44C184.006 171.874 183.507 171.591 182.849 171.591C182.418 171.591 182.024 171.72 181.667 171.978C181.317 172.231 181.006 172.566 180.735 172.985V177.545C180.963 177.902 181.24 178.178 181.566 178.375C181.898 178.572 182.258 178.671 182.646 178.671ZM60.8003 183.538H62.2772V211.231H60.8003V183.538ZM93.807 183.538H95.2839V194.8H100.176V196.277H93.807V183.538ZM99.917 194.8H111.178V196.277H99.917V194.8ZM110.919 194.8H122.18V196.277H110.919V194.8ZM131.521 190.886H126.241V194.717H130.856V196.342H126.241V200.375H131.863V202H124.099V189.262H131.761L131.521 190.886ZM138.48 198.022L136.099 202H133.809L137.308 196.858L134.197 192.252H136.579L138.572 195.686L140.566 192.252H142.837L139.791 196.775L143.299 202H140.871L138.48 198.022ZM150.415 191.994C152.778 191.994 153.959 193.698 153.959 197.108C153.959 198.117 153.815 199.009 153.525 199.785C153.242 200.554 152.818 201.157 152.252 201.594C151.692 202.031 151.009 202.249 150.202 202.249C149.181 202.249 148.356 201.889 147.729 201.169V205.748L145.661 205.978V192.252H147.461L147.59 193.508C147.953 193.009 148.378 192.634 148.864 192.382C149.35 192.123 149.867 191.994 150.415 191.994ZM149.842 193.591C149.412 193.591 149.018 193.72 148.661 193.978C148.31 194.231 147.999 194.566 147.729 194.985V199.545C148.215 200.271 148.858 200.634 149.658 200.634C150.365 200.634 150.898 200.351 151.255 199.785C151.612 199.212 151.79 198.323 151.79 197.117C151.79 195.886 151.63 194.991 151.31 194.431C150.99 193.871 150.501 193.591 149.842 193.591ZM160.568 191.994C161.503 191.994 162.3 192.203 162.958 192.622C163.617 193.04 164.115 193.634 164.454 194.403C164.792 195.166 164.962 196.068 164.962 197.108C164.962 198.142 164.789 199.046 164.445 199.822C164.1 200.591 163.598 201.188 162.94 201.612C162.282 202.037 161.488 202.249 160.558 202.249C159.623 202.249 158.826 202.043 158.168 201.631C157.509 201.218 157.008 200.628 156.663 199.858C156.325 199.089 156.155 198.178 156.155 197.126C156.155 196.111 156.328 195.215 156.672 194.44C157.017 193.665 157.518 193.065 158.177 192.64C158.842 192.209 159.638 191.994 160.568 191.994ZM160.568 193.6C159.817 193.6 159.254 193.889 158.878 194.468C158.509 195.04 158.325 195.926 158.325 197.126C158.325 198.326 158.509 199.215 158.878 199.794C159.248 200.366 159.808 200.652 160.558 200.652C161.309 200.652 161.869 200.366 162.238 199.794C162.608 199.215 162.792 198.32 162.792 197.108C162.792 195.914 162.608 195.031 162.238 194.458C161.869 193.886 161.312 193.6 160.568 193.6ZM60.8003 205.538H62.2772V216.8H67.1695V218.277H62.2772V233.231H60.8003V205.538ZM66.9102 216.8H78.1717V218.277H66.9102V216.8ZM77.9124 216.8H89.174V218.277H77.9124V216.8ZM95.6162 211.003C96.447 211.003 97.1608 211.111 97.7577 211.326C98.3546 211.535 98.9208 211.862 99.4562 212.305L98.3393 213.634C97.5823 213.006 96.7085 212.692 95.7177 212.692C95.047 212.692 94.447 212.858 93.9177 213.191C93.3885 213.523 92.967 214.055 92.6531 214.788C92.3454 215.52 92.1916 216.462 92.1916 217.612C92.1916 219.286 92.5116 220.523 93.1516 221.323C93.7916 222.117 94.647 222.514 95.7177 222.514C96.3331 222.514 96.8623 222.418 97.3054 222.228C97.7485 222.031 98.1823 221.76 98.607 221.415L99.6409 222.735C99.1732 223.197 98.607 223.566 97.9423 223.843C97.2839 224.114 96.5177 224.249 95.6439 224.249C94.5485 224.249 93.5731 223.994 92.7177 223.483C91.8623 222.966 91.1885 222.209 90.6962 221.212C90.21 220.215 89.967 219.015 89.967 217.612C89.967 216.228 90.2162 215.037 90.7146 214.04C91.2131 213.043 91.89 212.289 92.7454 211.778C93.607 211.262 94.5639 211.003 95.6162 211.003ZM108.566 214.003C108.837 214.003 109.086 214.025 109.313 214.068C109.541 214.111 109.781 214.172 110.033 214.252L109.683 217.843H108.206V215.858C107.523 215.883 106.932 216.157 106.433 216.68C105.935 217.197 105.538 217.938 105.243 218.905V222.523H107.209V224H101.744V222.523H103.175V215.72H101.744V214.252H104.753L105.132 216.514C105.507 215.671 105.966 215.043 106.507 214.631C107.055 214.212 107.741 214.003 108.566 214.003ZM114.371 219.791C114.426 220.745 114.694 221.458 115.174 221.932C115.66 222.406 116.279 222.643 117.03 222.643C117.491 222.643 117.925 222.572 118.331 222.431C118.737 222.289 119.156 222.077 119.586 221.794L120.482 223.031C120.02 223.412 119.482 223.711 118.866 223.926C118.251 224.142 117.605 224.249 116.928 224.249C115.937 224.249 115.088 224.037 114.38 223.612C113.673 223.182 113.137 222.582 112.774 221.812C112.411 221.043 112.23 220.151 112.23 219.135C112.23 218.157 112.408 217.28 112.765 216.505C113.128 215.723 113.645 215.111 114.316 214.668C114.986 214.218 115.774 213.994 116.679 213.994C117.534 213.994 118.276 214.191 118.903 214.585C119.537 214.972 120.023 215.532 120.362 216.265C120.706 216.997 120.879 217.865 120.879 218.868C120.879 219.206 120.863 219.514 120.833 219.791H114.371ZM116.697 215.526C116.026 215.526 115.485 215.766 115.073 216.246C114.66 216.72 114.423 217.431 114.362 218.378H118.876C118.857 217.462 118.66 216.757 118.285 216.265C117.91 215.772 117.38 215.526 116.697 215.526ZM129.379 210.108L131.447 210.338V224H129.629L129.481 222.8C129.149 223.268 128.749 223.628 128.281 223.88C127.819 224.126 127.306 224.249 126.739 224.249C125.527 224.249 124.613 223.794 123.998 222.883C123.383 221.966 123.075 220.714 123.075 219.126C123.075 218.135 123.229 217.252 123.536 216.477C123.844 215.702 124.287 215.095 124.866 214.658C125.45 214.215 126.136 213.994 126.924 213.994C127.921 213.994 128.739 214.348 129.379 215.055V210.108ZM127.469 215.582C126.755 215.582 126.207 215.874 125.826 216.458C125.45 217.043 125.263 217.932 125.263 219.126C125.263 221.483 125.936 222.662 127.284 222.662C128.09 222.662 128.789 222.2 129.379 221.277V216.662C129.133 216.311 128.85 216.043 128.53 215.858C128.21 215.674 127.856 215.582 127.469 215.582ZM138.545 209.48C138.945 209.48 139.271 209.603 139.523 209.849C139.776 210.095 139.902 210.403 139.902 210.772C139.902 211.148 139.776 211.462 139.523 211.714C139.271 211.96 138.945 212.083 138.545 212.083C138.151 212.083 137.828 211.96 137.576 211.714C137.323 211.462 137.197 211.148 137.197 210.772C137.197 210.403 137.323 210.095 137.576 209.849C137.828 209.603 138.151 209.48 138.545 209.48ZM135.092 214.252H139.985V222.486H142.634V224H135V222.486H137.917V215.766H135.092V214.252ZM153.802 223.483C153.439 223.717 153.005 223.902 152.501 224.037C152.002 224.178 151.489 224.249 150.959 224.249C150.215 224.249 149.584 224.117 149.067 223.852C148.55 223.588 148.159 223.215 147.895 222.735C147.63 222.255 147.498 221.692 147.498 221.046V215.757H145.329V214.252H147.498V212.074L149.565 211.825V214.252H152.852L152.621 215.757H149.565V221.028C149.565 221.557 149.698 221.948 149.962 222.2C150.227 222.452 150.655 222.578 151.245 222.578C151.898 222.578 152.501 222.425 153.055 222.117L153.802 223.483ZM172.631 211.003C173.462 211.003 174.176 211.111 174.773 211.326C175.37 211.535 175.936 211.862 176.471 212.305L175.354 213.634C174.598 213.006 173.724 212.692 172.733 212.692C172.062 212.692 171.462 212.858 170.933 213.191C170.404 213.523 169.982 214.055 169.668 214.788C169.361 215.52 169.207 216.462 169.207 217.612C169.207 219.286 169.527 220.523 170.167 221.323C170.807 222.117 171.662 222.514 172.733 222.514C173.348 222.514 173.878 222.418 174.321 222.228C174.764 222.031 175.198 221.76 175.622 221.415L176.656 222.735C176.188 223.197 175.622 223.566 174.958 223.843C174.299 224.114 173.533 224.249 172.659 224.249C171.564 224.249 170.588 223.994 169.733 223.483C168.878 222.966 168.204 222.209 167.711 221.212C167.225 220.215 166.982 219.015 166.982 217.612C166.982 216.228 167.231 215.037 167.73 214.04C168.228 213.043 168.905 212.289 169.761 211.778C170.622 211.262 171.579 211.003 172.631 211.003ZM186.117 221.609C186.117 221.985 186.172 222.262 186.283 222.44C186.4 222.618 186.591 222.751 186.855 222.837L186.394 224.24C185.895 224.185 185.477 224.049 185.138 223.834C184.8 223.618 184.544 223.305 184.372 222.892C184.021 223.335 183.575 223.674 183.034 223.908C182.492 224.135 181.901 224.249 181.261 224.249C180.609 224.249 180.04 224.123 179.554 223.871C179.074 223.618 178.704 223.265 178.446 222.809C178.187 222.354 178.058 221.825 178.058 221.222C178.058 220.194 178.458 219.403 179.258 218.849C180.064 218.295 181.209 218.018 182.692 218.018H184.086V217.382C184.086 216.766 183.901 216.317 183.532 216.034C183.163 215.751 182.624 215.609 181.917 215.609C181.578 215.609 181.181 215.652 180.726 215.738C180.271 215.825 179.803 215.951 179.323 216.117L178.815 214.658C179.406 214.437 179.994 214.271 180.578 214.16C181.163 214.049 181.714 213.994 182.231 213.994C183.517 213.994 184.486 214.277 185.138 214.843C185.791 215.409 186.117 216.215 186.117 217.262V221.609ZM181.889 222.726C182.314 222.726 182.723 222.615 183.117 222.394C183.517 222.166 183.84 221.855 184.086 221.462V219.311H182.941C182 219.311 181.311 219.468 180.874 219.782C180.443 220.089 180.227 220.538 180.227 221.129C180.227 221.652 180.366 222.049 180.643 222.32C180.926 222.591 181.341 222.726 181.889 222.726ZM196.584 214.003C196.854 214.003 197.104 214.025 197.331 214.068C197.559 214.111 197.799 214.172 198.051 214.252L197.7 217.843H196.224V215.858C195.54 215.883 194.95 216.157 194.451 216.68C193.953 217.197 193.556 217.938 193.26 218.905V222.523H195.227V224H189.762V222.523H191.193V215.72H189.762V214.252H192.771L193.15 216.514C193.525 215.671 193.984 215.043 194.525 214.631C195.073 214.212 195.759 214.003 196.584 214.003ZM206.395 210.108L208.463 210.338V224H206.644L206.497 222.8C206.164 223.268 205.764 223.628 205.297 223.88C204.835 224.126 204.321 224.249 203.755 224.249C202.543 224.249 201.629 223.794 201.013 222.883C200.398 221.966 200.09 220.714 200.09 219.126C200.09 218.135 200.244 217.252 200.552 216.477C200.86 215.702 201.303 215.095 201.881 214.658C202.466 214.215 203.152 213.994 203.94 213.994C204.937 213.994 205.755 214.348 206.395 215.055V210.108ZM204.484 215.582C203.77 215.582 203.223 215.874 202.841 216.458C202.466 217.043 202.278 217.932 202.278 219.126C202.278 221.483 202.952 222.662 204.3 222.662C205.106 222.662 205.804 222.2 206.395 221.277V216.662C206.149 216.311 205.866 216.043 205.546 215.858C205.226 215.674 204.872 215.582 204.484 215.582ZM215.219 222.662C215.871 222.662 216.385 222.548 216.76 222.32C217.142 222.086 217.333 221.766 217.333 221.36C217.333 221.077 217.274 220.846 217.157 220.668C217.046 220.489 216.825 220.323 216.493 220.169C216.16 220.009 215.659 219.843 214.988 219.671C214.286 219.492 213.705 219.289 213.243 219.062C212.782 218.828 212.422 218.529 212.163 218.166C211.911 217.797 211.785 217.338 211.785 216.791C211.785 216.237 211.942 215.751 212.256 215.332C212.576 214.908 213.028 214.578 213.613 214.345C214.203 214.111 214.893 213.994 215.68 213.994C217.126 213.994 218.36 214.369 219.382 215.12L218.514 216.422C218.102 216.151 217.668 215.942 217.213 215.794C216.763 215.64 216.271 215.563 215.736 215.563C214.505 215.563 213.89 215.923 213.89 216.643C213.89 216.889 213.96 217.092 214.102 217.252C214.243 217.406 214.483 217.554 214.822 217.695C215.166 217.831 215.683 217.994 216.373 218.185C217.074 218.382 217.65 218.597 218.099 218.831C218.548 219.065 218.896 219.372 219.142 219.754C219.394 220.135 219.52 220.625 219.52 221.222C219.52 221.892 219.323 222.455 218.93 222.911C218.536 223.366 218.013 223.705 217.36 223.926C216.714 224.142 216 224.249 215.219 224.249C214.363 224.249 213.603 224.126 212.939 223.88C212.274 223.634 211.699 223.298 211.213 222.874L212.311 221.618C212.705 221.945 213.148 222.2 213.64 222.385C214.139 222.569 214.665 222.662 215.219 222.662ZM60.8003 227.538H62.2772V255.231H60.8003V227.538ZM93.807 227.538H95.2839V238.8H100.176V240.277H93.807V227.538ZM99.917 238.8H111.178V240.277H99.917V238.8ZM110.919 238.8H122.18V240.277H110.919V238.8ZM132.435 237.258C132.435 238.686 131.989 239.745 131.096 240.434C130.21 241.117 128.998 241.458 127.459 241.458H125.918V246H123.776V233.262H127.312C128.949 233.262 130.21 233.597 131.096 234.268C131.989 234.932 132.435 235.929 132.435 237.258ZM130.183 237.277C130.183 235.671 129.272 234.868 127.45 234.868H125.918V239.825H127.478C128.339 239.825 129.004 239.628 129.472 239.234C129.946 238.84 130.183 238.188 130.183 237.277ZM142.108 243.609C142.108 243.985 142.163 244.262 142.274 244.44C142.391 244.618 142.582 244.751 142.846 244.837L142.385 246.24C141.886 246.185 141.468 246.049 141.129 245.834C140.791 245.618 140.536 245.305 140.363 244.892C140.012 245.335 139.566 245.674 139.025 245.908C138.483 246.135 137.892 246.249 137.252 246.249C136.6 246.249 136.031 246.123 135.545 245.871C135.065 245.618 134.696 245.265 134.437 244.809C134.179 244.354 134.049 243.825 134.049 243.222C134.049 242.194 134.449 241.403 135.249 240.849C136.056 240.295 137.2 240.018 138.683 240.018H140.077V239.382C140.077 238.766 139.892 238.317 139.523 238.034C139.154 237.751 138.616 237.609 137.908 237.609C137.569 237.609 137.172 237.652 136.717 237.738C136.262 237.825 135.794 237.951 135.314 238.117L134.806 236.658C135.397 236.437 135.985 236.271 136.569 236.16C137.154 236.049 137.705 235.994 138.222 235.994C139.508 235.994 140.477 236.277 141.129 236.843C141.782 237.409 142.108 238.215 142.108 239.262V243.609ZM137.88 244.726C138.305 244.726 138.714 244.615 139.108 244.394C139.508 244.166 139.831 243.855 140.077 243.462V241.311H138.932C137.991 241.311 137.302 241.468 136.865 241.782C136.434 242.089 136.219 242.538 136.219 243.129C136.219 243.652 136.357 244.049 136.634 244.32C136.917 244.591 137.332 244.726 137.88 244.726ZM150.83 246.037C150.43 247.225 149.858 248.151 149.113 248.815C148.375 249.486 147.356 249.877 146.058 249.988L145.79 248.437C146.436 248.338 146.953 248.188 147.341 247.985C147.735 247.788 148.045 247.532 148.273 247.218C148.507 246.911 148.719 246.505 148.91 246H148.209L144.922 236.252H147.119L149.575 244.56L152.067 236.252H154.19L150.83 246.037ZM165.442 237.258C165.442 238.686 164.995 239.745 164.103 240.434C163.217 241.117 162.005 241.458 160.466 241.458H158.925V246H156.783V233.262H160.318C161.955 233.262 163.217 233.597 164.103 234.268C164.995 234.932 165.442 235.929 165.442 237.258ZM163.189 237.277C163.189 235.671 162.278 234.868 160.457 234.868H158.925V239.825H160.485C161.346 239.825 162.011 239.628 162.478 239.234C162.952 238.84 163.189 238.188 163.189 237.277ZM175.114 243.609C175.114 243.985 175.17 244.262 175.281 244.44C175.398 244.618 175.588 244.751 175.853 244.837L175.391 246.24C174.893 246.185 174.474 246.049 174.136 245.834C173.798 245.618 173.542 245.305 173.37 244.892C173.019 245.335 172.573 245.674 172.031 245.908C171.49 246.135 170.899 246.249 170.259 246.249C169.607 246.249 169.038 246.123 168.551 245.871C168.071 245.618 167.702 245.265 167.444 244.809C167.185 244.354 167.056 243.825 167.056 243.222C167.056 242.194 167.456 241.403 168.256 240.849C169.062 240.295 170.207 240.018 171.69 240.018H173.084V239.382C173.084 238.766 172.899 238.317 172.53 238.034C172.161 237.751 171.622 237.609 170.914 237.609C170.576 237.609 170.179 237.652 169.724 237.738C169.268 237.825 168.801 237.951 168.321 238.117L167.813 236.658C168.404 236.437 168.991 236.271 169.576 236.16C170.161 236.049 170.711 235.994 171.228 235.994C172.514 235.994 173.484 236.277 174.136 236.843C174.788 237.409 175.114 238.215 175.114 239.262V243.609ZM170.887 244.726C171.311 244.726 171.721 244.615 172.114 244.394C172.514 244.166 172.838 243.855 173.084 243.462V241.311H171.939C170.998 241.311 170.308 241.468 169.871 241.782C169.441 242.089 169.225 242.538 169.225 243.129C169.225 243.652 169.364 244.049 169.641 244.32C169.924 244.591 170.339 244.726 170.887 244.726ZM182.951 243.342C182.951 243.772 183.08 244.086 183.338 244.283C183.603 244.48 183.966 244.578 184.427 244.578C184.92 244.578 185.434 244.471 185.969 244.255L186.495 245.695C185.769 246.065 184.932 246.249 183.984 246.249C183.338 246.249 182.781 246.126 182.314 245.88C181.846 245.628 181.489 245.271 181.243 244.809C181.003 244.342 180.883 243.791 180.883 243.157V233.862H177.938V232.338H182.951V243.342ZM60.8003 249.538H62.2772V260.8H67.1695V262.277H62.2772V277.231H60.8003V249.538ZM66.9102 260.8H78.1717V262.277H66.9102V260.8ZM77.9124 260.8H89.174V262.277H77.9124V260.8ZM98.5146 256.886H93.2346V260.717H97.85V262.342H93.2346V266.375H98.8563V268H91.0931V255.262H98.7547L98.5146 256.886ZM108.372 257.994C108.981 257.994 109.458 258.203 109.803 258.622C110.147 259.034 110.32 259.745 110.32 260.754V268H108.483V261.04C108.483 260.665 108.467 260.382 108.437 260.191C108.412 259.994 108.35 259.849 108.252 259.757C108.16 259.658 108.018 259.609 107.827 259.609C107.304 259.609 106.824 259.929 106.387 260.569V268H104.717V261.04C104.717 260.665 104.701 260.382 104.67 260.191C104.646 259.994 104.584 259.849 104.486 259.757C104.393 259.658 104.252 259.609 104.061 259.609C103.803 259.609 103.557 259.686 103.323 259.84C103.089 259.988 102.855 260.231 102.621 260.569V268H100.775V258.252H102.335L102.473 259.305C102.781 258.874 103.095 258.548 103.415 258.326C103.741 258.105 104.123 257.994 104.56 257.994C105.427 257.994 105.984 258.409 106.23 259.24C106.526 258.84 106.846 258.532 107.19 258.317C107.535 258.102 107.929 257.994 108.372 257.994ZM120.103 265.609C120.103 265.985 120.159 266.262 120.27 266.44C120.386 266.618 120.577 266.751 120.842 266.837L120.38 268.24C119.882 268.185 119.463 268.049 119.125 267.834C118.786 267.618 118.531 267.305 118.359 266.892C118.008 267.335 117.562 267.674 117.02 267.908C116.479 268.135 115.888 268.249 115.248 268.249C114.596 268.249 114.026 268.123 113.54 267.871C113.06 267.618 112.691 267.265 112.433 266.809C112.174 266.354 112.045 265.825 112.045 265.222C112.045 264.194 112.445 263.403 113.245 262.849C114.051 262.295 115.196 262.018 116.679 262.018H118.073V261.382C118.073 260.766 117.888 260.317 117.519 260.034C117.15 259.751 116.611 259.609 115.903 259.609C115.565 259.609 115.168 259.652 114.713 259.738C114.257 259.825 113.79 259.951 113.31 260.117L112.802 258.658C113.393 258.437 113.98 258.271 114.565 258.16C115.15 258.049 115.7 257.994 116.217 257.994C117.503 257.994 118.473 258.277 119.125 258.843C119.777 259.409 120.103 260.215 120.103 261.262V265.609ZM115.876 266.726C116.3 266.726 116.71 266.615 117.103 266.394C117.503 266.166 117.826 265.855 118.073 265.462V263.311H116.928C115.986 263.311 115.297 263.468 114.86 263.782C114.43 264.089 114.214 264.538 114.214 265.129C114.214 265.652 114.353 266.049 114.63 266.32C114.913 266.591 115.328 266.726 115.876 266.726ZM127.543 253.48C127.943 253.48 128.269 253.603 128.521 253.849C128.773 254.095 128.899 254.403 128.899 254.772C128.899 255.148 128.773 255.462 128.521 255.714C128.269 255.96 127.943 256.083 127.543 256.083C127.149 256.083 126.826 255.96 126.573 255.714C126.321 255.462 126.195 255.148 126.195 254.772C126.195 254.403 126.321 254.095 126.573 253.849C126.826 253.603 127.149 253.48 127.543 253.48ZM124.09 258.252H128.983V266.486H131.632V268H123.998V266.486H126.915V259.766H124.09V258.252ZM138.942 265.342C138.942 265.772 139.071 266.086 139.329 266.283C139.594 266.48 139.957 266.578 140.419 266.578C140.911 266.578 141.425 266.471 141.96 266.255L142.486 267.695C141.76 268.065 140.923 268.249 139.976 268.249C139.329 268.249 138.772 268.126 138.305 267.88C137.837 267.628 137.48 267.271 137.234 266.809C136.994 266.342 136.874 265.791 136.874 265.157V255.862H133.929V254.338H138.942V265.342ZM149.205 266.662C149.858 266.662 150.372 266.548 150.747 266.32C151.129 266.086 151.319 265.766 151.319 265.36C151.319 265.077 151.261 264.846 151.144 264.668C151.033 264.489 150.812 264.323 150.479 264.169C150.147 264.009 149.645 263.843 148.975 263.671C148.273 263.492 147.692 263.289 147.23 263.062C146.769 262.828 146.409 262.529 146.15 262.166C145.898 261.797 145.772 261.338 145.772 260.791C145.772 260.237 145.929 259.751 146.242 259.332C146.562 258.908 147.015 258.578 147.599 258.345C148.19 258.111 148.879 257.994 149.667 257.994C151.113 257.994 152.347 258.369 153.369 259.12L152.501 260.422C152.089 260.151 151.655 259.942 151.199 259.794C150.75 259.64 150.258 259.563 149.722 259.563C148.492 259.563 147.876 259.923 147.876 260.643C147.876 260.889 147.947 261.092 148.089 261.252C148.23 261.406 148.47 261.554 148.809 261.695C149.153 261.831 149.67 261.994 150.359 262.185C151.061 262.382 151.636 262.597 152.085 262.831C152.535 263.065 152.882 263.372 153.129 263.754C153.381 264.135 153.507 264.625 153.507 265.222C153.507 265.892 153.31 266.455 152.916 266.911C152.522 267.366 151.999 267.705 151.347 267.926C150.701 268.142 149.987 268.249 149.205 268.249C148.35 268.249 147.59 268.126 146.925 267.88C146.261 267.634 145.685 267.298 145.199 266.874L146.298 265.618C146.692 265.945 147.135 266.2 147.627 266.385C148.125 266.569 148.652 266.662 149.205 266.662ZM60.8003 271.538H62.2772V299.231H60.8003V271.538ZM93.807 271.538H95.2839V282.8H100.176V284.277H95.2839V299.231H93.807V271.538ZM99.917 282.8H111.178V284.277H99.917V282.8ZM110.919 282.8H122.18V284.277H110.919V282.8ZM132.398 283.631C132.398 284.954 132.213 286.114 131.844 287.111C131.475 288.102 130.927 288.874 130.201 289.428C129.475 289.975 128.592 290.249 127.552 290.249C126.506 290.249 125.619 289.982 124.893 289.446C124.167 288.905 123.619 288.142 123.25 287.157C122.887 286.166 122.706 284.997 122.706 283.649C122.706 282.326 122.89 281.166 123.259 280.169C123.629 279.166 124.176 278.388 124.903 277.834C125.629 277.28 126.512 277.003 127.552 277.003C128.598 277.003 129.484 277.274 130.21 277.815C130.936 278.357 131.481 279.126 131.844 280.123C132.213 281.114 132.398 282.283 132.398 283.631ZM130.183 283.631C130.183 281.951 129.973 280.705 129.555 279.892C129.143 279.08 128.475 278.674 127.552 278.674C126.629 278.674 125.958 279.083 125.539 279.902C125.127 280.72 124.921 281.969 124.921 283.649C124.921 285.317 125.13 286.557 125.549 287.369C125.973 288.175 126.641 288.578 127.552 288.578C128.481 288.578 129.152 288.175 129.564 287.369C129.976 286.557 130.183 285.311 130.183 283.631ZM136.726 287.065C136.726 287.631 136.837 288.04 137.059 288.292C137.286 288.545 137.64 288.671 138.12 288.671C138.551 288.671 138.972 288.542 139.385 288.283C139.803 288.025 140.136 287.698 140.382 287.305V280.252H142.449V290H140.668L140.539 288.754C140.182 289.228 139.726 289.597 139.172 289.862C138.625 290.12 138.056 290.249 137.465 290.249C136.536 290.249 135.834 289.994 135.36 289.483C134.892 288.972 134.659 288.252 134.659 287.323V280.252H136.726V287.065ZM153.802 289.483C153.439 289.717 153.005 289.902 152.501 290.037C152.002 290.178 151.489 290.249 150.959 290.249C150.215 290.249 149.584 290.117 149.067 289.852C148.55 289.588 148.159 289.215 147.895 288.735C147.63 288.255 147.498 287.692 147.498 287.046V281.757H145.329V280.252H147.498V278.074L149.565 277.825V280.252H152.852L152.621 281.757H149.565V287.028C149.565 287.557 149.698 287.948 149.962 288.2C150.227 288.452 150.655 288.578 151.245 288.578C151.898 288.578 152.501 288.425 153.055 288.117L153.802 289.483ZM160.946 287.342C160.946 287.772 161.075 288.086 161.334 288.283C161.598 288.48 161.962 288.578 162.423 288.578C162.915 288.578 163.429 288.471 163.965 288.255L164.491 289.695C163.765 290.065 162.928 290.249 161.98 290.249C161.334 290.249 160.777 290.126 160.309 289.88C159.842 289.628 159.485 289.271 159.238 288.809C158.998 288.342 158.878 287.791 158.878 287.157V277.862H155.934V276.338H160.946V287.342ZM171.57 279.994C172.505 279.994 173.302 280.203 173.961 280.622C174.619 281.04 175.118 281.634 175.456 282.403C175.794 283.166 175.964 284.068 175.964 285.108C175.964 286.142 175.791 287.046 175.447 287.822C175.102 288.591 174.601 289.188 173.942 289.612C173.284 290.037 172.49 290.249 171.561 290.249C170.625 290.249 169.828 290.043 169.17 289.631C168.511 289.218 168.01 288.628 167.665 287.858C167.327 287.089 167.158 286.178 167.158 285.126C167.158 284.111 167.33 283.215 167.674 282.44C168.019 281.665 168.521 281.065 169.179 280.64C169.844 280.209 170.641 279.994 171.57 279.994ZM171.57 281.6C170.819 281.6 170.256 281.889 169.881 282.468C169.511 283.04 169.327 283.926 169.327 285.126C169.327 286.326 169.511 287.215 169.881 287.794C170.25 288.366 170.81 288.652 171.561 288.652C172.311 288.652 172.871 288.366 173.241 287.794C173.61 287.215 173.794 286.32 173.794 285.108C173.794 283.914 173.61 283.031 173.241 282.458C172.871 281.886 172.314 281.6 171.57 281.6ZM182.572 279.994C183.507 279.994 184.304 280.203 184.963 280.622C185.621 281.04 186.12 281.634 186.458 282.403C186.797 283.166 186.966 284.068 186.966 285.108C186.966 286.142 186.794 287.046 186.449 287.822C186.104 288.591 185.603 289.188 184.944 289.612C184.286 290.037 183.492 290.249 182.563 290.249C181.627 290.249 180.831 290.043 180.172 289.631C179.514 289.218 179.012 288.628 178.667 287.858C178.329 287.089 178.16 286.178 178.16 285.126C178.16 284.111 178.332 283.215 178.677 282.44C179.021 281.665 179.523 281.065 180.181 280.64C180.846 280.209 181.643 279.994 182.572 279.994ZM182.572 281.6C181.821 281.6 181.258 281.889 180.883 282.468C180.514 283.04 180.329 283.926 180.329 285.126C180.329 286.326 180.514 287.215 180.883 287.794C181.252 288.366 181.812 288.652 182.563 288.652C183.314 288.652 183.874 288.366 184.243 287.794C184.612 287.215 184.797 286.32 184.797 285.108C184.797 283.914 184.612 283.031 184.243 282.458C183.874 281.886 183.317 281.6 182.572 281.6ZM189.734 276.338L191.802 276.108V290H189.734V276.338ZM195.845 280.252H198.254L194.313 284.609L198.67 290H196.14L191.95 284.665L195.845 280.252ZM60.8003 293.538H62.2772V321.231H60.8003V293.538ZM93.807 293.538H95.2839V304.8H100.176V306.277H93.807V293.538ZM99.917 304.8H111.178V306.277H99.917V304.8ZM110.919 304.8H122.18V306.277H110.919V304.8ZM127.884 312.249C126.795 312.249 125.863 312 125.087 311.502C124.312 311.003 123.718 310.258 123.306 309.268C122.899 308.277 122.696 307.058 122.696 305.612C122.696 304.209 122.946 303.012 123.444 302.022C123.949 301.025 124.623 300.274 125.466 299.769C126.309 299.258 127.238 299.003 128.253 299.003C129.078 299.003 129.783 299.126 130.367 299.372C130.952 299.612 131.512 299.978 132.047 300.471L130.847 301.717C130.453 301.36 130.053 301.098 129.647 300.932C129.247 300.76 128.801 300.674 128.309 300.674C127.675 300.674 127.106 300.84 126.601 301.172C126.096 301.498 125.693 302.031 125.392 302.769C125.09 303.508 124.939 304.458 124.939 305.622C124.939 306.797 125.05 307.751 125.272 308.483C125.499 309.209 125.835 309.742 126.278 310.08C126.727 310.412 127.296 310.578 127.986 310.578C128.73 310.578 129.432 310.4 130.09 310.043V306.535H127.93L127.699 304.902H132.167V311.077C131.503 311.452 130.829 311.742 130.146 311.945C129.469 312.148 128.715 312.249 127.884 312.249ZM141.379 301.994C141.988 301.994 142.465 302.203 142.809 302.622C143.154 303.034 143.326 303.745 143.326 304.754V312H141.489V305.04C141.489 304.665 141.474 304.382 141.443 304.191C141.419 303.994 141.357 303.849 141.259 303.757C141.166 303.658 141.025 303.609 140.834 303.609C140.311 303.609 139.831 303.929 139.394 304.569V312H137.723V305.04C137.723 304.665 137.708 304.382 137.677 304.191C137.652 303.994 137.591 303.849 137.492 303.757C137.4 303.658 137.259 303.609 137.068 303.609C136.809 303.609 136.563 303.686 136.329 303.84C136.096 303.988 135.862 304.231 135.628 304.569V312H133.782V302.252H135.342L135.48 303.305C135.788 302.874 136.102 302.548 136.422 302.326C136.748 302.105 137.129 301.994 137.566 301.994C138.434 301.994 138.991 302.409 139.237 303.24C139.532 302.84 139.852 302.532 140.197 302.317C140.542 302.102 140.936 301.994 141.379 301.994ZM153.11 309.609C153.11 309.985 153.165 310.262 153.276 310.44C153.393 310.618 153.584 310.751 153.849 310.837L153.387 312.24C152.889 312.185 152.47 312.049 152.132 311.834C151.793 311.618 151.538 311.305 151.365 310.892C151.015 311.335 150.569 311.674 150.027 311.908C149.485 312.135 148.895 312.249 148.255 312.249C147.602 312.249 147.033 312.123 146.547 311.871C146.067 311.618 145.698 311.265 145.439 310.809C145.181 310.354 145.052 309.825 145.052 309.222C145.052 308.194 145.452 307.403 146.252 306.849C147.058 306.295 148.202 306.018 149.685 306.018H151.079V305.382C151.079 304.766 150.895 304.317 150.525 304.034C150.156 303.751 149.618 303.609 148.91 303.609C148.572 303.609 148.175 303.652 147.719 303.738C147.264 303.825 146.796 303.951 146.316 304.117L145.809 302.658C146.399 302.437 146.987 302.271 147.572 302.16C148.156 302.049 148.707 301.994 149.224 301.994C150.51 301.994 151.479 302.277 152.132 302.843C152.784 303.409 153.11 304.215 153.11 305.262V309.609ZM148.882 310.726C149.307 310.726 149.716 310.615 150.11 310.394C150.51 310.166 150.833 309.855 151.079 309.462V307.311H149.935C148.993 307.311 148.304 307.468 147.867 307.782C147.436 308.089 147.221 308.538 147.221 309.129C147.221 309.652 147.359 310.049 147.636 310.32C147.919 310.591 148.335 310.726 148.882 310.726ZM160.549 297.48C160.949 297.48 161.275 297.603 161.528 297.849C161.78 298.095 161.906 298.403 161.906 298.772C161.906 299.148 161.78 299.462 161.528 299.714C161.275 299.96 160.949 300.083 160.549 300.083C160.155 300.083 159.832 299.96 159.58 299.714C159.328 299.462 159.202 299.148 159.202 298.772C159.202 298.403 159.328 298.095 159.58 297.849C159.832 297.603 160.155 297.48 160.549 297.48ZM157.097 302.252H161.989V310.486H164.638V312H157.005V310.486H159.922V303.766H157.097V302.252ZM171.948 309.342C171.948 309.772 172.078 310.086 172.336 310.283C172.601 310.48 172.964 310.578 173.425 310.578C173.918 310.578 174.431 310.471 174.967 310.255L175.493 311.695C174.767 312.065 173.93 312.249 172.982 312.249C172.336 312.249 171.779 312.126 171.311 311.88C170.844 311.628 170.487 311.271 170.241 310.809C170.001 310.342 169.881 309.791 169.881 309.157V299.862H166.936V298.338H171.948V309.342ZM60.8003 315.538H62.2772V326.8H67.1695V328.277H62.2772V343.231H60.8003V315.538ZM66.9102 326.8H78.1717V328.277H66.9102V326.8ZM77.9124 326.8H89.174V328.277H77.9124V326.8ZM91.9239 323.163C92.0039 324.006 92.0746 324.84 92.1362 325.665C92.1977 326.483 92.2285 327.332 92.2285 328.212V334H90.327V321.262H93.1054L97.167 332.108C96.9639 330.237 96.8623 328.557 96.8623 327.068V321.262H98.764V334H95.9762L91.9239 323.163ZM105.557 323.994C106.492 323.994 107.289 324.203 107.947 324.622C108.606 325.04 109.104 325.634 109.443 326.403C109.781 327.166 109.95 328.068 109.95 329.108C109.95 330.142 109.778 331.046 109.433 331.822C109.089 332.591 108.587 333.188 107.929 333.612C107.27 334.037 106.477 334.249 105.547 334.249C104.612 334.249 103.815 334.043 103.157 333.631C102.498 333.218 101.997 332.628 101.652 331.858C101.313 331.089 101.144 330.178 101.144 329.126C101.144 328.111 101.317 327.215 101.661 326.44C102.006 325.665 102.507 325.065 103.166 324.64C103.83 324.209 104.627 323.994 105.557 323.994ZM105.557 325.6C104.806 325.6 104.243 325.889 103.867 326.468C103.498 327.04 103.313 327.926 103.313 329.126C103.313 330.326 103.498 331.215 103.867 331.794C104.237 332.366 104.797 332.652 105.547 332.652C106.298 332.652 106.858 332.366 107.227 331.794C107.597 331.215 107.781 330.32 107.781 329.108C107.781 327.914 107.597 327.031 107.227 326.458C106.858 325.886 106.301 325.6 105.557 325.6ZM120.796 333.483C120.433 333.717 119.999 333.902 119.494 334.037C118.996 334.178 118.482 334.249 117.953 334.249C117.208 334.249 116.577 334.117 116.06 333.852C115.543 333.588 115.153 333.215 114.888 332.735C114.623 332.255 114.491 331.692 114.491 331.046V325.757H112.322V324.252H114.491V322.074L116.559 321.825V324.252H119.845L119.614 325.757H116.559V331.028C116.559 331.557 116.691 331.948 116.956 332.2C117.22 332.452 117.648 332.578 118.239 332.578C118.891 332.578 119.494 332.425 120.048 332.117L120.796 333.483ZM125.373 329.791C125.429 330.745 125.696 331.458 126.176 331.932C126.663 332.406 127.281 332.643 128.032 332.643C128.493 332.643 128.927 332.572 129.333 332.431C129.739 332.289 130.158 332.077 130.589 331.794L131.484 333.031C131.023 333.412 130.484 333.711 129.869 333.926C129.253 334.142 128.607 334.249 127.93 334.249C126.939 334.249 126.09 334.037 125.383 333.612C124.675 333.182 124.139 332.582 123.776 331.812C123.413 331.043 123.232 330.151 123.232 329.135C123.232 328.157 123.41 327.28 123.767 326.505C124.13 325.723 124.647 325.111 125.318 324.668C125.989 324.218 126.776 323.994 127.681 323.994C128.536 323.994 129.278 324.191 129.906 324.585C130.539 324.972 131.026 325.532 131.364 326.265C131.709 326.997 131.881 327.865 131.881 328.868C131.881 329.206 131.866 329.514 131.835 329.791H125.373ZM127.699 325.526C127.029 325.526 126.487 325.766 126.075 326.246C125.663 326.72 125.426 327.431 125.364 328.378H129.878C129.859 327.462 129.663 326.757 129.287 326.265C128.912 325.772 128.383 325.526 127.699 325.526ZM138.203 332.662C138.856 332.662 139.369 332.548 139.745 332.32C140.126 332.086 140.317 331.766 140.317 331.36C140.317 331.077 140.259 330.846 140.142 330.668C140.031 330.489 139.809 330.323 139.477 330.169C139.145 330.009 138.643 329.843 137.972 329.671C137.271 329.492 136.689 329.289 136.228 329.062C135.766 328.828 135.406 328.529 135.148 328.166C134.896 327.797 134.769 327.338 134.769 326.791C134.769 326.237 134.926 325.751 135.24 325.332C135.56 324.908 136.012 324.578 136.597 324.345C137.188 324.111 137.877 323.994 138.665 323.994C140.111 323.994 141.345 324.369 142.366 325.12L141.499 326.422C141.086 326.151 140.652 325.942 140.197 325.794C139.748 325.64 139.256 325.563 138.72 325.563C137.489 325.563 136.874 325.923 136.874 326.643C136.874 326.889 136.945 327.092 137.086 327.252C137.228 327.406 137.468 327.554 137.806 327.695C138.151 327.831 138.668 327.994 139.357 328.185C140.059 328.382 140.634 328.597 141.083 328.831C141.532 329.065 141.88 329.372 142.126 329.754C142.379 330.135 142.505 330.625 142.505 331.222C142.505 331.892 142.308 332.455 141.914 332.911C141.52 333.366 140.997 333.705 140.345 333.926C139.699 334.142 138.985 334.249 138.203 334.249C137.348 334.249 136.588 334.126 135.923 333.88C135.259 333.634 134.683 333.298 134.197 332.874L135.296 331.618C135.689 331.945 136.132 332.2 136.625 332.385C137.123 332.569 137.649 332.662 138.203 332.662ZM60.8003 337.538H62.2772V365.231H60.8003V337.538ZM93.807 337.538H95.2839V348.8H100.176V350.277H93.807V337.538ZM99.917 348.8H111.178V350.277H99.917V348.8ZM110.919 348.8H122.18V350.277H110.919V348.8ZM127.201 354.662C127.853 354.662 128.367 354.548 128.743 354.32C129.124 354.086 129.315 353.766 129.315 353.36C129.315 353.077 129.256 352.846 129.139 352.668C129.029 352.489 128.807 352.323 128.475 352.169C128.143 352.009 127.641 351.843 126.97 351.671C126.269 351.492 125.687 351.289 125.226 351.062C124.764 350.828 124.404 350.529 124.146 350.166C123.893 349.797 123.767 349.338 123.767 348.791C123.767 348.237 123.924 347.751 124.238 347.332C124.558 346.908 125.01 346.578 125.595 346.345C126.186 346.111 126.875 345.994 127.663 345.994C129.109 345.994 130.343 346.369 131.364 347.12L130.496 348.422C130.084 348.151 129.65 347.942 129.195 347.794C128.746 347.64 128.253 347.563 127.718 347.563C126.487 347.563 125.872 347.923 125.872 348.643C125.872 348.889 125.943 349.092 126.084 349.252C126.226 349.406 126.466 349.554 126.804 349.695C127.149 349.831 127.666 349.994 128.355 350.185C129.056 350.382 129.632 350.597 130.081 350.831C130.53 351.065 130.878 351.372 131.124 351.754C131.376 352.135 131.503 352.625 131.503 353.222C131.503 353.892 131.306 354.455 130.912 354.911C130.518 355.366 129.995 355.705 129.343 355.926C128.696 356.142 127.983 356.249 127.201 356.249C126.346 356.249 125.586 356.126 124.921 355.88C124.256 355.634 123.681 355.298 123.195 354.874L124.293 353.618C124.687 353.945 125.13 354.2 125.623 354.385C126.121 354.569 126.647 354.662 127.201 354.662ZM136.376 351.791C136.431 352.745 136.699 353.458 137.179 353.932C137.665 354.406 138.283 354.643 139.034 354.643C139.496 354.643 139.929 354.572 140.336 354.431C140.742 354.289 141.16 354.077 141.591 353.794L142.486 355.031C142.025 355.412 141.486 355.711 140.871 355.926C140.256 356.142 139.609 356.249 138.932 356.249C137.942 356.249 137.092 356.037 136.385 355.612C135.677 355.182 135.142 354.582 134.779 353.812C134.416 353.043 134.234 352.151 134.234 351.135C134.234 350.157 134.412 349.28 134.769 348.505C135.132 347.723 135.649 347.111 136.32 346.668C136.991 346.218 137.779 345.994 138.683 345.994C139.539 345.994 140.28 346.191 140.908 346.585C141.542 346.972 142.028 347.532 142.366 348.265C142.711 348.997 142.883 349.865 142.883 350.868C142.883 351.206 142.868 351.514 142.837 351.791H136.376ZM138.702 347.526C138.031 347.526 137.489 347.766 137.077 348.246C136.665 348.72 136.428 349.431 136.366 350.378H140.88C140.862 349.462 140.665 348.757 140.289 348.265C139.914 347.772 139.385 347.526 138.702 347.526ZM150.359 354.551C150.79 354.551 151.199 354.477 151.587 354.329C151.981 354.182 152.372 353.972 152.759 353.702L153.719 355.031C153.282 355.4 152.759 355.695 152.15 355.917C151.547 356.138 150.929 356.249 150.295 356.249C149.31 356.249 148.461 356.04 147.747 355.622C147.033 355.203 146.489 354.612 146.113 353.849C145.738 353.08 145.55 352.188 145.55 351.172C145.55 350.175 145.741 349.286 146.122 348.505C146.504 347.723 147.055 347.111 147.775 346.668C148.501 346.218 149.353 345.994 150.332 345.994C151.636 345.994 152.762 346.385 153.71 347.166L152.759 348.468C151.972 347.926 151.175 347.655 150.369 347.655C149.562 347.655 148.922 347.948 148.449 348.532C147.981 349.117 147.747 349.997 147.747 351.172C147.747 352.335 147.981 353.191 148.449 353.738C148.916 354.28 149.553 354.551 150.359 354.551ZM163.577 346.003C163.848 346.003 164.097 346.025 164.325 346.068C164.552 346.111 164.792 346.172 165.045 346.252L164.694 349.843H163.217V347.858C162.534 347.883 161.943 348.157 161.445 348.68C160.946 349.197 160.549 349.938 160.254 350.905V354.523H162.22V356H156.755V354.523H158.186V347.72H156.755V346.252H159.765L160.143 348.514C160.518 347.671 160.977 347.043 161.518 346.631C162.066 346.212 162.752 346.003 163.577 346.003ZM169.382 351.791C169.438 352.745 169.705 353.458 170.185 353.932C170.671 354.406 171.29 354.643 172.041 354.643C172.502 354.643 172.936 354.572 173.342 354.431C173.748 354.289 174.167 354.077 174.598 353.794L175.493 355.031C175.031 355.412 174.493 355.711 173.878 355.926C173.262 356.142 172.616 356.249 171.939 356.249C170.948 356.249 170.099 356.037 169.391 355.612C168.684 355.182 168.148 354.582 167.785 353.812C167.422 353.043 167.241 352.151 167.241 351.135C167.241 350.157 167.419 349.28 167.776 348.505C168.139 347.723 168.656 347.111 169.327 346.668C169.998 346.218 170.785 345.994 171.69 345.994C172.545 345.994 173.287 346.191 173.914 346.585C174.548 346.972 175.034 347.532 175.373 348.265C175.718 348.997 175.89 349.865 175.89 350.868C175.89 351.206 175.874 351.514 175.844 351.791H169.382ZM171.708 347.526C171.038 347.526 170.496 347.766 170.084 348.246C169.671 348.72 169.434 349.431 169.373 350.378H173.887C173.868 349.462 173.671 348.757 173.296 348.265C172.921 347.772 172.391 347.526 171.708 347.526ZM186.809 355.483C186.446 355.717 186.012 355.902 185.507 356.037C185.009 356.178 184.495 356.249 183.966 356.249C183.221 356.249 182.591 356.117 182.074 355.852C181.557 355.588 181.166 355.215 180.901 354.735C180.637 354.255 180.504 353.692 180.504 353.046V347.757H178.335V346.252H180.504V344.074L182.572 343.825V346.252H185.858L185.627 347.757H182.572V353.028C182.572 353.557 182.704 353.948 182.969 354.2C183.234 354.452 183.661 354.578 184.252 354.578C184.904 354.578 185.507 354.425 186.061 354.117L186.809 355.483ZM60.8003 359.538H62.2772V370.8H67.1695V372.277H62.2772V387.231H60.8003V359.538ZM66.9102 370.8H78.1717V372.277H66.9102V370.8ZM77.9124 370.8H89.174V372.277H77.9124V370.8ZM99.1331 374.4C99.1331 375.157 98.9393 375.828 98.5516 376.412C98.17 376.991 97.6131 377.443 96.8808 377.769C96.1485 378.089 95.2808 378.249 94.2777 378.249C93.2746 378.249 92.3823 378.102 91.6008 377.806C90.8193 377.505 90.1486 377.083 89.5886 376.542L90.7608 375.231C91.2285 375.662 91.7486 375.991 92.3209 376.218C92.8994 376.446 93.5486 376.56 94.2686 376.56C94.7609 376.56 95.2039 376.483 95.5977 376.329C95.9977 376.169 96.3146 375.935 96.5485 375.628C96.7885 375.32 96.9086 374.945 96.9086 374.502C96.9086 374.12 96.8316 373.8 96.6777 373.542C96.5239 373.283 96.2593 373.052 95.8839 372.849C95.5085 372.646 94.9793 372.443 94.2962 372.24C93.3546 371.957 92.5854 371.649 91.9885 371.317C91.3977 370.985 90.9486 370.588 90.6409 370.126C90.3394 369.658 90.1885 369.098 90.1885 368.446C90.1885 367.769 90.3762 367.169 90.7516 366.646C91.1331 366.123 91.6563 365.72 92.3209 365.437C92.9855 365.148 93.7331 365.003 94.5639 365.003C95.4562 365.003 96.25 365.132 96.9454 365.391C97.647 365.649 98.2746 366.031 98.8285 366.535L97.7024 367.809C97.2655 367.428 96.7916 367.145 96.2808 366.96C95.77 366.775 95.2408 366.683 94.6931 366.683C94.01 366.683 93.4532 366.825 93.0224 367.108C92.5978 367.391 92.3854 367.797 92.3854 368.326C92.3854 368.665 92.4746 368.948 92.6531 369.175C92.8377 369.403 93.1394 369.615 93.5578 369.812C93.9763 370.009 94.5793 370.225 95.367 370.458C96.167 370.698 96.8377 370.972 97.3793 371.28C97.9208 371.582 98.3485 371.988 98.6623 372.498C98.9762 373.003 99.1331 373.637 99.1331 374.4ZM103.369 373.791C103.424 374.745 103.692 375.458 104.172 375.932C104.658 376.406 105.277 376.643 106.027 376.643C106.489 376.643 106.923 376.572 107.329 376.431C107.735 376.289 108.153 376.077 108.584 375.794L109.48 377.031C109.018 377.412 108.48 377.711 107.864 377.926C107.249 378.142 106.603 378.249 105.926 378.249C104.935 378.249 104.086 378.037 103.378 377.612C102.67 377.182 102.135 376.582 101.772 375.812C101.409 375.043 101.227 374.151 101.227 373.135C101.227 372.157 101.406 371.28 101.763 370.505C102.126 369.723 102.643 369.111 103.313 368.668C103.984 368.218 104.772 367.994 105.677 367.994C106.532 367.994 107.273 368.191 107.901 368.585C108.535 368.972 109.021 369.532 109.36 370.265C109.704 370.997 109.877 371.865 109.877 372.868C109.877 373.206 109.861 373.514 109.83 373.791H103.369ZM105.695 369.526C105.024 369.526 104.483 369.766 104.07 370.246C103.658 370.72 103.421 371.431 103.36 372.378H107.873C107.855 371.462 107.658 370.757 107.283 370.265C106.907 369.772 106.378 369.526 105.695 369.526ZM119.568 368.003C119.839 368.003 120.088 368.025 120.316 368.068C120.543 368.111 120.783 368.172 121.036 368.252L120.685 371.843H119.208V369.858C118.525 369.883 117.934 370.157 117.436 370.68C116.937 371.197 116.54 371.938 116.245 372.905V376.523H118.211V378H112.746V376.523H114.177V369.72H112.746V368.252H115.756L116.134 370.514C116.51 369.671 116.968 369.043 117.51 368.631C118.057 368.212 118.743 368.003 119.568 368.003ZM130.081 368.252H132.195L128.761 378H126.343L122.909 368.252H125.124L127.598 376.283L130.081 368.252ZM136.376 373.791C136.431 374.745 136.699 375.458 137.179 375.932C137.665 376.406 138.283 376.643 139.034 376.643C139.496 376.643 139.929 376.572 140.336 376.431C140.742 376.289 141.16 376.077 141.591 375.794L142.486 377.031C142.025 377.412 141.486 377.711 140.871 377.926C140.256 378.142 139.609 378.249 138.932 378.249C137.942 378.249 137.092 378.037 136.385 377.612C135.677 377.182 135.142 376.582 134.779 375.812C134.416 375.043 134.234 374.151 134.234 373.135C134.234 372.157 134.412 371.28 134.769 370.505C135.132 369.723 135.649 369.111 136.32 368.668C136.991 368.218 137.779 367.994 138.683 367.994C139.539 367.994 140.28 368.191 140.908 368.585C141.542 368.972 142.028 369.532 142.366 370.265C142.711 370.997 142.883 371.865 142.883 372.868C142.883 373.206 142.868 373.514 142.837 373.791H136.376ZM138.702 369.526C138.031 369.526 137.489 369.766 137.077 370.246C136.665 370.72 136.428 371.431 136.366 372.378H140.88C140.862 371.462 140.665 370.757 140.289 370.265C139.914 369.772 139.385 369.526 138.702 369.526ZM152.575 368.003C152.845 368.003 153.095 368.025 153.322 368.068C153.55 368.111 153.79 368.172 154.042 368.252L153.692 371.843H152.215V369.858C151.532 369.883 150.941 370.157 150.442 370.68C149.944 371.197 149.547 371.938 149.252 372.905V376.523H151.218V378H145.753V376.523H147.184V369.72H145.753V368.252H148.762L149.141 370.514C149.516 369.671 149.975 369.043 150.516 368.631C151.064 368.212 151.75 368.003 152.575 368.003ZM160.208 376.662C160.86 376.662 161.374 376.548 161.749 376.32C162.131 376.086 162.322 375.766 162.322 375.36C162.322 375.077 162.263 374.846 162.146 374.668C162.035 374.489 161.814 374.323 161.482 374.169C161.149 374.009 160.648 373.843 159.977 373.671C159.275 373.492 158.694 373.289 158.232 373.062C157.771 372.828 157.411 372.529 157.152 372.166C156.9 371.797 156.774 371.338 156.774 370.791C156.774 370.237 156.931 369.751 157.245 369.332C157.565 368.908 158.017 368.578 158.602 368.345C159.192 368.111 159.882 367.994 160.669 367.994C162.115 367.994 163.349 368.369 164.371 369.12L163.503 370.422C163.091 370.151 162.657 369.942 162.202 369.794C161.752 369.64 161.26 369.563 160.725 369.563C159.494 369.563 158.878 369.923 158.878 370.643C158.878 370.889 158.949 371.092 159.091 371.252C159.232 371.406 159.472 371.554 159.811 371.695C160.155 371.831 160.672 371.994 161.362 372.185C162.063 372.382 162.638 372.597 163.088 372.831C163.537 373.065 163.885 373.372 164.131 373.754C164.383 374.135 164.509 374.625 164.509 375.222C164.509 375.892 164.312 376.455 163.918 376.911C163.525 377.366 163.002 377.705 162.349 377.926C161.703 378.142 160.989 378.249 160.208 378.249C159.352 378.249 158.592 378.126 157.928 377.88C157.263 377.634 156.688 377.298 156.202 376.874L157.3 375.618C157.694 375.945 158.137 376.2 158.629 376.385C159.128 376.569 159.654 376.662 160.208 376.662ZM60.8003 381.538H62.2772V392.8H67.1695V394.277H60.8003V381.538ZM66.9102 392.8H78.1717V394.277H66.9102V392.8ZM77.9124 392.8H89.174V394.277H77.9124V392.8ZM93.807 381.538H95.2839V392.8H100.176V394.277H88.9146V392.8H93.807V381.538ZM99.917 392.8H111.178V394.277H99.917V392.8ZM110.919 392.8H122.18V394.277H110.919V392.8ZM131.899 387.262L132.619 400H130.663L130.358 393.797C130.321 392.892 130.303 392.046 130.303 391.258C130.303 390.477 130.318 389.772 130.349 389.145L128.475 397.757H126.61L124.598 389.145C124.653 389.988 124.681 390.957 124.681 392.052C124.681 392.637 124.672 393.225 124.653 393.815L124.404 400H122.484L123.204 387.262H125.77L127.589 395.8L129.324 387.262H131.899ZM139.828 400.037C139.428 401.225 138.856 402.151 138.111 402.815C137.372 403.486 136.354 403.877 135.056 403.988L134.788 402.437C135.434 402.338 135.951 402.188 136.339 401.985C136.732 401.788 137.043 401.532 137.271 401.218C137.505 400.911 137.717 400.505 137.908 400H137.206L133.92 390.252H136.117L138.572 398.56L141.065 390.252H143.188L139.828 400.037ZM165.146 396.4C165.146 397.157 164.952 397.828 164.565 398.412C164.183 398.991 163.626 399.443 162.894 399.769C162.162 400.089 161.294 400.249 160.291 400.249C159.288 400.249 158.395 400.102 157.614 399.806C156.832 399.505 156.162 399.083 155.602 398.542L156.774 397.231C157.242 397.662 157.762 397.991 158.334 398.218C158.912 398.446 159.562 398.56 160.282 398.56C160.774 398.56 161.217 398.483 161.611 398.329C162.011 398.169 162.328 397.935 162.562 397.628C162.802 397.32 162.922 396.945 162.922 396.502C162.922 396.12 162.845 395.8 162.691 395.542C162.537 395.283 162.272 395.052 161.897 394.849C161.522 394.646 160.992 394.443 160.309 394.24C159.368 393.957 158.598 393.649 158.002 393.317C157.411 392.985 156.962 392.588 156.654 392.126C156.352 391.658 156.202 391.098 156.202 390.446C156.202 389.769 156.389 389.169 156.765 388.646C157.146 388.123 157.669 387.72 158.334 387.437C158.998 387.148 159.746 387.003 160.577 387.003C161.469 387.003 162.263 387.132 162.958 387.391C163.66 387.649 164.288 388.031 164.842 388.535L163.715 389.809C163.278 389.428 162.805 389.145 162.294 388.96C161.783 388.775 161.254 388.683 160.706 388.683C160.023 388.683 159.466 388.825 159.035 389.108C158.611 389.391 158.398 389.797 158.398 390.326C158.398 390.665 158.488 390.948 158.666 391.175C158.851 391.403 159.152 391.615 159.571 391.812C159.989 392.009 160.592 392.225 161.38 392.458C162.18 392.698 162.851 392.972 163.392 393.28C163.934 393.582 164.362 393.988 164.675 394.498C164.989 395.003 165.146 395.637 165.146 396.4ZM169.382 395.791C169.438 396.745 169.705 397.458 170.185 397.932C170.671 398.406 171.29 398.643 172.041 398.643C172.502 398.643 172.936 398.572 173.342 398.431C173.748 398.289 174.167 398.077 174.598 397.794L175.493 399.031C175.031 399.412 174.493 399.711 173.878 399.926C173.262 400.142 172.616 400.249 171.939 400.249C170.948 400.249 170.099 400.037 169.391 399.612C168.684 399.182 168.148 398.582 167.785 397.812C167.422 397.043 167.241 396.151 167.241 395.135C167.241 394.157 167.419 393.28 167.776 392.505C168.139 391.723 168.656 391.111 169.327 390.668C169.998 390.218 170.785 389.994 171.69 389.994C172.545 389.994 173.287 390.191 173.914 390.585C174.548 390.972 175.034 391.532 175.373 392.265C175.718 392.997 175.89 393.865 175.89 394.868C175.89 395.206 175.874 395.514 175.844 395.791H169.382ZM171.708 391.526C171.038 391.526 170.496 391.766 170.084 392.246C169.671 392.72 169.434 393.431 169.373 394.378H173.887C173.868 393.462 173.671 392.757 173.296 392.265C172.921 391.772 172.391 391.526 171.708 391.526ZM185.581 390.003C185.852 390.003 186.101 390.025 186.329 390.068C186.557 390.111 186.797 390.172 187.049 390.252L186.698 393.843H185.221V391.858C184.538 391.883 183.947 392.157 183.449 392.68C182.951 393.197 182.554 393.938 182.258 394.905V398.523H184.224V400H178.76V398.523H180.191V391.72H178.76V390.252H181.769L182.147 392.514C182.523 391.671 182.981 391.043 183.523 390.631C184.071 390.212 184.757 390.003 185.581 390.003ZM196.094 390.252H198.208L194.774 400H192.356L188.922 390.252H191.137L193.611 398.283L196.094 390.252ZM202.389 395.791C202.444 396.745 202.712 397.458 203.192 397.932C203.678 398.406 204.297 398.643 205.047 398.643C205.509 398.643 205.943 398.572 206.349 398.431C206.755 398.289 207.173 398.077 207.604 397.794L208.5 399.031C208.038 399.412 207.5 399.711 206.884 399.926C206.269 400.142 205.623 400.249 204.946 400.249C203.955 400.249 203.106 400.037 202.398 399.612C201.69 399.182 201.155 398.582 200.792 397.812C200.429 397.043 200.247 396.151 200.247 395.135C200.247 394.157 200.426 393.28 200.783 392.505C201.146 391.723 201.663 391.111 202.333 390.668C203.004 390.218 203.792 389.994 204.697 389.994C205.552 389.994 206.293 390.191 206.921 390.585C207.555 390.972 208.041 391.532 208.38 392.265C208.724 392.997 208.897 393.865 208.897 394.868C208.897 395.206 208.881 395.514 208.85 395.791H202.389ZM204.715 391.526C204.044 391.526 203.503 391.766 203.09 392.246C202.678 392.72 202.441 393.431 202.38 394.378H206.893C206.875 393.462 206.678 392.757 206.303 392.265C205.927 391.772 205.398 391.526 204.715 391.526ZM218.588 390.003C218.859 390.003 219.108 390.025 219.336 390.068C219.563 390.111 219.803 390.172 220.056 390.252L219.705 393.843H218.228V391.858C217.545 391.883 216.954 392.157 216.456 392.68C215.957 393.197 215.56 393.938 215.265 394.905V398.523H217.231V400H211.766V398.523H213.197V391.72H211.766V390.252H214.776L215.154 392.514C215.53 391.671 215.988 391.043 216.53 390.631C217.077 390.212 217.763 390.003 218.588 390.003Z" fill="white"/>
<defs>
<filter id="filter0_d_1706_32" x="0.5" y="0.5" width="445" height="490" filterUnits="userSpaceOnUse" color-interpolation-filters="sRGB">
<feFlood flood-opacity="0" result="BackgroundImageFix"/>
<feColorMatrix in="SourceAlpha" type="matrix" values="0 0 0 0 0 0 0 0 0 0 0 0 0 0 0 0 0 0 127 0" result="hardAlpha"/>
<feOffset dy="25"/>
<feGaussianBlur stdDeviation="15"/>
<feColorMatrix type="matrix" values="0 0 0 0 0 0 0 0 0 0 0 0 0 0 0 0 0 0 0.35 0"/>
<feBlend mode="normal" in2="BackgroundImageFix" result="effect1_dropShadow_1706_32"/>
<feBlend mode="normal" in="SourceGraphic" in2="effect1_dropShadow_1706_32" result="shape"/>
</filter>
<filter id="filter1_di_1706_32" x="27" y="2.5" width="392" height="36" filterUnits="userSpaceOnUse" color-interpolation-filters="sRGB">
<feFlood flood-opacity="0" result="BackgroundImageFix"/>
<feColorMatrix in="SourceAlpha" type="matrix" values="0 0 0 0 0 0 0 0 0 0 0 0 0 0 0 0 0 0 127 0" result="hardAlpha"/>
<feOffset dy="0.5"/>
<feGaussianBlur stdDeviation="2"/>
<feColorMatrix type="matrix" values="0 0 0 0 0 0 0 0 0 0 0 0 0 0 0 0 0 0 0.15 0"/>
<feBlend mode="normal" in2="BackgroundImageFix" result="effect1_dropShadow_1706_32"/>
<feBlend mode="normal" in="SourceGraphic" in2="effect1_dropShadow_1706_32" result="shape"/>
<feColorMatrix in="SourceAlpha" type="matrix" values="0 0 0 0 0 0 0 0 0 0 0 0 0 0 0 0 0 0 127 0" result="hardAlpha"/>
<feOffset dy="-0.5"/>
<feGaussianBlur stdDeviation="2"/>
<feComposite in2="hardAlpha" operator="arithmetic" k2="-1" k3="1"/>
<feColorMatrix type="matrix" values="0 0 0 0 0 0 0 0 0 0 0 0 0 0 0 0 0 0 0.05 0"/>
<feBlend mode="normal" in2="shape" result="effect2_innerShadow_1706_32"/>
</filter>
</defs>
</svg>
