<svg width="1004" height="742" viewBox="0 0 1004 742" fill="none" xmlns="http://www.w3.org/2000/svg">
    <g filter="url(#filter0_d)">
        <path d="M49 82.101C49 71.5509 57.9029 63 68.8875 63H929.113C940.09 63 949 71.5509 949 82.101V643.899C949 654.449 940.09 663 929.113 663H68.8875C57.9029 663 49 654.449 49 643.899V82.101Z" fill="white" />
        <path d="M49 82.101C49 71.5509 57.9029 63 68.8875 63H929.113C940.09 63 949 71.5509 949 82.101V643.899C949 654.449 940.09 663 929.113 663H68.8875C57.9029 663 49 654.449 49 643.899V82.101Z" fill="white" />
        <path d="M52.2949 82.0986C52.2949 73.3122 59.7129 66.1812 68.8678 66.1812H929.093C938.241 66.1812 945.666 73.3122 945.666 82.0986V643.897C945.666 652.69 938.241 659.814 929.093 659.814H68.8678C59.7129 659.814 52.2949 652.69 52.2949 643.897V82.0986Z" stroke="white" stroke-opacity="0.1" />
        <path fill-rule="evenodd" clip-rule="evenodd" d="M705.465 129.146H101.934V139.314H705.465V129.146ZM451.343 169.825H101.934V179.993H451.343V169.825ZM101.934 413.891H451.343V424.059H101.934V413.891ZM451.343 495.248H101.934V505.416H451.343V495.248ZM101.934 454.569H758.405V464.738H101.934V454.569ZM345.462 210.504H101.934V220.672H345.462V210.504ZM101.934 373.212H197.228V383.386H101.934V373.212ZM303.108 535.927H101.934V546.095H303.108V535.927ZM101.934 576.606H303.108V586.774H101.934V576.606ZM430.169 535.927H334.875V546.095H430.169V535.927ZM334.875 576.606H430.169V586.774H334.875V576.606ZM154.874 251.182H101.934V261.35H154.874V251.182ZM334.875 251.182H493.696V261.35H334.875V251.182ZM514.877 332.533H334.875V342.708H514.877V332.533ZM334.875 291.861H567.817V302.029H334.875V291.861ZM303.108 251.182H186.641V261.35H303.108V251.182ZM101.934 291.861H154.874V302.029H101.934V291.861ZM303.108 291.861H186.641V302.029H303.108V291.861ZM101.934 332.533H154.874V342.708H101.934V332.533ZM303.108 332.533H186.641V342.708H303.108V332.533Z" fill="url(#paint0_linear)" fill-opacity="0.25" />
    </g>
    <rect x="2.51172" y="605.5" width="95" height="95" rx="22.5" fill="white" stroke="#336791" stroke-width="5" />
    <path d="M65.2296 668.501C65.6604 664.915 65.5309 664.392 68.2 664.971L68.8791 665.032C70.9325 665.124 73.6174 664.701 75.2215 663.969C78.6173 662.394 80.631 659.762 77.2828 660.455C69.6455 662.03 69.0905 659.442 69.0905 659.442C77.1586 647.471 80.5333 632.276 77.6184 628.558C69.6798 618.41 55.9353 623.209 55.7054 623.336L55.6314 623.349C54.1251 623.032 52.4602 622.847 50.5311 622.82C47.0745 622.768 44.453 623.727 42.4604 625.236C42.4604 625.236 17.9444 615.136 19.0834 637.939C19.3265 642.791 26.0336 674.672 34.0409 665.026C36.9716 661.501 39.7992 658.523 39.7992 658.523C41.1999 659.456 42.8832 659.931 44.6459 659.76L44.7833 659.643C44.7426 660.1 44.7613 660.56 44.8388 661.012C42.7775 663.317 43.3853 663.721 39.2628 664.569C35.0927 665.428 37.5451 666.958 39.1412 667.36C41.0809 667.846 45.5682 668.533 48.602 664.289L48.4804 664.773C49.2891 665.42 49.2336 669.424 49.3525 672.283C49.4714 675.143 49.659 677.814 50.2431 679.387C50.8271 680.959 51.5115 685.015 56.929 683.879C61.4559 682.909 64.9178 681.511 65.2349 668.525" fill="black" />
    <path d="M65.2296 668.501C65.6604 664.915 65.5309 664.392 68.2 664.971L68.8791 665.032C70.9325 665.124 73.6174 664.701 75.2215 663.969C78.6173 662.394 80.631 659.762 77.2828 660.455C69.6455 662.03 69.0905 659.442 69.0905 659.442C77.1586 647.471 80.5333 632.276 77.6184 628.558C69.6798 618.41 55.9353 623.209 55.7054 623.336L55.6314 623.349C54.1251 623.032 52.4602 622.847 50.5311 622.82C47.0745 622.768 44.453 623.727 42.4604 625.236C42.4604 625.236 17.9444 615.136 19.0834 637.939C19.3265 642.791 26.0336 674.672 34.0409 665.026C36.9716 661.501 39.7992 658.523 39.7992 658.523C41.1999 659.456 42.8832 659.931 44.6459 659.76L44.7833 659.643C44.7426 660.1 44.7613 660.56 44.8388 661.012C42.7775 663.317 43.3853 663.721 39.2628 664.569C35.0927 665.428 37.5451 666.958 39.1412 667.36C41.0809 667.846 45.5682 668.533 48.602 664.289L48.4804 664.773C49.2891 665.42 49.2336 669.424 49.3525 672.283C49.4714 675.143 49.659 677.814 50.2431 679.387C50.8271 680.959 51.5115 685.015 56.929 683.879C61.4559 682.909 64.9178 681.511 65.2349 668.525" stroke="black" stroke-width="5.3725" />
    <path d="M77.2601 660.478C69.6228 662.054 69.0678 659.466 69.0678 659.466C77.1359 647.495 80.5106 632.3 77.5983 628.582C69.6598 618.434 55.9153 623.235 55.6854 623.36L55.6114 623.373C53.9326 623.036 52.2258 622.858 50.5137 622.842C47.0571 622.789 44.4356 623.748 42.443 625.257C42.443 625.257 17.9244 615.157 19.066 637.96C19.3091 642.812 26.0162 674.693 34.0235 665.048C36.9727 661.501 39.8003 658.523 39.8003 658.523C41.201 659.456 42.8843 659.931 44.647 659.76L44.7844 659.643C44.744 660.1 44.7627 660.56 44.8399 661.012C42.7786 663.317 43.3864 663.721 39.2639 664.569C35.0938 665.428 37.5461 666.958 39.1423 667.36C41.082 667.846 45.5693 668.533 48.6031 664.289L48.4815 664.773C49.2901 665.42 49.8557 668.983 49.7605 672.212C49.6654 675.441 49.602 677.656 50.2362 679.389C50.8705 681.123 51.5047 685.018 56.9222 683.882C61.449 682.912 63.7931 680.394 64.1234 676.202C64.356 673.221 64.8792 673.66 64.9162 670.996L65.339 669.733C65.8226 665.69 65.4183 664.387 68.2063 664.995L68.8855 665.056C70.9388 665.148 73.6264 664.725 75.2015 663.993C78.5973 662.418 80.611 659.786 77.2627 660.478H77.2601Z" fill="#336791" />
    <path d="M48.9272 661.85C48.7157 669.371 48.98 677.865 49.7147 679.683C50.4493 681.501 52.027 685.1 57.4471 683.943C61.974 682.973 63.623 681.094 64.3365 676.948L66.0093 662.77M42.4315 625.067C42.4315 625.067 17.897 615.035 19.0386 637.839C19.2818 642.691 25.9888 674.572 33.9961 664.926C36.9189 661.403 39.5616 658.647 39.5616 658.647M55.6818 623.235C54.8361 623.5 69.3285 617.937 77.5683 628.463C80.4753 632.181 77.1059 647.376 69.0378 659.347" stroke="white" stroke-width="1.79" stroke-linecap="round" stroke-linejoin="round" />
    <path d="M69.0409 659.342C69.0409 659.342 69.5694 661.932 77.2332 660.352C80.5814 659.659 78.5651 662.291 75.1719 663.866C72.3865 665.161 66.1393 665.492 66.0362 663.708C65.7719 659.096 69.3237 660.497 69.0673 659.342C68.8348 658.301 67.2439 657.281 66.1974 654.733C65.2804 652.513 53.6183 635.468 69.432 637.997C70.0134 637.878 65.3095 622.934 50.5105 622.717C35.7116 622.501 36.1794 640.912 36.1794 640.912" stroke="white" stroke-width="1.79" stroke-linecap="round" stroke-linejoin="bevel" />
    <path d="M44.7872 660.923C42.726 663.227 43.3338 663.631 39.2112 664.48C35.0411 665.338 37.4935 666.868 39.0896 667.27C41.0294 667.756 45.5166 668.444 48.5504 664.197C49.4753 662.902 48.5451 660.841 47.2766 660.317C46.6635 660.064 45.8443 659.747 44.7925 660.925L44.7872 660.923Z" stroke="white" stroke-width="1.79" stroke-linejoin="round" />
    <path d="M44.652 660.883C44.4406 659.527 45.0959 657.918 45.7962 656.031C46.848 653.203 49.274 650.376 47.3343 641.399C45.8887 634.713 36.1822 640.006 36.1822 640.912C36.1822 641.819 36.6209 645.511 36.0237 649.805C35.2388 655.413 39.5913 660.154 44.6018 659.67" stroke="white" stroke-width="1.79" stroke-linecap="round" stroke-linejoin="round" />
    <path d="M42.3422 640.778C42.2972 641.087 42.9103 641.914 43.7058 642.025C44.5012 642.136 45.1804 641.491 45.2253 641.179C45.2702 640.868 44.6571 640.529 43.8617 640.418C43.0663 640.307 42.3818 640.471 42.3422 640.778V640.778Z" fill="white" stroke="white" stroke-width="0.5975" />
    <path d="M66.5608 640.146C66.603 640.455 65.9926 641.282 65.1971 641.393C64.4017 641.504 63.7173 640.86 63.6776 640.548C63.638 640.236 64.2458 639.898 65.0412 639.787C65.8367 639.676 66.5211 639.84 66.5608 640.146Z" fill="white" stroke="white" stroke-width="0.2975" />
    <path d="M69.4024 638.002C69.5345 640.434 68.8791 642.085 68.7945 644.673C68.673 648.43 70.5863 652.733 67.7031 657.04" stroke="white" stroke-width="1.79" stroke-linecap="round" stroke-linejoin="round" />
    <rect x="183.512" y="2.50024" width="95" height="95" rx="22.5" fill="white" stroke="black" stroke-width="5" />
    <path d="M231 15C211.701 15 196 30.7009 196 49.9999C196 55.4566 197.256 60.6253 199.493 65.2331L200.601 62.9522C200.616 62.9209 200.631 62.8899 200.648 62.8591C201.118 61.9667 202.652 58.4024 202.652 49.9999C202.652 44.9678 203.988 40.0171 206.514 35.6829C207.395 34.1717 209.334 33.6605 210.846 34.5416C212.357 35.4226 212.868 37.3618 211.987 38.8731C210.025 42.2399 208.987 46.0876 208.987 49.9999C208.987 59.1643 207.302 63.7956 206.278 65.7629L203.457 71.5718C207.038 76.134 211.726 79.7864 217.113 82.1239C219.706 80.048 221.889 77.1864 223.612 73.5902C226.518 67.526 227.991 59.5891 227.991 49.9999C227.991 48.2507 229.409 46.8326 231.158 46.8326C232.908 46.8326 234.326 48.2507 234.326 49.9999C234.326 60.5442 232.643 69.4022 229.325 76.3276C227.851 79.4029 226.077 82.066 224.026 84.3013C226.28 84.7591 228.613 85 231 85C231.196 85 231.391 84.9958 231.586 84.9926C235.817 79.0173 238.599 71.3855 239.863 62.2814C240.103 60.5486 241.702 59.3404 243.435 59.5794C245.168 59.8199 246.378 61.4194 246.137 63.152C245.041 71.05 242.875 77.9981 239.687 83.9083C242.722 83.1304 245.598 81.9541 248.258 80.4397C251.621 71.7979 253.33 61.567 253.33 49.9999C253.33 37.7746 243.384 27.8286 231.158 27.8286C227.216 27.8286 223.342 28.8812 219.957 30.8726C218.449 31.7592 216.508 31.2562 215.621 29.7484C214.734 28.2405 215.238 26.2994 216.745 25.4125C221.103 22.8489 226.087 21.4939 231.158 21.4939C246.877 21.4939 259.664 34.2817 259.664 49.9999C259.664 58.4231 258.799 66.215 257.096 73.2961C262.63 67.1037 266 58.9385 266 49.9999C266 30.7009 250.299 15 231 15ZM215.322 49.9999C215.322 41.2676 222.426 34.1632 231.158 34.1632C239.891 34.1632 246.995 41.2676 246.995 49.9999C246.995 51.7491 245.577 53.1672 243.828 53.1672C242.079 53.1672 240.66 51.7491 240.66 49.9999C240.66 44.7605 236.398 40.4979 231.158 40.4979C225.919 40.4979 221.656 44.7605 221.656 49.9999C221.656 59.2741 220.212 66.6451 217.365 71.9081C216.791 72.9675 215.701 73.5687 214.576 73.5687C214.067 73.5687 213.551 73.4456 213.072 73.1863C211.533 72.3539 210.961 70.4318 211.793 68.8933C213.403 65.9187 215.322 60.226 215.322 49.9999Z" fill="black" />
    <rect x="294.512" y="466.5" width="95" height="95" rx="22.5" fill="white" stroke="#E10098" stroke-width="5" />
    <path d="M342.015 475C340.156 475 338.374 475.738 337.059 477.053C335.745 478.367 335.006 480.15 335.006 482.009C335.006 483.867 335.745 485.65 337.059 486.964C338.374 488.279 340.156 489.017 342.015 489.017C343.874 489.017 345.656 488.279 346.971 486.964C348.285 485.65 349.024 483.867 349.024 482.009C349.024 480.15 348.285 478.367 346.971 477.053C345.656 475.738 343.874 475 342.015 475V475ZM370.003 491.16C368.144 491.16 366.362 491.899 365.047 493.213C363.733 494.528 362.995 496.31 362.995 498.169C362.995 500.028 363.733 501.81 365.047 503.125C366.362 504.439 368.144 505.177 370.003 505.177C371.862 505.177 373.645 504.439 374.959 503.125C376.273 501.81 377.012 500.028 377.012 498.169C377.012 496.31 376.273 494.528 374.959 493.213C373.645 491.899 371.862 491.16 370.003 491.16ZM370.003 523.481C368.144 523.481 366.362 524.22 365.047 525.534C363.733 526.848 362.995 528.631 362.995 530.49C362.995 532.349 363.733 534.131 365.047 535.446C366.362 536.76 368.144 537.498 370.003 537.498C371.862 537.498 373.645 536.76 374.959 535.446C376.273 534.131 377.012 532.349 377.012 530.49C377.012 528.631 376.273 526.848 374.959 525.534C373.645 524.22 371.862 523.481 370.003 523.481ZM342.015 539.642C340.157 539.642 338.374 540.38 337.06 541.694C335.746 543.008 335.008 544.79 335.008 546.648C335.008 548.507 335.746 550.289 337.06 551.603C338.374 552.917 340.157 553.655 342.015 553.655C343.873 553.655 345.656 552.917 346.97 551.603C348.284 550.289 349.022 548.507 349.022 546.648C349.022 544.79 348.284 543.008 346.97 541.694C345.656 540.38 343.873 539.642 342.015 539.642ZM314.02 523.484C313.1 523.484 312.189 523.666 311.339 524.018C310.489 524.37 309.716 524.886 309.066 525.537C308.415 526.187 307.899 526.96 307.547 527.81C307.195 528.66 307.013 529.571 307.013 530.491C307.013 531.412 307.195 532.323 307.547 533.173C307.899 534.023 308.415 534.795 309.066 535.446C309.716 536.097 310.489 536.613 311.339 536.965C312.189 537.317 313.1 537.498 314.02 537.498C315.879 537.498 317.662 536.76 318.976 535.446C320.29 534.131 321.029 532.349 321.029 530.49C321.029 528.631 320.29 526.848 318.976 525.534C317.662 524.22 315.879 523.481 314.02 523.481V523.484ZM314.02 491.16C312.161 491.16 310.379 491.899 309.064 493.213C307.75 494.528 307.012 496.31 307.012 498.169C307.012 500.028 307.75 501.81 309.064 503.125C310.379 504.439 312.161 505.177 314.02 505.177C315.879 505.177 317.662 504.439 318.976 503.125C320.29 501.81 321.029 500.028 321.029 498.169C321.029 496.31 320.29 494.528 318.976 493.213C317.662 491.899 315.879 491.16 314.02 491.16ZM342.015 480.09L312.359 497.21V531.452L342.015 548.572L371.665 531.452V497.21L342.015 480.09ZM342.015 485.337L367.119 528.826H316.904L342.015 485.337ZM337.469 486.553L315.692 524.281V499.131L337.469 486.553ZM346.561 486.553L368.342 499.131V524.281L346.561 486.553ZM320.231 532.156H363.796L342.015 544.728L320.231 532.156Z" fill="#E10098" />
    <rect x="587.5" y="644.5" width="95" height="95" rx="22.5" fill="white" stroke="#181717" stroke-width="5" />
    <path d="M635 658C615.663 658 600 673.671 600 693C600 708.467 610.027 721.583 623.931 726.206C625.681 726.536 626.323 725.454 626.323 724.523C626.323 723.692 626.294 721.49 626.279 718.573C616.543 720.685 614.49 713.877 614.49 713.877C612.898 709.838 610.596 708.759 610.596 708.759C607.426 706.589 610.841 706.633 610.841 706.633C614.356 706.878 616.202 710.238 616.202 710.238C619.323 715.59 624.395 714.044 626.396 713.148C626.711 710.885 627.612 709.342 628.613 708.467C620.84 707.592 612.67 704.582 612.67 691.171C612.67 687.35 614.026 684.23 616.272 681.78C615.878 680.896 614.697 677.338 616.578 672.516C616.578 672.516 619.51 671.577 626.203 676.104C629.003 675.325 631.978 674.94 634.953 674.923C637.928 674.94 640.903 675.325 643.703 676.104C650.353 671.577 653.285 672.516 653.285 672.516C655.166 677.338 653.985 680.896 653.635 681.78C655.866 684.23 657.222 687.35 657.222 691.171C657.222 704.617 649.041 707.577 641.253 708.438C642.478 709.488 643.616 711.635 643.616 714.913C643.616 719.597 643.572 723.36 643.572 724.497C643.572 725.416 644.185 726.51 645.978 726.16C659.981 721.569 670 708.444 670 693C670 673.671 654.329 658 635 658" fill="#181717" />
    <rect x="414.512" y="184.5" width="95" height="95" rx="22.5" fill="white" stroke="#2D3748" stroke-width="5" />
    <path d="M491.618 251.199L466.701 198.284C466.076 196.961 464.772 196.088 463.294 196.007C461.777 195.919 460.419 196.65 459.652 197.895L432.628 241.667C431.79 243.031 431.807 244.713 432.675 246.061L445.886 266.524C446.673 267.746 448.037 268.453 449.455 268.453C449.857 268.453 450.261 268.396 450.658 268.279L489.004 256.937C490.178 256.59 491.138 255.759 491.641 254.657C492.144 253.556 492.134 252.294 491.618 251.199ZM486.039 253.469L453.504 263.092C452.51 263.386 451.558 262.526 451.767 261.524L463.389 205.86C463.607 204.819 465.046 204.654 465.5 205.618L487.02 251.317C487.426 252.18 486.963 253.196 486.039 253.469Z" fill="#2D3748" />
    <rect x="649.5" y="148.5" width="95" height="95" rx="22.5" fill="white" stroke="#CB3837" stroke-width="5" />
    <path d="M662 184V207.378H681.459V211.297H697V207.378H732V184H662Z" fill="#CB3837" />
    <path d="M673.621 187.919H665.918V203.459H673.621V191.838H677.54V203.459H681.459V187.919H673.621ZM685.377 187.919V207.378H693.215V203.459H700.918V187.919H685.377ZM696.999 199.541H693.215V191.838H696.999V199.541ZM712.54 187.919H704.837V203.459H712.54V191.838H716.459V203.459H720.377V191.838H724.296V203.459H728.215V187.919H712.54Z" fill="white" />
    <rect x="792.512" y="522.5" width="95" height="95" rx="22.5" fill="white" stroke="#2496ED" stroke-width="5" />
    <path d="M845.795 567.426H851.976C852.119 567.426 852.257 567.369 852.358 567.268C852.46 567.167 852.518 567.03 852.518 566.887V561.383C852.518 561.239 852.461 561.101 852.36 560.999C852.258 560.898 852.12 560.84 851.976 560.84H845.795C845.652 560.84 845.515 560.897 845.414 560.998C845.313 561.1 845.256 561.237 845.256 561.38V566.887C845.256 567.184 845.498 567.426 845.795 567.426ZM837.18 551.589H843.357C843.501 551.589 843.639 551.532 843.741 551.43C843.842 551.328 843.9 551.19 843.9 551.046V545.54C843.899 545.396 843.841 545.259 843.74 545.158C843.638 545.057 843.501 545 843.357 545H837.18C837.037 545 836.899 545.057 836.798 545.158C836.697 545.259 836.64 545.396 836.64 545.54V551.046C836.64 551.344 836.879 551.586 837.18 551.586V551.589ZM837.18 559.507H843.357C843.501 559.507 843.638 559.449 843.74 559.348C843.841 559.246 843.899 559.109 843.9 558.965V553.461C843.899 553.318 843.841 553.181 843.74 553.08C843.638 552.978 843.501 552.922 843.357 552.922H837.18C837.037 552.922 836.899 552.979 836.798 553.08C836.697 553.181 836.64 553.318 836.64 553.461V558.965C836.64 559.262 836.879 559.505 837.18 559.507ZM828.634 559.507H834.817C834.96 559.506 835.097 559.448 835.197 559.347C835.297 559.245 835.354 559.108 835.354 558.965V553.461C835.354 553.318 835.297 553.181 835.196 553.08C835.095 552.979 834.957 552.922 834.814 552.922H828.637C828.494 552.922 828.356 552.979 828.255 553.08C828.154 553.181 828.097 553.318 828.097 553.461V558.965C828.097 559.262 828.339 559.505 828.637 559.507H828.634ZM819.992 559.507H826.172C826.316 559.507 826.453 559.449 826.554 559.348C826.655 559.246 826.712 559.108 826.712 558.965V553.461C826.712 553.318 826.655 553.181 826.554 553.08C826.453 552.979 826.315 552.922 826.172 552.922H819.992C819.848 552.922 819.711 552.978 819.609 553.08C819.508 553.181 819.45 553.318 819.449 553.461V558.965C819.449 559.262 819.694 559.505 819.992 559.507ZM837.18 567.426H843.357C843.501 567.426 843.638 567.369 843.74 567.268C843.841 567.167 843.899 567.03 843.9 566.887V561.383C843.9 561.239 843.842 561.101 843.741 560.999C843.639 560.898 843.501 560.84 843.357 560.84H837.18C837.037 560.84 836.899 560.897 836.798 560.998C836.697 561.1 836.64 561.237 836.64 561.38V566.887C836.64 567.184 836.879 567.426 837.18 567.426ZM828.634 567.426H834.817C834.96 567.425 835.096 567.368 835.197 567.267C835.297 567.166 835.354 567.029 835.354 566.887V561.383C835.354 561.312 835.341 561.242 835.314 561.176C835.287 561.111 835.248 561.051 835.198 561.001C835.148 560.95 835.089 560.91 835.023 560.883C834.958 560.855 834.888 560.841 834.817 560.84H828.634C828.491 560.841 828.355 560.898 828.254 560.999C828.154 561.101 828.097 561.237 828.097 561.38V566.887C828.097 567.184 828.339 567.426 828.637 567.426H828.634ZM819.992 567.426H826.172C826.315 567.426 826.453 567.369 826.554 567.268C826.655 567.167 826.712 567.03 826.712 566.887V561.383C826.712 561.312 826.699 561.242 826.672 561.176C826.645 561.111 826.606 561.051 826.556 561.001C826.506 560.95 826.447 560.91 826.381 560.883C826.316 560.855 826.246 560.841 826.175 560.84H819.992C819.848 560.84 819.71 560.898 819.608 560.999C819.506 561.101 819.449 561.239 819.449 561.383V566.887C819.449 567.184 819.694 567.426 819.992 567.426ZM811.475 567.426H817.658C817.801 567.425 817.938 567.368 818.038 567.267C818.139 567.166 818.195 567.029 818.195 566.887V561.383C818.195 561.312 818.182 561.242 818.155 561.176C818.128 561.111 818.089 561.051 818.039 561.001C817.989 560.95 817.93 560.91 817.865 560.883C817.799 560.855 817.729 560.841 817.658 560.84H811.475C811.332 560.841 811.196 560.898 811.095 560.999C810.995 561.101 810.938 561.237 810.938 561.38V566.887C810.938 567.184 811.178 567.426 811.478 567.426H811.475ZM874.32 563.961C874.131 563.812 872.36 562.474 868.621 562.474C867.635 562.477 866.65 562.561 865.675 562.727C864.952 557.769 860.854 555.348 860.67 555.243L859.667 554.663L859.008 555.617C858.18 556.894 857.579 558.306 857.223 559.787C856.552 562.617 856.96 565.277 858.398 567.549C856.663 568.517 853.878 568.753 853.312 568.774H807.202C806.623 568.774 806.068 569.004 805.658 569.413C805.248 569.822 805.017 570.376 805.015 570.955C804.961 574.994 805.645 579.01 807.033 582.803C808.623 586.968 810.985 590.036 814.062 591.915C817.504 594.023 823.104 595.231 829.448 595.231C832.315 595.24 835.173 594.98 837.993 594.455C841.91 593.735 845.679 592.366 849.144 590.404C852.002 588.75 854.569 586.647 856.756 584.174C860.408 580.038 862.584 575.432 864.203 571.34H864.847C868.849 571.34 871.308 569.739 872.664 568.397C873.565 567.543 874.268 566.502 874.726 565.347L875.012 564.507L874.32 563.961Z" fill="#2496ED" />
    <rect x="604.512" y="364.5" width="95" height="95" rx="22.5" fill="white" stroke="#00ADD8" stroke-width="5" />
    <path d="M622.294 406.917C622.157 406.917 622.125 406.85 622.192 406.745L622.909 405.826C622.976 405.724 623.146 405.657 623.283 405.657H635.451C635.585 405.657 635.62 405.759 635.553 405.861L634.973 406.745C634.905 406.85 634.733 406.949 634.631 406.949L622.294 406.917ZM617.149 410.053C617.012 410.053 616.977 409.986 617.047 409.883L617.761 408.962C617.828 408.86 618.001 408.793 618.138 408.793H633.678C633.815 408.793 633.882 408.895 633.847 408.997L633.575 409.813C633.54 409.951 633.406 410.018 633.269 410.018L617.149 410.053ZM625.397 413.188C625.26 413.188 625.225 413.086 625.295 412.984L625.771 412.132C625.838 412.03 625.975 411.928 626.112 411.928H632.928C633.065 411.928 633.132 412.03 633.132 412.167L633.065 412.984C633.065 413.121 632.928 413.223 632.826 413.223L625.397 413.188ZM660.773 406.305C658.627 406.85 657.16 407.258 655.048 407.804C654.535 407.938 654.502 407.973 654.056 407.463C653.549 406.882 653.172 406.509 652.458 406.168C650.308 405.112 648.229 405.418 646.289 406.678C643.97 408.177 642.778 410.394 642.813 413.153C642.845 415.88 644.72 418.129 647.412 418.505C649.731 418.811 651.67 417.995 653.207 416.259C653.514 415.88 653.785 415.472 654.126 414.993H647.549C646.835 414.993 646.662 414.55 646.902 413.973C647.345 412.917 648.162 411.143 648.64 410.257C648.713 410.093 648.833 409.953 648.984 409.856C649.135 409.759 649.312 409.709 649.492 409.711H661.896C661.829 410.633 661.829 411.552 661.692 412.473C661.339 414.9 660.378 417.198 658.898 419.153C656.445 422.39 653.24 424.403 649.185 424.945C645.846 425.388 642.743 424.741 640.018 422.699C637.495 420.789 636.063 418.266 635.69 415.131C635.247 411.415 636.338 408.075 638.586 405.144C641.007 401.976 644.21 399.964 648.13 399.252C651.332 398.669 654.4 399.048 657.16 400.918C658.968 402.114 660.26 403.747 661.114 405.724C661.319 406.031 661.182 406.203 660.773 406.308V406.305ZM672.055 425.152C668.952 425.082 666.122 424.195 663.737 422.151C661.752 420.478 660.443 418.14 660.056 415.574C659.443 411.724 660.499 408.314 662.818 405.281C665.306 402.009 668.304 400.305 672.361 399.594C675.838 398.981 679.11 399.316 682.074 401.329C684.766 403.166 686.437 405.657 686.88 408.927C687.458 413.529 686.131 417.277 682.96 420.483C680.711 422.766 677.949 424.195 674.779 424.843C673.86 425.018 672.942 425.047 672.055 425.152ZM680.163 411.386C680.131 410.939 680.131 410.598 680.064 410.257C679.451 406.882 676.348 404.978 673.111 405.724C669.94 406.439 667.896 408.451 667.146 411.654C666.534 414.314 667.829 417.006 670.282 418.1C672.157 418.916 674.029 418.811 675.838 417.896C678.53 416.496 679.994 414.314 680.166 411.383L680.163 411.386Z" fill="#00ADD8" />
    <rect x="906.5" y="244.5" width="95" height="95" rx="22.5" fill="white" stroke="#47848F" stroke-width="5" />
    <path d="M954.03 259C951.727 259 949.859 260.867 949.859 263.171C949.859 265.475 951.726 267.343 954.03 267.343C955.643 267.343 957.038 266.427 957.733 265.088C963.751 268.523 968.158 279.919 968.158 293.17C968.158 298.784 967.375 304.162 965.922 308.803C965.888 308.912 965.876 309.027 965.886 309.141C965.896 309.255 965.929 309.366 965.982 309.467C966.035 309.569 966.107 309.659 966.195 309.732C966.283 309.805 966.384 309.861 966.493 309.895C966.714 309.964 966.953 309.942 967.158 309.835C967.363 309.728 967.517 309.544 967.586 309.323C969.092 304.509 969.901 298.957 969.901 293.17C969.901 279.098 965.1 266.921 958.192 263.353C958.195 263.292 958.202 263.233 958.202 263.171C958.202 260.868 956.334 259 954.03 259V259ZM954.03 260.743C954.674 260.743 955.292 260.999 955.747 261.454C956.203 261.91 956.458 262.527 956.458 263.171C956.458 263.815 956.203 264.433 955.747 264.888C955.292 265.344 954.674 265.599 954.03 265.599C953.386 265.599 952.769 265.344 952.313 264.888C951.858 264.433 951.602 263.815 951.602 263.171C951.602 262.527 951.858 261.91 952.313 261.454C952.769 260.999 953.386 260.743 954.03 260.743V260.743ZM939.163 272.41C933.561 272.43 929.279 274.211 927.27 277.691C925.272 281.152 925.843 285.742 928.656 290.648C928.773 290.843 928.963 290.985 929.184 291.042C929.404 291.099 929.638 291.068 929.836 290.954C930.034 290.841 930.179 290.655 930.241 290.435C930.303 290.216 930.277 289.981 930.168 289.781C927.634 285.361 927.141 281.401 928.78 278.562C931.005 274.709 937 273.264 944.856 274.695C944.969 274.715 945.084 274.713 945.196 274.689C945.308 274.665 945.414 274.619 945.508 274.554C945.603 274.489 945.683 274.406 945.745 274.31C945.807 274.214 945.85 274.106 945.87 273.993C945.891 273.881 945.889 273.765 945.865 273.653C945.84 273.541 945.795 273.435 945.729 273.341C945.664 273.247 945.581 273.167 945.485 273.105C945.389 273.043 945.281 273 945.169 272.98C943.044 272.593 941.03 272.404 939.163 272.411L939.163 272.41ZM969.115 272.458C968.884 272.455 968.661 272.544 968.495 272.705C968.33 272.866 968.235 273.087 968.232 273.318C968.229 273.549 968.318 273.772 968.479 273.938C968.64 274.103 968.861 274.198 969.092 274.201C974.061 274.266 977.644 275.815 979.255 278.606C981.475 282.452 979.742 288.348 974.599 294.425C974.449 294.601 974.376 294.83 974.395 295.06C974.415 295.291 974.524 295.504 974.701 295.654C974.788 295.728 974.889 295.784 974.998 295.819C975.107 295.854 975.222 295.867 975.336 295.857C975.45 295.848 975.561 295.816 975.663 295.763C975.765 295.711 975.855 295.639 975.929 295.552C981.494 288.977 983.438 282.364 980.765 277.735C978.798 274.328 974.64 272.53 969.115 272.458V272.458ZM961.802 273.25C961.743 273.251 961.684 273.257 961.627 273.27C956.595 274.348 951.238 276.455 946.094 279.425C933.71 286.575 925.519 297.026 926.148 304.823C924.868 305.535 924 306.9 924 308.469C924 310.773 925.868 312.64 928.172 312.64C930.475 312.64 932.343 310.773 932.343 308.469C932.343 306.165 930.475 304.298 928.172 304.298C928.069 304.298 927.967 304.306 927.866 304.313C927.594 297.376 935.3 287.67 946.966 280.935C951.956 278.054 957.142 276.013 961.992 274.974C962.202 274.928 962.388 274.806 962.514 274.631C962.639 274.456 962.696 274.241 962.672 274.027C962.649 273.813 962.547 273.615 962.386 273.472C962.225 273.328 962.017 273.249 961.802 273.25V273.25ZM954.001 290.151C953.796 290.154 953.593 290.177 953.393 290.22C951.764 290.573 950.729 292.178 951.08 293.808C951.433 295.437 953.039 296.472 954.668 296.12C956.297 295.767 957.332 294.162 956.98 292.533C956.672 291.107 955.404 290.136 954.001 290.151V290.151ZM933.762 295.154C933.647 295.149 933.533 295.166 933.425 295.205C933.317 295.244 933.218 295.303 933.134 295.381C933.049 295.458 932.98 295.551 932.931 295.654C932.883 295.758 932.855 295.87 932.85 295.984C932.844 296.098 932.861 296.213 932.9 296.32C932.939 296.428 932.999 296.527 933.076 296.611C936.512 300.388 940.977 303.931 946.069 306.871C958.033 313.778 970.745 315.773 977.399 311.855C978.106 312.366 978.956 312.641 979.829 312.641C982.133 312.641 984 310.773 984 308.469C984 306.166 982.133 304.298 979.829 304.298C977.525 304.298 975.657 306.166 975.657 308.469C975.657 309.217 975.857 309.918 976.202 310.525C970.119 313.815 958.232 311.88 946.941 305.361C942.001 302.509 937.678 299.079 934.365 295.439C934.288 295.354 934.195 295.285 934.092 295.236C933.988 295.187 933.876 295.16 933.762 295.154V295.154ZM928.172 306.041C928.49 306.041 928.806 306.104 929.101 306.226C929.395 306.348 929.663 306.527 929.889 306.752C930.114 306.978 930.293 307.245 930.415 307.54C930.537 307.835 930.6 308.15 930.6 308.469C930.6 308.788 930.537 309.104 930.415 309.398C930.293 309.693 930.114 309.961 929.889 310.186C929.663 310.412 929.395 310.59 929.101 310.712C928.806 310.835 928.49 310.897 928.172 310.897C927.853 310.897 927.537 310.835 927.242 310.712C926.948 310.59 926.68 310.412 926.455 310.186C926.229 309.961 926.05 309.693 925.928 309.398C925.806 309.104 925.743 308.788 925.743 308.469C925.743 308.15 925.806 307.835 925.928 307.54C926.05 307.245 926.229 306.978 926.455 306.752C926.68 306.527 926.948 306.348 927.242 306.226C927.537 306.104 927.853 306.041 928.172 306.041V306.041ZM979.829 306.041C980.148 306.041 980.463 306.104 980.758 306.226C981.053 306.348 981.32 306.527 981.546 306.752C981.771 306.978 981.95 307.245 982.072 307.54C982.194 307.835 982.257 308.15 982.257 308.469C982.257 308.788 982.194 309.104 982.072 309.398C981.95 309.693 981.771 309.961 981.546 310.186C981.32 310.412 981.053 310.59 980.758 310.712C980.463 310.835 980.148 310.897 979.829 310.897C979.245 310.898 978.68 310.687 978.24 310.303C978.233 310.292 978.229 310.28 978.222 310.269C978.153 310.17 978.065 310.085 977.962 310.022C977.667 309.667 977.48 309.236 977.421 308.778C977.362 308.321 977.435 307.856 977.631 307.438C977.827 307.021 978.137 306.668 978.527 306.42C978.916 306.173 979.367 306.041 979.829 306.041V306.041ZM941.876 309.748C941.733 309.74 941.589 309.768 941.459 309.829C941.328 309.889 941.215 309.982 941.129 310.097C941.043 310.212 940.987 310.347 940.966 310.489C940.944 310.632 940.959 310.777 941.007 310.913C943.917 319.038 948.678 324.04 954.03 324.04C957.934 324.04 961.546 321.379 964.363 316.694C964.422 316.595 964.461 316.487 964.478 316.373C964.495 316.26 964.489 316.145 964.462 316.034C964.434 315.923 964.385 315.818 964.317 315.726C964.249 315.634 964.163 315.557 964.065 315.498C963.867 315.379 963.629 315.343 963.405 315.399C963.181 315.455 962.988 315.598 962.868 315.796C960.337 320.006 957.228 322.297 954.03 322.297C949.584 322.297 945.338 317.835 942.648 310.324C942.59 310.163 942.486 310.023 942.349 309.92C942.212 309.818 942.047 309.758 941.876 309.748V309.748Z" fill="#47848F" />
    <rect x="777.512" y="11.5002" width="95" height="95" rx="22.5" fill="white" stroke="black" stroke-width="5" />
    <path d="M820.287 29L796.666 42.6275V75.3528L805.541 80.4762V47.7519L820.288 39.2356L820.287 29ZM829.713 29V55.0625H820.287V45.335L811.412 50.4584V83.8522L820.287 88.9878V63.0003H829.713V72.6594L838.588 67.5406V34.1234L829.713 29ZM829.713 89L853.335 75.3725V42.6462L844.459 37.5312V70.2566L829.712 78.7728" fill="black" />
    <rect x="93.5117" y="259.5" width="95" height="95" rx="22.5" fill="white" stroke="black" stroke-width="5" />
    <path d="M111.282 302.675C111.141 303.678 111.047 304.688 111 305.7H156.575C156.415 305.387 156.2 305.108 155.988 304.833C148.195 294.765 144.005 295.64 138.013 295.382C136.013 295.298 134.663 295.262 126.703 295.262C122.443 295.262 117.815 295.275 113.307 295.288C112.722 296.862 112.16 298.388 111.89 299.63H135.245V302.67H111.282V302.675ZM156.932 308.74H111.022C111.072 309.555 111.148 310.352 111.257 311.142H153.645C155.53 311.142 156.592 310.07 156.932 308.742V308.74ZM113.637 319.44C113.637 319.44 120.662 336.695 140.962 337C153.1 337 163.53 329.792 168.263 319.44H113.64H113.637ZM140.97 277C129.75 277 119.983 283.165 114.828 292.27L126.703 292.258V292.252C135.978 292.252 136.325 292.292 138.135 292.37L139.255 292.41C143.162 292.54 147.968 292.96 151.745 295.82C153.795 297.372 156.763 300.795 158.525 303.233C160.16 305.487 160.63 308.083 159.515 310.568C158.495 312.853 156.292 314.213 153.632 314.213H111.978C111.978 314.213 112.225 315.263 112.6 316.427H169.47C170.478 313.391 170.994 310.212 171 307.013C171 290.443 157.552 277 140.97 277Z" fill="#0B0D0E" />
    <defs>
        <filter id="filter0_d" x="9" y="33" width="980" height="680" filterUnits="userSpaceOnUse" color-interpolation-filters="sRGB">
            <feFlood flood-opacity="0" result="BackgroundImageFix" />
            <feColorMatrix in="SourceAlpha" type="matrix" values="0 0 0 0 0 0 0 0 0 0 0 0 0 0 0 0 0 0 127 0" result="hardAlpha" />
            <feOffset dy="10" />
            <feGaussianBlur stdDeviation="20" />
            <feComposite in2="hardAlpha" operator="out" />
            <feColorMatrix type="matrix" values="0 0 0 0 0 0 0 0 0 0 0 0 0 0 0 0 0 0 0.2 0" />
            <feBlend mode="normal" in2="BackgroundImageFix" result="effect1_dropShadow" />
            <feBlend mode="normal" in="SourceGraphic" in2="effect1_dropShadow" result="shape" />
        </filter>
        <linearGradient id="paint0_linear" x1="428.419" y1="355.97" x2="428.419" y2="750.724" gradientUnits="userSpaceOnUse">
            <stop offset="0.223958" stop-color="#00D662" />
            <stop offset="1" stop-color="white" stop-opacity="0" />
        </linearGradient>
    </defs>
</svg>
