<svg width="24" height="20" viewBox="0 0 24 20" fill="none" xmlns="http://www.w3.org/2000/svg">
    <g clip-path="url(#clip0)">
        <path d="M20.317 2.36973C18.761 1.65549 17.119 1.14617 15.4319 0.854529C15.4166 0.851669 15.4007 0.853716 15.3867 0.860377C15.3726 0.867038 15.3609 0.877974 15.3534 0.891629C15.1424 1.26693 14.9087 1.75643 14.7451 2.14113C12.9004 1.86493 11.0651 1.86493 9.2583 2.14113C9.0947 1.74783 8.8525 1.26693 8.6406 0.891629C8.63276 0.878285 8.62107 0.867616 8.60706 0.861016C8.59306 0.854416 8.57739 0.85219 8.5621 0.854629C6.87488 1.1456 5.2327 1.65487 3.6769 2.36963C3.66359 2.37532 3.65238 2.385 3.6448 2.39733C0.533404 7.04573 -0.318996 11.5798 0.099204 16.0577C0.100386 16.0687 0.103757 16.0793 0.109116 16.0889C0.114476 16.0985 0.121714 16.107 0.130404 16.1138C2.1832 17.6214 4.1717 18.5366 6.1233 19.1432C6.13848 19.1477 6.15468 19.1475 6.16972 19.1426C6.18477 19.1376 6.19795 19.1282 6.2075 19.1156C6.6691 18.4852 7.0806 17.8204 7.4335 17.1214C7.43835 17.1118 7.44112 17.1013 7.44163 17.0906C7.44213 17.0799 7.44036 17.0692 7.43643 17.0592C7.4325 17.0492 7.4265 17.0402 7.41883 17.0327C7.41115 17.0252 7.40198 17.0194 7.3919 17.0157C6.7391 16.7681 6.1176 16.4662 5.5197 16.1234C5.5088 16.117 5.49964 16.108 5.49304 16.0972C5.48643 16.0864 5.48258 16.0742 5.48183 16.0616C5.48108 16.0489 5.48345 16.0363 5.48873 16.0248C5.49401 16.0134 5.50204 16.0033 5.5121 15.9957C5.6379 15.9014 5.7638 15.8034 5.8839 15.7043C5.89458 15.6955 5.9075 15.6898 5.92121 15.688C5.93492 15.6861 5.94887 15.6881 5.9615 15.6938C9.8893 17.4871 14.1415 17.4871 18.0229 15.6938C18.0355 15.6878 18.0496 15.6855 18.0635 15.6872C18.0774 15.6888 18.0906 15.6944 18.1014 15.7033C18.2216 15.8023 18.3474 15.9014 18.4742 15.9957C18.4843 16.0033 18.4924 16.0132 18.4977 16.0246C18.5031 16.0361 18.5055 16.0486 18.5049 16.0612C18.5042 16.0739 18.5005 16.0861 18.494 16.0969C18.4875 16.1077 18.4784 16.1168 18.4676 16.1233C17.8695 16.4726 17.2429 16.7708 16.5946 17.0147C16.5845 17.0185 16.5754 17.0245 16.5678 17.0321C16.5602 17.0397 16.5542 17.0489 16.5504 17.0589C16.5466 17.069 16.5449 17.0798 16.5455 17.0905C16.5461 17.1013 16.549 17.1118 16.5539 17.1214C16.9143 17.8194 17.3258 18.4842 17.7789 19.1146C17.7882 19.1276 17.8013 19.1374 17.8164 19.1425C17.8315 19.1476 17.8478 19.1479 17.8631 19.1432C19.8241 18.5365 21.8126 17.6213 23.8654 16.1138C23.8742 16.1073 23.8816 16.0991 23.887 16.0896C23.8924 16.08 23.8957 16.0695 23.8967 16.0586C24.3971 10.8816 23.0585 6.38473 20.3482 2.39823C20.3416 2.38528 20.3305 2.37513 20.317 2.36963V2.36973ZM8.02 13.3311C6.8375 13.3311 5.8631 12.2454 5.8631 10.9121C5.8631 9.57893 6.8186 8.49323 8.0201 8.49323C9.2309 8.49323 10.1958 9.58843 10.1769 10.9122C10.1769 12.2454 9.2214 13.3311 8.02 13.3311ZM15.9948 13.3311C14.8123 13.3311 13.8379 12.2454 13.8379 10.9121C13.8379 9.57893 14.7933 8.49323 15.9948 8.49323C17.2056 8.49323 18.1705 9.58843 18.1516 10.9122C18.1516 12.2454 17.2056 13.3311 15.9948 13.3311Z" fill="#D3D3D3" />
    </g>
    <defs>
        <clipPath id="clip0">
            <rect width="24" height="20" fill="white" />
        </clipPath>
    </defs>
</svg>
