<svg width="16" height="16" viewBox="0 0 16 16" fill="none" xmlns="http://www.w3.org/2000/svg">
    <path fill-rule="evenodd" clip-rule="evenodd" d="M9.65785 0.257923C9.89945 0.0163189 10.259 -0.0637011 10.5803 0.0526385C13.74 1.19688 16 4.2243 16 7.78181C16 12.3206 12.3206 16 7.78181 16C4.2243 16 1.19688 13.74 0.0526385 10.5803C-0.0637011 10.259 0.0163189 9.89945 0.257923 9.65785C0.499528 9.41624 0.859092 9.33622 1.18036 9.45256C1.86551 9.70068 2.60553 9.83636 3.37921 9.83636C6.94539 9.83636 9.83636 6.94539 9.83636 3.37921C9.83636 2.60553 9.70068 1.86551 9.45256 1.18036C9.33622 0.859092 9.41624 0.499528 9.65785 0.257923ZM11.5551 2.54103C11.5831 2.81676 11.5974 3.0964 11.5974 3.37921C11.5974 7.91799 7.91799 11.5974 3.37921 11.5974C3.0964 11.5974 2.81677 11.5831 2.54103 11.5551C3.71405 13.1813 5.62509 14.239 7.78181 14.239C11.348 14.239 14.239 11.348 14.239 7.78181C14.239 5.62509 13.1813 3.71405 11.5551 2.54103Z" fill="#B1B1B1" />
</svg>
