<svg width="24" height="20" viewBox="0 0 24 20" fill="none" xmlns="http://www.w3.org/2000/svg">
    <path d="M23.953 2.57009C23.0545 2.96569 22.1026 3.22683 21.128 3.34509C22.1541 2.72834 22.9224 1.76113 23.291 0.622087C22.34 1.17709 21.286 1.58109 20.164 1.80609C19.4238 1.01452 18.4429 0.489508 17.3736 0.312589C16.3044 0.135669 15.2067 0.316738 14.2509 0.827678C13.2952 1.33862 12.5349 2.15084 12.0881 3.13821C11.6412 4.12558 11.533 5.23286 11.78 6.28809C7.69 6.09509 4.067 4.13009 1.64 1.16209C1.19879 1.9119 0.968664 2.76711 0.974 3.63709C0.974 5.34709 1.844 6.85009 3.162 7.73309C2.38086 7.70822 1.61697 7.49702 0.934 7.11709V7.17709C0.933557 8.31348 1.32627 9.41503 2.04551 10.2949C2.76474 11.1747 3.76621 11.7786 4.88 12.0041C4.1583 12.1975 3.40241 12.2266 2.668 12.0891C2.98412 13.0671 3.59766 13.9221 4.42301 14.5346C5.24837 15.1472 6.24435 15.4868 7.272 15.5061C5.53153 16.8721 3.38248 17.6134 1.17 17.6111C0.78 17.6111 0.391 17.5881 0 17.5441C2.25571 18.9885 4.87851 19.7551 7.557 19.7531C16.61 19.7531 21.555 12.2571 21.555 5.76809C21.555 5.55809 21.555 5.34809 21.54 5.13809C22.506 4.44295 23.3392 3.57991 24 2.59009L23.953 2.57009Z" fill="#D3D3D3" />
</svg>
