<svg width="512" height="512" viewBox="0 0 512 512" fill="none" xmlns="http://www.w3.org/2000/svg">
<circle cx="256" cy="256" r="208" fill="white"/>
<path d="M437.02 74.98C388.667 26.629 324.38 0 256 0C187.62 0 123.333 26.629 74.98 74.98C26.629 123.333 0 187.62 0 256C0 324.38 26.629 388.667 74.98 437.02C123.333 485.371 187.62 512 256 512C324.38 512 388.667 485.371 437.02 437.02C485.371 388.667 512 324.38 512 256C512 187.62 485.371 123.333 437.02 74.98ZM256 451.755C148.061 451.755 60.245 363.94 60.245 256C60.245 148.06 148.061 60.246 256 60.246C363.939 60.246 451.755 148.061 451.755 256C451.755 363.939 363.939 451.755 256 451.755Z" fill="black"/>
<path d="M256.001 90.246C164.604 90.246 90.2461 164.603 90.2461 256C90.2461 281.842 96.1941 306.32 106.788 328.142L112.034 317.34C112.106 317.192 112.18 317.045 112.257 316.899C114.484 312.673 121.751 295.793 121.751 256C121.751 232.169 128.075 208.723 140.041 188.197C144.213 181.04 153.395 178.619 160.554 182.792C167.711 186.964 170.131 196.148 165.959 203.305C156.664 219.25 151.751 237.472 151.751 256C151.751 299.401 143.772 321.334 138.92 330.651L125.559 358.161C142.518 379.767 164.724 397.064 190.234 408.134C202.516 398.303 212.853 384.751 221.013 367.72C234.773 339.001 241.751 301.413 241.751 256C241.751 247.716 248.467 241 256.751 241C265.035 241 271.751 247.716 271.751 256C271.751 305.936 263.783 347.886 248.067 380.684C241.089 395.248 232.687 407.86 222.972 418.446C233.649 420.614 244.694 421.755 256.001 421.755C256.93 421.755 257.853 421.735 258.778 421.72C278.814 393.422 291.99 357.279 297.972 314.163C299.111 305.957 306.685 300.235 314.891 301.367C323.097 302.506 328.826 310.081 327.687 318.286C322.497 355.69 312.239 388.595 297.14 416.585C311.512 412.901 325.134 407.33 337.733 400.158C353.657 359.232 361.751 310.78 361.751 256C361.751 198.103 314.648 151 256.751 151C238.079 151 219.735 155.985 203.702 165.416C196.562 169.615 187.368 167.233 183.168 160.092C178.968 152.951 181.352 143.758 188.492 139.558C209.131 127.417 232.735 121 256.751 121C331.19 121 391.751 181.561 391.751 256C391.751 295.891 387.654 332.792 379.589 366.327C405.796 337.001 421.755 298.332 421.755 256C421.756 164.603 347.398 90.246 256.001 90.246ZM181.751 256C181.751 214.645 215.396 181 256.751 181C298.106 181 331.751 214.645 331.751 256C331.751 264.284 325.035 271 316.751 271C308.467 271 301.751 264.284 301.751 256C301.751 231.187 281.564 211 256.751 211C231.938 211 211.751 231.187 211.751 256C211.751 299.921 204.912 334.829 191.425 359.754C188.711 364.771 183.549 367.618 178.219 367.618C175.808 367.618 173.363 367.035 171.094 365.807C163.808 361.865 161.098 352.762 165.04 345.476C172.664 331.389 181.751 304.429 181.751 256Z" fill="black"/>
</svg>
