<svg width="190" height="50" viewBox="0 0 190 50" fill="none" xmlns="http://www.w3.org/2000/svg">
    <circle cx="25" cy="25" r="20.3125" fill="white" />
    <path d="M42.6777 7.32227C37.9558 2.60049 31.6777 0 25 0C18.3223 0 12.0442 2.60049 7.32227 7.32227C2.60049 12.0442 0 18.3223 0 25C0 31.6777 2.60049 37.9558 7.32227 42.6777C12.0442 47.3995 18.3223 50 25 50C31.6777 50 37.9558 47.3995 42.6777 42.6777C47.3995 37.9558 50 31.6777 50 25C50 18.3223 47.3995 12.0442 42.6777 7.32227V7.32227ZM25 44.1167C14.4591 44.1167 5.8833 35.541 5.8833 25C5.8833 14.459 14.4591 5.8834 25 5.8834C35.5409 5.8834 44.1167 14.4591 44.1167 25C44.1167 35.5409 35.5409 44.1167 25 44.1167V44.1167Z" fill="black" />
    <path d="M24.9995 8.81299C16.074 8.81299 8.8125 16.0744 8.8125 24.9999C8.8125 27.5235 9.39336 29.914 10.4279 32.045L10.9402 30.9901C10.9473 30.9757 10.9545 30.9613 10.962 30.9471C11.1795 30.5344 11.8892 28.8859 11.8892 24.9999C11.8892 22.6727 12.5067 20.383 13.6753 18.3785C14.0827 17.6796 14.9794 17.4432 15.6785 17.8507C16.3774 18.2581 16.6138 19.155 16.2063 19.8539C15.2986 21.411 14.8188 23.1905 14.8188 24.9999C14.8188 29.2383 14.0396 31.3802 13.5658 32.29L12.261 34.9766C13.9172 37.0865 16.0857 38.7757 18.5769 39.8567C19.7764 38.8967 20.7858 37.5732 21.5827 35.9101C22.9265 33.1055 23.6079 29.4348 23.6079 24.9999C23.6079 24.1909 24.2638 23.5351 25.0727 23.5351C25.8817 23.5351 26.5376 24.1909 26.5376 24.9999C26.5376 29.8765 25.7595 33.9731 24.2247 37.1761C23.5433 38.5983 22.7227 39.83 21.774 40.8638C22.8167 41.0755 23.8953 41.1869 24.9995 41.1869C25.0902 41.1869 25.1804 41.185 25.2707 41.1835C27.2273 38.42 28.5141 34.8904 29.0982 30.6799C29.2095 29.8785 29.9491 29.3197 30.7505 29.4303C31.5518 29.5415 32.1113 30.2812 32.0001 31.0825C31.4933 34.7353 30.4915 37.9486 29.017 40.682C30.4205 40.3223 31.7508 39.7782 32.9811 39.0778C34.5362 35.0811 35.3266 30.3495 35.3266 24.9999C35.3266 19.3459 30.7267 14.746 25.0727 14.746C23.2493 14.746 21.4579 15.2328 19.8922 16.1538C19.1949 16.5639 18.2971 16.3312 17.8869 15.6339C17.4768 14.9365 17.7096 14.0388 18.4068 13.6286C20.4224 12.443 22.7274 11.8163 25.0727 11.8163C32.3422 11.8163 38.2563 17.7305 38.2563 24.9999C38.2563 28.8955 37.8562 32.4991 37.0686 35.774C39.6279 32.9102 41.1864 29.1339 41.1864 24.9999C41.1865 16.0744 33.925 8.81299 24.9995 8.81299V8.81299ZM17.7485 24.9999C17.7485 20.9613 21.0342 17.6757 25.0727 17.6757C29.1113 17.6757 32.397 20.9613 32.397 24.9999C32.397 25.8089 31.7411 26.4647 30.9321 26.4647C30.1231 26.4647 29.4673 25.8089 29.4673 24.9999C29.4673 22.5768 27.4959 20.6054 25.0727 20.6054C22.6496 20.6054 20.6782 22.5768 20.6782 24.9999C20.6782 29.2891 20.0103 32.698 18.6933 35.1321C18.4282 35.6221 17.9241 35.9001 17.4036 35.9001C17.1682 35.9001 16.9294 35.8432 16.7078 35.7232C15.9963 35.3383 15.7316 34.4493 16.1166 33.7378C16.8611 32.3621 17.7485 29.7293 17.7485 24.9999Z" fill="black" />
    <path d="M83.4897 30.3002C83.4897 30.5135 83.4684 32.3052 82.338 34.1181C81.2929 35.8458 79.1386 37.872 74.7449 37.872C71.2896 37.872 68.5595 36.4217 67.1091 33.8195C66.4266 32.5611 66.1493 31.3454 66.064 30.5562C66.064 30.5135 66.0213 30.4495 66.0213 30.3856C66.0213 30.087 66.2773 29.8097 66.5759 29.7884H70.2445C70.4791 29.8097 70.6497 29.959 70.7137 30.2149V30.2363C70.7137 30.2576 70.7564 30.3002 70.7564 30.3216C70.799 30.6842 70.9483 31.1961 71.2469 31.644C71.8868 32.6891 73.0386 33.2223 74.7449 33.2223C76.5792 33.2223 77.7309 32.7104 78.3708 31.708C78.776 31.0041 78.84 30.2576 78.84 30.2576C78.84 29.4258 78.6267 28.4446 77.0697 27.8261C75.9393 27.3355 74.7449 27.3142 74.7449 27.3142C74.5316 27.3142 72.6333 27.2715 70.6497 26.5037C67.6423 25.2879 66 22.8991 66 19.7637C66 19.4651 66.064 16.671 68.2395 14.4955C69.7966 12.9171 71.9934 12.1066 74.7449 12.1066C76.5152 12.1066 79.0533 12.4906 80.9943 14.4742C82.8712 16.3724 83.3404 18.8039 83.4684 19.9984V20.0623C83.4684 20.4036 83.2338 20.6809 82.8925 20.6809H79.2879C79.0533 20.6596 78.84 20.4463 78.776 20.2116V20.105C78.6907 19.6998 78.5414 19.1025 78.2428 18.5053C77.8162 17.7588 77.0271 16.7777 74.7449 16.7777C73.2945 16.7777 72.2067 17.0976 71.5242 17.7801C70.7137 18.5906 70.6497 19.7637 70.6497 19.7637C70.6497 20.5956 70.863 21.5554 72.42 22.1739C73.5505 22.6218 74.7449 22.6431 74.7449 22.6431C74.9582 22.6431 76.8778 22.6858 78.84 23.4963C81.8474 24.7334 83.4897 27.1649 83.4897 30.3002ZM103.987 37.2535C103.987 37.5734 103.71 37.8507 103.411 37.8507H87.073C86.7531 37.8507 86.4758 37.5734 86.4758 37.2535V12.7678C86.4758 12.4479 86.7531 12.1706 87.073 12.1706H102.814C103.155 12.1706 103.411 12.4479 103.411 12.7678V16.2658C103.411 16.5857 103.155 16.8203 102.814 16.8203H91.1468V22.6858H102.217C102.558 22.6858 102.814 22.9204 102.814 23.2404V26.7383C102.814 27.0796 102.558 27.3355 102.217 27.3355H91.1468V33.1583H103.411C103.71 33.1583 103.987 33.4356 103.987 33.7555V37.2535ZM123.631 36.7203C124.399 36.3577 125.145 35.9311 125.87 35.4405V35.3979H125.892C125.892 35.3765 125.892 35.3765 125.934 35.3765C126.169 35.1632 126.19 34.7793 125.956 34.5447L123.716 31.8786C123.546 31.644 123.183 31.58 122.948 31.7293C122.948 31.7506 122.906 31.7506 122.906 31.7506C119.514 34.0541 114.822 33.4569 112.113 30.2576C109.17 26.8023 109.596 21.6407 113.03 18.7186C115.739 16.4151 119.578 16.1805 122.458 17.8655C122.714 17.9934 122.948 17.9721 123.119 17.8228L125.934 15.4553C126.169 15.242 126.19 14.8581 125.956 14.5808L125.892 14.5381L125.806 14.4742C121.114 11.1255 114.587 11.2535 110.023 15.1354C104.584 19.7211 103.923 27.8687 108.53 33.2863C112.305 37.7654 118.533 38.9811 123.631 36.7203ZM129.731 12.192L139.478 21.9606L149.247 12.192V37.2535C149.247 37.5734 149.012 37.8507 148.692 37.8507H145.258C144.917 37.8507 144.661 37.5734 144.661 37.2535V23.283L139.478 28.4446L134.317 23.283V37.2535C134.317 37.5734 134.082 37.8507 133.762 37.8507H130.285C129.987 37.8507 129.731 37.5734 129.731 37.2535V12.192ZM168.699 27.9114C168.699 27.5701 168.422 27.3355 168.102 27.3355H166.118L162.471 12.7465L162.45 12.5972C162.364 12.3839 162.151 12.2346 161.916 12.2346H157.992C157.757 12.2346 157.544 12.3839 157.459 12.5972L157.437 12.7678L151.38 36.9762C151.38 37.0189 151.38 37.0402 151.337 37.0402V37.1682C151.337 37.5308 151.614 37.7867 151.913 37.7867H155.518C155.752 37.7867 156.008 37.6161 156.051 37.3815C156.051 37.3388 156.094 37.3175 156.094 37.3175L157.395 31.9639H162.514L163.815 37.2748L163.857 37.3815C163.943 37.6161 164.156 37.7867 164.39 37.7867H167.995C168.336 37.7867 168.571 37.5308 168.571 37.1682V37.1042L168.55 36.9549L167.291 31.9639H168.102C168.422 31.9639 168.699 31.7293 168.699 31.4094V27.9114ZM158.568 27.3355L159.975 21.8113L161.34 27.3355H158.568ZM189.772 38L176.932 23.9869V37.2322C176.932 37.5521 176.697 37.8294 176.356 37.8294H172.879C172.538 37.8294 172.282 37.5521 172.282 37.2322V12L185.122 25.9918V12.7678C185.122 12.4479 185.378 12.1706 185.677 12.1706H189.196C189.495 12.1706 189.772 12.4479 189.772 12.7678V38Z" fill="black" />
</svg>
    