<svg width="1024" height="1024" viewBox="0 0 1024 1024" fill="none" xmlns="http://www.w3.org/2000/svg">
<circle cx="512" cy="512" r="416" fill="white"/>
<path d="M512.01 180.5C329.216 180.5 180.5 329.214 180.5 512.008C180.5 563.692 192.396 612.648 213.584 656.292L224.076 634.688C224.22 634.392 224.368 634.098 224.522 633.806C228.976 625.354 243.51 591.594 243.51 512.008C243.51 464.346 256.158 417.454 280.09 376.402C288.434 362.088 306.798 357.246 321.116 365.592C335.43 373.936 340.27 392.304 331.926 406.618C313.336 438.508 303.51 474.952 303.51 512.008C303.51 598.81 287.552 642.676 277.848 661.31L251.126 716.33C285.044 759.542 329.456 794.136 380.476 816.276C405.04 796.614 425.714 769.51 442.034 735.448C469.554 678.01 483.51 602.834 483.51 512.008C483.51 495.44 496.942 482.008 513.51 482.008C530.078 482.008 543.51 495.44 543.51 512.008C543.51 611.88 527.574 695.78 496.142 761.376C482.186 790.504 465.382 815.728 445.952 836.9C467.306 841.236 489.396 843.518 512.01 843.518C513.868 843.518 515.714 843.478 517.564 843.448C557.636 786.852 583.988 714.566 595.952 628.334C598.23 611.922 613.378 600.478 629.79 602.742C646.202 605.02 657.66 620.17 655.382 636.58C645.002 711.388 624.486 777.198 594.288 833.178C623.032 825.81 650.276 814.668 675.474 800.324C707.322 718.472 723.51 621.568 723.51 512.008C723.51 396.214 629.304 302.008 513.51 302.008C476.166 302.008 439.478 311.978 407.412 330.84C393.132 339.238 374.744 334.474 366.344 320.192C357.944 305.91 362.712 287.524 376.992 279.124C418.27 254.842 465.478 242.008 513.51 242.008C662.388 242.008 783.51 363.13 783.51 512.008C783.51 591.79 775.316 665.592 759.186 732.662C811.6 674.01 843.518 596.672 843.518 512.008C843.52 329.214 694.804 180.5 512.01 180.5V180.5ZM363.51 512.008C363.51 429.298 430.8 362.008 513.51 362.008C596.22 362.008 663.51 429.298 663.51 512.008C663.51 528.576 650.078 542.008 633.51 542.008C616.942 542.008 603.51 528.576 603.51 512.008C603.51 462.382 563.136 422.008 513.51 422.008C463.884 422.008 423.51 462.382 423.51 512.008C423.51 599.85 409.832 669.666 382.858 719.516C377.43 729.55 367.106 735.244 356.446 735.244C351.624 735.244 346.734 734.078 342.196 731.622C327.624 723.738 322.204 705.532 330.088 690.96C345.336 662.786 363.51 608.866 363.51 512.008Z" fill="#1163E6"/>
</svg>
