<svg width="124" height="26" viewBox="0 0 124 26" fill="none" xmlns="http://www.w3.org/2000/svg">
<path d="M17.4897 18.3002C17.4897 18.5135 17.4684 20.3052 16.338 22.1181C15.2929 23.8458 13.1386 25.872 8.74487 25.872C5.28958 25.872 2.55947 24.4217 1.10911 21.8195C0.426579 20.5611 0.149303 19.3454 0.0639868 18.5562C0.0639868 18.5135 0.0213289 18.4495 0.0213289 18.3856C0.0213289 18.087 0.277276 17.8097 0.575882 17.7884H4.24446C4.47908 17.8097 4.64971 17.959 4.7137 18.2149V18.2363C4.7137 18.2576 4.75636 18.3002 4.75636 18.3216C4.79902 18.6842 4.94832 19.1961 5.24692 19.644C5.88679 20.6891 7.03856 21.2223 8.74487 21.2223C10.5792 21.2223 11.7309 20.7104 12.3708 19.708C12.776 19.0041 12.84 18.2576 12.84 18.2576C12.84 17.4258 12.6267 16.4446 11.0697 15.8261C9.93929 15.3355 8.74487 15.3142 8.74487 15.3142C8.53158 15.3142 6.63331 15.2715 4.64971 14.5037C1.64233 13.2879 0 10.8991 0 7.76374C0 7.46514 0.0639868 4.67104 2.23954 2.49549C3.79655 0.917145 5.99344 0.106645 8.74487 0.106645C10.5152 0.106645 13.0533 0.490566 14.9943 2.47416C16.8712 4.37244 17.3404 6.80394 17.4684 7.99836V8.06235C17.4684 8.40361 17.2338 8.68088 16.8925 8.68088H13.2879C13.0533 8.65956 12.84 8.44627 12.776 8.21165V8.105C12.6907 7.69975 12.5414 7.10254 12.2428 6.50533C11.8162 5.75882 11.0271 4.77769 8.74487 4.77769C7.2945 4.77769 6.20673 5.09762 5.5242 5.78015C4.7137 6.59065 4.64971 7.76374 4.64971 7.76374C4.64971 8.59557 4.863 9.55537 6.42002 10.1739C7.55045 10.6218 8.74487 10.6431 8.74487 10.6431C8.95816 10.6431 10.8778 10.6858 12.84 11.4963C15.8474 12.7334 17.4897 15.1649 17.4897 18.3002ZM37.9869 25.2535C37.9869 25.5734 37.7096 25.8507 37.411 25.8507H21.073C20.7531 25.8507 20.4758 25.5734 20.4758 25.2535V0.767842C20.4758 0.447908 20.7531 0.170631 21.073 0.170631H36.8138C37.155 0.170631 37.411 0.447908 37.411 0.767842V4.26579C37.411 4.58573 37.155 4.82034 36.8138 4.82034H25.1468V10.6858H36.2166C36.5578 10.6858 36.8138 10.9204 36.8138 11.2404V14.7383C36.8138 15.0796 36.5578 15.3355 36.2166 15.3355H25.1468V21.1583H37.411C37.7096 21.1583 37.9869 21.4356 37.9869 21.7555V25.2535ZM57.6308 24.7203C58.3987 24.3577 59.1452 23.9311 59.8704 23.4405V23.3979H59.8917C59.8917 23.3765 59.8917 23.3765 59.9344 23.3765C60.169 23.1632 60.1903 22.7793 59.9557 22.5447L57.7162 19.8786C57.5455 19.644 57.1829 19.58 56.9483 19.7293C56.9483 19.7506 56.9057 19.7506 56.9057 19.7506C53.5144 22.0541 48.822 21.4569 46.1132 18.2576C43.1698 14.8023 43.5964 9.64069 47.0304 6.71862C49.7391 4.41509 53.5783 4.18048 56.4578 5.86546C56.7137 5.99344 56.9483 5.97211 57.1189 5.8228L59.9344 3.45529C60.169 3.242 60.1903 2.85808 59.9557 2.5808L59.8917 2.53815L59.8064 2.47416C55.114 -0.874487 48.5874 -0.746514 44.023 3.13536C38.5841 7.72108 37.9229 15.8687 42.5299 21.2863C46.3052 25.7654 52.5332 26.9811 57.6308 24.7203ZM63.7309 0.19196L73.4783 9.96062L83.2469 0.19196V25.2535C83.2469 25.5734 83.0123 25.8507 82.6924 25.8507H79.2584C78.9171 25.8507 78.6612 25.5734 78.6612 25.2535V11.283L73.4783 16.4446L68.3166 11.283V25.2535C68.3166 25.5734 68.082 25.8507 67.7621 25.8507H64.2855C63.9869 25.8507 63.7309 25.5734 63.7309 25.2535V0.19196ZM102.699 15.9114C102.699 15.5701 102.422 15.3355 102.102 15.3355H100.118L96.4709 0.746514L96.4495 0.597211C96.3642 0.383921 96.1509 0.234618 95.9163 0.234618H91.9918C91.7572 0.234618 91.5439 0.383921 91.4586 0.597211L91.4372 0.767842L85.3798 24.9762C85.3798 25.0189 85.3798 25.0402 85.3372 25.0402V25.1682C85.3372 25.5308 85.6144 25.7867 85.913 25.7867H89.5176C89.7522 25.7867 90.0082 25.6161 90.0509 25.3815C90.0509 25.3388 90.0935 25.3175 90.0935 25.3175L91.3946 19.9639H96.5135L97.8146 25.2748L97.8572 25.3815C97.9426 25.6161 98.1559 25.7867 98.3905 25.7867H101.995C102.336 25.7867 102.571 25.5308 102.571 25.1682V25.1042L102.55 24.9549L101.291 19.9639H102.102C102.422 19.9639 102.699 19.7293 102.699 19.4094V15.9114ZM92.5677 15.3355L93.9754 9.81132L95.3404 15.3355H92.5677ZM123.772 26L110.932 11.9869V25.2322C110.932 25.5521 110.697 25.8294 110.356 25.8294H106.879C106.538 25.8294 106.282 25.5521 106.282 25.2322V0L119.122 13.9918V0.767842C119.122 0.447908 119.378 0.170631 119.677 0.170631H123.196C123.495 0.170631 123.772 0.447908 123.772 0.767842V26Z" fill="white"/>
</svg>
