<svg width="560" height="449" viewBox="0 0 560 449" fill="none" xmlns="http://www.w3.org/2000/svg">
    <g filter="url(#filter0_d)">
        <rect x="31" y="6" width="498" height="387" rx="10" fill="#F6F6F6" />
        <path d="M62.92 63.01V66.01C63.7267 66.09 64.44 66.28 65.06 66.58C65.6867 66.88 66.2133 67.2233 66.64 67.61L65.53 68.76C64.7633 68.06 63.8933 67.65 62.92 67.53V71.92C63.6267 72.1467 64.2733 72.4367 64.86 72.79C65.4533 73.1433 65.9267 73.5933 66.28 74.14C66.64 74.68 66.82 75.3533 66.82 76.16C66.82 76.8133 66.6733 77.4233 66.38 77.99C66.0867 78.5567 65.65 79.0333 65.07 79.42C64.4967 79.8067 63.78 80.0567 62.92 80.17V83.09H61.53V80.23C60.5767 80.1633 59.7433 79.9433 59.03 79.57C58.3233 79.1967 57.7433 78.7867 57.29 78.34L58.38 77.13C58.8 77.55 59.2667 77.8967 59.78 78.17C60.3 78.4433 60.8833 78.6067 61.53 78.66V73.35C60.3167 72.9433 59.3933 72.4333 58.76 71.82C58.1267 71.2 57.81 70.4267 57.81 69.5C57.81 68.9333 57.95 68.4 58.23 67.9C58.51 67.4 58.9233 66.98 59.47 66.64C60.0233 66.3 60.71 66.09 61.53 66.01V63.01H62.92ZM61.53 67.57C61.0033 67.6567 60.5767 67.8567 60.25 68.17C59.93 68.4767 59.77 68.8933 59.77 69.42C59.77 69.86 59.8867 70.2367 60.12 70.55C60.36 70.8567 60.83 71.1567 61.53 71.45V67.57ZM62.92 73.84V78.58C64.1867 78.32 64.82 77.54 64.82 76.24C64.82 75.7133 64.6833 75.26 64.41 74.88C64.1367 74.4933 63.64 74.1467 62.92 73.84Z" fill="#FFB61D" />
        <path d="M85.4244 78.72C86.191 78.72 86.7944 78.58 87.2344 78.3C87.681 78.02 87.9044 77.64 87.9044 77.16C87.9044 76.8533 87.8444 76.5933 87.7244 76.38C87.611 76.16 87.371 75.96 87.0044 75.78C86.6444 75.5933 86.0977 75.4067 85.3644 75.22C84.6444 75.04 84.0177 74.83 83.4844 74.59C82.9577 74.35 82.5477 74.0367 82.2544 73.65C81.9677 73.2633 81.8244 72.7633 81.8244 72.15C81.8244 71.2567 82.1977 70.5433 82.9444 70.01C83.691 69.4767 84.681 69.21 85.9144 69.21C86.781 69.21 87.5344 69.3267 88.1744 69.56C88.8144 69.7867 89.361 70.0667 89.8144 70.4L88.9944 71.65C88.5877 71.3833 88.141 71.1633 87.6544 70.99C87.1744 70.81 86.6077 70.72 85.9544 70.72C85.1744 70.72 84.6177 70.84 84.2844 71.08C83.9577 71.3133 83.7944 71.6233 83.7944 72.01C83.7944 72.3033 83.8744 72.5467 84.0344 72.74C84.201 72.9267 84.4844 73.1 84.8844 73.26C85.2844 73.4133 85.8377 73.5867 86.5444 73.78C87.231 73.9667 87.831 74.1867 88.3444 74.44C88.8577 74.6933 89.2544 75.0267 89.5344 75.44C89.821 75.8467 89.9644 76.3833 89.9644 77.05C89.9644 77.8033 89.7477 78.4167 89.3144 78.89C88.881 79.3567 88.3177 79.7 87.6244 79.92C86.9377 80.14 86.2044 80.25 85.4244 80.25C84.4644 80.25 83.6377 80.11 82.9444 79.83C82.2577 79.55 81.681 79.2067 81.2144 78.8L82.2744 77.58C82.681 77.92 83.151 78.1967 83.6844 78.41C84.2244 78.6167 84.8044 78.72 85.4244 78.72ZM95.1966 75.38C95.2499 76.54 95.5632 77.3833 96.1366 77.91C96.7166 78.4367 97.4032 78.7 98.1966 78.7C98.7232 78.7 99.2066 78.62 99.6466 78.46C100.087 78.3 100.533 78.0667 100.987 77.76L101.857 78.97C101.363 79.3633 100.793 79.6767 100.147 79.91C99.4999 80.1367 98.8299 80.25 98.1366 80.25C97.0832 80.25 96.1866 80.02 95.4466 79.56C94.7132 79.0933 94.1532 78.4467 93.7666 77.62C93.3866 76.7933 93.1966 75.8333 93.1966 74.74C93.1966 73.68 93.3866 72.7333 93.7666 71.9C94.1532 71.0667 94.6966 70.41 95.3966 69.93C96.0966 69.45 96.9299 69.21 97.8966 69.21C99.2566 69.21 100.327 69.6767 101.107 70.61C101.893 71.5367 102.287 72.8067 102.287 74.42C102.287 74.6 102.283 74.7733 102.277 74.94C102.27 75.1067 102.26 75.2533 102.247 75.38H95.1966ZM97.9166 70.71C97.1632 70.71 96.5399 70.9767 96.0466 71.51C95.5532 72.0433 95.2699 72.8667 95.1966 73.98H100.437C100.417 72.9133 100.183 72.1033 99.7366 71.55C99.2966 70.99 98.6899 70.71 97.9166 70.71ZM110.459 78.63C110.972 78.63 111.449 78.5467 111.889 78.38C112.335 78.2067 112.752 77.9833 113.139 77.71L114.059 78.96C113.592 79.3467 113.032 79.66 112.379 79.9C111.732 80.1333 111.082 80.25 110.429 80.25C109.369 80.25 108.462 80.0233 107.709 79.57C106.962 79.1167 106.392 78.48 105.999 77.66C105.605 76.84 105.409 75.88 105.409 74.78C105.409 73.7133 105.605 72.7633 105.999 71.93C106.399 71.09 106.975 70.4267 107.729 69.94C108.482 69.4533 109.392 69.21 110.459 69.21C111.832 69.21 113.025 69.6233 114.039 70.45L113.129 71.7C112.242 71.0867 111.355 70.78 110.469 70.78C109.589 70.78 108.869 71.1067 108.309 71.76C107.749 72.4133 107.469 73.42 107.469 74.78C107.469 76.1467 107.749 77.13 108.309 77.73C108.875 78.33 109.592 78.63 110.459 78.63ZM124.561 69.21C124.921 69.21 125.258 69.29 125.571 69.45C125.891 69.61 126.148 69.9033 126.341 70.33C126.534 70.75 126.631 71.36 126.631 72.16V80H124.881V72.44C124.881 71.8267 124.841 71.3867 124.761 71.12C124.688 70.8467 124.474 70.71 124.121 70.71C123.828 70.71 123.534 70.8 123.241 70.98C122.954 71.16 122.674 71.46 122.401 71.88V80H120.721V72.44C120.721 71.8267 120.681 71.3867 120.601 71.12C120.528 70.8467 120.314 70.71 119.961 70.71C119.661 70.71 119.368 70.8 119.081 70.98C118.794 71.16 118.514 71.46 118.241 71.88V80H116.491V69.46H117.971L118.091 70.64C118.384 70.2333 118.708 69.8933 119.061 69.62C119.421 69.3467 119.858 69.21 120.371 69.21C120.771 69.21 121.141 69.3067 121.481 69.5C121.828 69.6933 122.081 70.0533 122.241 70.58C122.528 70.1733 122.854 69.8433 123.221 69.59C123.588 69.3367 124.034 69.21 124.561 69.21ZM137.153 77.58C137.153 78 137.22 78.3067 137.353 78.5C137.486 78.6867 137.696 78.8267 137.983 78.92L137.533 80.24C137.053 80.18 136.633 80.0367 136.273 79.81C135.92 79.5833 135.66 79.2367 135.493 78.77C135.113 79.2633 134.633 79.6333 134.053 79.88C133.473 80.1267 132.843 80.25 132.163 80.25C131.103 80.25 130.266 79.95 129.653 79.35C129.04 78.75 128.733 77.96 128.733 76.98C128.733 75.8867 129.16 75.0467 130.013 74.46C130.873 73.8667 132.106 73.57 133.713 73.57H135.243V72.77C135.243 72.0433 135.026 71.5267 134.593 71.22C134.166 70.9133 133.57 70.76 132.803 70.76C132.45 70.76 132.033 70.8033 131.553 70.89C131.08 70.9767 130.573 71.1133 130.033 71.3L129.543 69.9C130.19 69.6533 130.813 69.4767 131.413 69.37C132.013 69.2633 132.573 69.21 133.093 69.21C134.446 69.21 135.46 69.52 136.133 70.14C136.813 70.76 137.153 71.6033 137.153 72.67V77.58ZM132.703 78.81C133.19 78.81 133.66 78.6833 134.113 78.43C134.573 78.1767 134.95 77.8233 135.243 77.37V74.82H133.843C132.73 74.82 131.94 75.01 131.473 75.39C131.006 75.7633 130.773 76.2767 130.773 76.93C130.773 78.1833 131.416 78.81 132.703 78.81ZM141.295 80V69.46H142.945L143.085 70.88C143.519 70.34 144.045 69.9267 144.665 69.64C145.292 69.3533 145.915 69.21 146.535 69.21C147.549 69.21 148.295 69.4867 148.775 70.04C149.255 70.5867 149.495 71.35 149.495 72.33V80H147.575V73.51C147.575 72.8433 147.535 72.3033 147.455 71.89C147.382 71.4767 147.225 71.1767 146.985 70.99C146.745 70.7967 146.382 70.7 145.895 70.7C145.322 70.7 144.802 70.8767 144.335 71.23C143.869 71.5833 143.495 71.9633 143.215 72.37V80H141.295Z" fill="black" />
        <rect x="30.75" y="5.75" width="498.5" height="387.5" rx="10.25" stroke="black" stroke-opacity="0.12" stroke-width="0.5" />
        <path d="M31 22C31 16.3995 31 13.5992 32.0899 11.4601C33.0487 9.57847 34.5785 8.04867 36.4601 7.08993C38.5992 6 41.3995 6 47 6H513C518.601 6 521.401 6 523.54 7.08993C525.422 8.04867 526.951 9.57847 527.91 11.4601C529 13.5992 529 16.3995 529 22V34H31V22Z" fill="white" />
        <path fill-rule="evenodd" clip-rule="evenodd" d="M45 26C48.3137 26 51 23.3137 51 20C51 16.6863 48.3137 14 45 14C41.6863 14 39 16.6863 39 20C39 23.3137 41.6863 26 45 26Z" fill="#FF5E57" />
        <path d="M50.75 20C50.75 23.1756 48.1756 25.75 45 25.75C41.8244 25.75 39.25 23.1756 39.25 20C39.25 16.8244 41.8244 14.25 45 14.25C48.1756 14.25 50.75 16.8244 50.75 20Z" stroke="black" stroke-opacity="0.12" stroke-width="0.5" />
        <path fill-rule="evenodd" clip-rule="evenodd" d="M65 26C68.3137 26 71 23.3137 71 20C71 16.6863 68.3137 14 65 14C61.6863 14 59 16.6863 59 20C59 23.3137 61.6863 26 65 26Z" fill="#FFBB2E" />
        <path d="M70.75 20C70.75 23.1756 68.1756 25.75 65 25.75C61.8244 25.75 59.25 23.1756 59.25 20C59.25 16.8244 61.8244 14.25 65 14.25C68.1756 14.25 70.75 16.8244 70.75 20Z" stroke="black" stroke-opacity="0.12" stroke-width="0.5" />
        <path fill-rule="evenodd" clip-rule="evenodd" d="M85 26C88.3137 26 91 23.3137 91 20C91 16.6863 88.3137 14 85 14C81.6863 14 79 16.6863 79 20C79 23.3137 81.6863 26 85 26Z" fill="#38C149" />
        <path d="M90.75 20C90.75 23.1756 88.1756 25.75 85 25.75C81.8244 25.75 79.25 23.1756 79.25 20C79.25 16.8244 81.8244 14.25 85 14.25C88.1756 14.25 90.75 16.8244 90.75 20Z" stroke="black" stroke-opacity="0.12" stroke-width="0.5" />
    </g>
    <path d="M59.7477 103.458C59.7477 103.132 59.8246 102.834 59.9785 102.563C60.1385 102.292 60.3538 102.077 60.6246 101.917C60.8954 101.757 61.1969 101.677 61.5292 101.677C61.8615 101.677 62.1631 101.757 62.4338 101.917C62.7108 102.077 62.9262 102.292 63.08 102.563C63.24 102.834 63.32 103.132 63.32 103.458C63.32 103.785 63.24 104.086 63.08 104.363C62.92 104.634 62.7046 104.849 62.4338 105.009C62.1631 105.169 61.8615 105.249 61.5292 105.249C61.2031 105.249 60.9015 105.169 60.6246 105.009C60.3538 104.849 60.1385 104.634 59.9785 104.363C59.8246 104.086 59.7477 103.785 59.7477 103.458ZM60.8 108.538H62.2769V119.8H67.1692V121.277H62.2769V136.231H60.8V108.538ZM66.9099 119.8H78.1714V121.277H66.9099V119.8ZM77.9121 119.8H89.1737V121.277H77.9121V119.8ZM97.6651 127L96.779 123.935H92.2282L91.342 127H89.1636L93.2159 114.262H95.8743L99.9359 127H97.6651ZM94.5082 115.923L92.6713 122.283H96.3267L94.5082 115.923ZM106.35 125.551C106.781 125.551 107.19 125.477 107.578 125.329C107.972 125.182 108.363 124.972 108.75 124.702L109.71 126.031C109.273 126.4 108.75 126.695 108.141 126.917C107.538 127.138 106.92 127.249 106.286 127.249C105.301 127.249 104.452 127.04 103.738 126.622C103.024 126.203 102.48 125.612 102.104 124.849C101.729 124.08 101.541 123.188 101.541 122.172C101.541 121.175 101.732 120.286 102.113 119.505C102.495 118.723 103.046 118.111 103.766 117.668C104.492 117.218 105.344 116.994 106.323 116.994C107.627 116.994 108.753 117.385 109.701 118.166L108.75 119.468C107.963 118.926 107.166 118.655 106.36 118.655C105.553 118.655 104.913 118.948 104.44 119.532C103.972 120.117 103.738 120.997 103.738 122.172C103.738 123.335 103.972 124.191 104.44 124.738C104.907 125.28 105.544 125.551 106.35 125.551ZM117.353 125.551C117.783 125.551 118.193 125.477 118.58 125.329C118.974 125.182 119.365 124.972 119.753 124.702L120.713 126.031C120.276 126.4 119.753 126.695 119.143 126.917C118.54 127.138 117.922 127.249 117.288 127.249C116.303 127.249 115.454 127.04 114.74 126.622C114.026 126.203 113.482 125.612 113.106 124.849C112.731 124.08 112.543 123.188 112.543 122.172C112.543 121.175 112.734 120.286 113.116 119.505C113.497 118.723 114.048 118.111 114.768 117.668C115.494 117.218 116.346 116.994 117.325 116.994C118.63 116.994 119.756 117.385 120.703 118.166L119.753 119.468C118.965 118.926 118.168 118.655 117.362 118.655C116.556 118.655 115.916 118.948 115.442 119.532C114.974 120.117 114.74 120.997 114.74 122.172C114.74 123.335 114.974 124.191 115.442 124.738C115.91 125.28 116.546 125.551 117.353 125.551ZM127.561 116.994C128.496 116.994 129.293 117.203 129.952 117.622C130.61 118.04 131.109 118.634 131.447 119.403C131.786 120.166 131.955 121.068 131.955 122.108C131.955 123.142 131.783 124.046 131.438 124.822C131.093 125.591 130.592 126.188 129.933 126.612C129.275 127.037 128.481 127.249 127.552 127.249C126.616 127.249 125.819 127.043 125.161 126.631C124.503 126.218 124.001 125.628 123.656 124.858C123.318 124.089 123.149 123.178 123.149 122.126C123.149 121.111 123.321 120.215 123.666 119.44C124.01 118.665 124.512 118.065 125.17 117.64C125.835 117.209 126.632 116.994 127.561 116.994ZM127.561 118.6C126.81 118.6 126.247 118.889 125.872 119.468C125.503 120.04 125.318 120.926 125.318 122.126C125.318 123.326 125.503 124.215 125.872 124.794C126.241 125.366 126.801 125.652 127.552 125.652C128.303 125.652 128.863 125.366 129.232 124.794C129.601 124.215 129.786 123.32 129.786 122.108C129.786 120.914 129.601 120.031 129.232 119.458C128.863 118.886 128.306 118.6 127.561 118.6ZM136.726 124.065C136.726 124.631 136.837 125.04 137.059 125.292C137.286 125.545 137.64 125.671 138.12 125.671C138.551 125.671 138.972 125.542 139.385 125.283C139.803 125.025 140.136 124.698 140.382 124.305V117.252H142.449V127H140.668L140.539 125.754C140.182 126.228 139.726 126.597 139.172 126.862C138.625 127.12 138.056 127.249 137.465 127.249C136.536 127.249 135.834 126.994 135.36 126.483C134.892 125.972 134.659 125.252 134.659 124.323V117.252H136.726V124.065ZM145.661 127V117.252H147.442L147.599 118.517C147.999 118.031 148.476 117.655 149.03 117.391C149.584 117.126 150.156 116.994 150.747 116.994C151.645 116.994 152.322 117.246 152.778 117.751C153.239 118.249 153.47 118.963 153.47 119.892V127H151.402V120.917C151.402 120.314 151.365 119.849 151.292 119.523C151.224 119.197 151.089 118.957 150.885 118.803C150.689 118.649 150.396 118.572 150.009 118.572C149.565 118.572 149.147 118.708 148.753 118.978C148.365 119.249 148.024 119.591 147.729 120.003V127H145.661ZM164.805 126.483C164.442 126.717 164.008 126.902 163.503 127.037C163.005 127.178 162.491 127.249 161.962 127.249C161.217 127.249 160.586 127.117 160.069 126.852C159.552 126.588 159.162 126.215 158.897 125.735C158.632 125.255 158.5 124.692 158.5 124.046V118.757H156.331V117.252H158.5V115.074L160.568 114.825V117.252H163.854L163.623 118.757H160.568V124.028C160.568 124.557 160.7 124.948 160.965 125.2C161.229 125.452 161.657 125.578 162.248 125.578C162.9 125.578 163.503 125.425 164.057 125.117L164.805 126.483ZM171.21 125.662C171.862 125.662 172.376 125.548 172.751 125.32C173.133 125.086 173.324 124.766 173.324 124.36C173.324 124.077 173.265 123.846 173.148 123.668C173.038 123.489 172.816 123.323 172.484 123.169C172.151 123.009 171.65 122.843 170.979 122.671C170.278 122.492 169.696 122.289 169.234 122.062C168.773 121.828 168.413 121.529 168.154 121.166C167.902 120.797 167.776 120.338 167.776 119.791C167.776 119.237 167.933 118.751 168.247 118.332C168.567 117.908 169.019 117.578 169.604 117.345C170.194 117.111 170.884 116.994 171.671 116.994C173.118 116.994 174.351 117.369 175.373 118.12L174.505 119.422C174.093 119.151 173.659 118.942 173.204 118.794C172.754 118.64 172.262 118.563 171.727 118.563C170.496 118.563 169.881 118.923 169.881 119.643C169.881 119.889 169.951 120.092 170.093 120.252C170.234 120.406 170.474 120.554 170.813 120.695C171.158 120.831 171.674 120.994 172.364 121.185C173.065 121.382 173.641 121.597 174.09 121.831C174.539 122.065 174.887 122.372 175.133 122.754C175.385 123.135 175.511 123.625 175.511 124.222C175.511 124.892 175.314 125.455 174.921 125.911C174.527 126.366 174.004 126.705 173.351 126.926C172.705 127.142 171.991 127.249 171.21 127.249C170.354 127.249 169.594 127.126 168.93 126.88C168.265 126.634 167.69 126.298 167.204 125.874L168.302 124.618C168.696 124.945 169.139 125.2 169.631 125.385C170.13 125.569 170.656 125.662 171.21 125.662ZM60.5969 132.385H62.48V154.538H60.5969V132.385ZM93.8067 130.538H95.2836V141.8H100.176V143.277H95.2836V158.231H93.8067V130.538ZM99.9166 141.8H111.178V143.277H99.9166V141.8ZM110.919 141.8H122.18V143.277H110.919V141.8ZM132.287 137.988H128.595V149H126.453V137.988H122.632V136.262H132.509L132.287 137.988ZM143.871 139.252L142.283 149H139.699L138.6 142.077L137.419 149H134.889L133.237 139.252H135.231L136.246 147.717L137.603 140.489H139.671L140.936 147.717L141.951 139.252H143.871ZM149.547 134.48C149.947 134.48 150.273 134.603 150.525 134.849C150.778 135.095 150.904 135.403 150.904 135.772C150.904 136.148 150.778 136.462 150.525 136.714C150.273 136.96 149.947 137.083 149.547 137.083C149.153 137.083 148.83 136.96 148.578 136.714C148.325 136.462 148.199 136.148 148.199 135.772C148.199 135.403 148.325 135.095 148.578 134.849C148.83 134.603 149.153 134.48 149.547 134.48ZM146.095 139.252H150.987V147.486H153.636V149H146.002V147.486H148.919V140.766H146.095V139.252ZM164.805 148.483C164.442 148.717 164.008 148.902 163.503 149.037C163.005 149.178 162.491 149.249 161.962 149.249C161.217 149.249 160.586 149.117 160.069 148.852C159.552 148.588 159.162 148.215 158.897 147.735C158.632 147.255 158.5 146.692 158.5 146.046V140.757H156.331V139.252H158.5V137.074L160.568 136.825V139.252H163.854L163.623 140.757H160.568V146.028C160.568 146.557 160.7 146.948 160.965 147.2C161.229 147.452 161.657 147.578 162.248 147.578C162.9 147.578 163.503 147.425 164.057 147.117L164.805 148.483ZM175.807 148.483C175.444 148.717 175.01 148.902 174.505 149.037C174.007 149.178 173.493 149.249 172.964 149.249C172.219 149.249 171.588 149.117 171.071 148.852C170.554 148.588 170.164 148.215 169.899 147.735C169.634 147.255 169.502 146.692 169.502 146.046V140.757H167.333V139.252H169.502V137.074L171.57 136.825V139.252H174.856L174.625 140.757H171.57V146.028C171.57 146.557 171.702 146.948 171.967 147.2C172.231 147.452 172.659 147.578 173.25 147.578C173.902 147.578 174.505 147.425 175.059 147.117L175.807 148.483ZM180.384 144.791C180.44 145.745 180.707 146.458 181.187 146.932C181.674 147.406 182.292 147.643 183.043 147.643C183.504 147.643 183.938 147.572 184.344 147.431C184.751 147.289 185.169 147.077 185.6 146.794L186.495 148.031C186.034 148.412 185.495 148.711 184.88 148.926C184.264 149.142 183.618 149.249 182.941 149.249C181.951 149.249 181.101 149.037 180.394 148.612C179.686 148.182 179.151 147.582 178.787 146.812C178.424 146.043 178.243 145.151 178.243 144.135C178.243 143.157 178.421 142.28 178.778 141.505C179.141 140.723 179.658 140.111 180.329 139.668C181 139.218 181.787 138.994 182.692 138.994C183.547 138.994 184.289 139.191 184.917 139.585C185.551 139.972 186.037 140.532 186.375 141.265C186.72 141.997 186.892 142.865 186.892 143.868C186.892 144.206 186.877 144.514 186.846 144.791H180.384ZM182.711 140.526C182.04 140.526 181.498 140.766 181.086 141.246C180.674 141.72 180.437 142.431 180.375 143.378H184.889C184.871 142.462 184.674 141.757 184.298 141.265C183.923 140.772 183.394 140.526 182.711 140.526ZM196.584 139.003C196.854 139.003 197.104 139.025 197.331 139.068C197.559 139.111 197.799 139.172 198.051 139.252L197.7 142.843H196.224V140.858C195.54 140.883 194.95 141.157 194.451 141.68C193.953 142.197 193.556 142.938 193.26 143.905V147.523H195.227V149H189.762V147.523H191.193V140.72H189.762V139.252H192.771L193.15 141.514C193.525 140.671 193.984 140.043 194.525 139.631C195.073 139.212 195.759 139.003 196.584 139.003ZM60.5969 154.385H62.48V176.538H60.5969V154.385ZM93.8067 152.538H95.2836V163.8H100.176V165.277H95.2836V180.231H93.8067V152.538ZM99.9166 163.8H111.178V165.277H99.9166V163.8ZM110.919 163.8H122.18V165.277H110.919V163.8ZM127.884 171.249C126.795 171.249 125.863 171 125.087 170.502C124.312 170.003 123.718 169.258 123.306 168.268C122.899 167.277 122.696 166.058 122.696 164.612C122.696 163.209 122.946 162.012 123.444 161.022C123.949 160.025 124.623 159.274 125.466 158.769C126.309 158.258 127.238 158.003 128.253 158.003C129.078 158.003 129.783 158.126 130.367 158.372C130.952 158.612 131.512 158.978 132.047 159.471L130.847 160.717C130.453 160.36 130.053 160.098 129.647 159.932C129.247 159.76 128.801 159.674 128.309 159.674C127.675 159.674 127.106 159.84 126.601 160.172C126.096 160.498 125.693 161.031 125.392 161.769C125.09 162.508 124.939 163.458 124.939 164.622C124.939 165.797 125.05 166.751 125.272 167.483C125.499 168.209 125.835 168.742 126.278 169.08C126.727 169.412 127.296 169.578 127.986 169.578C128.73 169.578 129.432 169.4 130.09 169.043V165.535H127.93L127.699 163.902H132.167V170.077C131.503 170.452 130.829 170.742 130.146 170.945C129.469 171.148 128.715 171.249 127.884 171.249ZM138.545 156.48C138.945 156.48 139.271 156.603 139.523 156.849C139.776 157.095 139.902 157.403 139.902 157.772C139.902 158.148 139.776 158.462 139.523 158.714C139.271 158.96 138.945 159.083 138.545 159.083C138.151 159.083 137.828 158.96 137.576 158.714C137.323 158.462 137.197 158.148 137.197 157.772C137.197 157.403 137.323 157.095 137.576 156.849C137.828 156.603 138.151 156.48 138.545 156.48ZM135.092 161.252H139.985V169.486H142.634V171H135V169.486H137.917V162.766H135.092V161.252ZM153.802 170.483C153.439 170.717 153.005 170.902 152.501 171.037C152.002 171.178 151.489 171.249 150.959 171.249C150.215 171.249 149.584 171.117 149.067 170.852C148.55 170.588 148.159 170.215 147.895 169.735C147.63 169.255 147.498 168.692 147.498 168.046V162.757H145.329V161.252H147.498V159.074L149.565 158.825V161.252H152.852L152.621 162.757H149.565V168.028C149.565 168.557 149.698 168.948 149.962 169.2C150.227 169.452 150.655 169.578 151.245 169.578C151.898 169.578 152.501 169.425 153.055 169.117L153.802 170.483ZM158.731 162.443C159.118 161.969 159.574 161.609 160.097 161.363C160.626 161.117 161.177 160.994 161.749 160.994C162.654 160.994 163.334 161.246 163.789 161.751C164.245 162.249 164.472 162.963 164.472 163.892V171H162.405V164.215C162.405 163.631 162.294 163.212 162.072 162.96C161.857 162.702 161.5 162.572 161.002 162.572C160.571 162.572 160.155 162.711 159.755 162.988C159.362 163.265 159.02 163.612 158.731 164.031V171H156.663V157.357L158.731 157.135V162.443ZM169.733 168.065C169.733 168.631 169.844 169.04 170.065 169.292C170.293 169.545 170.647 169.671 171.127 169.671C171.558 169.671 171.979 169.542 172.391 169.283C172.81 169.025 173.142 168.698 173.388 168.305V161.252H175.456V171H173.674L173.545 169.754C173.188 170.228 172.733 170.597 172.179 170.862C171.631 171.12 171.062 171.249 170.471 171.249C169.542 171.249 168.841 170.994 168.367 170.483C167.899 169.972 167.665 169.252 167.665 168.323V161.252H169.733V168.065ZM180.735 162.415C181.08 161.96 181.48 161.609 181.935 161.363C182.391 161.117 182.883 160.994 183.412 160.994C184.649 160.994 185.563 161.443 186.154 162.342C186.744 163.234 187.04 164.489 187.04 166.108C187.04 167.111 186.889 168 186.587 168.775C186.292 169.551 185.852 170.157 185.267 170.594C184.683 171.031 183.981 171.249 183.163 171.249C182.074 171.249 181.218 170.846 180.597 170.04L180.486 171H178.667V157.338L180.735 157.108V162.415ZM182.646 169.671C183.36 169.671 183.904 169.378 184.28 168.794C184.661 168.209 184.852 167.317 184.852 166.117C184.852 164.898 184.683 164.006 184.344 163.44C184.006 162.874 183.507 162.591 182.849 162.591C182.418 162.591 182.024 162.72 181.667 162.978C181.317 163.231 181.006 163.566 180.735 163.985V168.545C180.963 168.902 181.24 169.178 181.566 169.375C181.898 169.572 182.258 169.671 182.646 169.671ZM60.5969 176.385H62.48V198.538H60.5969V176.385ZM93.8067 174.538H95.2836V185.8H100.176V187.277H93.8067V174.538ZM99.9166 185.8H111.178V187.277H99.9166V185.8ZM110.919 185.8H122.18V187.277H110.919V185.8ZM128.623 180.003C129.453 180.003 130.167 180.111 130.764 180.326C131.361 180.535 131.927 180.862 132.463 181.305L131.346 182.634C130.589 182.006 129.715 181.692 128.724 181.692C128.053 181.692 127.453 181.858 126.924 182.191C126.395 182.523 125.973 183.055 125.659 183.788C125.352 184.52 125.198 185.462 125.198 186.612C125.198 188.286 125.518 189.523 126.158 190.323C126.798 191.117 127.653 191.514 128.724 191.514C129.339 191.514 129.869 191.418 130.312 191.228C130.755 191.031 131.189 190.76 131.613 190.415L132.647 191.735C132.179 192.197 131.613 192.566 130.949 192.843C130.29 193.114 129.524 193.249 128.65 193.249C127.555 193.249 126.579 192.994 125.724 192.483C124.869 191.966 124.195 191.209 123.703 190.212C123.216 189.215 122.973 188.015 122.973 186.612C122.973 185.228 123.223 184.037 123.721 183.04C124.219 182.043 124.896 181.289 125.752 180.778C126.613 180.262 127.57 180.003 128.623 180.003ZM138.563 182.994C139.499 182.994 140.296 183.203 140.954 183.622C141.612 184.04 142.111 184.634 142.449 185.403C142.788 186.166 142.957 187.068 142.957 188.108C142.957 189.142 142.785 190.046 142.44 190.822C142.096 191.591 141.594 192.188 140.936 192.612C140.277 193.037 139.483 193.249 138.554 193.249C137.619 193.249 136.822 193.043 136.163 192.631C135.505 192.218 135.003 191.628 134.659 190.858C134.32 190.089 134.151 189.178 134.151 188.126C134.151 187.111 134.323 186.215 134.668 185.44C135.012 184.665 135.514 184.065 136.172 183.64C136.837 183.209 137.634 182.994 138.563 182.994ZM138.563 184.6C137.812 184.6 137.249 184.889 136.874 185.468C136.505 186.04 136.32 186.926 136.32 188.126C136.32 189.326 136.505 190.215 136.874 190.794C137.243 191.366 137.803 191.652 138.554 191.652C139.305 191.652 139.865 191.366 140.234 190.794C140.603 190.215 140.788 189.32 140.788 188.108C140.788 186.914 140.603 186.031 140.234 185.458C139.865 184.886 139.308 184.6 138.563 184.6ZM151.384 179.108L153.452 179.338V193H151.633L151.485 191.8C151.153 192.268 150.753 192.628 150.285 192.88C149.824 193.126 149.31 193.249 148.744 193.249C147.532 193.249 146.618 192.794 146.002 191.883C145.387 190.966 145.079 189.714 145.079 188.126C145.079 187.135 145.233 186.252 145.541 185.477C145.849 184.702 146.292 184.095 146.87 183.658C147.455 183.215 148.141 182.994 148.929 182.994C149.925 182.994 150.744 183.348 151.384 184.055V179.108ZM149.473 184.582C148.759 184.582 148.212 184.874 147.83 185.458C147.455 186.043 147.267 186.932 147.267 188.126C147.267 190.483 147.941 191.662 149.289 191.662C150.095 191.662 150.793 191.2 151.384 190.277V185.662C151.138 185.311 150.855 185.043 150.535 184.858C150.215 184.674 149.861 184.582 149.473 184.582ZM158.38 188.791C158.435 189.745 158.703 190.458 159.183 190.932C159.669 191.406 160.288 191.643 161.038 191.643C161.5 191.643 161.934 191.572 162.34 191.431C162.746 191.289 163.165 191.077 163.595 190.794L164.491 192.031C164.029 192.412 163.491 192.711 162.875 192.926C162.26 193.142 161.614 193.249 160.937 193.249C159.946 193.249 159.097 193.037 158.389 192.612C157.682 192.182 157.146 191.582 156.783 190.812C156.42 190.043 156.238 189.151 156.238 188.135C156.238 187.157 156.417 186.28 156.774 185.505C157.137 184.723 157.654 184.111 158.325 183.668C158.995 183.218 159.783 182.994 160.688 182.994C161.543 182.994 162.285 183.191 162.912 183.585C163.546 183.972 164.032 184.532 164.371 185.265C164.715 185.997 164.888 186.865 164.888 187.868C164.888 188.206 164.872 188.514 164.842 188.791H158.38ZM160.706 184.526C160.035 184.526 159.494 184.766 159.082 185.246C158.669 185.72 158.432 186.431 158.371 187.378H162.885C162.866 186.462 162.669 185.757 162.294 185.265C161.918 184.772 161.389 184.526 160.706 184.526ZM176.148 189.4C176.148 190.157 175.954 190.828 175.567 191.412C175.185 191.991 174.628 192.443 173.896 192.769C173.164 193.089 172.296 193.249 171.293 193.249C170.29 193.249 169.398 193.102 168.616 192.806C167.834 192.505 167.164 192.083 166.604 191.542L167.776 190.231C168.244 190.662 168.764 190.991 169.336 191.218C169.914 191.446 170.564 191.56 171.284 191.56C171.776 191.56 172.219 191.483 172.613 191.329C173.013 191.169 173.33 190.935 173.564 190.628C173.804 190.32 173.924 189.945 173.924 189.502C173.924 189.12 173.847 188.8 173.693 188.542C173.539 188.283 173.274 188.052 172.899 187.849C172.524 187.646 171.994 187.443 171.311 187.24C170.37 186.957 169.601 186.649 169.004 186.317C168.413 185.985 167.964 185.588 167.656 185.126C167.354 184.658 167.204 184.098 167.204 183.446C167.204 182.769 167.391 182.169 167.767 181.646C168.148 181.123 168.671 180.72 169.336 180.437C170.001 180.148 170.748 180.003 171.579 180.003C172.471 180.003 173.265 180.132 173.961 180.391C174.662 180.649 175.29 181.031 175.844 181.535L174.718 182.809C174.281 182.428 173.807 182.145 173.296 181.96C172.785 181.775 172.256 181.683 171.708 181.683C171.025 181.683 170.468 181.825 170.038 182.108C169.613 182.391 169.401 182.797 169.401 183.326C169.401 183.665 169.49 183.948 169.668 184.175C169.853 184.403 170.154 184.615 170.573 184.812C170.991 185.009 171.594 185.225 172.382 185.458C173.182 185.698 173.853 185.972 174.394 186.28C174.936 186.582 175.364 186.988 175.678 187.498C175.991 188.003 176.148 188.637 176.148 189.4ZM186.117 190.609C186.117 190.985 186.172 191.262 186.283 191.44C186.4 191.618 186.591 191.751 186.855 191.837L186.394 193.24C185.895 193.185 185.477 193.049 185.138 192.834C184.8 192.618 184.544 192.305 184.372 191.892C184.021 192.335 183.575 192.674 183.034 192.908C182.492 193.135 181.901 193.249 181.261 193.249C180.609 193.249 180.04 193.123 179.554 192.871C179.074 192.618 178.704 192.265 178.446 191.809C178.187 191.354 178.058 190.825 178.058 190.222C178.058 189.194 178.458 188.403 179.258 187.849C180.064 187.295 181.209 187.018 182.692 187.018H184.086V186.382C184.086 185.766 183.901 185.317 183.532 185.034C183.163 184.751 182.624 184.609 181.917 184.609C181.578 184.609 181.181 184.652 180.726 184.738C180.271 184.825 179.803 184.951 179.323 185.117L178.815 183.658C179.406 183.437 179.994 183.271 180.578 183.16C181.163 183.049 181.714 182.994 182.231 182.994C183.517 182.994 184.486 183.277 185.138 183.843C185.791 184.409 186.117 185.215 186.117 186.262V190.609ZM181.889 191.726C182.314 191.726 182.723 191.615 183.117 191.394C183.517 191.166 183.84 190.855 184.086 190.462V188.311H182.941C182 188.311 181.311 188.468 180.874 188.782C180.443 189.089 180.227 189.538 180.227 190.129C180.227 190.652 180.366 191.049 180.643 191.32C180.926 191.591 181.341 191.726 181.889 191.726ZM189.67 193V183.252H191.451L191.608 184.517C192.008 184.031 192.485 183.655 193.039 183.391C193.593 183.126 194.165 182.994 194.756 182.994C195.654 182.994 196.331 183.246 196.787 183.751C197.248 184.249 197.479 184.963 197.479 185.892V193H195.411V186.917C195.411 186.314 195.374 185.849 195.3 185.523C195.233 185.197 195.097 184.957 194.894 184.803C194.697 184.649 194.405 184.572 194.017 184.572C193.574 184.572 193.156 184.708 192.762 184.978C192.374 185.249 192.033 185.591 191.737 186.003V193H189.67ZM206.395 179.108L208.463 179.338V193H206.644L206.497 191.8C206.164 192.268 205.764 192.628 205.297 192.88C204.835 193.126 204.321 193.249 203.755 193.249C202.543 193.249 201.629 192.794 201.013 191.883C200.398 190.966 200.09 189.714 200.09 188.126C200.09 187.135 200.244 186.252 200.552 185.477C200.86 184.702 201.303 184.095 201.881 183.658C202.466 183.215 203.152 182.994 203.94 182.994C204.937 182.994 205.755 183.348 206.395 184.055V179.108ZM204.484 184.582C203.77 184.582 203.223 184.874 202.841 185.458C202.466 186.043 202.278 186.932 202.278 188.126C202.278 190.483 202.952 191.662 204.3 191.662C205.106 191.662 205.804 191.2 206.395 190.277V185.662C206.149 185.311 205.866 185.043 205.546 184.858C205.226 184.674 204.872 184.582 204.484 184.582ZM220.213 189.326C220.213 190.637 219.745 191.578 218.81 192.151C217.874 192.717 216.69 193 215.256 193H211.526V180.262H215.006C216.36 180.262 217.474 180.511 218.348 181.009C219.222 181.508 219.659 182.332 219.659 183.483C219.659 184.234 219.434 184.843 218.985 185.311C218.542 185.778 217.982 186.092 217.305 186.252C218.136 186.394 218.828 186.702 219.382 187.175C219.936 187.649 220.213 188.366 220.213 189.326ZM217.49 183.658C217.49 183.037 217.296 182.585 216.908 182.302C216.52 182.012 215.951 181.868 215.2 181.868H213.668V185.551H215.33C216.05 185.551 216.588 185.4 216.945 185.098C217.308 184.791 217.49 184.311 217.49 183.658ZM217.979 189.317C217.979 188.517 217.757 187.954 217.314 187.628C216.871 187.302 216.262 187.138 215.486 187.138H213.668V191.338H215.394C217.117 191.338 217.979 190.665 217.979 189.317ZM226.581 182.994C227.516 182.994 228.313 183.203 228.972 183.622C229.63 184.04 230.129 184.634 230.467 185.403C230.806 186.166 230.975 187.068 230.975 188.108C230.975 189.142 230.803 190.046 230.458 190.822C230.113 191.591 229.612 192.188 228.953 192.612C228.295 193.037 227.501 193.249 226.572 193.249C225.636 193.249 224.839 193.043 224.181 192.631C223.523 192.218 223.021 191.628 222.676 190.858C222.338 190.089 222.169 189.178 222.169 188.126C222.169 187.111 222.341 186.215 222.686 185.44C223.03 184.665 223.532 184.065 224.19 183.64C224.855 183.209 225.652 182.994 226.581 182.994ZM226.581 184.6C225.83 184.6 225.267 184.889 224.892 185.468C224.523 186.04 224.338 186.926 224.338 188.126C224.338 189.326 224.523 190.215 224.892 190.794C225.261 191.366 225.821 191.652 226.572 191.652C227.323 191.652 227.883 191.366 228.252 190.794C228.621 190.215 228.806 189.32 228.806 188.108C228.806 186.914 228.621 186.031 228.252 185.458C227.883 184.886 227.326 184.6 226.581 184.6ZM237.5 189.022L235.119 193H232.829L236.328 187.858L233.217 183.252H235.599L237.592 186.686L239.586 183.252H241.857L238.811 187.775L242.319 193H239.891L237.5 189.022ZM60.8 196.538H62.2769V207.8H67.1692V209.277H62.2769V224.231H60.8V196.538ZM66.9099 207.8H78.1714V209.277H66.9099V207.8ZM77.9121 207.8H89.1737V209.277H77.9121V207.8ZM98.9482 203.886H93.4928V207.938H98.2836V209.563H93.4928V215H91.3513V202.262H99.1882L98.9482 203.886ZM105.538 200.48C105.938 200.48 106.264 200.603 106.517 200.849C106.769 201.095 106.895 201.403 106.895 201.772C106.895 202.148 106.769 202.462 106.517 202.714C106.264 202.96 105.938 203.083 105.538 203.083C105.144 203.083 104.821 202.96 104.569 202.714C104.317 202.462 104.19 202.148 104.19 201.772C104.19 201.403 104.317 201.095 104.569 200.849C104.821 200.603 105.144 200.48 105.538 200.48ZM102.086 205.252H106.978V213.486H109.627V215H101.993V213.486H104.91V206.766H102.086V205.252ZM119.568 205.003C119.839 205.003 120.088 205.025 120.316 205.068C120.543 205.111 120.783 205.172 121.036 205.252L120.685 208.843H119.208V206.858C118.525 206.883 117.934 207.157 117.436 207.68C116.937 208.197 116.54 208.938 116.245 209.905V213.523H118.211V215H112.746V213.523H114.177V206.72H112.746V205.252H115.756L116.134 207.514C116.51 206.671 116.968 206.043 117.51 205.631C118.057 205.212 118.743 205.003 119.568 205.003ZM125.373 210.791C125.429 211.745 125.696 212.458 126.176 212.932C126.663 213.406 127.281 213.643 128.032 213.643C128.493 213.643 128.927 213.572 129.333 213.431C129.739 213.289 130.158 213.077 130.589 212.794L131.484 214.031C131.023 214.412 130.484 214.711 129.869 214.926C129.253 215.142 128.607 215.249 127.93 215.249C126.939 215.249 126.09 215.037 125.383 214.612C124.675 214.182 124.139 213.582 123.776 212.812C123.413 212.043 123.232 211.151 123.232 210.135C123.232 209.157 123.41 208.28 123.767 207.505C124.13 206.723 124.647 206.111 125.318 205.668C125.989 205.218 126.776 204.994 127.681 204.994C128.536 204.994 129.278 205.191 129.906 205.585C130.539 205.972 131.026 206.532 131.364 207.265C131.709 207.997 131.881 208.865 131.881 209.868C131.881 210.206 131.866 210.514 131.835 210.791H125.373ZM127.699 206.526C127.029 206.526 126.487 206.766 126.075 207.246C125.663 207.72 125.426 208.431 125.364 209.378H129.878C129.859 208.462 129.663 207.757 129.287 207.265C128.912 206.772 128.383 206.526 127.699 206.526ZM136.726 206.415C137.071 205.96 137.471 205.609 137.926 205.363C138.382 205.117 138.874 204.994 139.403 204.994C140.64 204.994 141.554 205.443 142.145 206.342C142.736 207.234 143.031 208.489 143.031 210.108C143.031 211.111 142.88 212 142.579 212.775C142.283 213.551 141.843 214.157 141.259 214.594C140.674 215.031 139.972 215.249 139.154 215.249C138.065 215.249 137.209 214.846 136.588 214.04L136.477 215H134.659V201.338L136.726 201.108V206.415ZM138.637 213.671C139.351 213.671 139.896 213.378 140.271 212.794C140.652 212.209 140.843 211.317 140.843 210.117C140.843 208.898 140.674 208.006 140.336 207.44C139.997 206.874 139.499 206.591 138.84 206.591C138.409 206.591 138.016 206.72 137.659 206.978C137.308 207.231 136.997 207.566 136.726 207.985V212.545C136.954 212.902 137.231 213.178 137.557 213.375C137.889 213.572 138.249 213.671 138.637 213.671ZM153.11 212.609C153.11 212.985 153.165 213.262 153.276 213.44C153.393 213.618 153.584 213.751 153.849 213.837L153.387 215.24C152.889 215.185 152.47 215.049 152.132 214.834C151.793 214.618 151.538 214.305 151.365 213.892C151.015 214.335 150.569 214.674 150.027 214.908C149.485 215.135 148.895 215.249 148.255 215.249C147.602 215.249 147.033 215.123 146.547 214.871C146.067 214.618 145.698 214.265 145.439 213.809C145.181 213.354 145.052 212.825 145.052 212.222C145.052 211.194 145.452 210.403 146.252 209.849C147.058 209.295 148.202 209.018 149.685 209.018H151.079V208.382C151.079 207.766 150.895 207.317 150.525 207.034C150.156 206.751 149.618 206.609 148.91 206.609C148.572 206.609 148.175 206.652 147.719 206.738C147.264 206.825 146.796 206.951 146.316 207.117L145.809 205.658C146.399 205.437 146.987 205.271 147.572 205.16C148.156 205.049 148.707 204.994 149.224 204.994C150.51 204.994 151.479 205.277 152.132 205.843C152.784 206.409 153.11 207.215 153.11 208.262V212.609ZM148.882 213.726C149.307 213.726 149.716 213.615 150.11 213.394C150.51 213.166 150.833 212.855 151.079 212.462V210.311H149.935C148.993 210.311 148.304 210.468 147.867 210.782C147.436 211.089 147.221 211.538 147.221 212.129C147.221 212.652 147.359 213.049 147.636 213.32C147.919 213.591 148.335 213.726 148.882 213.726ZM160.208 213.662C160.86 213.662 161.374 213.548 161.749 213.32C162.131 213.086 162.322 212.766 162.322 212.36C162.322 212.077 162.263 211.846 162.146 211.668C162.035 211.489 161.814 211.323 161.482 211.169C161.149 211.009 160.648 210.843 159.977 210.671C159.275 210.492 158.694 210.289 158.232 210.062C157.771 209.828 157.411 209.529 157.152 209.166C156.9 208.797 156.774 208.338 156.774 207.791C156.774 207.237 156.931 206.751 157.245 206.332C157.565 205.908 158.017 205.578 158.602 205.345C159.192 205.111 159.882 204.994 160.669 204.994C162.115 204.994 163.349 205.369 164.371 206.12L163.503 207.422C163.091 207.151 162.657 206.942 162.202 206.794C161.752 206.64 161.26 206.563 160.725 206.563C159.494 206.563 158.878 206.923 158.878 207.643C158.878 207.889 158.949 208.092 159.091 208.252C159.232 208.406 159.472 208.554 159.811 208.695C160.155 208.831 160.672 208.994 161.362 209.185C162.063 209.382 162.638 209.597 163.088 209.831C163.537 210.065 163.885 210.372 164.131 210.754C164.383 211.135 164.509 211.625 164.509 212.222C164.509 212.892 164.312 213.455 163.918 213.911C163.525 214.366 163.002 214.705 162.349 214.926C161.703 215.142 160.989 215.249 160.208 215.249C159.352 215.249 158.592 215.126 157.928 214.88C157.263 214.634 156.688 214.298 156.202 213.874L157.3 212.618C157.694 212.945 158.137 213.2 158.629 213.385C159.128 213.569 159.654 213.662 160.208 213.662ZM169.382 210.791C169.438 211.745 169.705 212.458 170.185 212.932C170.671 213.406 171.29 213.643 172.041 213.643C172.502 213.643 172.936 213.572 173.342 213.431C173.748 213.289 174.167 213.077 174.598 212.794L175.493 214.031C175.031 214.412 174.493 214.711 173.878 214.926C173.262 215.142 172.616 215.249 171.939 215.249C170.948 215.249 170.099 215.037 169.391 214.612C168.684 214.182 168.148 213.582 167.785 212.812C167.422 212.043 167.241 211.151 167.241 210.135C167.241 209.157 167.419 208.28 167.776 207.505C168.139 206.723 168.656 206.111 169.327 205.668C169.998 205.218 170.785 204.994 171.69 204.994C172.545 204.994 173.287 205.191 173.914 205.585C174.548 205.972 175.034 206.532 175.373 207.265C175.718 207.997 175.89 208.865 175.89 209.868C175.89 210.206 175.874 210.514 175.844 210.791H169.382ZM171.708 206.526C171.038 206.526 170.496 206.766 170.084 207.246C169.671 207.72 169.434 208.431 169.373 209.378H173.887C173.868 208.462 173.671 207.757 173.296 207.265C172.921 206.772 172.391 206.526 171.708 206.526ZM60.5969 220.385H62.48V242.538H60.5969V220.385ZM93.8067 218.538H95.2836V229.8H100.176V231.277H93.8067V218.538ZM99.9166 229.8H111.178V231.277H99.9166V229.8ZM110.919 229.8H122.18V231.277H110.919V229.8ZM127.201 235.662C127.853 235.662 128.367 235.548 128.743 235.32C129.124 235.086 129.315 234.766 129.315 234.36C129.315 234.077 129.256 233.846 129.139 233.668C129.029 233.489 128.807 233.323 128.475 233.169C128.143 233.009 127.641 232.843 126.97 232.671C126.269 232.492 125.687 232.289 125.226 232.062C124.764 231.828 124.404 231.529 124.146 231.166C123.893 230.797 123.767 230.338 123.767 229.791C123.767 229.237 123.924 228.751 124.238 228.332C124.558 227.908 125.01 227.578 125.595 227.345C126.186 227.111 126.875 226.994 127.663 226.994C129.109 226.994 130.343 227.369 131.364 228.12L130.496 229.422C130.084 229.151 129.65 228.942 129.195 228.794C128.746 228.64 128.253 228.563 127.718 228.563C126.487 228.563 125.872 228.923 125.872 229.643C125.872 229.889 125.943 230.092 126.084 230.252C126.226 230.406 126.466 230.554 126.804 230.695C127.149 230.831 127.666 230.994 128.355 231.185C129.056 231.382 129.632 231.597 130.081 231.831C130.53 232.065 130.878 232.372 131.124 232.754C131.376 233.135 131.503 233.625 131.503 234.222C131.503 234.892 131.306 235.455 130.912 235.911C130.518 236.366 129.995 236.705 129.343 236.926C128.696 237.142 127.983 237.249 127.201 237.249C126.346 237.249 125.586 237.126 124.921 236.88C124.256 236.634 123.681 236.298 123.195 235.874L124.293 234.618C124.687 234.945 125.13 235.2 125.623 235.385C126.121 235.569 126.647 235.662 127.201 235.662ZM138.545 222.48C138.945 222.48 139.271 222.603 139.523 222.849C139.776 223.095 139.902 223.403 139.902 223.772C139.902 224.148 139.776 224.462 139.523 224.714C139.271 224.96 138.945 225.083 138.545 225.083C138.151 225.083 137.828 224.96 137.576 224.714C137.323 224.462 137.197 224.148 137.197 223.772C137.197 223.403 137.323 223.095 137.576 222.849C137.828 222.603 138.151 222.48 138.545 222.48ZM135.092 227.252H139.985V235.486H142.634V237H135V235.486H137.917V228.766H135.092V227.252ZM153.802 236.483C153.439 236.717 153.005 236.902 152.501 237.037C152.002 237.178 151.489 237.249 150.959 237.249C150.215 237.249 149.584 237.117 149.067 236.852C148.55 236.588 148.159 236.215 147.895 235.735C147.63 235.255 147.498 234.692 147.498 234.046V228.757H145.329V227.252H147.498V225.074L149.565 224.825V227.252H152.852L152.621 228.757H149.565V234.028C149.565 234.557 149.698 234.948 149.962 235.2C150.227 235.452 150.655 235.578 151.245 235.578C151.898 235.578 152.501 235.425 153.055 235.117L153.802 236.483ZM158.38 232.791C158.435 233.745 158.703 234.458 159.183 234.932C159.669 235.406 160.288 235.643 161.038 235.643C161.5 235.643 161.934 235.572 162.34 235.431C162.746 235.289 163.165 235.077 163.595 234.794L164.491 236.031C164.029 236.412 163.491 236.711 162.875 236.926C162.26 237.142 161.614 237.249 160.937 237.249C159.946 237.249 159.097 237.037 158.389 236.612C157.682 236.182 157.146 235.582 156.783 234.812C156.42 234.043 156.238 233.151 156.238 232.135C156.238 231.157 156.417 230.28 156.774 229.505C157.137 228.723 157.654 228.111 158.325 227.668C158.995 227.218 159.783 226.994 160.688 226.994C161.543 226.994 162.285 227.191 162.912 227.585C163.546 227.972 164.032 228.532 164.371 229.265C164.715 229.997 164.888 230.865 164.888 231.868C164.888 232.206 164.872 232.514 164.842 232.791H158.38ZM160.706 228.526C160.035 228.526 159.494 228.766 159.082 229.246C158.669 229.72 158.432 230.431 158.371 231.378H162.885C162.866 230.462 162.669 229.757 162.294 229.265C161.918 228.772 161.389 228.526 160.706 228.526ZM175.373 232.809H167.748V231.111H175.373V232.809ZM186.809 236.483C186.446 236.717 186.012 236.902 185.507 237.037C185.009 237.178 184.495 237.249 183.966 237.249C183.221 237.249 182.591 237.117 182.074 236.852C181.557 236.588 181.166 236.215 180.901 235.735C180.637 235.255 180.504 234.692 180.504 234.046V228.757H178.335V227.252H180.504V225.074L182.572 224.825V227.252H185.858L185.627 228.757H182.572V234.028C182.572 234.557 182.704 234.948 182.969 235.2C183.234 235.452 183.661 235.578 184.252 235.578C184.904 235.578 185.507 235.425 186.061 235.117L186.809 236.483ZM193.574 226.994C194.51 226.994 195.307 227.203 195.965 227.622C196.624 228.04 197.122 228.634 197.46 229.403C197.799 230.166 197.968 231.068 197.968 232.108C197.968 233.142 197.796 234.046 197.451 234.822C197.107 235.591 196.605 236.188 195.947 236.612C195.288 237.037 194.494 237.249 193.565 237.249C192.63 237.249 191.833 237.043 191.174 236.631C190.516 236.218 190.014 235.628 189.67 234.858C189.331 234.089 189.162 233.178 189.162 232.126C189.162 231.111 189.334 230.215 189.679 229.44C190.024 228.665 190.525 228.065 191.184 227.64C191.848 227.209 192.645 226.994 193.574 226.994ZM193.574 228.6C192.824 228.6 192.26 228.889 191.885 229.468C191.516 230.04 191.331 230.926 191.331 232.126C191.331 233.326 191.516 234.215 191.885 234.794C192.254 235.366 192.814 235.652 193.565 235.652C194.316 235.652 194.876 235.366 195.245 234.794C195.614 234.215 195.799 233.32 195.799 232.108C195.799 230.914 195.614 230.031 195.245 229.458C194.876 228.886 194.319 228.6 193.574 228.6ZM200.737 223.338L202.804 223.108V237H200.737V223.338ZM206.847 227.252H209.257L205.315 231.609L209.672 237H207.143L202.952 231.665L206.847 227.252ZM213.391 232.791C213.446 233.745 213.714 234.458 214.194 234.932C214.68 235.406 215.299 235.643 216.05 235.643C216.511 235.643 216.945 235.572 217.351 235.431C217.757 235.289 218.176 235.077 218.606 234.794L219.502 236.031C219.04 236.412 218.502 236.711 217.886 236.926C217.271 237.142 216.625 237.249 215.948 237.249C214.957 237.249 214.108 237.037 213.4 236.612C212.693 236.182 212.157 235.582 211.794 234.812C211.431 234.043 211.25 233.151 211.25 232.135C211.25 231.157 211.428 230.28 211.785 229.505C212.148 228.723 212.665 228.111 213.336 227.668C214.006 227.218 214.794 226.994 215.699 226.994C216.554 226.994 217.296 227.191 217.923 227.585C218.557 227.972 219.043 228.532 219.382 229.265C219.726 229.997 219.899 230.865 219.899 231.868C219.899 232.206 219.883 232.514 219.853 232.791H213.391ZM215.717 228.526C215.046 228.526 214.505 228.766 214.093 229.246C213.68 229.72 213.443 230.431 213.382 231.378H217.896C217.877 230.462 217.68 229.757 217.305 229.265C216.93 228.772 216.4 228.526 215.717 228.526ZM222.676 237V227.252H224.458L224.615 228.517C225.015 228.031 225.492 227.655 226.046 227.391C226.599 227.126 227.172 226.994 227.763 226.994C228.661 226.994 229.338 227.246 229.793 227.751C230.255 228.249 230.486 228.963 230.486 229.892V237H228.418V230.917C228.418 230.314 228.381 229.849 228.307 229.523C228.239 229.197 228.104 228.957 227.901 228.803C227.704 228.649 227.412 228.572 227.024 228.572C226.581 228.572 226.163 228.708 225.769 228.978C225.381 229.249 225.039 229.591 224.744 230.003V237H222.676ZM60.8 240.538H62.2769V251.8H67.1692V253.277H62.2769V268.231H60.8V240.538ZM66.9099 251.8H78.1714V253.277H66.9099V251.8ZM77.9121 251.8H89.1737V253.277H77.9121V251.8ZM99.3636 252.566C99.3636 254.966 98.8036 256.64 97.6836 257.588C96.5636 258.529 95.1513 259 93.4467 259H90.3267V246.262H93.2343C94.4036 246.262 95.4343 246.434 96.3267 246.778C97.2251 247.117 97.9543 247.751 98.5143 248.68C99.0805 249.609 99.3636 250.905 99.3636 252.566ZM97.1113 252.566C97.1113 251.298 96.9482 250.323 96.622 249.64C96.302 248.951 95.8897 248.489 95.3851 248.255C94.8867 248.022 94.3051 247.905 93.6405 247.905H92.4682V257.375H93.6497C95.9574 257.375 97.1113 255.772 97.1113 252.566ZM105.557 248.994C106.492 248.994 107.289 249.203 107.947 249.622C108.606 250.04 109.104 250.634 109.443 251.403C109.781 252.166 109.95 253.068 109.95 254.108C109.95 255.142 109.778 256.046 109.433 256.822C109.089 257.591 108.587 258.188 107.929 258.612C107.27 259.037 106.477 259.249 105.547 259.249C104.612 259.249 103.815 259.043 103.157 258.631C102.498 258.218 101.997 257.628 101.652 256.858C101.313 256.089 101.144 255.178 101.144 254.126C101.144 253.111 101.317 252.215 101.661 251.44C102.006 250.665 102.507 250.065 103.166 249.64C103.83 249.209 104.627 248.994 105.557 248.994ZM105.557 250.6C104.806 250.6 104.243 250.889 103.867 251.468C103.498 252.04 103.313 252.926 103.313 254.126C103.313 255.326 103.498 256.215 103.867 256.794C104.237 257.366 104.797 257.652 105.547 257.652C106.298 257.652 106.858 257.366 107.227 256.794C107.597 256.215 107.781 255.32 107.781 254.108C107.781 252.914 107.597 252.031 107.227 251.458C106.858 250.886 106.301 250.6 105.557 250.6ZM117.353 257.551C117.783 257.551 118.193 257.477 118.58 257.329C118.974 257.182 119.365 256.972 119.753 256.702L120.713 258.031C120.276 258.4 119.753 258.695 119.143 258.917C118.54 259.138 117.922 259.249 117.288 259.249C116.303 259.249 115.454 259.04 114.74 258.622C114.026 258.203 113.482 257.612 113.106 256.849C112.731 256.08 112.543 255.188 112.543 254.172C112.543 253.175 112.734 252.286 113.116 251.505C113.497 250.723 114.048 250.111 114.768 249.668C115.494 249.218 116.346 248.994 117.325 248.994C118.63 248.994 119.756 249.385 120.703 250.166L119.753 251.468C118.965 250.926 118.168 250.655 117.362 250.655C116.556 250.655 115.916 250.948 115.442 251.532C114.974 252.117 114.74 252.997 114.74 254.172C114.74 255.335 114.974 256.191 115.442 256.738C115.91 257.28 116.546 257.551 117.353 257.551ZM123.721 245.338L125.789 245.108V259H123.721V245.338ZM129.832 249.252H132.241L128.299 253.609L132.656 259H130.127L125.936 253.665L129.832 249.252ZM136.376 254.791C136.431 255.745 136.699 256.458 137.179 256.932C137.665 257.406 138.283 257.643 139.034 257.643C139.496 257.643 139.929 257.572 140.336 257.431C140.742 257.289 141.16 257.077 141.591 256.794L142.486 258.031C142.025 258.412 141.486 258.711 140.871 258.926C140.256 259.142 139.609 259.249 138.932 259.249C137.942 259.249 137.092 259.037 136.385 258.612C135.677 258.182 135.142 257.582 134.779 256.812C134.416 256.043 134.234 255.151 134.234 254.135C134.234 253.157 134.412 252.28 134.769 251.505C135.132 250.723 135.649 250.111 136.32 249.668C136.991 249.218 137.779 248.994 138.683 248.994C139.539 248.994 140.28 249.191 140.908 249.585C141.542 249.972 142.028 250.532 142.366 251.265C142.711 251.997 142.883 252.865 142.883 253.868C142.883 254.206 142.868 254.514 142.837 254.791H136.376ZM138.702 250.526C138.031 250.526 137.489 250.766 137.077 251.246C136.665 251.72 136.428 252.431 136.366 253.378H140.88C140.862 252.462 140.665 251.757 140.289 251.265C139.914 250.772 139.385 250.526 138.702 250.526ZM152.575 249.003C152.845 249.003 153.095 249.025 153.322 249.068C153.55 249.111 153.79 249.172 154.042 249.252L153.692 252.843H152.215V250.858C151.532 250.883 150.941 251.157 150.442 251.68C149.944 252.197 149.547 252.938 149.252 253.905V257.523H151.218V259H145.753V257.523H147.184V250.72H145.753V249.252H148.762L149.141 251.514C149.516 250.671 149.975 250.043 150.516 249.631C151.064 249.212 151.75 249.003 152.575 249.003ZM164.777 259H162.635V253.212H158.482V259H156.34V246.262H158.482V251.449H162.635V246.262H164.777V259ZM169.733 256.065C169.733 256.631 169.844 257.04 170.065 257.292C170.293 257.545 170.647 257.671 171.127 257.671C171.558 257.671 171.979 257.542 172.391 257.283C172.81 257.025 173.142 256.698 173.388 256.305V249.252H175.456V259H173.674L173.545 257.754C173.188 258.228 172.733 258.597 172.179 258.862C171.631 259.12 171.062 259.249 170.471 259.249C169.542 259.249 168.841 258.994 168.367 258.483C167.899 257.972 167.665 257.252 167.665 256.323V249.252H169.733V256.065ZM180.735 250.415C181.08 249.96 181.48 249.609 181.935 249.363C182.391 249.117 182.883 248.994 183.412 248.994C184.649 248.994 185.563 249.443 186.154 250.342C186.744 251.234 187.04 252.489 187.04 254.108C187.04 255.111 186.889 256 186.587 256.775C186.292 257.551 185.852 258.157 185.267 258.594C184.683 259.031 183.981 259.249 183.163 259.249C182.074 259.249 181.218 258.846 180.597 258.04L180.486 259H178.667V245.338L180.735 245.108V250.415ZM182.646 257.671C183.36 257.671 183.904 257.378 184.28 256.794C184.661 256.209 184.852 255.317 184.852 254.117C184.852 252.898 184.683 252.006 184.344 251.44C184.006 250.874 183.507 250.591 182.849 250.591C182.418 250.591 182.024 250.72 181.667 250.978C181.317 251.231 181.006 251.566 180.735 251.985V256.545C180.963 256.902 181.24 257.178 181.566 257.375C181.898 257.572 182.258 257.671 182.646 257.671ZM60.5969 264.385H62.48V286.538H60.5969V264.385ZM93.8067 262.538H95.2836V273.8H100.176V275.277H93.8067V262.538ZM99.9166 273.8H111.178V275.277H99.9166V273.8ZM110.919 273.8H122.18V275.277H110.919V273.8ZM128.623 268.003C129.453 268.003 130.167 268.111 130.764 268.326C131.361 268.535 131.927 268.862 132.463 269.305L131.346 270.634C130.589 270.006 129.715 269.692 128.724 269.692C128.053 269.692 127.453 269.858 126.924 270.191C126.395 270.523 125.973 271.055 125.659 271.788C125.352 272.52 125.198 273.462 125.198 274.612C125.198 276.286 125.518 277.523 126.158 278.323C126.798 279.117 127.653 279.514 128.724 279.514C129.339 279.514 129.869 279.418 130.312 279.228C130.755 279.031 131.189 278.76 131.613 278.415L132.647 279.735C132.179 280.197 131.613 280.566 130.949 280.843C130.29 281.114 129.524 281.249 128.65 281.249C127.555 281.249 126.579 280.994 125.724 280.483C124.869 279.966 124.195 279.209 123.703 278.212C123.216 277.215 122.973 276.015 122.973 274.612C122.973 273.228 123.223 272.037 123.721 271.04C124.219 270.043 124.896 269.289 125.752 268.778C126.613 268.262 127.57 268.003 128.623 268.003ZM134.723 268.262H142.385V269.895H139.634V279.357H142.385V281H134.723V279.357H137.474V269.895H134.723V268.262ZM153.369 276.071H145.744V274.372H153.369V276.071ZM163.678 281L162.792 277.935H158.242L157.355 281H155.177L159.229 268.262H161.888L165.949 281H163.678ZM160.522 269.923L158.685 276.283H162.34L160.522 269.923ZM172.631 268.003C173.462 268.003 174.176 268.111 174.773 268.326C175.37 268.535 175.936 268.862 176.471 269.305L175.354 270.634C174.598 270.006 173.724 269.692 172.733 269.692C172.062 269.692 171.462 269.858 170.933 270.191C170.404 270.523 169.982 271.055 169.668 271.788C169.361 272.52 169.207 273.462 169.207 274.612C169.207 276.286 169.527 277.523 170.167 278.323C170.807 279.117 171.662 279.514 172.733 279.514C173.348 279.514 173.878 279.418 174.321 279.228C174.764 279.031 175.198 278.76 175.622 278.415L176.656 279.735C176.188 280.197 175.622 280.566 174.958 280.843C174.299 281.114 173.533 281.249 172.659 281.249C171.564 281.249 170.588 280.994 169.733 280.483C168.878 279.966 168.204 279.209 167.711 278.212C167.225 277.215 166.982 276.015 166.982 274.612C166.982 273.228 167.231 272.037 167.73 271.04C168.228 270.043 168.905 269.289 169.761 268.778C170.622 268.262 171.579 268.003 172.631 268.003ZM183.634 268.003C184.464 268.003 185.178 268.111 185.775 268.326C186.372 268.535 186.938 268.862 187.474 269.305L186.357 270.634C185.6 270.006 184.726 269.692 183.735 269.692C183.064 269.692 182.464 269.858 181.935 270.191C181.406 270.523 180.984 271.055 180.671 271.788C180.363 272.52 180.209 273.462 180.209 274.612C180.209 276.286 180.529 277.523 181.169 278.323C181.809 279.117 182.664 279.514 183.735 279.514C184.351 279.514 184.88 279.418 185.323 279.228C185.766 279.031 186.2 278.76 186.624 278.415L187.658 279.735C187.191 280.197 186.624 280.566 185.96 280.843C185.301 281.114 184.535 281.249 183.661 281.249C182.566 281.249 181.591 280.994 180.735 280.483C179.88 279.966 179.206 279.209 178.714 278.212C178.227 277.215 177.984 276.015 177.984 274.612C177.984 273.228 178.234 272.037 178.732 271.04C179.231 270.043 179.907 269.289 180.763 268.778C181.624 268.262 182.581 268.003 183.634 268.003ZM197.534 269.886H192.254V273.717H196.87V275.342H192.254V279.375H197.876V281H190.113V268.262H197.774L197.534 269.886ZM209.155 277.4C209.155 278.157 208.961 278.828 208.573 279.412C208.192 279.991 207.635 280.443 206.903 280.769C206.17 281.089 205.303 281.249 204.3 281.249C203.297 281.249 202.404 281.102 201.623 280.806C200.841 280.505 200.17 280.083 199.61 279.542L200.783 278.231C201.25 278.662 201.77 278.991 202.343 279.218C202.921 279.446 203.57 279.56 204.29 279.56C204.783 279.56 205.226 279.483 205.62 279.329C206.02 279.169 206.337 278.935 206.57 278.628C206.81 278.32 206.93 277.945 206.93 277.502C206.93 277.12 206.853 276.8 206.7 276.542C206.546 276.283 206.281 276.052 205.906 275.849C205.53 275.646 205.001 275.443 204.318 275.24C203.377 274.957 202.607 274.649 202.01 274.317C201.42 273.985 200.97 273.588 200.663 273.126C200.361 272.658 200.21 272.098 200.21 271.446C200.21 270.769 200.398 270.169 200.773 269.646C201.155 269.123 201.678 268.72 202.343 268.437C203.007 268.148 203.755 268.003 204.586 268.003C205.478 268.003 206.272 268.132 206.967 268.391C207.669 268.649 208.297 269.031 208.85 269.535L207.724 270.809C207.287 270.428 206.813 270.145 206.303 269.96C205.792 269.775 205.263 269.683 204.715 269.683C204.032 269.683 203.475 269.825 203.044 270.108C202.62 270.391 202.407 270.797 202.407 271.326C202.407 271.665 202.497 271.948 202.675 272.175C202.86 272.403 203.161 272.615 203.58 272.812C203.998 273.009 204.601 273.225 205.389 273.458C206.189 273.698 206.86 273.972 207.401 274.28C207.943 274.582 208.37 274.988 208.684 275.498C208.998 276.003 209.155 276.637 209.155 277.4ZM220.157 277.4C220.157 278.157 219.963 278.828 219.576 279.412C219.194 279.991 218.637 280.443 217.905 280.769C217.173 281.089 216.305 281.249 215.302 281.249C214.299 281.249 213.406 281.102 212.625 280.806C211.843 280.505 211.173 280.083 210.613 279.542L211.785 278.231C212.253 278.662 212.773 278.991 213.345 279.218C213.923 279.446 214.573 279.56 215.293 279.56C215.785 279.56 216.228 279.483 216.622 279.329C217.022 279.169 217.339 278.935 217.573 278.628C217.813 278.32 217.933 277.945 217.933 277.502C217.933 277.12 217.856 276.8 217.702 276.542C217.548 276.283 217.283 276.052 216.908 275.849C216.533 275.646 216.003 275.443 215.32 275.24C214.379 274.957 213.61 274.649 213.013 274.317C212.422 273.985 211.973 273.588 211.665 273.126C211.363 272.658 211.213 272.098 211.213 271.446C211.213 270.769 211.4 270.169 211.776 269.646C212.157 269.123 212.68 268.72 213.345 268.437C214.01 268.148 214.757 268.003 215.588 268.003C216.48 268.003 217.274 268.132 217.97 268.391C218.671 268.649 219.299 269.031 219.853 269.535L218.726 270.809C218.29 270.428 217.816 270.145 217.305 269.96C216.794 269.775 216.265 269.683 215.717 269.683C215.034 269.683 214.477 269.825 214.046 270.108C213.622 270.391 213.41 270.797 213.41 271.326C213.41 271.665 213.499 271.948 213.677 272.175C213.862 272.403 214.163 272.615 214.582 272.812C215 273.009 215.603 273.225 216.391 273.458C217.191 273.698 217.862 273.972 218.403 274.28C218.945 274.582 219.373 274.988 219.686 275.498C220 276.003 220.157 276.637 220.157 277.4ZM230.384 276.071H222.759V274.372H230.384V276.071ZM242.309 269.988H238.617V281H236.476V269.988H232.654V268.262H242.531L242.309 269.988ZM253.422 274.631C253.422 275.954 253.238 277.114 252.868 278.111C252.499 279.102 251.952 279.874 251.225 280.428C250.499 280.975 249.616 281.249 248.576 281.249C247.53 281.249 246.644 280.982 245.918 280.446C245.192 279.905 244.644 279.142 244.275 278.157C243.912 277.166 243.73 275.997 243.73 274.649C243.73 273.326 243.915 272.166 244.284 271.169C244.653 270.166 245.201 269.388 245.927 268.834C246.653 268.28 247.536 268.003 248.576 268.003C249.622 268.003 250.508 268.274 251.235 268.815C251.961 269.357 252.505 270.126 252.868 271.123C253.238 272.114 253.422 273.283 253.422 274.631ZM251.207 274.631C251.207 272.951 250.998 271.705 250.579 270.892C250.167 270.08 249.499 269.674 248.576 269.674C247.653 269.674 246.982 270.083 246.564 270.902C246.152 271.72 245.945 272.969 245.945 274.649C245.945 276.317 246.155 277.557 246.573 278.369C246.998 279.175 247.665 279.578 248.576 279.578C249.505 279.578 250.176 279.175 250.588 278.369C251.001 277.557 251.207 276.311 251.207 274.631ZM257.797 268.262V281H255.655V268.262H257.797ZM262.458 281L257.889 274.197L262.32 268.262H264.674L260.215 274.049L265.025 281H262.458ZM274.55 269.886H269.27V273.717H273.885V275.342H269.27V279.375H274.891V281H267.128V268.262H274.79L274.55 269.886ZM278.961 270.163C279.041 271.006 279.112 271.84 279.174 272.665C279.235 273.483 279.266 274.332 279.266 275.212V281H277.364V268.262H280.143L284.204 279.108C284.001 277.237 283.9 275.557 283.9 274.068V268.262H285.801V281H283.014L278.961 270.163ZM60.8 284.538H62.2769V295.8H67.1692V297.277H62.2769V312.231H60.8V284.538ZM66.9099 295.8H78.1714V297.277H66.9099V295.8ZM77.9121 295.8H89.1737V297.277H77.9121V295.8ZM98.7636 303H96.622V297.212H92.4682V303H90.3267V290.262H92.4682V295.449H96.622V290.262H98.7636V303ZM109.101 300.609C109.101 300.985 109.157 301.262 109.267 301.44C109.384 301.618 109.575 301.751 109.84 301.837L109.378 303.24C108.88 303.185 108.461 303.049 108.123 302.834C107.784 302.618 107.529 302.305 107.357 301.892C107.006 302.335 106.56 302.674 106.018 302.908C105.477 303.135 104.886 303.249 104.246 303.249C103.593 303.249 103.024 303.123 102.538 302.871C102.058 302.618 101.689 302.265 101.43 301.809C101.172 301.354 101.043 300.825 101.043 300.222C101.043 299.194 101.443 298.403 102.243 297.849C103.049 297.295 104.193 297.018 105.677 297.018H107.07V296.382C107.07 295.766 106.886 295.317 106.517 295.034C106.147 294.751 105.609 294.609 104.901 294.609C104.563 294.609 104.166 294.652 103.71 294.738C103.255 294.825 102.787 294.951 102.307 295.117L101.8 293.658C102.39 293.437 102.978 293.271 103.563 293.16C104.147 293.049 104.698 292.994 105.215 292.994C106.501 292.994 107.47 293.277 108.123 293.843C108.775 294.409 109.101 295.215 109.101 296.262V300.609ZM104.873 301.726C105.298 301.726 105.707 301.615 106.101 301.394C106.501 301.166 106.824 300.855 107.07 300.462V298.311H105.926C104.984 298.311 104.295 298.468 103.858 298.782C103.427 299.089 103.212 299.538 103.212 300.129C103.212 300.652 103.35 301.049 103.627 301.32C103.91 301.591 104.326 301.726 104.873 301.726ZM116.199 301.662C116.851 301.662 117.365 301.548 117.74 301.32C118.122 301.086 118.313 300.766 118.313 300.36C118.313 300.077 118.254 299.846 118.137 299.668C118.026 299.489 117.805 299.323 117.473 299.169C117.14 299.009 116.639 298.843 115.968 298.671C115.266 298.492 114.685 298.289 114.223 298.062C113.762 297.828 113.402 297.529 113.143 297.166C112.891 296.797 112.765 296.338 112.765 295.791C112.765 295.237 112.922 294.751 113.236 294.332C113.556 293.908 114.008 293.578 114.593 293.345C115.183 293.111 115.873 292.994 116.66 292.994C118.106 292.994 119.34 293.369 120.362 294.12L119.494 295.422C119.082 295.151 118.648 294.942 118.193 294.794C117.743 294.64 117.251 294.563 116.716 294.563C115.485 294.563 114.87 294.923 114.87 295.643C114.87 295.889 114.94 296.092 115.082 296.252C115.223 296.406 115.463 296.554 115.802 296.695C116.146 296.831 116.663 296.994 117.353 297.185C118.054 297.382 118.63 297.597 119.079 297.831C119.528 298.065 119.876 298.372 120.122 298.754C120.374 299.135 120.5 299.625 120.5 300.222C120.5 300.892 120.303 301.455 119.91 301.911C119.516 302.366 118.993 302.705 118.34 302.926C117.694 303.142 116.98 303.249 116.199 303.249C115.343 303.249 114.583 303.126 113.919 302.88C113.254 302.634 112.679 302.298 112.193 301.874L113.291 300.618C113.685 300.945 114.128 301.2 114.62 301.385C115.119 301.569 115.645 301.662 116.199 301.662ZM125.724 294.443C126.112 293.969 126.567 293.609 127.09 293.363C127.619 293.117 128.17 292.994 128.743 292.994C129.647 292.994 130.327 293.246 130.783 293.751C131.238 294.249 131.466 294.963 131.466 295.892V303H129.398V296.215C129.398 295.631 129.287 295.212 129.066 294.96C128.85 294.702 128.493 294.572 127.995 294.572C127.564 294.572 127.149 294.711 126.749 294.988C126.355 295.265 126.013 295.612 125.724 296.031V303H123.656V289.357L125.724 289.135V294.443ZM138.545 288.48C138.945 288.48 139.271 288.603 139.523 288.849C139.776 289.095 139.902 289.403 139.902 289.772C139.902 290.148 139.776 290.462 139.523 290.714C139.271 290.96 138.945 291.083 138.545 291.083C138.151 291.083 137.828 290.96 137.576 290.714C137.323 290.462 137.197 290.148 137.197 289.772C137.197 289.403 137.323 289.095 137.576 288.849C137.828 288.603 138.151 288.48 138.545 288.48ZM135.092 293.252H139.985V301.486H142.634V303H135V301.486H137.917V294.766H135.092V293.252ZM150.627 290.003C151.458 290.003 152.172 290.111 152.769 290.326C153.365 290.535 153.932 290.862 154.467 291.305L153.35 292.634C152.593 292.006 151.719 291.692 150.729 291.692C150.058 291.692 149.458 291.858 148.929 292.191C148.399 292.523 147.978 293.055 147.664 293.788C147.356 294.52 147.202 295.462 147.202 296.612C147.202 298.286 147.522 299.523 148.162 300.323C148.802 301.117 149.658 301.514 150.729 301.514C151.344 301.514 151.873 301.418 152.316 301.228C152.759 301.031 153.193 300.76 153.618 300.415L154.652 301.735C154.184 302.197 153.618 302.566 152.953 302.843C152.295 303.114 151.529 303.249 150.655 303.249C149.559 303.249 148.584 302.994 147.729 302.483C146.873 301.966 146.199 301.209 145.707 300.212C145.221 299.215 144.978 298.015 144.978 296.612C144.978 295.228 145.227 294.037 145.725 293.04C146.224 292.043 146.901 291.289 147.756 290.778C148.618 290.262 149.575 290.003 150.627 290.003ZM160.568 292.994C161.503 292.994 162.3 293.203 162.958 293.622C163.617 294.04 164.115 294.634 164.454 295.403C164.792 296.166 164.962 297.068 164.962 298.108C164.962 299.142 164.789 300.046 164.445 300.822C164.1 301.591 163.598 302.188 162.94 302.612C162.282 303.037 161.488 303.249 160.558 303.249C159.623 303.249 158.826 303.043 158.168 302.631C157.509 302.218 157.008 301.628 156.663 300.858C156.325 300.089 156.155 299.178 156.155 298.126C156.155 297.111 156.328 296.215 156.672 295.44C157.017 294.665 157.518 294.065 158.177 293.64C158.842 293.209 159.638 292.994 160.568 292.994ZM160.568 294.6C159.817 294.6 159.254 294.889 158.878 295.468C158.509 296.04 158.325 296.926 158.325 298.126C158.325 299.326 158.509 300.215 158.878 300.794C159.248 301.366 159.808 301.652 160.558 301.652C161.309 301.652 161.869 301.366 162.238 300.794C162.608 300.215 162.792 299.32 162.792 298.108C162.792 296.914 162.608 296.031 162.238 295.458C161.869 294.886 161.312 294.6 160.568 294.6ZM174.579 293.003C174.85 293.003 175.099 293.025 175.327 293.068C175.554 293.111 175.794 293.172 176.047 293.252L175.696 296.843H174.219V294.858C173.536 294.883 172.945 295.157 172.447 295.68C171.948 296.197 171.551 296.938 171.256 297.905V301.523H173.222V303H167.758V301.523H169.188V294.72H167.758V293.252H170.767L171.145 295.514C171.521 294.671 171.979 294.043 172.521 293.631C173.068 293.212 173.754 293.003 174.579 293.003ZM183.421 292.994C185.784 292.994 186.966 294.698 186.966 298.108C186.966 299.117 186.821 300.009 186.532 300.785C186.249 301.554 185.824 302.157 185.258 302.594C184.698 303.031 184.015 303.249 183.209 303.249C182.187 303.249 181.363 302.889 180.735 302.169V306.748L178.667 306.978V293.252H180.467L180.597 294.508C180.96 294.009 181.384 293.634 181.871 293.382C182.357 293.123 182.874 292.994 183.421 292.994ZM182.849 294.591C182.418 294.591 182.024 294.72 181.667 294.978C181.317 295.231 181.006 295.566 180.735 295.985V300.545C181.221 301.271 181.864 301.634 182.664 301.634C183.372 301.634 183.904 301.351 184.261 300.785C184.618 300.212 184.797 299.323 184.797 298.117C184.797 296.886 184.637 295.991 184.317 295.431C183.997 294.871 183.507 294.591 182.849 294.591ZM60.5969 308.385H62.48V330.538H60.5969V308.385ZM93.8067 306.538H95.2836V317.8H100.176V319.277H93.8067V306.538ZM99.9166 317.8H111.178V319.277H99.9166V317.8ZM110.919 317.8H122.18V319.277H110.919V317.8ZM127.201 323.662C127.853 323.662 128.367 323.548 128.743 323.32C129.124 323.086 129.315 322.766 129.315 322.36C129.315 322.077 129.256 321.846 129.139 321.668C129.029 321.489 128.807 321.323 128.475 321.169C128.143 321.009 127.641 320.843 126.97 320.671C126.269 320.492 125.687 320.289 125.226 320.062C124.764 319.828 124.404 319.529 124.146 319.166C123.893 318.797 123.767 318.338 123.767 317.791C123.767 317.237 123.924 316.751 124.238 316.332C124.558 315.908 125.01 315.578 125.595 315.345C126.186 315.111 126.875 314.994 127.663 314.994C129.109 314.994 130.343 315.369 131.364 316.12L130.496 317.422C130.084 317.151 129.65 316.942 129.195 316.794C128.746 316.64 128.253 316.563 127.718 316.563C126.487 316.563 125.872 316.923 125.872 317.643C125.872 317.889 125.943 318.092 126.084 318.252C126.226 318.406 126.466 318.554 126.804 318.695C127.149 318.831 127.666 318.994 128.355 319.185C129.056 319.382 129.632 319.597 130.081 319.831C130.53 320.065 130.878 320.372 131.124 320.754C131.376 321.135 131.503 321.625 131.503 322.222C131.503 322.892 131.306 323.455 130.912 323.911C130.518 324.366 129.995 324.705 129.343 324.926C128.696 325.142 127.983 325.249 127.201 325.249C126.346 325.249 125.586 325.126 124.921 324.88C124.256 324.634 123.681 324.298 123.195 323.874L124.293 322.618C124.687 322.945 125.13 323.2 125.623 323.385C126.121 323.569 126.647 323.662 127.201 323.662ZM136.376 320.791C136.431 321.745 136.699 322.458 137.179 322.932C137.665 323.406 138.283 323.643 139.034 323.643C139.496 323.643 139.929 323.572 140.336 323.431C140.742 323.289 141.16 323.077 141.591 322.794L142.486 324.031C142.025 324.412 141.486 324.711 140.871 324.926C140.256 325.142 139.609 325.249 138.932 325.249C137.942 325.249 137.092 325.037 136.385 324.612C135.677 324.182 135.142 323.582 134.779 322.812C134.416 322.043 134.234 321.151 134.234 320.135C134.234 319.157 134.412 318.28 134.769 317.505C135.132 316.723 135.649 316.111 136.32 315.668C136.991 315.218 137.779 314.994 138.683 314.994C139.539 314.994 140.28 315.191 140.908 315.585C141.542 315.972 142.028 316.532 142.366 317.265C142.711 317.997 142.883 318.865 142.883 319.868C142.883 320.206 142.868 320.514 142.837 320.791H136.376ZM138.702 316.526C138.031 316.526 137.489 316.766 137.077 317.246C136.665 317.72 136.428 318.431 136.366 319.378H140.88C140.862 318.462 140.665 317.757 140.289 317.265C139.914 316.772 139.385 316.526 138.702 316.526ZM150.359 323.551C150.79 323.551 151.199 323.477 151.587 323.329C151.981 323.182 152.372 322.972 152.759 322.702L153.719 324.031C153.282 324.4 152.759 324.695 152.15 324.917C151.547 325.138 150.929 325.249 150.295 325.249C149.31 325.249 148.461 325.04 147.747 324.622C147.033 324.203 146.489 323.612 146.113 322.849C145.738 322.08 145.55 321.188 145.55 320.172C145.55 319.175 145.741 318.286 146.122 317.505C146.504 316.723 147.055 316.111 147.775 315.668C148.501 315.218 149.353 314.994 150.332 314.994C151.636 314.994 152.762 315.385 153.71 316.166L152.759 317.468C151.972 316.926 151.175 316.655 150.369 316.655C149.562 316.655 148.922 316.948 148.449 317.532C147.981 318.117 147.747 318.997 147.747 320.172C147.747 321.335 147.981 322.191 148.449 322.738C148.916 323.28 149.553 323.551 150.359 323.551ZM163.577 315.003C163.848 315.003 164.097 315.025 164.325 315.068C164.552 315.111 164.792 315.172 165.045 315.252L164.694 318.843H163.217V316.858C162.534 316.883 161.943 317.157 161.445 317.68C160.946 318.197 160.549 318.938 160.254 319.905V323.523H162.22V325H156.755V323.523H158.186V316.72H156.755V315.252H159.765L160.143 317.514C160.518 316.671 160.977 316.043 161.518 315.631C162.066 315.212 162.752 315.003 163.577 315.003ZM169.382 320.791C169.438 321.745 169.705 322.458 170.185 322.932C170.671 323.406 171.29 323.643 172.041 323.643C172.502 323.643 172.936 323.572 173.342 323.431C173.748 323.289 174.167 323.077 174.598 322.794L175.493 324.031C175.031 324.412 174.493 324.711 173.878 324.926C173.262 325.142 172.616 325.249 171.939 325.249C170.948 325.249 170.099 325.037 169.391 324.612C168.684 324.182 168.148 323.582 167.785 322.812C167.422 322.043 167.241 321.151 167.241 320.135C167.241 319.157 167.419 318.28 167.776 317.505C168.139 316.723 168.656 316.111 169.327 315.668C169.998 315.218 170.785 314.994 171.69 314.994C172.545 314.994 173.287 315.191 173.914 315.585C174.548 315.972 175.034 316.532 175.373 317.265C175.718 317.997 175.89 318.865 175.89 319.868C175.89 320.206 175.874 320.514 175.844 320.791H169.382ZM171.708 316.526C171.038 316.526 170.496 316.766 170.084 317.246C169.671 317.72 169.434 318.431 169.373 319.378H173.887C173.868 318.462 173.671 317.757 173.296 317.265C172.921 316.772 172.391 316.526 171.708 316.526ZM186.809 324.483C186.446 324.717 186.012 324.902 185.507 325.037C185.009 325.178 184.495 325.249 183.966 325.249C183.221 325.249 182.591 325.117 182.074 324.852C181.557 324.588 181.166 324.215 180.901 323.735C180.637 323.255 180.504 322.692 180.504 322.046V316.757H178.335V315.252H180.504V313.074L182.572 312.825V315.252H185.858L185.627 316.757H182.572V322.028C182.572 322.557 182.704 322.948 182.969 323.2C183.234 323.452 183.661 323.578 184.252 323.578C184.904 323.578 185.507 323.425 186.061 323.117L186.809 324.483ZM198.18 328.378H188.95V326.671H198.18V328.378ZM205.37 323.551C205.801 323.551 206.21 323.477 206.598 323.329C206.992 323.182 207.383 322.972 207.77 322.702L208.73 324.031C208.293 324.4 207.77 324.695 207.161 324.917C206.558 325.138 205.94 325.249 205.306 325.249C204.321 325.249 203.472 325.04 202.758 324.622C202.044 324.203 201.5 323.612 201.124 322.849C200.749 322.08 200.561 321.188 200.561 320.172C200.561 319.175 200.752 318.286 201.133 317.505C201.515 316.723 202.066 316.111 202.786 315.668C203.512 315.218 204.364 314.994 205.343 314.994C206.647 314.994 207.773 315.385 208.721 316.166L207.77 317.468C206.983 316.926 206.186 316.655 205.38 316.655C204.573 316.655 203.933 316.948 203.46 317.532C202.992 318.117 202.758 318.997 202.758 320.172C202.758 321.335 202.992 322.191 203.46 322.738C203.927 323.28 204.564 323.551 205.37 323.551ZM215.579 314.994C216.514 314.994 217.311 315.203 217.97 315.622C218.628 316.04 219.126 316.634 219.465 317.403C219.803 318.166 219.973 319.068 219.973 320.108C219.973 321.142 219.8 322.046 219.456 322.822C219.111 323.591 218.61 324.188 217.951 324.612C217.293 325.037 216.499 325.249 215.57 325.249C214.634 325.249 213.837 325.043 213.179 324.631C212.52 324.218 212.019 323.628 211.674 322.858C211.336 322.089 211.166 321.178 211.166 320.126C211.166 319.111 211.339 318.215 211.683 317.44C212.028 316.665 212.53 316.065 213.188 315.64C213.853 315.209 214.65 314.994 215.579 314.994ZM215.579 316.6C214.828 316.6 214.265 316.889 213.89 317.468C213.52 318.04 213.336 318.926 213.336 320.126C213.336 321.326 213.52 322.215 213.89 322.794C214.259 323.366 214.819 323.652 215.57 323.652C216.32 323.652 216.88 323.366 217.25 322.794C217.619 322.215 217.803 321.32 217.803 320.108C217.803 318.914 217.619 318.031 217.25 317.458C216.88 316.886 216.323 316.6 215.579 316.6ZM228.399 311.108L230.467 311.338V325H228.649L228.501 323.8C228.169 324.268 227.769 324.628 227.301 324.88C226.839 325.126 226.326 325.249 225.759 325.249C224.547 325.249 223.633 324.794 223.018 323.883C222.403 322.966 222.095 321.714 222.095 320.126C222.095 319.135 222.249 318.252 222.556 317.477C222.864 316.702 223.307 316.095 223.886 315.658C224.47 315.215 225.156 314.994 225.944 314.994C226.941 314.994 227.759 315.348 228.399 316.055V311.108ZM226.489 316.582C225.775 316.582 225.227 316.874 224.846 317.458C224.47 318.043 224.283 318.932 224.283 320.126C224.283 322.483 224.956 323.662 226.304 323.662C227.11 323.662 227.809 323.2 228.399 322.277V317.662C228.153 317.311 227.87 317.043 227.55 316.858C227.23 316.674 226.876 316.582 226.489 316.582ZM235.396 320.791C235.451 321.745 235.719 322.458 236.199 322.932C236.685 323.406 237.303 323.643 238.054 323.643C238.516 323.643 238.949 323.572 239.356 323.431C239.762 323.289 240.18 323.077 240.611 322.794L241.506 324.031C241.045 324.412 240.506 324.711 239.891 324.926C239.276 325.142 238.629 325.249 237.952 325.249C236.962 325.249 236.112 325.037 235.405 324.612C234.697 324.182 234.162 323.582 233.799 322.812C233.436 322.043 233.254 321.151 233.254 320.135C233.254 319.157 233.432 318.28 233.789 317.505C234.152 316.723 234.669 316.111 235.34 315.668C236.011 315.218 236.799 314.994 237.703 314.994C238.559 314.994 239.3 315.191 239.928 315.585C240.562 315.972 241.048 316.532 241.386 317.265C241.731 317.997 241.903 318.865 241.903 319.868C241.903 320.206 241.888 320.514 241.857 320.791H235.396ZM237.722 316.526C237.051 316.526 236.509 316.766 236.097 317.246C235.685 317.72 235.448 318.431 235.386 319.378H239.9C239.882 318.462 239.685 317.757 239.309 317.265C238.934 316.772 238.405 316.526 237.722 316.526ZM60.8 328.538H62.2769V339.8H67.1692V341.277H60.8V328.538ZM66.9099 339.8H78.1714V341.277H66.9099V339.8ZM77.9121 339.8H89.1737V341.277H77.9121V339.8ZM98.8928 334.262L99.6128 347H97.6559L97.3513 340.797C97.3143 339.892 97.2959 339.046 97.2959 338.258C97.2959 337.477 97.3113 336.772 97.342 336.145L95.4682 344.757H93.6036L91.5913 336.145C91.6467 336.988 91.6743 337.957 91.6743 339.052C91.6743 339.637 91.6651 340.225 91.6467 340.815L91.3974 347H89.4774L90.1974 334.262H92.7636L94.582 342.8L96.3174 334.262H98.8928ZM106.821 347.037C106.421 348.225 105.849 349.151 105.104 349.815C104.366 350.486 103.347 350.877 102.049 350.988L101.781 349.437C102.427 349.338 102.944 349.188 103.332 348.985C103.726 348.788 104.037 348.532 104.264 348.218C104.498 347.911 104.71 347.505 104.901 347H104.2L100.913 337.252H103.11L105.566 345.56L108.058 337.252H110.181L106.821 347.037ZM120.362 342.071H112.737V340.372H120.362V342.071ZM132.398 340.631C132.398 341.954 132.213 343.114 131.844 344.111C131.475 345.102 130.927 345.874 130.201 346.428C129.475 346.975 128.592 347.249 127.552 347.249C126.506 347.249 125.619 346.982 124.893 346.446C124.167 345.905 123.619 345.142 123.25 344.157C122.887 343.166 122.706 341.997 122.706 340.649C122.706 339.326 122.89 338.166 123.259 337.169C123.629 336.166 124.176 335.388 124.903 334.834C125.629 334.28 126.512 334.003 127.552 334.003C128.598 334.003 129.484 334.274 130.21 334.815C130.936 335.357 131.481 336.126 131.844 337.123C132.213 338.114 132.398 339.283 132.398 340.631ZM130.183 340.631C130.183 338.951 129.973 337.705 129.555 336.892C129.143 336.08 128.475 335.674 127.552 335.674C126.629 335.674 125.958 336.083 125.539 336.902C125.127 337.72 124.921 338.969 124.921 340.649C124.921 342.317 125.13 343.557 125.549 344.369C125.973 345.175 126.641 345.578 127.552 345.578C128.481 345.578 129.152 345.175 129.564 344.369C129.976 343.557 130.183 342.311 130.183 340.631ZM141.572 337.003C141.843 337.003 142.092 337.025 142.32 337.068C142.548 337.111 142.788 337.172 143.04 337.252L142.689 340.843H141.212V338.858C140.529 338.883 139.939 339.157 139.44 339.68C138.942 340.197 138.545 340.938 138.249 341.905V345.523H140.216V347H134.751V345.523H136.182V338.72H134.751V337.252H137.76L138.139 339.514C138.514 338.671 138.972 338.043 139.514 337.631C140.062 337.212 140.748 337.003 141.572 337.003ZM154.421 337.732C154.058 337.855 153.649 337.942 153.193 337.991C152.744 338.034 152.209 338.055 151.587 338.055C152.178 338.32 152.618 338.655 152.907 339.062C153.202 339.462 153.35 339.951 153.35 340.529C153.35 341.169 153.193 341.738 152.879 342.237C152.572 342.735 152.129 343.126 151.55 343.409C150.972 343.686 150.292 343.825 149.51 343.825C148.981 343.825 148.535 343.772 148.172 343.668C148.042 343.754 147.938 343.871 147.858 344.018C147.778 344.166 147.738 344.317 147.738 344.471C147.738 344.698 147.827 344.877 148.005 345.006C148.184 345.135 148.501 345.2 148.956 345.2H150.655C151.338 345.2 151.947 345.32 152.482 345.56C153.024 345.794 153.445 346.117 153.747 346.529C154.055 346.942 154.209 347.403 154.209 347.914C154.209 348.56 154.021 349.111 153.645 349.566C153.27 350.028 152.716 350.378 151.984 350.618C151.258 350.858 150.375 350.978 149.335 350.978C148.239 350.978 147.375 350.865 146.741 350.637C146.107 350.415 145.655 350.086 145.384 349.649C145.119 349.212 144.987 348.652 144.987 347.969H146.842C146.842 348.332 146.91 348.622 147.045 348.837C147.187 349.052 147.439 349.212 147.802 349.317C148.165 349.422 148.682 349.474 149.353 349.474C150.338 349.474 151.045 349.354 151.476 349.114C151.913 348.874 152.132 348.52 152.132 348.052C152.132 347.658 151.959 347.354 151.615 347.138C151.276 346.923 150.815 346.815 150.23 346.815H148.559C147.969 346.815 147.473 346.732 147.073 346.566C146.673 346.394 146.375 346.166 146.178 345.883C145.987 345.6 145.892 345.286 145.892 344.942C145.892 344.609 145.984 344.289 146.169 343.982C146.359 343.674 146.63 343.406 146.981 343.178C146.396 342.877 145.969 342.508 145.698 342.071C145.433 341.628 145.301 341.089 145.301 340.455C145.301 339.778 145.473 339.178 145.818 338.655C146.162 338.132 146.642 337.726 147.258 337.437C147.873 337.148 148.578 337.003 149.372 337.003C150.11 337.003 150.741 336.963 151.264 336.883C151.793 336.803 152.242 336.695 152.612 336.56C152.987 336.425 153.405 336.243 153.867 336.015L154.421 337.732ZM149.39 338.425C148.75 338.425 148.258 338.606 147.913 338.969C147.575 339.332 147.405 339.822 147.405 340.437C147.405 341.065 147.578 341.563 147.922 341.932C148.267 342.295 148.765 342.477 149.418 342.477C150.027 342.477 150.492 342.298 150.812 341.942C151.138 341.585 151.301 341.077 151.301 340.418C151.301 339.089 150.664 338.425 149.39 338.425ZM164.371 342.071H156.746V340.372H164.371V342.071ZM176.148 343.4C176.148 344.157 175.954 344.828 175.567 345.412C175.185 345.991 174.628 346.443 173.896 346.769C173.164 347.089 172.296 347.249 171.293 347.249C170.29 347.249 169.398 347.102 168.616 346.806C167.834 346.505 167.164 346.083 166.604 345.542L167.776 344.231C168.244 344.662 168.764 344.991 169.336 345.218C169.914 345.446 170.564 345.56 171.284 345.56C171.776 345.56 172.219 345.483 172.613 345.329C173.013 345.169 173.33 344.935 173.564 344.628C173.804 344.32 173.924 343.945 173.924 343.502C173.924 343.12 173.847 342.8 173.693 342.542C173.539 342.283 173.274 342.052 172.899 341.849C172.524 341.646 171.994 341.443 171.311 341.24C170.37 340.957 169.601 340.649 169.004 340.317C168.413 339.985 167.964 339.588 167.656 339.126C167.354 338.658 167.204 338.098 167.204 337.446C167.204 336.769 167.391 336.169 167.767 335.646C168.148 335.123 168.671 334.72 169.336 334.437C170.001 334.148 170.748 334.003 171.579 334.003C172.471 334.003 173.265 334.132 173.961 334.391C174.662 334.649 175.29 335.031 175.844 335.535L174.718 336.809C174.281 336.428 173.807 336.145 173.296 335.96C172.785 335.775 172.256 335.683 171.708 335.683C171.025 335.683 170.468 335.825 170.038 336.108C169.613 336.391 169.401 336.797 169.401 337.326C169.401 337.665 169.49 337.948 169.668 338.175C169.853 338.403 170.154 338.615 170.573 338.812C170.991 339.009 171.594 339.225 172.382 339.458C173.182 339.698 173.853 339.972 174.394 340.28C174.936 340.582 175.364 340.988 175.678 341.498C175.991 342.003 176.148 342.637 176.148 343.4ZM180.384 342.791C180.44 343.745 180.707 344.458 181.187 344.932C181.674 345.406 182.292 345.643 183.043 345.643C183.504 345.643 183.938 345.572 184.344 345.431C184.751 345.289 185.169 345.077 185.6 344.794L186.495 346.031C186.034 346.412 185.495 346.711 184.88 346.926C184.264 347.142 183.618 347.249 182.941 347.249C181.951 347.249 181.101 347.037 180.394 346.612C179.686 346.182 179.151 345.582 178.787 344.812C178.424 344.043 178.243 343.151 178.243 342.135C178.243 341.157 178.421 340.28 178.778 339.505C179.141 338.723 179.658 338.111 180.329 337.668C181 337.218 181.787 336.994 182.692 336.994C183.547 336.994 184.289 337.191 184.917 337.585C185.551 337.972 186.037 338.532 186.375 339.265C186.72 339.997 186.892 340.865 186.892 341.868C186.892 342.206 186.877 342.514 186.846 342.791H180.384ZM182.711 338.526C182.04 338.526 181.498 338.766 181.086 339.246C180.674 339.72 180.437 340.431 180.375 341.378H184.889C184.871 340.462 184.674 339.757 184.298 339.265C183.923 338.772 183.394 338.526 182.711 338.526ZM194.368 345.551C194.799 345.551 195.208 345.477 195.596 345.329C195.99 345.182 196.38 344.972 196.768 344.702L197.728 346.031C197.291 346.4 196.768 346.695 196.159 346.917C195.556 347.138 194.937 347.249 194.304 347.249C193.319 347.249 192.47 347.04 191.756 346.622C191.042 346.203 190.497 345.612 190.122 344.849C189.747 344.08 189.559 343.188 189.559 342.172C189.559 341.175 189.75 340.286 190.131 339.505C190.513 338.723 191.064 338.111 191.784 337.668C192.51 337.218 193.362 336.994 194.34 336.994C195.645 336.994 196.771 337.385 197.719 338.166L196.768 339.468C195.98 338.926 195.184 338.655 194.377 338.655C193.571 338.655 192.931 338.948 192.457 339.532C191.99 340.117 191.756 340.997 191.756 342.172C191.756 343.335 191.99 344.191 192.457 344.738C192.925 345.28 193.562 345.551 194.368 345.551ZM207.586 337.003C207.857 337.003 208.106 337.025 208.333 337.068C208.561 337.111 208.801 337.172 209.053 337.252L208.703 340.843H207.226V338.858C206.543 338.883 205.952 339.157 205.453 339.68C204.955 340.197 204.558 340.938 204.263 341.905V345.523H206.229V347H200.764V345.523H202.195V338.72H200.764V337.252H203.773L204.152 339.514C204.527 338.671 204.986 338.043 205.527 337.631C206.075 337.212 206.761 337.003 207.586 337.003ZM213.391 342.791C213.446 343.745 213.714 344.458 214.194 344.932C214.68 345.406 215.299 345.643 216.05 345.643C216.511 345.643 216.945 345.572 217.351 345.431C217.757 345.289 218.176 345.077 218.606 344.794L219.502 346.031C219.04 346.412 218.502 346.711 217.886 346.926C217.271 347.142 216.625 347.249 215.948 347.249C214.957 347.249 214.108 347.037 213.4 346.612C212.693 346.182 212.157 345.582 211.794 344.812C211.431 344.043 211.25 343.151 211.25 342.135C211.25 341.157 211.428 340.28 211.785 339.505C212.148 338.723 212.665 338.111 213.336 337.668C214.006 337.218 214.794 336.994 215.699 336.994C216.554 336.994 217.296 337.191 217.923 337.585C218.557 337.972 219.043 338.532 219.382 339.265C219.726 339.997 219.899 340.865 219.899 341.868C219.899 342.206 219.883 342.514 219.853 342.791H213.391ZM215.717 338.526C215.046 338.526 214.505 338.766 214.093 339.246C213.68 339.72 213.443 340.431 213.382 341.378H217.896C217.877 340.462 217.68 339.757 217.305 339.265C216.93 338.772 216.4 338.526 215.717 338.526ZM230.818 346.483C230.455 346.717 230.021 346.902 229.516 347.037C229.018 347.178 228.504 347.249 227.975 347.249C227.23 347.249 226.599 347.117 226.083 346.852C225.566 346.588 225.175 346.215 224.91 345.735C224.646 345.255 224.513 344.692 224.513 344.046V338.757H222.344V337.252H224.513V335.074L226.581 334.825V337.252H229.867L229.636 338.757H226.581V344.028C226.581 344.557 226.713 344.948 226.978 345.2C227.243 345.452 227.67 345.578 228.261 345.578C228.913 345.578 229.516 345.425 230.07 345.117L230.818 346.483Z" fill="black" />
    <defs>
        <filter id="filter0_d" x="0" y="0" width="560" height="476.11" filterUnits="userSpaceOnUse" color-interpolation-filters="sRGB">
            <feFlood flood-opacity="0" result="BackgroundImageFix" />
            <feColorMatrix in="SourceAlpha" type="matrix" values="0 0 0 0 0 0 0 0 0 0 0 0 0 0 0 0 0 0 127 0" />
            <feOffset dy="25" />
            <feGaussianBlur stdDeviation="15" />
            <feColorMatrix type="matrix" values="0 0 0 0 0 0 0 0 0 0 0 0 0 0 0 0 0 0 0.35 0" />
            <feBlend mode="normal" in2="BackgroundImageFix" result="effect1_dropShadow" />
            <feBlend mode="normal" in="SourceGraphic" in2="effect1_dropShadow" result="shape" />
        </filter>
    </defs>
</svg>
