<svg width="528" height="148" viewBox="0 0 528 148" fill="none" xmlns="http://www.w3.org/2000/svg">
    <path fill-rule="evenodd" clip-rule="evenodd" d="M131.588 8.19991C130.458 6.24442 128.937 4.5432 127.119 3.20275C125.302 1.8623 123.227 0.911491 121.025 0.409863C118.824 -0.0917647 116.542 -0.133413 114.323 0.287528C112.104 0.708468 109.996 1.58293 108.131 2.85616L7.16254 71.6968C3.74459 74.0278 1.33347 77.564 0.412089 81.5972C-0.509293 85.6304 0.127094 89.8629 2.19379 93.4468L6.38442 100.712C8.45347 104.298 11.8014 106.968 15.7568 108.189C19.7123 109.409 23.983 109.09 27.7125 107.294L137.822 54.2687C139.856 53.2896 141.666 51.9014 143.139 50.1908C144.612 48.4802 145.716 46.4841 146.382 44.3274C147.048 42.1706 147.262 39.8996 147.01 37.6564C146.758 35.4132 146.046 33.246 144.919 31.2905L131.588 8.19054V8.19991ZM116.053 14.4718C116.32 14.2888 116.621 14.1629 116.938 14.102C117.256 14.0411 117.582 14.0465 117.897 14.1178C118.212 14.1891 118.51 14.3248 118.77 14.5164C119.03 14.708 119.248 14.9514 119.409 15.2312L132.741 38.3312C132.902 38.6104 133.003 38.9198 133.039 39.24C133.075 39.5603 133.045 39.8845 132.95 40.1925C132.855 40.5004 132.697 40.7854 132.487 41.0297C132.277 41.2741 132.018 41.4724 131.728 41.6124L112.828 50.7062L98.7188 26.2843L116.063 14.4718H116.053ZM87.075 34.2343L100.116 56.828L49.3032 81.2968L40.4719 66.0155L87.0657 34.2343H87.075ZM28.8188 73.9562L15.075 83.3312C14.5914 83.6648 14.2507 84.168 14.1204 84.741C13.9902 85.314 14.08 85.915 14.3719 86.4249L18.5625 93.6905C18.8586 94.2023 19.337 94.5832 19.902 94.7571C20.4671 94.9309 21.0769 94.8848 21.6094 94.628L36.5907 87.4187L28.8094 73.9562H28.8188ZM87.4407 95.5749C86.4912 94.1886 85.0766 93.1882 83.4532 92.7548C81.8297 92.3214 80.1048 92.4838 78.5907 93.2124L61.6313 101.369C60.5239 101.905 59.5767 102.723 58.8844 103.741L39.675 131.791C39.153 132.553 38.7862 133.41 38.5956 134.314C38.405 135.218 38.3942 136.15 38.564 137.058C38.7337 137.966 39.0807 138.832 39.585 139.606C40.0893 140.38 40.7411 141.047 41.5032 141.569C42.2652 142.091 43.1227 142.457 44.0265 142.648C44.9303 142.839 45.8629 142.849 46.7708 142.68C47.6788 142.51 48.5445 142.163 49.3184 141.659C50.0923 141.154 50.7593 140.503 51.2813 139.741L68.9157 113.959V140.453C68.9157 142.318 69.6565 144.106 70.9751 145.425C72.2937 146.743 74.0821 147.484 75.9469 147.484C77.8117 147.484 79.6002 146.743 80.9188 145.425C82.2374 144.106 82.9782 142.318 82.9782 140.453V113.959L100.613 139.741C101.667 141.28 103.289 142.337 105.123 142.68C106.957 143.023 108.852 142.623 110.391 141.569C111.93 140.514 112.987 138.892 113.33 137.058C113.673 135.224 113.273 133.33 112.219 131.791L87.4313 95.5749H87.4407Z" fill="black" />
    <g filter="url(#filter0_d)">
        <path d="M240.22 27.39C250.1 27.39 258.637 29.2533 265.83 32.98C273.11 36.62 278.657 41.8633 282.47 48.71C286.37 55.5567 288.32 63.6167 288.32 72.89C288.32 82.1633 286.37 90.2233 282.47 97.07C278.657 103.83 273.11 109.03 265.83 112.67C258.637 116.223 250.1 118 240.22 118H212.01V27.39H240.22ZM240.22 108.25C251.92 108.25 260.847 105.173 267 99.02C273.153 92.78 276.23 84.07 276.23 72.89C276.23 61.6233 273.11 52.8267 266.87 46.5C260.717 40.1733 251.833 37.01 240.22 37.01H223.84V108.25H240.22ZM334.994 119.17C328.321 119.17 322.254 117.653 316.794 114.62C311.421 111.587 307.174 107.297 304.054 101.75C301.021 96.1167 299.504 89.6167 299.504 82.25C299.504 74.97 301.064 68.5567 304.184 63.01C307.391 57.3767 311.724 53.0867 317.184 50.14C322.644 47.1067 328.754 45.59 335.514 45.59C342.274 45.59 348.384 47.1067 353.844 50.14C359.304 53.0867 363.594 57.3333 366.714 62.88C369.921 68.4267 371.524 74.8833 371.524 82.25C371.524 89.6167 369.877 96.1167 366.584 101.75C363.377 107.297 359.001 111.587 353.454 114.62C347.907 117.653 341.754 119.17 334.994 119.17ZM334.994 108.77C339.241 108.77 343.227 107.773 346.954 105.78C350.681 103.787 353.671 100.797 355.924 96.81C358.264 92.8233 359.434 87.97 359.434 82.25C359.434 76.53 358.307 71.6767 356.054 67.69C353.801 63.7033 350.854 60.7567 347.214 58.85C343.574 56.8567 339.631 55.86 335.384 55.86C331.051 55.86 327.064 56.8567 323.424 58.85C319.871 60.7567 317.011 63.7033 314.844 67.69C312.677 71.6767 311.594 76.53 311.594 82.25C311.594 88.0567 312.634 92.9533 314.714 96.94C316.881 100.927 319.741 103.917 323.294 105.91C326.847 107.817 330.747 108.77 334.994 108.77ZM382.658 82.25C382.658 74.8833 384.132 68.47 387.078 63.01C390.025 57.4633 394.098 53.1733 399.298 50.14C404.585 47.1067 410.608 45.59 417.368 45.59C426.122 45.59 433.315 47.7133 438.948 51.96C444.668 56.2067 448.438 62.1 450.258 69.64H437.518C436.305 65.3067 433.922 61.8833 430.368 59.37C426.902 56.8567 422.568 55.6 417.368 55.6C410.608 55.6 405.148 57.94 400.988 62.62C396.828 67.2133 394.748 73.7567 394.748 82.25C394.748 90.83 396.828 97.46 400.988 102.14C405.148 106.82 410.608 109.16 417.368 109.16C422.568 109.16 426.902 107.947 430.368 105.52C433.835 103.093 436.218 99.6267 437.518 95.12H450.258C448.352 102.4 444.538 108.25 438.818 112.67C433.098 117.003 425.948 119.17 417.368 119.17C410.608 119.17 404.585 117.653 399.298 114.62C394.098 111.587 390.025 107.297 387.078 101.75C384.132 96.2033 382.658 89.7033 382.658 82.25ZM491.263 119.17C485.803 119.17 480.907 118.26 476.573 116.44C472.24 114.533 468.817 111.933 466.303 108.64C463.79 105.26 462.403 101.403 462.143 97.07H474.363C474.71 100.623 476.357 103.527 479.303 105.78C482.337 108.033 486.28 109.16 491.133 109.16C495.64 109.16 499.193 108.163 501.793 106.17C504.393 104.177 505.693 101.663 505.693 98.63C505.693 95.51 504.307 93.2133 501.533 91.74C498.76 90.18 494.47 88.6633 488.663 87.19C483.377 85.8033 479.043 84.4167 475.663 83.03C472.37 81.5567 469.51 79.4333 467.083 76.66C464.743 73.8 463.573 70.0733 463.573 65.48C463.573 61.84 464.657 58.5033 466.823 55.47C468.99 52.4367 472.067 50.0533 476.053 48.32C480.04 46.5 484.59 45.59 489.703 45.59C497.59 45.59 503.96 47.5833 508.813 51.57C513.667 55.5567 516.267 61.0167 516.613 67.95H504.783C504.523 64.2233 503.007 61.2333 500.233 58.98C497.547 56.7267 493.907 55.6 489.313 55.6C485.067 55.6 481.687 56.51 479.173 58.33C476.66 60.15 475.403 62.5333 475.403 65.48C475.403 67.82 476.14 69.77 477.613 71.33C479.173 72.8033 481.08 74.0167 483.333 74.97C485.673 75.8367 488.88 76.8333 492.953 77.96C498.067 79.3467 502.227 80.7333 505.433 82.12C508.64 83.42 511.37 85.4133 513.623 88.1C515.963 90.7867 517.177 94.2967 517.263 98.63C517.263 102.53 516.18 106.04 514.013 109.16C511.847 112.28 508.77 114.75 504.783 116.57C500.883 118.303 496.377 119.17 491.263 119.17Z" fill="black" />
    </g>
    <defs>
        <filter id="filter0_d" x="202.012" y="21.3899" width="325.253" height="111.78" filterUnits="userSpaceOnUse" color-interpolation-filters="sRGB">
            <feFlood flood-opacity="0" result="BackgroundImageFix" />
            <feColorMatrix in="SourceAlpha" type="matrix" values="0 0 0 0 0 0 0 0 0 0 0 0 0 0 0 0 0 0 127 0" />
            <feOffset dy="4" />
            <feGaussianBlur stdDeviation="5" />
            <feColorMatrix type="matrix" values="0 0 0 0 0 0 0 0 0 0 0 0 0 0 0 0 0 0 0.25 0" />
            <feBlend mode="normal" in2="BackgroundImageFix" result="effect1_dropShadow" />
            <feBlend mode="normal" in="SourceGraphic" in2="effect1_dropShadow" result="shape" />
        </filter>
    </defs>
</svg>
