<svg width="1040" height="1045" viewBox="0 0 1040 1045" fill="none" xmlns="http://www.w3.org/2000/svg">
    <g filter="url(#filter0_d)">
        <circle cx="520" cy="500" r="406.25" fill="white" />
        <path d="M873.555 146.445C779.115 52.0098 653.555 0 520 0C386.445 0 260.885 52.0098 166.445 146.445C72.0098 240.885 20 366.445 20 500C20 633.555 72.0098 759.115 166.445 853.555C260.885 947.99 386.445 1000 520 1000C653.555 1000 779.115 947.99 873.555 853.555C967.99 759.115 1020 633.555 1020 500C1020 366.445 967.99 240.885 873.555 146.445ZM520 882.334C309.182 882.334 137.666 710.82 137.666 500C137.666 289.18 309.182 117.668 520 117.668C730.818 117.668 902.334 289.182 902.334 500C902.334 710.818 730.818 882.334 520 882.334Z" fill="#7212ED" />
        <path d="M520.002 176.262C341.492 176.262 196.262 321.49 196.262 500C196.262 550.473 207.879 598.281 228.57 640.902L238.816 619.805C238.957 619.516 239.102 619.228 239.252 618.943C243.602 610.689 257.795 577.721 257.795 500C257.795 453.455 270.146 407.662 293.518 367.572C301.666 353.594 319.6 348.865 333.582 357.016C347.561 365.164 352.287 383.102 344.139 397.08C325.984 428.223 316.389 463.812 316.389 500C316.389 584.768 300.805 627.605 291.328 645.803L265.232 699.533C298.355 741.732 341.727 775.516 391.551 797.137C415.539 777.936 435.729 751.467 451.666 718.203C478.541 662.111 492.17 588.697 492.17 500C492.17 483.82 505.287 470.703 521.467 470.703C537.646 470.703 550.764 483.82 550.764 500C550.764 597.531 535.201 679.465 504.506 743.523C490.877 771.969 474.467 796.602 455.492 817.277C476.346 821.512 497.918 823.74 520.002 823.74C521.816 823.74 523.619 823.701 525.426 823.672C564.559 768.402 590.293 697.811 601.977 613.6C604.201 597.572 618.994 586.396 635.022 588.607C651.049 590.832 662.238 605.627 660.014 621.652C649.877 694.707 629.842 758.975 600.352 813.643C628.422 806.447 655.027 795.566 679.635 781.559C710.736 701.625 726.545 606.992 726.545 500C726.545 386.92 634.547 294.922 521.467 294.922C484.998 294.922 449.17 304.658 417.855 323.078C403.91 331.279 385.953 326.627 377.75 312.68C369.547 298.732 374.203 280.777 388.148 272.574C428.459 248.861 474.561 236.328 521.467 236.328C666.855 236.328 785.139 354.611 785.139 500C785.139 577.912 777.137 649.984 761.385 715.482C812.57 658.205 843.74 582.68 843.74 500C843.742 321.49 698.512 176.262 520.002 176.262ZM374.982 500C374.982 419.229 440.695 353.516 521.467 353.516C602.238 353.516 667.951 419.229 667.951 500C667.951 516.18 654.834 529.297 638.654 529.297C622.475 529.297 609.357 516.18 609.357 500C609.357 451.537 569.93 412.109 521.467 412.109C473.004 412.109 433.576 451.537 433.576 500C433.576 585.783 420.219 653.963 393.877 702.645C388.576 712.443 378.494 718.004 368.084 718.004C363.375 718.004 358.6 716.865 354.168 714.467C339.938 706.768 334.645 688.988 342.344 674.758C357.234 647.244 374.982 594.588 374.982 500Z" fill="#7212ED" />
    </g>
    <defs>
        <filter id="filter0_d" x="0" y="0" width="1040" height="1045" filterUnits="userSpaceOnUse" color-interpolation-filters="sRGB">
            <feFlood flood-opacity="0" result="BackgroundImageFix" />
            <feColorMatrix in="SourceAlpha" type="matrix" values="0 0 0 0 0 0 0 0 0 0 0 0 0 0 0 0 0 0 127 0" result="hardAlpha" />
            <feOffset dy="25" />
            <feGaussianBlur stdDeviation="10" />
            <feColorMatrix type="matrix" values="0 0 0 0 0 0 0 0 0 0 0 0 0 0 0 0 0 0 0.25 0" />
            <feBlend mode="normal" in2="BackgroundImageFix" result="effect1_dropShadow" />
            <feBlend mode="normal" in="SourceGraphic" in2="effect1_dropShadow" result="shape" />
        </filter>
    </defs>
</svg>
    