<svg width="1000" height="1000" viewBox="0 0 1000 1000" fill="none" xmlns="http://www.w3.org/2000/svg">
    <circle cx="500" cy="500" r="406.25" fill="white" />
    <path d="M853.555 146.445C759.115 52.0098 633.555 0 500 0C366.445 0 240.885 52.0098 146.445 146.445C52.0098 240.885 0 366.445 0 500C0 633.555 52.0098 759.115 146.445 853.555C240.885 947.99 366.445 1000 500 1000C633.555 1000 759.115 947.99 853.555 853.555C947.99 759.115 1000 633.555 1000 500C1000 366.445 947.99 240.885 853.555 146.445V146.445ZM500 882.334C289.182 882.334 117.666 710.82 117.666 500C117.666 289.18 289.182 117.668 500 117.668C710.818 117.668 882.334 289.182 882.334 500C882.334 710.818 710.818 882.334 500 882.334V882.334Z" fill="#1163E6" />
    <path d="M500.025 176.261C321.516 176.261 176.285 321.49 176.285 499.999C176.285 550.472 187.902 598.281 208.594 640.902L218.84 619.804C218.98 619.515 219.125 619.228 219.275 618.943C223.625 610.689 237.818 577.72 237.818 499.999C237.818 453.454 250.17 407.661 273.541 367.572C281.689 353.593 299.623 348.865 313.605 357.015C327.584 365.163 332.311 383.101 324.162 397.079C306.008 428.222 296.412 463.812 296.412 499.999C296.412 584.767 280.828 627.605 271.352 645.802L245.256 699.533C278.379 741.732 321.75 775.515 371.574 797.136C395.562 777.935 415.752 751.466 431.689 718.202C458.564 662.111 472.193 588.697 472.193 499.999C472.193 483.82 485.311 470.702 501.49 470.702C517.67 470.702 530.787 483.82 530.787 499.999C530.787 597.531 515.225 679.464 484.529 743.523C470.9 771.968 454.49 796.601 435.516 817.277C456.369 821.511 477.941 823.74 500.025 823.74C501.84 823.74 503.643 823.7 505.449 823.671C544.582 768.402 570.316 697.81 582 613.599C584.225 597.572 599.018 586.396 615.045 588.607C631.072 590.831 642.262 605.626 640.037 621.652C629.9 694.706 609.865 758.974 580.375 813.642C608.445 806.447 635.051 795.566 659.658 781.558C690.76 701.624 706.568 606.991 706.568 499.999C706.568 386.919 614.57 294.921 501.49 294.921C465.021 294.921 429.193 304.657 397.879 323.077C383.934 331.279 365.977 326.626 357.773 312.679C349.57 298.732 354.227 280.777 368.172 272.573C408.482 248.861 454.584 236.327 501.49 236.327C646.879 236.327 765.162 354.611 765.162 499.999C765.162 577.911 757.16 649.984 741.408 715.482C792.594 658.204 823.764 582.679 823.764 499.999C823.766 321.49 678.535 176.261 500.025 176.261V176.261ZM355.006 499.999C355.006 419.228 420.719 353.515 501.49 353.515C582.262 353.515 647.975 419.228 647.975 499.999C647.975 516.179 634.857 529.296 618.678 529.296C602.498 529.296 589.381 516.179 589.381 499.999C589.381 451.536 549.953 412.109 501.49 412.109C453.027 412.109 413.6 451.536 413.6 499.999C413.6 585.782 400.242 653.962 373.9 702.644C368.6 712.443 358.518 718.003 348.107 718.003C343.398 718.003 338.623 716.865 334.191 714.466C319.961 706.767 314.668 688.988 322.367 674.757C337.258 647.243 355.006 594.587 355.006 499.999Z" fill="#1163E6" />
</svg>
    