<svg width="1127" height="175" viewBox="0 0 1127 175" fill="none" xmlns="http://www.w3.org/2000/svg">
    <path d="M394.86 124.981C394.86 133.904 392.508 141.789 387.805 148.636C383.171 155.484 376.496 160.844 367.781 164.717C359.066 168.591 348.588 170.528 336.345 170.528C322.788 170.528 311.41 168.556 302.211 164.614C293.081 160.602 285.508 155.657 279.49 149.777L296.713 130.687C302.038 135.322 307.918 138.918 314.35 141.477C320.783 143.967 327.838 145.212 335.515 145.212C342.639 145.212 348.415 143.691 352.841 140.647C357.268 137.535 359.481 133.177 359.481 127.575C359.481 122.318 357.614 118.203 353.879 115.229C350.213 112.255 343.365 109.246 333.336 106.202C316.529 101.084 304.563 95.0667 297.439 88.15C290.384 81.1642 286.856 72.2071 286.856 61.2787C286.856 52.4946 289.277 44.99 294.119 38.765C299.03 32.54 305.6 27.8021 313.831 24.5512C322.062 21.2312 331.123 19.5712 341.014 19.5712C352.15 19.5712 361.971 21.1967 370.479 24.4475C378.986 27.6292 386.353 32.1942 392.578 38.1425L376.496 56.61C371.655 52.5292 366.433 49.5204 360.83 47.5837C355.228 45.5779 349.521 44.575 343.711 44.575C337.21 44.575 331.988 45.7854 328.045 48.2062C324.103 50.5579 322.131 54.0508 322.131 58.685C322.131 61.7283 322.996 64.2875 324.725 66.3625C326.454 68.4375 329.463 70.4087 333.751 72.2762C338.04 74.0746 343.988 76.1842 351.596 78.605C360.657 81.3717 368.404 84.6917 374.836 88.565C381.338 92.3692 386.283 97.1762 389.673 102.986C393.131 108.796 394.86 116.128 394.86 124.981ZM514.195 23.2025L522.288 167H492.615L490.851 105.476C490.644 97.8679 490.575 91.2625 490.644 85.66C490.782 80.0575 491.024 74.6971 491.37 69.5787C491.716 64.3912 492.131 58.5812 492.615 52.1488L476.43 142.515H450.7L433.27 52.1488C433.824 58.1662 434.273 63.8379 434.619 69.1637C434.965 74.4204 435.172 79.9537 435.241 85.7637C435.38 91.5737 435.38 98.3175 435.241 105.995L434.204 167H405.05L413.143 23.2025H448.106L464.084 116.162L479.231 23.2025H514.195ZM577.612 82.7031H653.296C655.458 82.7031 656.539 83.8852 656.539 86.2493V111.275C656.539 113.301 655.627 114.314 653.803 114.314H576.294C575.822 114.314 575.349 113.808 574.876 112.795V85.7427C574.876 83.7163 575.788 82.7031 577.612 82.7031ZM868.395 21.8108C870.422 21.8108 871.502 22.3512 871.637 23.4319C840.161 110.363 824.153 154.2 823.613 154.943C821.721 162.981 819.594 167 817.229 167H797.776L795.851 166.595C794.23 163.42 788.827 149.979 779.64 126.27C769.981 96.55 764.882 81.3522 764.341 80.6768H763.936C755.088 108.776 745.125 136.064 734.047 162.542C732.966 161.259 728.677 147.682 721.18 121.812C722.531 116.476 732.494 87.2962 751.069 34.2729C752.96 25.9648 755.088 21.8108 757.452 21.8108H771.636C772.244 21.8108 772.785 21.9459 773.257 22.2161C774.135 22.6889 777.074 30.4904 782.072 45.6206C798.418 95.8745 806.895 121.001 807.503 121.001H807.908L837.392 30.6255C838.473 24.749 840.06 21.8108 842.154 21.8108H868.395ZM886.126 21.7095H913.685C914.09 21.7095 914.495 22.3174 914.9 23.5332V165.075C914.9 165.683 914.495 166.291 913.685 166.899H886.126C885.721 166.899 885.315 166.291 884.91 165.075V23.5332C884.91 22.9253 885.315 22.3174 886.126 21.7095ZM998.691 21.5068H1025.44C1025.84 21.5068 1026.25 21.9121 1026.65 22.7227V165.784C1026.65 166.189 1026.25 166.595 1025.44 167H1000.62C998.657 167 993.929 161.225 986.431 149.675C948.673 98.7452 929.22 71.9296 928.072 69.2278V25.4583C928.139 24.9179 928.41 24.6477 928.882 24.6477C973.057 84.8984 995.786 115.665 997.07 116.949H997.475V22.7227C997.475 22.3174 997.88 21.9121 998.691 21.5068Z" fill="#108DE8" />
    <path fill-rule="evenodd" clip-rule="evenodd" d="M0 100C0 44.7715 44.7715 0 100 0C155.229 0 200 44.7715 200 100V165.625C200 170.802 195.802 175 190.625 175C185.447 175 181.25 170.802 181.25 165.625V100C181.25 55.1269 144.874 18.75 100 18.75C55.1269 18.75 18.75 55.1269 18.75 100V165.625C18.75 170.802 14.5526 175 9.375 175C4.19733 175 0 170.802 0 165.625V100ZM68.75 153.125C68.75 147.947 72.9474 143.75 78.125 143.75H121.875C127.052 143.75 131.25 147.947 131.25 153.125C131.25 158.302 127.052 162.5 121.875 162.5H78.125C72.9474 162.5 68.75 158.302 68.75 153.125ZM37.5 84.375C37.5 72.2937 47.2938 62.5 59.375 62.5H140.625C152.706 62.5 162.5 72.2937 162.5 84.375V103.125C162.5 115.206 152.706 125 140.625 125H59.375C47.2938 125 37.5 115.206 37.5 103.125V84.375ZM55.8709 77.7459C59.532 74.0847 65.468 74.0847 69.1291 77.7459L81.25 89.8667L93.3709 77.7459C97.032 74.0847 102.968 74.0847 106.629 77.7459L118.75 89.8667L130.871 77.7459C134.532 74.0847 140.467 74.0847 144.129 77.7459C147.79 81.407 147.79 87.343 144.129 91.0041L125.379 109.754C121.718 113.415 115.782 113.415 112.121 109.754L100 97.6332L87.8791 109.754C84.218 113.415 78.282 113.415 74.6209 109.754L55.8709 91.0041C52.2097 87.343 52.2097 81.407 55.8709 77.7459Z" fill="#24292E" />
</svg>
